G04 #@! TF.GenerationSoftware,KiCad,Pcbnew,5.0.2-bee76a0~70~ubuntu18.04.1*
G04 #@! TF.CreationDate,2020-02-03T17:56:43+02:00*
G04 #@! TF.ProjectId,Telemetry Board,54656c65-6d65-4747-9279-20426f617264,V1.4.1*
G04 #@! TF.SameCoordinates,Original*
G04 #@! TF.FileFunction,Soldermask,Bot*
G04 #@! TF.FilePolarity,Negative*
%FSLAX46Y46*%
G04 Gerber Fmt 4.6, Leading zero omitted, Abs format (unit mm)*
G04 Created by KiCad (PCBNEW 5.0.2-bee76a0~70~ubuntu18.04.1) date ma  3. helmikuuta 2020 17.56.43*
%MOMM*%
%LPD*%
G01*
G04 APERTURE LIST*
%ADD10C,0.100000*%
G04 APERTURE END LIST*
D10*
G36*
X109816000Y-114896000D02*
X108116000Y-114896000D01*
X108116000Y-113196000D01*
X109816000Y-113196000D01*
X109816000Y-114896000D01*
X109816000Y-114896000D01*
G37*
G36*
X121578630Y-113208299D02*
X121738855Y-113256903D01*
X121886520Y-113335831D01*
X122015949Y-113442051D01*
X122122169Y-113571480D01*
X122201097Y-113719145D01*
X122249701Y-113879370D01*
X122266112Y-114046000D01*
X122249701Y-114212630D01*
X122201097Y-114372855D01*
X122122169Y-114520520D01*
X122015949Y-114649949D01*
X121886520Y-114756169D01*
X121738855Y-114835097D01*
X121578630Y-114883701D01*
X121453752Y-114896000D01*
X121370248Y-114896000D01*
X121245370Y-114883701D01*
X121085145Y-114835097D01*
X120937480Y-114756169D01*
X120808051Y-114649949D01*
X120701831Y-114520520D01*
X120622903Y-114372855D01*
X120574299Y-114212630D01*
X120557888Y-114046000D01*
X120574299Y-113879370D01*
X120622903Y-113719145D01*
X120701831Y-113571480D01*
X120808051Y-113442051D01*
X120937480Y-113335831D01*
X121085145Y-113256903D01*
X121245370Y-113208299D01*
X121370248Y-113196000D01*
X121453752Y-113196000D01*
X121578630Y-113208299D01*
X121578630Y-113208299D01*
G37*
G36*
X124802000Y-114896000D02*
X123102000Y-114896000D01*
X123102000Y-113196000D01*
X124802000Y-113196000D01*
X124802000Y-114896000D01*
X124802000Y-114896000D01*
G37*
G36*
X119038630Y-113208299D02*
X119198855Y-113256903D01*
X119346520Y-113335831D01*
X119475949Y-113442051D01*
X119582169Y-113571480D01*
X119661097Y-113719145D01*
X119709701Y-113879370D01*
X119726112Y-114046000D01*
X119709701Y-114212630D01*
X119661097Y-114372855D01*
X119582169Y-114520520D01*
X119475949Y-114649949D01*
X119346520Y-114756169D01*
X119198855Y-114835097D01*
X119038630Y-114883701D01*
X118913752Y-114896000D01*
X118830248Y-114896000D01*
X118705370Y-114883701D01*
X118545145Y-114835097D01*
X118397480Y-114756169D01*
X118268051Y-114649949D01*
X118161831Y-114520520D01*
X118082903Y-114372855D01*
X118034299Y-114212630D01*
X118017888Y-114046000D01*
X118034299Y-113879370D01*
X118082903Y-113719145D01*
X118161831Y-113571480D01*
X118268051Y-113442051D01*
X118397480Y-113335831D01*
X118545145Y-113256903D01*
X118705370Y-113208299D01*
X118830248Y-113196000D01*
X118913752Y-113196000D01*
X119038630Y-113208299D01*
X119038630Y-113208299D01*
G37*
G36*
X116498630Y-113208299D02*
X116658855Y-113256903D01*
X116806520Y-113335831D01*
X116935949Y-113442051D01*
X117042169Y-113571480D01*
X117121097Y-113719145D01*
X117169701Y-113879370D01*
X117186112Y-114046000D01*
X117169701Y-114212630D01*
X117121097Y-114372855D01*
X117042169Y-114520520D01*
X116935949Y-114649949D01*
X116806520Y-114756169D01*
X116658855Y-114835097D01*
X116498630Y-114883701D01*
X116373752Y-114896000D01*
X116290248Y-114896000D01*
X116165370Y-114883701D01*
X116005145Y-114835097D01*
X115857480Y-114756169D01*
X115728051Y-114649949D01*
X115621831Y-114520520D01*
X115542903Y-114372855D01*
X115494299Y-114212630D01*
X115477888Y-114046000D01*
X115494299Y-113879370D01*
X115542903Y-113719145D01*
X115621831Y-113571480D01*
X115728051Y-113442051D01*
X115857480Y-113335831D01*
X116005145Y-113256903D01*
X116165370Y-113208299D01*
X116290248Y-113196000D01*
X116373752Y-113196000D01*
X116498630Y-113208299D01*
X116498630Y-113208299D01*
G37*
G36*
X104052630Y-113208299D02*
X104212855Y-113256903D01*
X104360520Y-113335831D01*
X104489949Y-113442051D01*
X104596169Y-113571480D01*
X104675097Y-113719145D01*
X104723701Y-113879370D01*
X104740112Y-114046000D01*
X104723701Y-114212630D01*
X104675097Y-114372855D01*
X104596169Y-114520520D01*
X104489949Y-114649949D01*
X104360520Y-114756169D01*
X104212855Y-114835097D01*
X104052630Y-114883701D01*
X103927752Y-114896000D01*
X103844248Y-114896000D01*
X103719370Y-114883701D01*
X103559145Y-114835097D01*
X103411480Y-114756169D01*
X103282051Y-114649949D01*
X103175831Y-114520520D01*
X103096903Y-114372855D01*
X103048299Y-114212630D01*
X103031888Y-114046000D01*
X103048299Y-113879370D01*
X103096903Y-113719145D01*
X103175831Y-113571480D01*
X103282051Y-113442051D01*
X103411480Y-113335831D01*
X103559145Y-113256903D01*
X103719370Y-113208299D01*
X103844248Y-113196000D01*
X103927752Y-113196000D01*
X104052630Y-113208299D01*
X104052630Y-113208299D01*
G37*
G36*
X106592630Y-113208299D02*
X106752855Y-113256903D01*
X106900520Y-113335831D01*
X107029949Y-113442051D01*
X107136169Y-113571480D01*
X107215097Y-113719145D01*
X107263701Y-113879370D01*
X107280112Y-114046000D01*
X107263701Y-114212630D01*
X107215097Y-114372855D01*
X107136169Y-114520520D01*
X107029949Y-114649949D01*
X106900520Y-114756169D01*
X106752855Y-114835097D01*
X106592630Y-114883701D01*
X106467752Y-114896000D01*
X106384248Y-114896000D01*
X106259370Y-114883701D01*
X106099145Y-114835097D01*
X105951480Y-114756169D01*
X105822051Y-114649949D01*
X105715831Y-114520520D01*
X105636903Y-114372855D01*
X105588299Y-114212630D01*
X105571888Y-114046000D01*
X105588299Y-113879370D01*
X105636903Y-113719145D01*
X105715831Y-113571480D01*
X105822051Y-113442051D01*
X105951480Y-113335831D01*
X106099145Y-113256903D01*
X106259370Y-113208299D01*
X106384248Y-113196000D01*
X106467752Y-113196000D01*
X106592630Y-113208299D01*
X106592630Y-113208299D01*
G37*
G36*
X101512630Y-113208299D02*
X101672855Y-113256903D01*
X101820520Y-113335831D01*
X101949949Y-113442051D01*
X102056169Y-113571480D01*
X102135097Y-113719145D01*
X102183701Y-113879370D01*
X102200112Y-114046000D01*
X102183701Y-114212630D01*
X102135097Y-114372855D01*
X102056169Y-114520520D01*
X101949949Y-114649949D01*
X101820520Y-114756169D01*
X101672855Y-114835097D01*
X101512630Y-114883701D01*
X101387752Y-114896000D01*
X101304248Y-114896000D01*
X101179370Y-114883701D01*
X101019145Y-114835097D01*
X100871480Y-114756169D01*
X100742051Y-114649949D01*
X100635831Y-114520520D01*
X100556903Y-114372855D01*
X100508299Y-114212630D01*
X100491888Y-114046000D01*
X100508299Y-113879370D01*
X100556903Y-113719145D01*
X100635831Y-113571480D01*
X100742051Y-113442051D01*
X100871480Y-113335831D01*
X101019145Y-113256903D01*
X101179370Y-113208299D01*
X101304248Y-113196000D01*
X101387752Y-113196000D01*
X101512630Y-113208299D01*
X101512630Y-113208299D01*
G37*
G36*
X100926000Y-111340000D02*
X99226000Y-111340000D01*
X99226000Y-109640000D01*
X100926000Y-109640000D01*
X100926000Y-111340000D01*
X100926000Y-111340000D01*
G37*
G36*
X100242630Y-107112299D02*
X100402855Y-107160903D01*
X100550520Y-107239831D01*
X100679949Y-107346051D01*
X100786169Y-107475480D01*
X100865097Y-107623145D01*
X100913701Y-107783370D01*
X100930112Y-107950000D01*
X100913701Y-108116630D01*
X100865097Y-108276855D01*
X100786169Y-108424520D01*
X100679949Y-108553949D01*
X100550520Y-108660169D01*
X100402855Y-108739097D01*
X100242630Y-108787701D01*
X100117752Y-108800000D01*
X100034248Y-108800000D01*
X99909370Y-108787701D01*
X99749145Y-108739097D01*
X99601480Y-108660169D01*
X99472051Y-108553949D01*
X99365831Y-108424520D01*
X99286903Y-108276855D01*
X99238299Y-108116630D01*
X99221888Y-107950000D01*
X99238299Y-107783370D01*
X99286903Y-107623145D01*
X99365831Y-107475480D01*
X99472051Y-107346051D01*
X99601480Y-107239831D01*
X99749145Y-107160903D01*
X99909370Y-107112299D01*
X100034248Y-107100000D01*
X100117752Y-107100000D01*
X100242630Y-107112299D01*
X100242630Y-107112299D01*
G37*
G36*
X108321000Y-106648000D02*
X107071000Y-106648000D01*
X107071000Y-105148000D01*
X108321000Y-105148000D01*
X108321000Y-106648000D01*
X108321000Y-106648000D01*
G37*
G36*
X120767000Y-106374000D02*
X119517000Y-106374000D01*
X119517000Y-104874000D01*
X120767000Y-104874000D01*
X120767000Y-106374000D01*
X120767000Y-106374000D01*
G37*
G36*
X100242630Y-104572299D02*
X100402855Y-104620903D01*
X100550520Y-104699831D01*
X100679949Y-104806051D01*
X100786169Y-104935480D01*
X100865097Y-105083145D01*
X100913701Y-105243370D01*
X100930112Y-105410000D01*
X100913701Y-105576630D01*
X100865097Y-105736855D01*
X100786169Y-105884520D01*
X100679949Y-106013949D01*
X100550520Y-106120169D01*
X100402855Y-106199097D01*
X100242630Y-106247701D01*
X100117752Y-106260000D01*
X100034248Y-106260000D01*
X99909370Y-106247701D01*
X99749145Y-106199097D01*
X99601480Y-106120169D01*
X99472051Y-106013949D01*
X99365831Y-105884520D01*
X99286903Y-105736855D01*
X99238299Y-105576630D01*
X99221888Y-105410000D01*
X99238299Y-105243370D01*
X99286903Y-105083145D01*
X99365831Y-104935480D01*
X99472051Y-104806051D01*
X99601480Y-104699831D01*
X99749145Y-104620903D01*
X99909370Y-104572299D01*
X100034248Y-104560000D01*
X100117752Y-104560000D01*
X100242630Y-104572299D01*
X100242630Y-104572299D01*
G37*
G36*
X108321000Y-104148000D02*
X107071000Y-104148000D01*
X107071000Y-102648000D01*
X108321000Y-102648000D01*
X108321000Y-104148000D01*
X108321000Y-104148000D01*
G37*
G36*
X120767000Y-103874000D02*
X119517000Y-103874000D01*
X119517000Y-102374000D01*
X120767000Y-102374000D01*
X120767000Y-103874000D01*
X120767000Y-103874000D01*
G37*
G36*
X100242630Y-102032299D02*
X100402855Y-102080903D01*
X100550520Y-102159831D01*
X100679949Y-102266051D01*
X100786169Y-102395480D01*
X100865097Y-102543145D01*
X100913701Y-102703370D01*
X100930112Y-102870000D01*
X100913701Y-103036630D01*
X100865097Y-103196855D01*
X100786169Y-103344520D01*
X100679949Y-103473949D01*
X100550520Y-103580169D01*
X100402855Y-103659097D01*
X100242630Y-103707701D01*
X100117752Y-103720000D01*
X100034248Y-103720000D01*
X99909370Y-103707701D01*
X99749145Y-103659097D01*
X99601480Y-103580169D01*
X99472051Y-103473949D01*
X99365831Y-103344520D01*
X99286903Y-103196855D01*
X99238299Y-103036630D01*
X99221888Y-102870000D01*
X99238299Y-102703370D01*
X99286903Y-102543145D01*
X99365831Y-102395480D01*
X99472051Y-102266051D01*
X99601480Y-102159831D01*
X99749145Y-102080903D01*
X99909370Y-102032299D01*
X100034248Y-102020000D01*
X100117752Y-102020000D01*
X100242630Y-102032299D01*
X100242630Y-102032299D01*
G37*
G36*
X101987324Y-97419768D02*
X102114562Y-97458365D01*
X102231825Y-97521043D01*
X102334607Y-97605395D01*
X102418959Y-97708177D01*
X102481637Y-97825440D01*
X102520234Y-97952678D01*
X102533267Y-98085001D01*
X102520234Y-98217324D01*
X102481637Y-98344562D01*
X102418959Y-98461825D01*
X102334607Y-98564607D01*
X102231825Y-98648959D01*
X102114562Y-98711637D01*
X101987324Y-98750234D01*
X101888160Y-98760001D01*
X101821842Y-98760001D01*
X101722678Y-98750234D01*
X101595440Y-98711637D01*
X101478177Y-98648959D01*
X101375395Y-98564607D01*
X101291043Y-98461825D01*
X101228365Y-98344562D01*
X101189768Y-98217324D01*
X101176735Y-98085001D01*
X101189768Y-97952678D01*
X101228365Y-97825440D01*
X101291043Y-97708177D01*
X101375395Y-97605395D01*
X101478177Y-97521043D01*
X101595440Y-97458365D01*
X101722678Y-97419768D01*
X101821842Y-97410001D01*
X101888160Y-97410001D01*
X101987324Y-97419768D01*
X101987324Y-97419768D01*
G37*
G36*
X123577324Y-97419768D02*
X123704562Y-97458365D01*
X123821825Y-97521043D01*
X123924607Y-97605395D01*
X124008959Y-97708177D01*
X124071637Y-97825440D01*
X124110234Y-97952678D01*
X124123267Y-98085001D01*
X124110234Y-98217324D01*
X124071637Y-98344562D01*
X124008959Y-98461825D01*
X123924607Y-98564607D01*
X123821825Y-98648959D01*
X123704562Y-98711637D01*
X123577324Y-98750234D01*
X123478160Y-98760001D01*
X123411842Y-98760001D01*
X123312678Y-98750234D01*
X123185440Y-98711637D01*
X123068177Y-98648959D01*
X122965395Y-98564607D01*
X122881043Y-98461825D01*
X122818365Y-98344562D01*
X122779768Y-98217324D01*
X122766735Y-98085001D01*
X122779768Y-97952678D01*
X122818365Y-97825440D01*
X122881043Y-97708177D01*
X122965395Y-97605395D01*
X123068177Y-97521043D01*
X123185440Y-97458365D01*
X123312678Y-97419768D01*
X123411842Y-97410001D01*
X123478160Y-97410001D01*
X123577324Y-97419768D01*
X123577324Y-97419768D01*
G37*
G36*
X107704000Y-97399000D02*
X106204000Y-97399000D01*
X106204000Y-96149000D01*
X107704000Y-96149000D01*
X107704000Y-97399000D01*
X107704000Y-97399000D01*
G37*
G36*
X110204000Y-97399000D02*
X108704000Y-97399000D01*
X108704000Y-96149000D01*
X110204000Y-96149000D01*
X110204000Y-97399000D01*
X110204000Y-97399000D01*
G37*
G36*
X123577324Y-95419768D02*
X123704562Y-95458365D01*
X123821825Y-95521043D01*
X123924607Y-95605395D01*
X124008959Y-95708177D01*
X124071637Y-95825440D01*
X124110234Y-95952678D01*
X124123267Y-96085001D01*
X124110234Y-96217324D01*
X124071637Y-96344562D01*
X124008959Y-96461825D01*
X123924607Y-96564607D01*
X123821825Y-96648959D01*
X123704562Y-96711637D01*
X123577324Y-96750234D01*
X123478160Y-96760001D01*
X123411842Y-96760001D01*
X123312678Y-96750234D01*
X123185440Y-96711637D01*
X123068177Y-96648959D01*
X122965395Y-96564607D01*
X122881043Y-96461825D01*
X122818365Y-96344562D01*
X122779768Y-96217324D01*
X122766735Y-96085001D01*
X122779768Y-95952678D01*
X122818365Y-95825440D01*
X122881043Y-95708177D01*
X122965395Y-95605395D01*
X123068177Y-95521043D01*
X123185440Y-95458365D01*
X123312678Y-95419768D01*
X123411842Y-95410001D01*
X123478160Y-95410001D01*
X123577324Y-95419768D01*
X123577324Y-95419768D01*
G37*
G36*
X101987324Y-95419768D02*
X102114562Y-95458365D01*
X102231825Y-95521043D01*
X102334607Y-95605395D01*
X102418959Y-95708177D01*
X102481637Y-95825440D01*
X102520234Y-95952678D01*
X102533267Y-96085001D01*
X102520234Y-96217324D01*
X102481637Y-96344562D01*
X102418959Y-96461825D01*
X102334607Y-96564607D01*
X102231825Y-96648959D01*
X102114562Y-96711637D01*
X101987324Y-96750234D01*
X101888160Y-96760001D01*
X101821842Y-96760001D01*
X101722678Y-96750234D01*
X101595440Y-96711637D01*
X101478177Y-96648959D01*
X101375395Y-96564607D01*
X101291043Y-96461825D01*
X101228365Y-96344562D01*
X101189768Y-96217324D01*
X101176735Y-96085001D01*
X101189768Y-95952678D01*
X101228365Y-95825440D01*
X101291043Y-95708177D01*
X101375395Y-95605395D01*
X101478177Y-95521043D01*
X101595440Y-95458365D01*
X101722678Y-95419768D01*
X101821842Y-95410001D01*
X101888160Y-95410001D01*
X101987324Y-95419768D01*
X101987324Y-95419768D01*
G37*
G36*
X121021000Y-95472000D02*
X119771000Y-95472000D01*
X119771000Y-93972000D01*
X121021000Y-93972000D01*
X121021000Y-95472000D01*
X121021000Y-95472000D01*
G37*
G36*
X109165818Y-93800833D02*
X109168053Y-93801511D01*
X109170107Y-93802609D01*
X109171911Y-93804089D01*
X109179374Y-93813183D01*
X109196701Y-93830510D01*
X109217076Y-93844123D01*
X109239715Y-93853501D01*
X109263749Y-93858281D01*
X109288253Y-93858281D01*
X109312286Y-93853500D01*
X109334925Y-93844123D01*
X109355300Y-93830509D01*
X109372626Y-93813183D01*
X109380089Y-93804089D01*
X109381893Y-93802609D01*
X109383947Y-93801511D01*
X109386182Y-93800833D01*
X109394640Y-93800000D01*
X109657360Y-93800000D01*
X109665818Y-93800833D01*
X109668053Y-93801511D01*
X109670107Y-93802609D01*
X109671911Y-93804089D01*
X109679374Y-93813183D01*
X109696701Y-93830510D01*
X109717076Y-93844123D01*
X109739715Y-93853501D01*
X109763749Y-93858281D01*
X109788253Y-93858281D01*
X109812286Y-93853500D01*
X109834925Y-93844123D01*
X109855300Y-93830509D01*
X109872626Y-93813183D01*
X109880089Y-93804089D01*
X109881893Y-93802609D01*
X109883947Y-93801511D01*
X109886182Y-93800833D01*
X109894640Y-93800000D01*
X110157360Y-93800000D01*
X110165818Y-93800833D01*
X110168053Y-93801511D01*
X110170107Y-93802609D01*
X110171911Y-93804089D01*
X110179374Y-93813183D01*
X110196701Y-93830510D01*
X110217076Y-93844123D01*
X110239715Y-93853501D01*
X110263749Y-93858281D01*
X110288253Y-93858281D01*
X110312286Y-93853500D01*
X110334925Y-93844123D01*
X110355300Y-93830509D01*
X110372626Y-93813183D01*
X110380089Y-93804089D01*
X110381893Y-93802609D01*
X110383947Y-93801511D01*
X110386182Y-93800833D01*
X110394640Y-93800000D01*
X110657360Y-93800000D01*
X110665818Y-93800833D01*
X110668053Y-93801511D01*
X110670107Y-93802609D01*
X110671911Y-93804089D01*
X110679374Y-93813183D01*
X110696701Y-93830510D01*
X110717076Y-93844123D01*
X110739715Y-93853501D01*
X110763749Y-93858281D01*
X110788253Y-93858281D01*
X110812286Y-93853500D01*
X110834925Y-93844123D01*
X110855300Y-93830509D01*
X110872626Y-93813183D01*
X110880089Y-93804089D01*
X110881893Y-93802609D01*
X110883947Y-93801511D01*
X110886182Y-93800833D01*
X110894640Y-93800000D01*
X111157360Y-93800000D01*
X111165818Y-93800833D01*
X111168053Y-93801511D01*
X111170107Y-93802609D01*
X111171911Y-93804089D01*
X111179374Y-93813183D01*
X111196701Y-93830510D01*
X111217076Y-93844123D01*
X111239715Y-93853501D01*
X111263749Y-93858281D01*
X111288253Y-93858281D01*
X111312286Y-93853500D01*
X111334925Y-93844123D01*
X111355300Y-93830509D01*
X111372626Y-93813183D01*
X111380089Y-93804089D01*
X111381893Y-93802609D01*
X111383947Y-93801511D01*
X111386182Y-93800833D01*
X111394640Y-93800000D01*
X111657360Y-93800000D01*
X111665818Y-93800833D01*
X111668053Y-93801511D01*
X111670107Y-93802609D01*
X111671911Y-93804089D01*
X111679374Y-93813183D01*
X111696701Y-93830510D01*
X111717076Y-93844123D01*
X111739715Y-93853501D01*
X111763749Y-93858281D01*
X111788253Y-93858281D01*
X111812286Y-93853500D01*
X111834925Y-93844123D01*
X111855300Y-93830509D01*
X111872626Y-93813183D01*
X111880089Y-93804089D01*
X111881893Y-93802609D01*
X111883947Y-93801511D01*
X111886182Y-93800833D01*
X111894640Y-93800000D01*
X112157360Y-93800000D01*
X112165818Y-93800833D01*
X112168053Y-93801511D01*
X112170107Y-93802609D01*
X112171911Y-93804089D01*
X112179374Y-93813183D01*
X112196701Y-93830510D01*
X112217076Y-93844123D01*
X112239715Y-93853501D01*
X112263749Y-93858281D01*
X112288253Y-93858281D01*
X112312286Y-93853500D01*
X112334925Y-93844123D01*
X112355300Y-93830509D01*
X112372626Y-93813183D01*
X112380089Y-93804089D01*
X112381893Y-93802609D01*
X112383947Y-93801511D01*
X112386182Y-93800833D01*
X112394640Y-93800000D01*
X112657360Y-93800000D01*
X112665818Y-93800833D01*
X112668053Y-93801511D01*
X112670107Y-93802609D01*
X112671911Y-93804089D01*
X112679374Y-93813183D01*
X112696701Y-93830510D01*
X112717076Y-93844123D01*
X112739715Y-93853501D01*
X112763749Y-93858281D01*
X112788253Y-93858281D01*
X112812286Y-93853500D01*
X112834925Y-93844123D01*
X112855300Y-93830509D01*
X112872626Y-93813183D01*
X112880089Y-93804089D01*
X112881893Y-93802609D01*
X112883947Y-93801511D01*
X112886182Y-93800833D01*
X112894640Y-93800000D01*
X113157360Y-93800000D01*
X113165818Y-93800833D01*
X113168053Y-93801511D01*
X113170107Y-93802609D01*
X113171911Y-93804089D01*
X113179374Y-93813183D01*
X113196701Y-93830510D01*
X113217076Y-93844123D01*
X113239715Y-93853501D01*
X113263749Y-93858281D01*
X113288253Y-93858281D01*
X113312286Y-93853500D01*
X113334925Y-93844123D01*
X113355300Y-93830509D01*
X113372626Y-93813183D01*
X113380089Y-93804089D01*
X113381893Y-93802609D01*
X113383947Y-93801511D01*
X113386182Y-93800833D01*
X113394640Y-93800000D01*
X113657360Y-93800000D01*
X113665818Y-93800833D01*
X113668053Y-93801511D01*
X113670107Y-93802609D01*
X113671911Y-93804089D01*
X113679374Y-93813183D01*
X113696701Y-93830510D01*
X113717076Y-93844123D01*
X113739715Y-93853501D01*
X113763749Y-93858281D01*
X113788253Y-93858281D01*
X113812286Y-93853500D01*
X113834925Y-93844123D01*
X113855300Y-93830509D01*
X113872626Y-93813183D01*
X113880089Y-93804089D01*
X113881893Y-93802609D01*
X113883947Y-93801511D01*
X113886182Y-93800833D01*
X113894640Y-93800000D01*
X114157360Y-93800000D01*
X114165818Y-93800833D01*
X114168053Y-93801511D01*
X114170107Y-93802609D01*
X114171911Y-93804089D01*
X114179374Y-93813183D01*
X114196701Y-93830510D01*
X114217076Y-93844123D01*
X114239715Y-93853501D01*
X114263749Y-93858281D01*
X114288253Y-93858281D01*
X114312286Y-93853500D01*
X114334925Y-93844123D01*
X114355300Y-93830509D01*
X114372626Y-93813183D01*
X114380089Y-93804089D01*
X114381893Y-93802609D01*
X114383947Y-93801511D01*
X114386182Y-93800833D01*
X114394640Y-93800000D01*
X114657360Y-93800000D01*
X114665818Y-93800833D01*
X114668053Y-93801511D01*
X114670107Y-93802609D01*
X114671911Y-93804089D01*
X114679374Y-93813183D01*
X114696701Y-93830510D01*
X114717076Y-93844123D01*
X114739715Y-93853501D01*
X114763749Y-93858281D01*
X114788253Y-93858281D01*
X114812286Y-93853500D01*
X114834925Y-93844123D01*
X114855300Y-93830509D01*
X114872626Y-93813183D01*
X114880089Y-93804089D01*
X114881893Y-93802609D01*
X114883947Y-93801511D01*
X114886182Y-93800833D01*
X114894640Y-93800000D01*
X115157360Y-93800000D01*
X115165818Y-93800833D01*
X115168053Y-93801511D01*
X115170107Y-93802609D01*
X115171911Y-93804089D01*
X115179374Y-93813183D01*
X115196701Y-93830510D01*
X115217076Y-93844123D01*
X115239715Y-93853501D01*
X115263749Y-93858281D01*
X115288253Y-93858281D01*
X115312286Y-93853500D01*
X115334925Y-93844123D01*
X115355300Y-93830509D01*
X115372626Y-93813183D01*
X115380089Y-93804089D01*
X115381893Y-93802609D01*
X115383947Y-93801511D01*
X115386182Y-93800833D01*
X115394640Y-93800000D01*
X115657360Y-93800000D01*
X115665818Y-93800833D01*
X115668053Y-93801511D01*
X115670107Y-93802609D01*
X115671911Y-93804089D01*
X115679374Y-93813183D01*
X115696701Y-93830510D01*
X115717076Y-93844123D01*
X115739715Y-93853501D01*
X115763749Y-93858281D01*
X115788253Y-93858281D01*
X115812286Y-93853500D01*
X115834925Y-93844123D01*
X115855300Y-93830509D01*
X115872626Y-93813183D01*
X115880089Y-93804089D01*
X115881893Y-93802609D01*
X115883947Y-93801511D01*
X115886182Y-93800833D01*
X115894640Y-93800000D01*
X116157360Y-93800000D01*
X116165818Y-93800833D01*
X116168053Y-93801511D01*
X116170107Y-93802609D01*
X116171911Y-93804089D01*
X116179374Y-93813183D01*
X116196701Y-93830510D01*
X116217076Y-93844123D01*
X116239715Y-93853501D01*
X116263749Y-93858281D01*
X116288253Y-93858281D01*
X116312286Y-93853500D01*
X116334925Y-93844123D01*
X116355300Y-93830509D01*
X116372626Y-93813183D01*
X116380089Y-93804089D01*
X116381893Y-93802609D01*
X116383947Y-93801511D01*
X116386182Y-93800833D01*
X116394640Y-93800000D01*
X116657360Y-93800000D01*
X116665818Y-93800833D01*
X116668053Y-93801511D01*
X116670107Y-93802609D01*
X116671911Y-93804089D01*
X116673391Y-93805893D01*
X116674489Y-93807947D01*
X116675167Y-93810182D01*
X116676000Y-93818640D01*
X116676000Y-95331360D01*
X116675167Y-95339818D01*
X116674489Y-95342053D01*
X116673391Y-95344107D01*
X116671911Y-95345911D01*
X116670107Y-95347391D01*
X116668053Y-95348489D01*
X116665818Y-95349167D01*
X116657360Y-95350000D01*
X116394640Y-95350000D01*
X116386182Y-95349167D01*
X116383947Y-95348489D01*
X116381893Y-95347391D01*
X116380089Y-95345911D01*
X116372626Y-95336817D01*
X116355299Y-95319490D01*
X116334924Y-95305877D01*
X116312285Y-95296499D01*
X116288251Y-95291719D01*
X116263747Y-95291719D01*
X116239714Y-95296500D01*
X116217075Y-95305877D01*
X116196700Y-95319491D01*
X116179374Y-95336817D01*
X116171911Y-95345911D01*
X116170107Y-95347391D01*
X116168053Y-95348489D01*
X116165818Y-95349167D01*
X116157360Y-95350000D01*
X115894640Y-95350000D01*
X115886182Y-95349167D01*
X115883947Y-95348489D01*
X115881893Y-95347391D01*
X115880089Y-95345911D01*
X115872626Y-95336817D01*
X115855299Y-95319490D01*
X115834924Y-95305877D01*
X115812285Y-95296499D01*
X115788251Y-95291719D01*
X115763747Y-95291719D01*
X115739714Y-95296500D01*
X115717075Y-95305877D01*
X115696700Y-95319491D01*
X115679374Y-95336817D01*
X115671911Y-95345911D01*
X115670107Y-95347391D01*
X115668053Y-95348489D01*
X115665818Y-95349167D01*
X115657360Y-95350000D01*
X115394640Y-95350000D01*
X115386182Y-95349167D01*
X115383947Y-95348489D01*
X115381893Y-95347391D01*
X115380089Y-95345911D01*
X115372626Y-95336817D01*
X115355299Y-95319490D01*
X115334924Y-95305877D01*
X115312285Y-95296499D01*
X115288251Y-95291719D01*
X115263747Y-95291719D01*
X115239714Y-95296500D01*
X115217075Y-95305877D01*
X115196700Y-95319491D01*
X115179374Y-95336817D01*
X115171911Y-95345911D01*
X115170107Y-95347391D01*
X115168053Y-95348489D01*
X115165818Y-95349167D01*
X115157360Y-95350000D01*
X114894640Y-95350000D01*
X114886182Y-95349167D01*
X114883947Y-95348489D01*
X114881893Y-95347391D01*
X114880089Y-95345911D01*
X114872626Y-95336817D01*
X114855299Y-95319490D01*
X114834924Y-95305877D01*
X114812285Y-95296499D01*
X114788251Y-95291719D01*
X114763747Y-95291719D01*
X114739714Y-95296500D01*
X114717075Y-95305877D01*
X114696700Y-95319491D01*
X114679374Y-95336817D01*
X114671911Y-95345911D01*
X114670107Y-95347391D01*
X114668053Y-95348489D01*
X114665818Y-95349167D01*
X114657360Y-95350000D01*
X114394640Y-95350000D01*
X114386182Y-95349167D01*
X114383947Y-95348489D01*
X114381893Y-95347391D01*
X114380089Y-95345911D01*
X114372626Y-95336817D01*
X114355299Y-95319490D01*
X114334924Y-95305877D01*
X114312285Y-95296499D01*
X114288251Y-95291719D01*
X114263747Y-95291719D01*
X114239714Y-95296500D01*
X114217075Y-95305877D01*
X114196700Y-95319491D01*
X114179374Y-95336817D01*
X114171911Y-95345911D01*
X114170107Y-95347391D01*
X114168053Y-95348489D01*
X114165818Y-95349167D01*
X114157360Y-95350000D01*
X113894640Y-95350000D01*
X113886182Y-95349167D01*
X113883947Y-95348489D01*
X113881893Y-95347391D01*
X113880089Y-95345911D01*
X113872626Y-95336817D01*
X113855299Y-95319490D01*
X113834924Y-95305877D01*
X113812285Y-95296499D01*
X113788251Y-95291719D01*
X113763747Y-95291719D01*
X113739714Y-95296500D01*
X113717075Y-95305877D01*
X113696700Y-95319491D01*
X113679374Y-95336817D01*
X113671911Y-95345911D01*
X113670107Y-95347391D01*
X113668053Y-95348489D01*
X113665818Y-95349167D01*
X113657360Y-95350000D01*
X113394640Y-95350000D01*
X113386182Y-95349167D01*
X113383947Y-95348489D01*
X113381893Y-95347391D01*
X113380089Y-95345911D01*
X113372626Y-95336817D01*
X113355299Y-95319490D01*
X113334924Y-95305877D01*
X113312285Y-95296499D01*
X113288251Y-95291719D01*
X113263747Y-95291719D01*
X113239714Y-95296500D01*
X113217075Y-95305877D01*
X113196700Y-95319491D01*
X113179374Y-95336817D01*
X113171911Y-95345911D01*
X113170107Y-95347391D01*
X113168053Y-95348489D01*
X113165818Y-95349167D01*
X113157360Y-95350000D01*
X112894640Y-95350000D01*
X112886182Y-95349167D01*
X112883947Y-95348489D01*
X112881893Y-95347391D01*
X112880089Y-95345911D01*
X112872626Y-95336817D01*
X112855299Y-95319490D01*
X112834924Y-95305877D01*
X112812285Y-95296499D01*
X112788251Y-95291719D01*
X112763747Y-95291719D01*
X112739714Y-95296500D01*
X112717075Y-95305877D01*
X112696700Y-95319491D01*
X112679374Y-95336817D01*
X112671911Y-95345911D01*
X112670107Y-95347391D01*
X112668053Y-95348489D01*
X112665818Y-95349167D01*
X112657360Y-95350000D01*
X112394640Y-95350000D01*
X112386182Y-95349167D01*
X112383947Y-95348489D01*
X112381893Y-95347391D01*
X112380089Y-95345911D01*
X112372626Y-95336817D01*
X112355299Y-95319490D01*
X112334924Y-95305877D01*
X112312285Y-95296499D01*
X112288251Y-95291719D01*
X112263747Y-95291719D01*
X112239714Y-95296500D01*
X112217075Y-95305877D01*
X112196700Y-95319491D01*
X112179374Y-95336817D01*
X112171911Y-95345911D01*
X112170107Y-95347391D01*
X112168053Y-95348489D01*
X112165818Y-95349167D01*
X112157360Y-95350000D01*
X111894640Y-95350000D01*
X111886182Y-95349167D01*
X111883947Y-95348489D01*
X111881893Y-95347391D01*
X111880089Y-95345911D01*
X111872626Y-95336817D01*
X111855299Y-95319490D01*
X111834924Y-95305877D01*
X111812285Y-95296499D01*
X111788251Y-95291719D01*
X111763747Y-95291719D01*
X111739714Y-95296500D01*
X111717075Y-95305877D01*
X111696700Y-95319491D01*
X111679374Y-95336817D01*
X111671911Y-95345911D01*
X111670107Y-95347391D01*
X111668053Y-95348489D01*
X111665818Y-95349167D01*
X111657360Y-95350000D01*
X111394640Y-95350000D01*
X111386182Y-95349167D01*
X111383947Y-95348489D01*
X111381893Y-95347391D01*
X111380089Y-95345911D01*
X111372626Y-95336817D01*
X111355299Y-95319490D01*
X111334924Y-95305877D01*
X111312285Y-95296499D01*
X111288251Y-95291719D01*
X111263747Y-95291719D01*
X111239714Y-95296500D01*
X111217075Y-95305877D01*
X111196700Y-95319491D01*
X111179374Y-95336817D01*
X111171911Y-95345911D01*
X111170107Y-95347391D01*
X111168053Y-95348489D01*
X111165818Y-95349167D01*
X111157360Y-95350000D01*
X110894640Y-95350000D01*
X110886182Y-95349167D01*
X110883947Y-95348489D01*
X110881893Y-95347391D01*
X110880089Y-95345911D01*
X110872626Y-95336817D01*
X110855299Y-95319490D01*
X110834924Y-95305877D01*
X110812285Y-95296499D01*
X110788251Y-95291719D01*
X110763747Y-95291719D01*
X110739714Y-95296500D01*
X110717075Y-95305877D01*
X110696700Y-95319491D01*
X110679374Y-95336817D01*
X110671911Y-95345911D01*
X110670107Y-95347391D01*
X110668053Y-95348489D01*
X110665818Y-95349167D01*
X110657360Y-95350000D01*
X110394640Y-95350000D01*
X110386182Y-95349167D01*
X110383947Y-95348489D01*
X110381893Y-95347391D01*
X110380089Y-95345911D01*
X110372626Y-95336817D01*
X110355299Y-95319490D01*
X110334924Y-95305877D01*
X110312285Y-95296499D01*
X110288251Y-95291719D01*
X110263747Y-95291719D01*
X110239714Y-95296500D01*
X110217075Y-95305877D01*
X110196700Y-95319491D01*
X110179374Y-95336817D01*
X110171911Y-95345911D01*
X110170107Y-95347391D01*
X110168053Y-95348489D01*
X110165818Y-95349167D01*
X110157360Y-95350000D01*
X109894640Y-95350000D01*
X109886182Y-95349167D01*
X109883947Y-95348489D01*
X109881893Y-95347391D01*
X109880089Y-95345911D01*
X109872626Y-95336817D01*
X109855299Y-95319490D01*
X109834924Y-95305877D01*
X109812285Y-95296499D01*
X109788251Y-95291719D01*
X109763747Y-95291719D01*
X109739714Y-95296500D01*
X109717075Y-95305877D01*
X109696700Y-95319491D01*
X109679374Y-95336817D01*
X109671911Y-95345911D01*
X109670107Y-95347391D01*
X109668053Y-95348489D01*
X109665818Y-95349167D01*
X109657360Y-95350000D01*
X109394640Y-95350000D01*
X109386182Y-95349167D01*
X109383947Y-95348489D01*
X109381893Y-95347391D01*
X109380089Y-95345911D01*
X109372626Y-95336817D01*
X109355299Y-95319490D01*
X109334924Y-95305877D01*
X109312285Y-95296499D01*
X109288251Y-95291719D01*
X109263747Y-95291719D01*
X109239714Y-95296500D01*
X109217075Y-95305877D01*
X109196700Y-95319491D01*
X109179374Y-95336817D01*
X109171911Y-95345911D01*
X109170107Y-95347391D01*
X109168053Y-95348489D01*
X109165818Y-95349167D01*
X109157360Y-95350000D01*
X108894640Y-95350000D01*
X108886182Y-95349167D01*
X108883947Y-95348489D01*
X108881893Y-95347391D01*
X108880089Y-95345911D01*
X108878609Y-95344107D01*
X108877511Y-95342053D01*
X108876833Y-95339818D01*
X108876000Y-95331360D01*
X108876000Y-93818640D01*
X108876833Y-93810182D01*
X108877511Y-93807947D01*
X108878609Y-93805893D01*
X108880089Y-93804089D01*
X108881893Y-93802609D01*
X108883947Y-93801511D01*
X108886182Y-93800833D01*
X108894640Y-93800000D01*
X109157360Y-93800000D01*
X109165818Y-93800833D01*
X109165818Y-93800833D01*
G37*
G36*
X123577324Y-93419768D02*
X123704562Y-93458365D01*
X123821825Y-93521043D01*
X123924607Y-93605395D01*
X124008959Y-93708177D01*
X124071637Y-93825440D01*
X124110234Y-93952678D01*
X124123267Y-94085001D01*
X124110234Y-94217324D01*
X124071637Y-94344562D01*
X124008959Y-94461825D01*
X123924607Y-94564607D01*
X123821825Y-94648959D01*
X123704562Y-94711637D01*
X123577324Y-94750234D01*
X123478160Y-94760001D01*
X123411842Y-94760001D01*
X123312678Y-94750234D01*
X123185440Y-94711637D01*
X123068177Y-94648959D01*
X122965395Y-94564607D01*
X122881043Y-94461825D01*
X122818365Y-94344562D01*
X122779768Y-94217324D01*
X122766735Y-94085001D01*
X122779768Y-93952678D01*
X122818365Y-93825440D01*
X122881043Y-93708177D01*
X122965395Y-93605395D01*
X123068177Y-93521043D01*
X123185440Y-93458365D01*
X123312678Y-93419768D01*
X123411842Y-93410001D01*
X123478160Y-93410001D01*
X123577324Y-93419768D01*
X123577324Y-93419768D01*
G37*
G36*
X101987324Y-93419768D02*
X102114562Y-93458365D01*
X102231825Y-93521043D01*
X102334607Y-93605395D01*
X102418959Y-93708177D01*
X102481637Y-93825440D01*
X102520234Y-93952678D01*
X102533267Y-94085001D01*
X102520234Y-94217324D01*
X102481637Y-94344562D01*
X102418959Y-94461825D01*
X102334607Y-94564607D01*
X102231825Y-94648959D01*
X102114562Y-94711637D01*
X101987324Y-94750234D01*
X101888160Y-94760001D01*
X101821842Y-94760001D01*
X101722678Y-94750234D01*
X101595440Y-94711637D01*
X101478177Y-94648959D01*
X101375395Y-94564607D01*
X101291043Y-94461825D01*
X101228365Y-94344562D01*
X101189768Y-94217324D01*
X101176735Y-94085001D01*
X101189768Y-93952678D01*
X101228365Y-93825440D01*
X101291043Y-93708177D01*
X101375395Y-93605395D01*
X101478177Y-93521043D01*
X101595440Y-93458365D01*
X101722678Y-93419768D01*
X101821842Y-93410001D01*
X101888160Y-93410001D01*
X101987324Y-93419768D01*
X101987324Y-93419768D01*
G37*
G36*
X121021000Y-92972000D02*
X119771000Y-92972000D01*
X119771000Y-91472000D01*
X121021000Y-91472000D01*
X121021000Y-92972000D01*
X121021000Y-92972000D01*
G37*
G36*
X107865818Y-85000833D02*
X107868053Y-85001511D01*
X107870107Y-85002609D01*
X107871911Y-85004089D01*
X107873391Y-85005893D01*
X107874489Y-85007947D01*
X107875167Y-85010182D01*
X107876000Y-85018640D01*
X107876000Y-85281360D01*
X107875167Y-85289818D01*
X107874489Y-85292053D01*
X107873391Y-85294107D01*
X107871911Y-85295911D01*
X107862817Y-85303374D01*
X107845490Y-85320701D01*
X107831877Y-85341076D01*
X107822499Y-85363715D01*
X107817719Y-85387749D01*
X107817719Y-85412253D01*
X107822500Y-85436286D01*
X107831877Y-85458925D01*
X107845491Y-85479300D01*
X107862817Y-85496626D01*
X107871911Y-85504089D01*
X107873391Y-85505893D01*
X107874489Y-85507947D01*
X107875167Y-85510182D01*
X107876000Y-85518640D01*
X107876000Y-85781360D01*
X107875167Y-85789818D01*
X107874489Y-85792053D01*
X107873391Y-85794107D01*
X107871911Y-85795911D01*
X107862817Y-85803374D01*
X107845490Y-85820701D01*
X107831877Y-85841076D01*
X107822499Y-85863715D01*
X107817719Y-85887749D01*
X107817719Y-85912253D01*
X107822500Y-85936286D01*
X107831877Y-85958925D01*
X107845491Y-85979300D01*
X107862817Y-85996626D01*
X107871911Y-86004089D01*
X107873391Y-86005893D01*
X107874489Y-86007947D01*
X107875167Y-86010182D01*
X107876000Y-86018640D01*
X107876000Y-86281360D01*
X107875167Y-86289818D01*
X107874489Y-86292053D01*
X107873391Y-86294107D01*
X107871911Y-86295911D01*
X107862817Y-86303374D01*
X107845490Y-86320701D01*
X107831877Y-86341076D01*
X107822499Y-86363715D01*
X107817719Y-86387749D01*
X107817719Y-86412253D01*
X107822500Y-86436286D01*
X107831877Y-86458925D01*
X107845491Y-86479300D01*
X107862817Y-86496626D01*
X107871911Y-86504089D01*
X107873391Y-86505893D01*
X107874489Y-86507947D01*
X107875167Y-86510182D01*
X107876000Y-86518640D01*
X107876000Y-86781360D01*
X107875167Y-86789818D01*
X107874489Y-86792053D01*
X107873391Y-86794107D01*
X107871911Y-86795911D01*
X107862817Y-86803374D01*
X107845490Y-86820701D01*
X107831877Y-86841076D01*
X107822499Y-86863715D01*
X107817719Y-86887749D01*
X107817719Y-86912253D01*
X107822500Y-86936286D01*
X107831877Y-86958925D01*
X107845491Y-86979300D01*
X107862817Y-86996626D01*
X107871911Y-87004089D01*
X107873391Y-87005893D01*
X107874489Y-87007947D01*
X107875167Y-87010182D01*
X107876000Y-87018640D01*
X107876000Y-87281360D01*
X107875167Y-87289818D01*
X107874489Y-87292053D01*
X107873391Y-87294107D01*
X107871911Y-87295911D01*
X107862817Y-87303374D01*
X107845490Y-87320701D01*
X107831877Y-87341076D01*
X107822499Y-87363715D01*
X107817719Y-87387749D01*
X107817719Y-87412253D01*
X107822500Y-87436286D01*
X107831877Y-87458925D01*
X107845491Y-87479300D01*
X107862817Y-87496626D01*
X107871911Y-87504089D01*
X107873391Y-87505893D01*
X107874489Y-87507947D01*
X107875167Y-87510182D01*
X107876000Y-87518640D01*
X107876000Y-87781360D01*
X107875167Y-87789818D01*
X107874489Y-87792053D01*
X107873391Y-87794107D01*
X107871911Y-87795911D01*
X107862817Y-87803374D01*
X107845490Y-87820701D01*
X107831877Y-87841076D01*
X107822499Y-87863715D01*
X107817719Y-87887749D01*
X107817719Y-87912253D01*
X107822500Y-87936286D01*
X107831877Y-87958925D01*
X107845491Y-87979300D01*
X107862817Y-87996626D01*
X107871911Y-88004089D01*
X107873391Y-88005893D01*
X107874489Y-88007947D01*
X107875167Y-88010182D01*
X107876000Y-88018640D01*
X107876000Y-88281360D01*
X107875167Y-88289818D01*
X107874489Y-88292053D01*
X107873391Y-88294107D01*
X107871911Y-88295911D01*
X107862817Y-88303374D01*
X107845490Y-88320701D01*
X107831877Y-88341076D01*
X107822499Y-88363715D01*
X107817719Y-88387749D01*
X107817719Y-88412253D01*
X107822500Y-88436286D01*
X107831877Y-88458925D01*
X107845491Y-88479300D01*
X107862817Y-88496626D01*
X107871911Y-88504089D01*
X107873391Y-88505893D01*
X107874489Y-88507947D01*
X107875167Y-88510182D01*
X107876000Y-88518640D01*
X107876000Y-88781360D01*
X107875167Y-88789818D01*
X107874489Y-88792053D01*
X107873391Y-88794107D01*
X107871911Y-88795911D01*
X107862817Y-88803374D01*
X107845490Y-88820701D01*
X107831877Y-88841076D01*
X107822499Y-88863715D01*
X107817719Y-88887749D01*
X107817719Y-88912253D01*
X107822500Y-88936286D01*
X107831877Y-88958925D01*
X107845491Y-88979300D01*
X107862817Y-88996626D01*
X107871911Y-89004089D01*
X107873391Y-89005893D01*
X107874489Y-89007947D01*
X107875167Y-89010182D01*
X107876000Y-89018640D01*
X107876000Y-89281360D01*
X107875167Y-89289818D01*
X107874489Y-89292053D01*
X107873391Y-89294107D01*
X107871911Y-89295911D01*
X107862817Y-89303374D01*
X107845490Y-89320701D01*
X107831877Y-89341076D01*
X107822499Y-89363715D01*
X107817719Y-89387749D01*
X107817719Y-89412253D01*
X107822500Y-89436286D01*
X107831877Y-89458925D01*
X107845491Y-89479300D01*
X107862817Y-89496626D01*
X107871911Y-89504089D01*
X107873391Y-89505893D01*
X107874489Y-89507947D01*
X107875167Y-89510182D01*
X107876000Y-89518640D01*
X107876000Y-89781360D01*
X107875167Y-89789818D01*
X107874489Y-89792053D01*
X107873391Y-89794107D01*
X107871911Y-89795911D01*
X107862817Y-89803374D01*
X107845490Y-89820701D01*
X107831877Y-89841076D01*
X107822499Y-89863715D01*
X107817719Y-89887749D01*
X107817719Y-89912253D01*
X107822500Y-89936286D01*
X107831877Y-89958925D01*
X107845491Y-89979300D01*
X107862817Y-89996626D01*
X107871911Y-90004089D01*
X107873391Y-90005893D01*
X107874489Y-90007947D01*
X107875167Y-90010182D01*
X107876000Y-90018640D01*
X107876000Y-90281360D01*
X107875167Y-90289818D01*
X107874489Y-90292053D01*
X107873391Y-90294107D01*
X107871911Y-90295911D01*
X107862817Y-90303374D01*
X107845490Y-90320701D01*
X107831877Y-90341076D01*
X107822499Y-90363715D01*
X107817719Y-90387749D01*
X107817719Y-90412253D01*
X107822500Y-90436286D01*
X107831877Y-90458925D01*
X107845491Y-90479300D01*
X107862817Y-90496626D01*
X107871911Y-90504089D01*
X107873391Y-90505893D01*
X107874489Y-90507947D01*
X107875167Y-90510182D01*
X107876000Y-90518640D01*
X107876000Y-90781360D01*
X107875167Y-90789818D01*
X107874489Y-90792053D01*
X107873391Y-90794107D01*
X107871911Y-90795911D01*
X107862817Y-90803374D01*
X107845490Y-90820701D01*
X107831877Y-90841076D01*
X107822499Y-90863715D01*
X107817719Y-90887749D01*
X107817719Y-90912253D01*
X107822500Y-90936286D01*
X107831877Y-90958925D01*
X107845491Y-90979300D01*
X107862817Y-90996626D01*
X107871911Y-91004089D01*
X107873391Y-91005893D01*
X107874489Y-91007947D01*
X107875167Y-91010182D01*
X107876000Y-91018640D01*
X107876000Y-91281360D01*
X107875167Y-91289818D01*
X107874489Y-91292053D01*
X107873391Y-91294107D01*
X107871911Y-91295911D01*
X107862817Y-91303374D01*
X107845490Y-91320701D01*
X107831877Y-91341076D01*
X107822499Y-91363715D01*
X107817719Y-91387749D01*
X107817719Y-91412253D01*
X107822500Y-91436286D01*
X107831877Y-91458925D01*
X107845491Y-91479300D01*
X107862817Y-91496626D01*
X107871911Y-91504089D01*
X107873391Y-91505893D01*
X107874489Y-91507947D01*
X107875167Y-91510182D01*
X107876000Y-91518640D01*
X107876000Y-91781360D01*
X107875167Y-91789818D01*
X107874489Y-91792053D01*
X107873391Y-91794107D01*
X107871911Y-91795911D01*
X107862817Y-91803374D01*
X107845490Y-91820701D01*
X107831877Y-91841076D01*
X107822499Y-91863715D01*
X107817719Y-91887749D01*
X107817719Y-91912253D01*
X107822500Y-91936286D01*
X107831877Y-91958925D01*
X107845491Y-91979300D01*
X107862817Y-91996626D01*
X107871911Y-92004089D01*
X107873391Y-92005893D01*
X107874489Y-92007947D01*
X107875167Y-92010182D01*
X107876000Y-92018640D01*
X107876000Y-92281360D01*
X107875167Y-92289818D01*
X107874489Y-92292053D01*
X107873391Y-92294107D01*
X107871911Y-92295911D01*
X107862817Y-92303374D01*
X107845490Y-92320701D01*
X107831877Y-92341076D01*
X107822499Y-92363715D01*
X107817719Y-92387749D01*
X107817719Y-92412253D01*
X107822500Y-92436286D01*
X107831877Y-92458925D01*
X107845491Y-92479300D01*
X107862817Y-92496626D01*
X107871911Y-92504089D01*
X107873391Y-92505893D01*
X107874489Y-92507947D01*
X107875167Y-92510182D01*
X107876000Y-92518640D01*
X107876000Y-92781360D01*
X107875167Y-92789818D01*
X107874489Y-92792053D01*
X107873391Y-92794107D01*
X107871911Y-92795911D01*
X107870107Y-92797391D01*
X107868053Y-92798489D01*
X107865818Y-92799167D01*
X107857360Y-92800000D01*
X106344640Y-92800000D01*
X106336182Y-92799167D01*
X106333947Y-92798489D01*
X106331893Y-92797391D01*
X106330089Y-92795911D01*
X106328609Y-92794107D01*
X106327511Y-92792053D01*
X106326833Y-92789818D01*
X106326000Y-92781360D01*
X106326000Y-92518640D01*
X106326833Y-92510182D01*
X106327511Y-92507947D01*
X106328609Y-92505893D01*
X106330089Y-92504089D01*
X106339183Y-92496626D01*
X106356510Y-92479299D01*
X106370123Y-92458924D01*
X106379501Y-92436285D01*
X106384281Y-92412251D01*
X106384281Y-92387747D01*
X106379500Y-92363714D01*
X106370123Y-92341075D01*
X106356509Y-92320700D01*
X106339183Y-92303374D01*
X106330089Y-92295911D01*
X106328609Y-92294107D01*
X106327511Y-92292053D01*
X106326833Y-92289818D01*
X106326000Y-92281360D01*
X106326000Y-92018640D01*
X106326833Y-92010182D01*
X106327511Y-92007947D01*
X106328609Y-92005893D01*
X106330089Y-92004089D01*
X106339183Y-91996626D01*
X106356510Y-91979299D01*
X106370123Y-91958924D01*
X106379501Y-91936285D01*
X106384281Y-91912251D01*
X106384281Y-91887747D01*
X106379500Y-91863714D01*
X106370123Y-91841075D01*
X106356509Y-91820700D01*
X106339183Y-91803374D01*
X106330089Y-91795911D01*
X106328609Y-91794107D01*
X106327511Y-91792053D01*
X106326833Y-91789818D01*
X106326000Y-91781360D01*
X106326000Y-91518640D01*
X106326833Y-91510182D01*
X106327511Y-91507947D01*
X106328609Y-91505893D01*
X106330089Y-91504089D01*
X106339183Y-91496626D01*
X106356510Y-91479299D01*
X106370123Y-91458924D01*
X106379501Y-91436285D01*
X106384281Y-91412251D01*
X106384281Y-91387747D01*
X106379500Y-91363714D01*
X106370123Y-91341075D01*
X106356509Y-91320700D01*
X106339183Y-91303374D01*
X106330089Y-91295911D01*
X106328609Y-91294107D01*
X106327511Y-91292053D01*
X106326833Y-91289818D01*
X106326000Y-91281360D01*
X106326000Y-91018640D01*
X106326833Y-91010182D01*
X106327511Y-91007947D01*
X106328609Y-91005893D01*
X106330089Y-91004089D01*
X106339183Y-90996626D01*
X106356510Y-90979299D01*
X106370123Y-90958924D01*
X106379501Y-90936285D01*
X106384281Y-90912251D01*
X106384281Y-90887747D01*
X106379500Y-90863714D01*
X106370123Y-90841075D01*
X106356509Y-90820700D01*
X106339183Y-90803374D01*
X106330089Y-90795911D01*
X106328609Y-90794107D01*
X106327511Y-90792053D01*
X106326833Y-90789818D01*
X106326000Y-90781360D01*
X106326000Y-90518640D01*
X106326833Y-90510182D01*
X106327511Y-90507947D01*
X106328609Y-90505893D01*
X106330089Y-90504089D01*
X106339183Y-90496626D01*
X106356510Y-90479299D01*
X106370123Y-90458924D01*
X106379501Y-90436285D01*
X106384281Y-90412251D01*
X106384281Y-90387747D01*
X106379500Y-90363714D01*
X106370123Y-90341075D01*
X106356509Y-90320700D01*
X106339183Y-90303374D01*
X106330089Y-90295911D01*
X106328609Y-90294107D01*
X106327511Y-90292053D01*
X106326833Y-90289818D01*
X106326000Y-90281360D01*
X106326000Y-90018640D01*
X106326833Y-90010182D01*
X106327511Y-90007947D01*
X106328609Y-90005893D01*
X106330089Y-90004089D01*
X106339183Y-89996626D01*
X106356510Y-89979299D01*
X106370123Y-89958924D01*
X106379501Y-89936285D01*
X106384281Y-89912251D01*
X106384281Y-89887747D01*
X106379500Y-89863714D01*
X106370123Y-89841075D01*
X106356509Y-89820700D01*
X106339183Y-89803374D01*
X106330089Y-89795911D01*
X106328609Y-89794107D01*
X106327511Y-89792053D01*
X106326833Y-89789818D01*
X106326000Y-89781360D01*
X106326000Y-89518640D01*
X106326833Y-89510182D01*
X106327511Y-89507947D01*
X106328609Y-89505893D01*
X106330089Y-89504089D01*
X106339183Y-89496626D01*
X106356510Y-89479299D01*
X106370123Y-89458924D01*
X106379501Y-89436285D01*
X106384281Y-89412251D01*
X106384281Y-89387747D01*
X106379500Y-89363714D01*
X106370123Y-89341075D01*
X106356509Y-89320700D01*
X106339183Y-89303374D01*
X106330089Y-89295911D01*
X106328609Y-89294107D01*
X106327511Y-89292053D01*
X106326833Y-89289818D01*
X106326000Y-89281360D01*
X106326000Y-89018640D01*
X106326833Y-89010182D01*
X106327511Y-89007947D01*
X106328609Y-89005893D01*
X106330089Y-89004089D01*
X106339183Y-88996626D01*
X106356510Y-88979299D01*
X106370123Y-88958924D01*
X106379501Y-88936285D01*
X106384281Y-88912251D01*
X106384281Y-88887747D01*
X106379500Y-88863714D01*
X106370123Y-88841075D01*
X106356509Y-88820700D01*
X106339183Y-88803374D01*
X106330089Y-88795911D01*
X106328609Y-88794107D01*
X106327511Y-88792053D01*
X106326833Y-88789818D01*
X106326000Y-88781360D01*
X106326000Y-88518640D01*
X106326833Y-88510182D01*
X106327511Y-88507947D01*
X106328609Y-88505893D01*
X106330089Y-88504089D01*
X106339183Y-88496626D01*
X106356510Y-88479299D01*
X106370123Y-88458924D01*
X106379501Y-88436285D01*
X106384281Y-88412251D01*
X106384281Y-88387747D01*
X106379500Y-88363714D01*
X106370123Y-88341075D01*
X106356509Y-88320700D01*
X106339183Y-88303374D01*
X106330089Y-88295911D01*
X106328609Y-88294107D01*
X106327511Y-88292053D01*
X106326833Y-88289818D01*
X106326000Y-88281360D01*
X106326000Y-88018640D01*
X106326833Y-88010182D01*
X106327511Y-88007947D01*
X106328609Y-88005893D01*
X106330089Y-88004089D01*
X106339183Y-87996626D01*
X106356510Y-87979299D01*
X106370123Y-87958924D01*
X106379501Y-87936285D01*
X106384281Y-87912251D01*
X106384281Y-87887747D01*
X106379500Y-87863714D01*
X106370123Y-87841075D01*
X106356509Y-87820700D01*
X106339183Y-87803374D01*
X106330089Y-87795911D01*
X106328609Y-87794107D01*
X106327511Y-87792053D01*
X106326833Y-87789818D01*
X106326000Y-87781360D01*
X106326000Y-87518640D01*
X106326833Y-87510182D01*
X106327511Y-87507947D01*
X106328609Y-87505893D01*
X106330089Y-87504089D01*
X106339183Y-87496626D01*
X106356510Y-87479299D01*
X106370123Y-87458924D01*
X106379501Y-87436285D01*
X106384281Y-87412251D01*
X106384281Y-87387747D01*
X106379500Y-87363714D01*
X106370123Y-87341075D01*
X106356509Y-87320700D01*
X106339183Y-87303374D01*
X106330089Y-87295911D01*
X106328609Y-87294107D01*
X106327511Y-87292053D01*
X106326833Y-87289818D01*
X106326000Y-87281360D01*
X106326000Y-87018640D01*
X106326833Y-87010182D01*
X106327511Y-87007947D01*
X106328609Y-87005893D01*
X106330089Y-87004089D01*
X106339183Y-86996626D01*
X106356510Y-86979299D01*
X106370123Y-86958924D01*
X106379501Y-86936285D01*
X106384281Y-86912251D01*
X106384281Y-86887747D01*
X106379500Y-86863714D01*
X106370123Y-86841075D01*
X106356509Y-86820700D01*
X106339183Y-86803374D01*
X106330089Y-86795911D01*
X106328609Y-86794107D01*
X106327511Y-86792053D01*
X106326833Y-86789818D01*
X106326000Y-86781360D01*
X106326000Y-86518640D01*
X106326833Y-86510182D01*
X106327511Y-86507947D01*
X106328609Y-86505893D01*
X106330089Y-86504089D01*
X106339183Y-86496626D01*
X106356510Y-86479299D01*
X106370123Y-86458924D01*
X106379501Y-86436285D01*
X106384281Y-86412251D01*
X106384281Y-86387747D01*
X106379500Y-86363714D01*
X106370123Y-86341075D01*
X106356509Y-86320700D01*
X106339183Y-86303374D01*
X106330089Y-86295911D01*
X106328609Y-86294107D01*
X106327511Y-86292053D01*
X106326833Y-86289818D01*
X106326000Y-86281360D01*
X106326000Y-86018640D01*
X106326833Y-86010182D01*
X106327511Y-86007947D01*
X106328609Y-86005893D01*
X106330089Y-86004089D01*
X106339183Y-85996626D01*
X106356510Y-85979299D01*
X106370123Y-85958924D01*
X106379501Y-85936285D01*
X106384281Y-85912251D01*
X106384281Y-85887747D01*
X106379500Y-85863714D01*
X106370123Y-85841075D01*
X106356509Y-85820700D01*
X106339183Y-85803374D01*
X106330089Y-85795911D01*
X106328609Y-85794107D01*
X106327511Y-85792053D01*
X106326833Y-85789818D01*
X106326000Y-85781360D01*
X106326000Y-85518640D01*
X106326833Y-85510182D01*
X106327511Y-85507947D01*
X106328609Y-85505893D01*
X106330089Y-85504089D01*
X106339183Y-85496626D01*
X106356510Y-85479299D01*
X106370123Y-85458924D01*
X106379501Y-85436285D01*
X106384281Y-85412251D01*
X106384281Y-85387747D01*
X106379500Y-85363714D01*
X106370123Y-85341075D01*
X106356509Y-85320700D01*
X106339183Y-85303374D01*
X106330089Y-85295911D01*
X106328609Y-85294107D01*
X106327511Y-85292053D01*
X106326833Y-85289818D01*
X106326000Y-85281360D01*
X106326000Y-85018640D01*
X106326833Y-85010182D01*
X106327511Y-85007947D01*
X106328609Y-85005893D01*
X106330089Y-85004089D01*
X106331893Y-85002609D01*
X106333947Y-85001511D01*
X106336182Y-85000833D01*
X106344640Y-85000000D01*
X107857360Y-85000000D01*
X107865818Y-85000833D01*
X107865818Y-85000833D01*
G37*
G36*
X119215818Y-85000833D02*
X119218053Y-85001511D01*
X119220107Y-85002609D01*
X119221911Y-85004089D01*
X119223391Y-85005893D01*
X119224489Y-85007947D01*
X119225167Y-85010182D01*
X119226000Y-85018640D01*
X119226000Y-85281360D01*
X119225167Y-85289818D01*
X119224489Y-85292053D01*
X119223391Y-85294107D01*
X119221911Y-85295911D01*
X119212817Y-85303374D01*
X119195490Y-85320701D01*
X119181877Y-85341076D01*
X119172499Y-85363715D01*
X119167719Y-85387749D01*
X119167719Y-85412253D01*
X119172500Y-85436286D01*
X119181877Y-85458925D01*
X119195491Y-85479300D01*
X119212817Y-85496626D01*
X119221911Y-85504089D01*
X119223391Y-85505893D01*
X119224489Y-85507947D01*
X119225167Y-85510182D01*
X119226000Y-85518640D01*
X119226000Y-85781360D01*
X119225167Y-85789818D01*
X119224489Y-85792053D01*
X119223391Y-85794107D01*
X119221911Y-85795911D01*
X119212817Y-85803374D01*
X119195490Y-85820701D01*
X119181877Y-85841076D01*
X119172499Y-85863715D01*
X119167719Y-85887749D01*
X119167719Y-85912253D01*
X119172500Y-85936286D01*
X119181877Y-85958925D01*
X119195491Y-85979300D01*
X119212817Y-85996626D01*
X119221911Y-86004089D01*
X119223391Y-86005893D01*
X119224489Y-86007947D01*
X119225167Y-86010182D01*
X119226000Y-86018640D01*
X119226000Y-86281360D01*
X119225167Y-86289818D01*
X119224489Y-86292053D01*
X119223391Y-86294107D01*
X119221911Y-86295911D01*
X119212817Y-86303374D01*
X119195490Y-86320701D01*
X119181877Y-86341076D01*
X119172499Y-86363715D01*
X119167719Y-86387749D01*
X119167719Y-86412253D01*
X119172500Y-86436286D01*
X119181877Y-86458925D01*
X119195491Y-86479300D01*
X119212817Y-86496626D01*
X119221911Y-86504089D01*
X119223391Y-86505893D01*
X119224489Y-86507947D01*
X119225167Y-86510182D01*
X119226000Y-86518640D01*
X119226000Y-86781360D01*
X119225167Y-86789818D01*
X119224489Y-86792053D01*
X119223391Y-86794107D01*
X119221911Y-86795911D01*
X119212817Y-86803374D01*
X119195490Y-86820701D01*
X119181877Y-86841076D01*
X119172499Y-86863715D01*
X119167719Y-86887749D01*
X119167719Y-86912253D01*
X119172500Y-86936286D01*
X119181877Y-86958925D01*
X119195491Y-86979300D01*
X119212817Y-86996626D01*
X119221911Y-87004089D01*
X119223391Y-87005893D01*
X119224489Y-87007947D01*
X119225167Y-87010182D01*
X119226000Y-87018640D01*
X119226000Y-87281360D01*
X119225167Y-87289818D01*
X119224489Y-87292053D01*
X119223391Y-87294107D01*
X119221911Y-87295911D01*
X119212817Y-87303374D01*
X119195490Y-87320701D01*
X119181877Y-87341076D01*
X119172499Y-87363715D01*
X119167719Y-87387749D01*
X119167719Y-87412253D01*
X119172500Y-87436286D01*
X119181877Y-87458925D01*
X119195491Y-87479300D01*
X119212817Y-87496626D01*
X119221911Y-87504089D01*
X119223391Y-87505893D01*
X119224489Y-87507947D01*
X119225167Y-87510182D01*
X119226000Y-87518640D01*
X119226000Y-87781360D01*
X119225167Y-87789818D01*
X119224489Y-87792053D01*
X119223391Y-87794107D01*
X119221911Y-87795911D01*
X119212817Y-87803374D01*
X119195490Y-87820701D01*
X119181877Y-87841076D01*
X119172499Y-87863715D01*
X119167719Y-87887749D01*
X119167719Y-87912253D01*
X119172500Y-87936286D01*
X119181877Y-87958925D01*
X119195491Y-87979300D01*
X119212817Y-87996626D01*
X119221911Y-88004089D01*
X119223391Y-88005893D01*
X119224489Y-88007947D01*
X119225167Y-88010182D01*
X119226000Y-88018640D01*
X119226000Y-88281360D01*
X119225167Y-88289818D01*
X119224489Y-88292053D01*
X119223391Y-88294107D01*
X119221911Y-88295911D01*
X119212817Y-88303374D01*
X119195490Y-88320701D01*
X119181877Y-88341076D01*
X119172499Y-88363715D01*
X119167719Y-88387749D01*
X119167719Y-88412253D01*
X119172500Y-88436286D01*
X119181877Y-88458925D01*
X119195491Y-88479300D01*
X119212817Y-88496626D01*
X119221911Y-88504089D01*
X119223391Y-88505893D01*
X119224489Y-88507947D01*
X119225167Y-88510182D01*
X119226000Y-88518640D01*
X119226000Y-88781360D01*
X119225167Y-88789818D01*
X119224489Y-88792053D01*
X119223391Y-88794107D01*
X119221911Y-88795911D01*
X119212817Y-88803374D01*
X119195490Y-88820701D01*
X119181877Y-88841076D01*
X119172499Y-88863715D01*
X119167719Y-88887749D01*
X119167719Y-88912253D01*
X119172500Y-88936286D01*
X119181877Y-88958925D01*
X119195491Y-88979300D01*
X119212817Y-88996626D01*
X119221911Y-89004089D01*
X119223391Y-89005893D01*
X119224489Y-89007947D01*
X119225167Y-89010182D01*
X119226000Y-89018640D01*
X119226000Y-89281360D01*
X119225167Y-89289818D01*
X119224489Y-89292053D01*
X119223391Y-89294107D01*
X119221911Y-89295911D01*
X119212817Y-89303374D01*
X119195490Y-89320701D01*
X119181877Y-89341076D01*
X119172499Y-89363715D01*
X119167719Y-89387749D01*
X119167719Y-89412253D01*
X119172500Y-89436286D01*
X119181877Y-89458925D01*
X119195491Y-89479300D01*
X119212817Y-89496626D01*
X119221911Y-89504089D01*
X119223391Y-89505893D01*
X119224489Y-89507947D01*
X119225167Y-89510182D01*
X119226000Y-89518640D01*
X119226000Y-89781360D01*
X119225167Y-89789818D01*
X119224489Y-89792053D01*
X119223391Y-89794107D01*
X119221911Y-89795911D01*
X119212817Y-89803374D01*
X119195490Y-89820701D01*
X119181877Y-89841076D01*
X119172499Y-89863715D01*
X119167719Y-89887749D01*
X119167719Y-89912253D01*
X119172500Y-89936286D01*
X119181877Y-89958925D01*
X119195491Y-89979300D01*
X119212817Y-89996626D01*
X119221911Y-90004089D01*
X119223391Y-90005893D01*
X119224489Y-90007947D01*
X119225167Y-90010182D01*
X119226000Y-90018640D01*
X119226000Y-90281360D01*
X119225167Y-90289818D01*
X119224489Y-90292053D01*
X119223391Y-90294107D01*
X119221911Y-90295911D01*
X119212817Y-90303374D01*
X119195490Y-90320701D01*
X119181877Y-90341076D01*
X119172499Y-90363715D01*
X119167719Y-90387749D01*
X119167719Y-90412253D01*
X119172500Y-90436286D01*
X119181877Y-90458925D01*
X119195491Y-90479300D01*
X119212817Y-90496626D01*
X119221911Y-90504089D01*
X119223391Y-90505893D01*
X119224489Y-90507947D01*
X119225167Y-90510182D01*
X119226000Y-90518640D01*
X119226000Y-90781360D01*
X119225167Y-90789818D01*
X119224489Y-90792053D01*
X119223391Y-90794107D01*
X119221911Y-90795911D01*
X119212817Y-90803374D01*
X119195490Y-90820701D01*
X119181877Y-90841076D01*
X119172499Y-90863715D01*
X119167719Y-90887749D01*
X119167719Y-90912253D01*
X119172500Y-90936286D01*
X119181877Y-90958925D01*
X119195491Y-90979300D01*
X119212817Y-90996626D01*
X119221911Y-91004089D01*
X119223391Y-91005893D01*
X119224489Y-91007947D01*
X119225167Y-91010182D01*
X119226000Y-91018640D01*
X119226000Y-91281360D01*
X119225167Y-91289818D01*
X119224489Y-91292053D01*
X119223391Y-91294107D01*
X119221911Y-91295911D01*
X119212817Y-91303374D01*
X119195490Y-91320701D01*
X119181877Y-91341076D01*
X119172499Y-91363715D01*
X119167719Y-91387749D01*
X119167719Y-91412253D01*
X119172500Y-91436286D01*
X119181877Y-91458925D01*
X119195491Y-91479300D01*
X119212817Y-91496626D01*
X119221911Y-91504089D01*
X119223391Y-91505893D01*
X119224489Y-91507947D01*
X119225167Y-91510182D01*
X119226000Y-91518640D01*
X119226000Y-91781360D01*
X119225167Y-91789818D01*
X119224489Y-91792053D01*
X119223391Y-91794107D01*
X119221911Y-91795911D01*
X119212817Y-91803374D01*
X119195490Y-91820701D01*
X119181877Y-91841076D01*
X119172499Y-91863715D01*
X119167719Y-91887749D01*
X119167719Y-91912253D01*
X119172500Y-91936286D01*
X119181877Y-91958925D01*
X119195491Y-91979300D01*
X119212817Y-91996626D01*
X119221911Y-92004089D01*
X119223391Y-92005893D01*
X119224489Y-92007947D01*
X119225167Y-92010182D01*
X119226000Y-92018640D01*
X119226000Y-92281360D01*
X119225167Y-92289818D01*
X119224489Y-92292053D01*
X119223391Y-92294107D01*
X119221911Y-92295911D01*
X119212817Y-92303374D01*
X119195490Y-92320701D01*
X119181877Y-92341076D01*
X119172499Y-92363715D01*
X119167719Y-92387749D01*
X119167719Y-92412253D01*
X119172500Y-92436286D01*
X119181877Y-92458925D01*
X119195491Y-92479300D01*
X119212817Y-92496626D01*
X119221911Y-92504089D01*
X119223391Y-92505893D01*
X119224489Y-92507947D01*
X119225167Y-92510182D01*
X119226000Y-92518640D01*
X119226000Y-92781360D01*
X119225167Y-92789818D01*
X119224489Y-92792053D01*
X119223391Y-92794107D01*
X119221911Y-92795911D01*
X119220107Y-92797391D01*
X119218053Y-92798489D01*
X119215818Y-92799167D01*
X119207360Y-92800000D01*
X117694640Y-92800000D01*
X117686182Y-92799167D01*
X117683947Y-92798489D01*
X117681893Y-92797391D01*
X117680089Y-92795911D01*
X117678609Y-92794107D01*
X117677511Y-92792053D01*
X117676833Y-92789818D01*
X117676000Y-92781360D01*
X117676000Y-92518640D01*
X117676833Y-92510182D01*
X117677511Y-92507947D01*
X117678609Y-92505893D01*
X117680089Y-92504089D01*
X117689183Y-92496626D01*
X117706510Y-92479299D01*
X117720123Y-92458924D01*
X117729501Y-92436285D01*
X117734281Y-92412251D01*
X117734281Y-92387747D01*
X117729500Y-92363714D01*
X117720123Y-92341075D01*
X117706509Y-92320700D01*
X117689183Y-92303374D01*
X117680089Y-92295911D01*
X117678609Y-92294107D01*
X117677511Y-92292053D01*
X117676833Y-92289818D01*
X117676000Y-92281360D01*
X117676000Y-92018640D01*
X117676833Y-92010182D01*
X117677511Y-92007947D01*
X117678609Y-92005893D01*
X117680089Y-92004089D01*
X117689183Y-91996626D01*
X117706510Y-91979299D01*
X117720123Y-91958924D01*
X117729501Y-91936285D01*
X117734281Y-91912251D01*
X117734281Y-91887747D01*
X117729500Y-91863714D01*
X117720123Y-91841075D01*
X117706509Y-91820700D01*
X117689183Y-91803374D01*
X117680089Y-91795911D01*
X117678609Y-91794107D01*
X117677511Y-91792053D01*
X117676833Y-91789818D01*
X117676000Y-91781360D01*
X117676000Y-91518640D01*
X117676833Y-91510182D01*
X117677511Y-91507947D01*
X117678609Y-91505893D01*
X117680089Y-91504089D01*
X117689183Y-91496626D01*
X117706510Y-91479299D01*
X117720123Y-91458924D01*
X117729501Y-91436285D01*
X117734281Y-91412251D01*
X117734281Y-91387747D01*
X117729500Y-91363714D01*
X117720123Y-91341075D01*
X117706509Y-91320700D01*
X117689183Y-91303374D01*
X117680089Y-91295911D01*
X117678609Y-91294107D01*
X117677511Y-91292053D01*
X117676833Y-91289818D01*
X117676000Y-91281360D01*
X117676000Y-91018640D01*
X117676833Y-91010182D01*
X117677511Y-91007947D01*
X117678609Y-91005893D01*
X117680089Y-91004089D01*
X117689183Y-90996626D01*
X117706510Y-90979299D01*
X117720123Y-90958924D01*
X117729501Y-90936285D01*
X117734281Y-90912251D01*
X117734281Y-90887747D01*
X117729500Y-90863714D01*
X117720123Y-90841075D01*
X117706509Y-90820700D01*
X117689183Y-90803374D01*
X117680089Y-90795911D01*
X117678609Y-90794107D01*
X117677511Y-90792053D01*
X117676833Y-90789818D01*
X117676000Y-90781360D01*
X117676000Y-90518640D01*
X117676833Y-90510182D01*
X117677511Y-90507947D01*
X117678609Y-90505893D01*
X117680089Y-90504089D01*
X117689183Y-90496626D01*
X117706510Y-90479299D01*
X117720123Y-90458924D01*
X117729501Y-90436285D01*
X117734281Y-90412251D01*
X117734281Y-90387747D01*
X117729500Y-90363714D01*
X117720123Y-90341075D01*
X117706509Y-90320700D01*
X117689183Y-90303374D01*
X117680089Y-90295911D01*
X117678609Y-90294107D01*
X117677511Y-90292053D01*
X117676833Y-90289818D01*
X117676000Y-90281360D01*
X117676000Y-90018640D01*
X117676833Y-90010182D01*
X117677511Y-90007947D01*
X117678609Y-90005893D01*
X117680089Y-90004089D01*
X117689183Y-89996626D01*
X117706510Y-89979299D01*
X117720123Y-89958924D01*
X117729501Y-89936285D01*
X117734281Y-89912251D01*
X117734281Y-89887747D01*
X117729500Y-89863714D01*
X117720123Y-89841075D01*
X117706509Y-89820700D01*
X117689183Y-89803374D01*
X117680089Y-89795911D01*
X117678609Y-89794107D01*
X117677511Y-89792053D01*
X117676833Y-89789818D01*
X117676000Y-89781360D01*
X117676000Y-89518640D01*
X117676833Y-89510182D01*
X117677511Y-89507947D01*
X117678609Y-89505893D01*
X117680089Y-89504089D01*
X117689183Y-89496626D01*
X117706510Y-89479299D01*
X117720123Y-89458924D01*
X117729501Y-89436285D01*
X117734281Y-89412251D01*
X117734281Y-89387747D01*
X117729500Y-89363714D01*
X117720123Y-89341075D01*
X117706509Y-89320700D01*
X117689183Y-89303374D01*
X117680089Y-89295911D01*
X117678609Y-89294107D01*
X117677511Y-89292053D01*
X117676833Y-89289818D01*
X117676000Y-89281360D01*
X117676000Y-89018640D01*
X117676833Y-89010182D01*
X117677511Y-89007947D01*
X117678609Y-89005893D01*
X117680089Y-89004089D01*
X117689183Y-88996626D01*
X117706510Y-88979299D01*
X117720123Y-88958924D01*
X117729501Y-88936285D01*
X117734281Y-88912251D01*
X117734281Y-88887747D01*
X117729500Y-88863714D01*
X117720123Y-88841075D01*
X117706509Y-88820700D01*
X117689183Y-88803374D01*
X117680089Y-88795911D01*
X117678609Y-88794107D01*
X117677511Y-88792053D01*
X117676833Y-88789818D01*
X117676000Y-88781360D01*
X117676000Y-88518640D01*
X117676833Y-88510182D01*
X117677511Y-88507947D01*
X117678609Y-88505893D01*
X117680089Y-88504089D01*
X117689183Y-88496626D01*
X117706510Y-88479299D01*
X117720123Y-88458924D01*
X117729501Y-88436285D01*
X117734281Y-88412251D01*
X117734281Y-88387747D01*
X117729500Y-88363714D01*
X117720123Y-88341075D01*
X117706509Y-88320700D01*
X117689183Y-88303374D01*
X117680089Y-88295911D01*
X117678609Y-88294107D01*
X117677511Y-88292053D01*
X117676833Y-88289818D01*
X117676000Y-88281360D01*
X117676000Y-88018640D01*
X117676833Y-88010182D01*
X117677511Y-88007947D01*
X117678609Y-88005893D01*
X117680089Y-88004089D01*
X117689183Y-87996626D01*
X117706510Y-87979299D01*
X117720123Y-87958924D01*
X117729501Y-87936285D01*
X117734281Y-87912251D01*
X117734281Y-87887747D01*
X117729500Y-87863714D01*
X117720123Y-87841075D01*
X117706509Y-87820700D01*
X117689183Y-87803374D01*
X117680089Y-87795911D01*
X117678609Y-87794107D01*
X117677511Y-87792053D01*
X117676833Y-87789818D01*
X117676000Y-87781360D01*
X117676000Y-87518640D01*
X117676833Y-87510182D01*
X117677511Y-87507947D01*
X117678609Y-87505893D01*
X117680089Y-87504089D01*
X117689183Y-87496626D01*
X117706510Y-87479299D01*
X117720123Y-87458924D01*
X117729501Y-87436285D01*
X117734281Y-87412251D01*
X117734281Y-87387747D01*
X117729500Y-87363714D01*
X117720123Y-87341075D01*
X117706509Y-87320700D01*
X117689183Y-87303374D01*
X117680089Y-87295911D01*
X117678609Y-87294107D01*
X117677511Y-87292053D01*
X117676833Y-87289818D01*
X117676000Y-87281360D01*
X117676000Y-87018640D01*
X117676833Y-87010182D01*
X117677511Y-87007947D01*
X117678609Y-87005893D01*
X117680089Y-87004089D01*
X117689183Y-86996626D01*
X117706510Y-86979299D01*
X117720123Y-86958924D01*
X117729501Y-86936285D01*
X117734281Y-86912251D01*
X117734281Y-86887747D01*
X117729500Y-86863714D01*
X117720123Y-86841075D01*
X117706509Y-86820700D01*
X117689183Y-86803374D01*
X117680089Y-86795911D01*
X117678609Y-86794107D01*
X117677511Y-86792053D01*
X117676833Y-86789818D01*
X117676000Y-86781360D01*
X117676000Y-86518640D01*
X117676833Y-86510182D01*
X117677511Y-86507947D01*
X117678609Y-86505893D01*
X117680089Y-86504089D01*
X117689183Y-86496626D01*
X117706510Y-86479299D01*
X117720123Y-86458924D01*
X117729501Y-86436285D01*
X117734281Y-86412251D01*
X117734281Y-86387747D01*
X117729500Y-86363714D01*
X117720123Y-86341075D01*
X117706509Y-86320700D01*
X117689183Y-86303374D01*
X117680089Y-86295911D01*
X117678609Y-86294107D01*
X117677511Y-86292053D01*
X117676833Y-86289818D01*
X117676000Y-86281360D01*
X117676000Y-86018640D01*
X117676833Y-86010182D01*
X117677511Y-86007947D01*
X117678609Y-86005893D01*
X117680089Y-86004089D01*
X117689183Y-85996626D01*
X117706510Y-85979299D01*
X117720123Y-85958924D01*
X117729501Y-85936285D01*
X117734281Y-85912251D01*
X117734281Y-85887747D01*
X117729500Y-85863714D01*
X117720123Y-85841075D01*
X117706509Y-85820700D01*
X117689183Y-85803374D01*
X117680089Y-85795911D01*
X117678609Y-85794107D01*
X117677511Y-85792053D01*
X117676833Y-85789818D01*
X117676000Y-85781360D01*
X117676000Y-85518640D01*
X117676833Y-85510182D01*
X117677511Y-85507947D01*
X117678609Y-85505893D01*
X117680089Y-85504089D01*
X117689183Y-85496626D01*
X117706510Y-85479299D01*
X117720123Y-85458924D01*
X117729501Y-85436285D01*
X117734281Y-85412251D01*
X117734281Y-85387747D01*
X117729500Y-85363714D01*
X117720123Y-85341075D01*
X117706509Y-85320700D01*
X117689183Y-85303374D01*
X117680089Y-85295911D01*
X117678609Y-85294107D01*
X117677511Y-85292053D01*
X117676833Y-85289818D01*
X117676000Y-85281360D01*
X117676000Y-85018640D01*
X117676833Y-85010182D01*
X117677511Y-85007947D01*
X117678609Y-85005893D01*
X117680089Y-85004089D01*
X117681893Y-85002609D01*
X117683947Y-85001511D01*
X117686182Y-85000833D01*
X117694640Y-85000000D01*
X119207360Y-85000000D01*
X119215818Y-85000833D01*
X119215818Y-85000833D01*
G37*
G36*
X101987324Y-91419768D02*
X102114562Y-91458365D01*
X102231825Y-91521043D01*
X102334607Y-91605395D01*
X102418959Y-91708177D01*
X102481637Y-91825440D01*
X102520234Y-91952678D01*
X102533267Y-92085001D01*
X102520234Y-92217324D01*
X102481637Y-92344562D01*
X102418959Y-92461825D01*
X102334607Y-92564607D01*
X102231825Y-92648959D01*
X102114562Y-92711637D01*
X101987324Y-92750234D01*
X101888160Y-92760001D01*
X101821842Y-92760001D01*
X101722678Y-92750234D01*
X101595440Y-92711637D01*
X101478177Y-92648959D01*
X101375395Y-92564607D01*
X101291043Y-92461825D01*
X101228365Y-92344562D01*
X101189768Y-92217324D01*
X101176735Y-92085001D01*
X101189768Y-91952678D01*
X101228365Y-91825440D01*
X101291043Y-91708177D01*
X101375395Y-91605395D01*
X101478177Y-91521043D01*
X101595440Y-91458365D01*
X101722678Y-91419768D01*
X101821842Y-91410001D01*
X101888160Y-91410001D01*
X101987324Y-91419768D01*
X101987324Y-91419768D01*
G37*
G36*
X123577324Y-91419768D02*
X123704562Y-91458365D01*
X123821825Y-91521043D01*
X123924607Y-91605395D01*
X124008959Y-91708177D01*
X124071637Y-91825440D01*
X124110234Y-91952678D01*
X124123267Y-92085001D01*
X124110234Y-92217324D01*
X124071637Y-92344562D01*
X124008959Y-92461825D01*
X123924607Y-92564607D01*
X123821825Y-92648959D01*
X123704562Y-92711637D01*
X123577324Y-92750234D01*
X123478160Y-92760001D01*
X123411842Y-92760001D01*
X123312678Y-92750234D01*
X123185440Y-92711637D01*
X123068177Y-92648959D01*
X122965395Y-92564607D01*
X122881043Y-92461825D01*
X122818365Y-92344562D01*
X122779768Y-92217324D01*
X122766735Y-92085001D01*
X122779768Y-91952678D01*
X122818365Y-91825440D01*
X122881043Y-91708177D01*
X122965395Y-91605395D01*
X123068177Y-91521043D01*
X123185440Y-91458365D01*
X123312678Y-91419768D01*
X123411842Y-91410001D01*
X123478160Y-91410001D01*
X123577324Y-91419768D01*
X123577324Y-91419768D01*
G37*
G36*
X101987324Y-89419768D02*
X102114562Y-89458365D01*
X102231825Y-89521043D01*
X102334607Y-89605395D01*
X102418959Y-89708177D01*
X102481637Y-89825440D01*
X102520234Y-89952678D01*
X102533267Y-90085001D01*
X102520234Y-90217324D01*
X102481637Y-90344562D01*
X102418959Y-90461825D01*
X102334607Y-90564607D01*
X102231825Y-90648959D01*
X102114562Y-90711637D01*
X101987324Y-90750234D01*
X101888160Y-90760001D01*
X101821842Y-90760001D01*
X101722678Y-90750234D01*
X101595440Y-90711637D01*
X101478177Y-90648959D01*
X101375395Y-90564607D01*
X101291043Y-90461825D01*
X101228365Y-90344562D01*
X101189768Y-90217324D01*
X101176735Y-90085001D01*
X101189768Y-89952678D01*
X101228365Y-89825440D01*
X101291043Y-89708177D01*
X101375395Y-89605395D01*
X101478177Y-89521043D01*
X101595440Y-89458365D01*
X101722678Y-89419768D01*
X101821842Y-89410001D01*
X101888160Y-89410001D01*
X101987324Y-89419768D01*
X101987324Y-89419768D01*
G37*
G36*
X123577324Y-89419768D02*
X123704562Y-89458365D01*
X123821825Y-89521043D01*
X123924607Y-89605395D01*
X124008959Y-89708177D01*
X124071637Y-89825440D01*
X124110234Y-89952678D01*
X124123267Y-90085001D01*
X124110234Y-90217324D01*
X124071637Y-90344562D01*
X124008959Y-90461825D01*
X123924607Y-90564607D01*
X123821825Y-90648959D01*
X123704562Y-90711637D01*
X123577324Y-90750234D01*
X123478160Y-90760001D01*
X123411842Y-90760001D01*
X123312678Y-90750234D01*
X123185440Y-90711637D01*
X123068177Y-90648959D01*
X122965395Y-90564607D01*
X122881043Y-90461825D01*
X122818365Y-90344562D01*
X122779768Y-90217324D01*
X122766735Y-90085001D01*
X122779768Y-89952678D01*
X122818365Y-89825440D01*
X122881043Y-89708177D01*
X122965395Y-89605395D01*
X123068177Y-89521043D01*
X123185440Y-89458365D01*
X123312678Y-89419768D01*
X123411842Y-89410001D01*
X123478160Y-89410001D01*
X123577324Y-89419768D01*
X123577324Y-89419768D01*
G37*
G36*
X123577324Y-87419768D02*
X123704562Y-87458365D01*
X123821825Y-87521043D01*
X123924607Y-87605395D01*
X124008959Y-87708177D01*
X124071637Y-87825440D01*
X124110234Y-87952678D01*
X124123267Y-88085001D01*
X124110234Y-88217324D01*
X124071637Y-88344562D01*
X124008959Y-88461825D01*
X123924607Y-88564607D01*
X123821825Y-88648959D01*
X123704562Y-88711637D01*
X123577324Y-88750234D01*
X123478160Y-88760001D01*
X123411842Y-88760001D01*
X123312678Y-88750234D01*
X123185440Y-88711637D01*
X123068177Y-88648959D01*
X122965395Y-88564607D01*
X122881043Y-88461825D01*
X122818365Y-88344562D01*
X122779768Y-88217324D01*
X122766735Y-88085001D01*
X122779768Y-87952678D01*
X122818365Y-87825440D01*
X122881043Y-87708177D01*
X122965395Y-87605395D01*
X123068177Y-87521043D01*
X123185440Y-87458365D01*
X123312678Y-87419768D01*
X123411842Y-87410001D01*
X123478160Y-87410001D01*
X123577324Y-87419768D01*
X123577324Y-87419768D01*
G37*
G36*
X101987324Y-87419768D02*
X102114562Y-87458365D01*
X102231825Y-87521043D01*
X102334607Y-87605395D01*
X102418959Y-87708177D01*
X102481637Y-87825440D01*
X102520234Y-87952678D01*
X102533267Y-88085001D01*
X102520234Y-88217324D01*
X102481637Y-88344562D01*
X102418959Y-88461825D01*
X102334607Y-88564607D01*
X102231825Y-88648959D01*
X102114562Y-88711637D01*
X101987324Y-88750234D01*
X101888160Y-88760001D01*
X101821842Y-88760001D01*
X101722678Y-88750234D01*
X101595440Y-88711637D01*
X101478177Y-88648959D01*
X101375395Y-88564607D01*
X101291043Y-88461825D01*
X101228365Y-88344562D01*
X101189768Y-88217324D01*
X101176735Y-88085001D01*
X101189768Y-87952678D01*
X101228365Y-87825440D01*
X101291043Y-87708177D01*
X101375395Y-87605395D01*
X101478177Y-87521043D01*
X101595440Y-87458365D01*
X101722678Y-87419768D01*
X101821842Y-87410001D01*
X101888160Y-87410001D01*
X101987324Y-87419768D01*
X101987324Y-87419768D01*
G37*
G36*
X101987324Y-85419768D02*
X102114562Y-85458365D01*
X102231825Y-85521043D01*
X102334607Y-85605395D01*
X102418959Y-85708177D01*
X102481637Y-85825440D01*
X102520234Y-85952678D01*
X102533267Y-86085001D01*
X102520234Y-86217324D01*
X102481637Y-86344562D01*
X102418959Y-86461825D01*
X102334607Y-86564607D01*
X102231825Y-86648959D01*
X102114562Y-86711637D01*
X101987324Y-86750234D01*
X101888160Y-86760001D01*
X101821842Y-86760001D01*
X101722678Y-86750234D01*
X101595440Y-86711637D01*
X101478177Y-86648959D01*
X101375395Y-86564607D01*
X101291043Y-86461825D01*
X101228365Y-86344562D01*
X101189768Y-86217324D01*
X101176735Y-86085001D01*
X101189768Y-85952678D01*
X101228365Y-85825440D01*
X101291043Y-85708177D01*
X101375395Y-85605395D01*
X101478177Y-85521043D01*
X101595440Y-85458365D01*
X101722678Y-85419768D01*
X101821842Y-85410001D01*
X101888160Y-85410001D01*
X101987324Y-85419768D01*
X101987324Y-85419768D01*
G37*
G36*
X123577324Y-85419768D02*
X123704562Y-85458365D01*
X123821825Y-85521043D01*
X123924607Y-85605395D01*
X124008959Y-85708177D01*
X124071637Y-85825440D01*
X124110234Y-85952678D01*
X124123267Y-86085001D01*
X124110234Y-86217324D01*
X124071637Y-86344562D01*
X124008959Y-86461825D01*
X123924607Y-86564607D01*
X123821825Y-86648959D01*
X123704562Y-86711637D01*
X123577324Y-86750234D01*
X123478160Y-86760001D01*
X123411842Y-86760001D01*
X123312678Y-86750234D01*
X123185440Y-86711637D01*
X123068177Y-86648959D01*
X122965395Y-86564607D01*
X122881043Y-86461825D01*
X122818365Y-86344562D01*
X122779768Y-86217324D01*
X122766735Y-86085001D01*
X122779768Y-85952678D01*
X122818365Y-85825440D01*
X122881043Y-85708177D01*
X122965395Y-85605395D01*
X123068177Y-85521043D01*
X123185440Y-85458365D01*
X123312678Y-85419768D01*
X123411842Y-85410001D01*
X123478160Y-85410001D01*
X123577324Y-85419768D01*
X123577324Y-85419768D01*
G37*
G36*
X105781000Y-86074000D02*
X104531000Y-86074000D01*
X104531000Y-84574000D01*
X105781000Y-84574000D01*
X105781000Y-86074000D01*
X105781000Y-86074000D01*
G37*
G36*
X121021000Y-85312000D02*
X119771000Y-85312000D01*
X119771000Y-83812000D01*
X121021000Y-83812000D01*
X121021000Y-85312000D01*
X121021000Y-85312000D01*
G37*
G36*
X123577324Y-83419768D02*
X123704562Y-83458365D01*
X123821825Y-83521043D01*
X123924607Y-83605395D01*
X124008959Y-83708177D01*
X124071637Y-83825440D01*
X124110234Y-83952678D01*
X124123267Y-84085001D01*
X124110234Y-84217324D01*
X124071637Y-84344562D01*
X124008959Y-84461825D01*
X123924607Y-84564607D01*
X123821825Y-84648959D01*
X123704562Y-84711637D01*
X123577324Y-84750234D01*
X123478160Y-84760001D01*
X123411842Y-84760001D01*
X123312678Y-84750234D01*
X123185440Y-84711637D01*
X123068177Y-84648959D01*
X122965395Y-84564607D01*
X122881043Y-84461825D01*
X122818365Y-84344562D01*
X122779768Y-84217324D01*
X122766735Y-84085001D01*
X122779768Y-83952678D01*
X122818365Y-83825440D01*
X122881043Y-83708177D01*
X122965395Y-83605395D01*
X123068177Y-83521043D01*
X123185440Y-83458365D01*
X123312678Y-83419768D01*
X123411842Y-83410001D01*
X123478160Y-83410001D01*
X123577324Y-83419768D01*
X123577324Y-83419768D01*
G37*
G36*
X101987324Y-83419768D02*
X102114562Y-83458365D01*
X102231825Y-83521043D01*
X102334607Y-83605395D01*
X102418959Y-83708177D01*
X102481637Y-83825440D01*
X102520234Y-83952678D01*
X102533267Y-84085001D01*
X102520234Y-84217324D01*
X102481637Y-84344562D01*
X102418959Y-84461825D01*
X102334607Y-84564607D01*
X102231825Y-84648959D01*
X102114562Y-84711637D01*
X101987324Y-84750234D01*
X101888160Y-84760001D01*
X101821842Y-84760001D01*
X101722678Y-84750234D01*
X101595440Y-84711637D01*
X101478177Y-84648959D01*
X101375395Y-84564607D01*
X101291043Y-84461825D01*
X101228365Y-84344562D01*
X101189768Y-84217324D01*
X101176735Y-84085001D01*
X101189768Y-83952678D01*
X101228365Y-83825440D01*
X101291043Y-83708177D01*
X101375395Y-83605395D01*
X101478177Y-83521043D01*
X101595440Y-83458365D01*
X101722678Y-83419768D01*
X101821842Y-83410001D01*
X101888160Y-83410001D01*
X101987324Y-83419768D01*
X101987324Y-83419768D01*
G37*
G36*
X109165818Y-82450833D02*
X109168053Y-82451511D01*
X109170107Y-82452609D01*
X109171911Y-82454089D01*
X109179374Y-82463183D01*
X109196701Y-82480510D01*
X109217076Y-82494123D01*
X109239715Y-82503501D01*
X109263749Y-82508281D01*
X109288253Y-82508281D01*
X109312286Y-82503500D01*
X109334925Y-82494123D01*
X109355300Y-82480509D01*
X109372626Y-82463183D01*
X109380089Y-82454089D01*
X109381893Y-82452609D01*
X109383947Y-82451511D01*
X109386182Y-82450833D01*
X109394640Y-82450000D01*
X109657360Y-82450000D01*
X109665818Y-82450833D01*
X109668053Y-82451511D01*
X109670107Y-82452609D01*
X109671911Y-82454089D01*
X109679374Y-82463183D01*
X109696701Y-82480510D01*
X109717076Y-82494123D01*
X109739715Y-82503501D01*
X109763749Y-82508281D01*
X109788253Y-82508281D01*
X109812286Y-82503500D01*
X109834925Y-82494123D01*
X109855300Y-82480509D01*
X109872626Y-82463183D01*
X109880089Y-82454089D01*
X109881893Y-82452609D01*
X109883947Y-82451511D01*
X109886182Y-82450833D01*
X109894640Y-82450000D01*
X110157360Y-82450000D01*
X110165818Y-82450833D01*
X110168053Y-82451511D01*
X110170107Y-82452609D01*
X110171911Y-82454089D01*
X110179374Y-82463183D01*
X110196701Y-82480510D01*
X110217076Y-82494123D01*
X110239715Y-82503501D01*
X110263749Y-82508281D01*
X110288253Y-82508281D01*
X110312286Y-82503500D01*
X110334925Y-82494123D01*
X110355300Y-82480509D01*
X110372626Y-82463183D01*
X110380089Y-82454089D01*
X110381893Y-82452609D01*
X110383947Y-82451511D01*
X110386182Y-82450833D01*
X110394640Y-82450000D01*
X110657360Y-82450000D01*
X110665818Y-82450833D01*
X110668053Y-82451511D01*
X110670107Y-82452609D01*
X110671911Y-82454089D01*
X110679374Y-82463183D01*
X110696701Y-82480510D01*
X110717076Y-82494123D01*
X110739715Y-82503501D01*
X110763749Y-82508281D01*
X110788253Y-82508281D01*
X110812286Y-82503500D01*
X110834925Y-82494123D01*
X110855300Y-82480509D01*
X110872626Y-82463183D01*
X110880089Y-82454089D01*
X110881893Y-82452609D01*
X110883947Y-82451511D01*
X110886182Y-82450833D01*
X110894640Y-82450000D01*
X111157360Y-82450000D01*
X111165818Y-82450833D01*
X111168053Y-82451511D01*
X111170107Y-82452609D01*
X111171911Y-82454089D01*
X111179374Y-82463183D01*
X111196701Y-82480510D01*
X111217076Y-82494123D01*
X111239715Y-82503501D01*
X111263749Y-82508281D01*
X111288253Y-82508281D01*
X111312286Y-82503500D01*
X111334925Y-82494123D01*
X111355300Y-82480509D01*
X111372626Y-82463183D01*
X111380089Y-82454089D01*
X111381893Y-82452609D01*
X111383947Y-82451511D01*
X111386182Y-82450833D01*
X111394640Y-82450000D01*
X111657360Y-82450000D01*
X111665818Y-82450833D01*
X111668053Y-82451511D01*
X111670107Y-82452609D01*
X111671911Y-82454089D01*
X111679374Y-82463183D01*
X111696701Y-82480510D01*
X111717076Y-82494123D01*
X111739715Y-82503501D01*
X111763749Y-82508281D01*
X111788253Y-82508281D01*
X111812286Y-82503500D01*
X111834925Y-82494123D01*
X111855300Y-82480509D01*
X111872626Y-82463183D01*
X111880089Y-82454089D01*
X111881893Y-82452609D01*
X111883947Y-82451511D01*
X111886182Y-82450833D01*
X111894640Y-82450000D01*
X112157360Y-82450000D01*
X112165818Y-82450833D01*
X112168053Y-82451511D01*
X112170107Y-82452609D01*
X112171911Y-82454089D01*
X112179374Y-82463183D01*
X112196701Y-82480510D01*
X112217076Y-82494123D01*
X112239715Y-82503501D01*
X112263749Y-82508281D01*
X112288253Y-82508281D01*
X112312286Y-82503500D01*
X112334925Y-82494123D01*
X112355300Y-82480509D01*
X112372626Y-82463183D01*
X112380089Y-82454089D01*
X112381893Y-82452609D01*
X112383947Y-82451511D01*
X112386182Y-82450833D01*
X112394640Y-82450000D01*
X112657360Y-82450000D01*
X112665818Y-82450833D01*
X112668053Y-82451511D01*
X112670107Y-82452609D01*
X112671911Y-82454089D01*
X112679374Y-82463183D01*
X112696701Y-82480510D01*
X112717076Y-82494123D01*
X112739715Y-82503501D01*
X112763749Y-82508281D01*
X112788253Y-82508281D01*
X112812286Y-82503500D01*
X112834925Y-82494123D01*
X112855300Y-82480509D01*
X112872626Y-82463183D01*
X112880089Y-82454089D01*
X112881893Y-82452609D01*
X112883947Y-82451511D01*
X112886182Y-82450833D01*
X112894640Y-82450000D01*
X113157360Y-82450000D01*
X113165818Y-82450833D01*
X113168053Y-82451511D01*
X113170107Y-82452609D01*
X113171911Y-82454089D01*
X113179374Y-82463183D01*
X113196701Y-82480510D01*
X113217076Y-82494123D01*
X113239715Y-82503501D01*
X113263749Y-82508281D01*
X113288253Y-82508281D01*
X113312286Y-82503500D01*
X113334925Y-82494123D01*
X113355300Y-82480509D01*
X113372626Y-82463183D01*
X113380089Y-82454089D01*
X113381893Y-82452609D01*
X113383947Y-82451511D01*
X113386182Y-82450833D01*
X113394640Y-82450000D01*
X113657360Y-82450000D01*
X113665818Y-82450833D01*
X113668053Y-82451511D01*
X113670107Y-82452609D01*
X113671911Y-82454089D01*
X113679374Y-82463183D01*
X113696701Y-82480510D01*
X113717076Y-82494123D01*
X113739715Y-82503501D01*
X113763749Y-82508281D01*
X113788253Y-82508281D01*
X113812286Y-82503500D01*
X113834925Y-82494123D01*
X113855300Y-82480509D01*
X113872626Y-82463183D01*
X113880089Y-82454089D01*
X113881893Y-82452609D01*
X113883947Y-82451511D01*
X113886182Y-82450833D01*
X113894640Y-82450000D01*
X114157360Y-82450000D01*
X114165818Y-82450833D01*
X114168053Y-82451511D01*
X114170107Y-82452609D01*
X114171911Y-82454089D01*
X114179374Y-82463183D01*
X114196701Y-82480510D01*
X114217076Y-82494123D01*
X114239715Y-82503501D01*
X114263749Y-82508281D01*
X114288253Y-82508281D01*
X114312286Y-82503500D01*
X114334925Y-82494123D01*
X114355300Y-82480509D01*
X114372626Y-82463183D01*
X114380089Y-82454089D01*
X114381893Y-82452609D01*
X114383947Y-82451511D01*
X114386182Y-82450833D01*
X114394640Y-82450000D01*
X114657360Y-82450000D01*
X114665818Y-82450833D01*
X114668053Y-82451511D01*
X114670107Y-82452609D01*
X114671911Y-82454089D01*
X114679374Y-82463183D01*
X114696701Y-82480510D01*
X114717076Y-82494123D01*
X114739715Y-82503501D01*
X114763749Y-82508281D01*
X114788253Y-82508281D01*
X114812286Y-82503500D01*
X114834925Y-82494123D01*
X114855300Y-82480509D01*
X114872626Y-82463183D01*
X114880089Y-82454089D01*
X114881893Y-82452609D01*
X114883947Y-82451511D01*
X114886182Y-82450833D01*
X114894640Y-82450000D01*
X115157360Y-82450000D01*
X115165818Y-82450833D01*
X115168053Y-82451511D01*
X115170107Y-82452609D01*
X115171911Y-82454089D01*
X115179374Y-82463183D01*
X115196701Y-82480510D01*
X115217076Y-82494123D01*
X115239715Y-82503501D01*
X115263749Y-82508281D01*
X115288253Y-82508281D01*
X115312286Y-82503500D01*
X115334925Y-82494123D01*
X115355300Y-82480509D01*
X115372626Y-82463183D01*
X115380089Y-82454089D01*
X115381893Y-82452609D01*
X115383947Y-82451511D01*
X115386182Y-82450833D01*
X115394640Y-82450000D01*
X115657360Y-82450000D01*
X115665818Y-82450833D01*
X115668053Y-82451511D01*
X115670107Y-82452609D01*
X115671911Y-82454089D01*
X115679374Y-82463183D01*
X115696701Y-82480510D01*
X115717076Y-82494123D01*
X115739715Y-82503501D01*
X115763749Y-82508281D01*
X115788253Y-82508281D01*
X115812286Y-82503500D01*
X115834925Y-82494123D01*
X115855300Y-82480509D01*
X115872626Y-82463183D01*
X115880089Y-82454089D01*
X115881893Y-82452609D01*
X115883947Y-82451511D01*
X115886182Y-82450833D01*
X115894640Y-82450000D01*
X116157360Y-82450000D01*
X116165818Y-82450833D01*
X116168053Y-82451511D01*
X116170107Y-82452609D01*
X116171911Y-82454089D01*
X116179374Y-82463183D01*
X116196701Y-82480510D01*
X116217076Y-82494123D01*
X116239715Y-82503501D01*
X116263749Y-82508281D01*
X116288253Y-82508281D01*
X116312286Y-82503500D01*
X116334925Y-82494123D01*
X116355300Y-82480509D01*
X116372626Y-82463183D01*
X116380089Y-82454089D01*
X116381893Y-82452609D01*
X116383947Y-82451511D01*
X116386182Y-82450833D01*
X116394640Y-82450000D01*
X116657360Y-82450000D01*
X116665818Y-82450833D01*
X116668053Y-82451511D01*
X116670107Y-82452609D01*
X116671911Y-82454089D01*
X116673391Y-82455893D01*
X116674489Y-82457947D01*
X116675167Y-82460182D01*
X116676000Y-82468640D01*
X116676000Y-83981360D01*
X116675167Y-83989818D01*
X116674489Y-83992053D01*
X116673391Y-83994107D01*
X116671911Y-83995911D01*
X116670107Y-83997391D01*
X116668053Y-83998489D01*
X116665818Y-83999167D01*
X116657360Y-84000000D01*
X116394640Y-84000000D01*
X116386182Y-83999167D01*
X116383947Y-83998489D01*
X116381893Y-83997391D01*
X116380089Y-83995911D01*
X116372626Y-83986817D01*
X116355299Y-83969490D01*
X116334924Y-83955877D01*
X116312285Y-83946499D01*
X116288251Y-83941719D01*
X116263747Y-83941719D01*
X116239714Y-83946500D01*
X116217075Y-83955877D01*
X116196700Y-83969491D01*
X116179374Y-83986817D01*
X116171911Y-83995911D01*
X116170107Y-83997391D01*
X116168053Y-83998489D01*
X116165818Y-83999167D01*
X116157360Y-84000000D01*
X115894640Y-84000000D01*
X115886182Y-83999167D01*
X115883947Y-83998489D01*
X115881893Y-83997391D01*
X115880089Y-83995911D01*
X115872626Y-83986817D01*
X115855299Y-83969490D01*
X115834924Y-83955877D01*
X115812285Y-83946499D01*
X115788251Y-83941719D01*
X115763747Y-83941719D01*
X115739714Y-83946500D01*
X115717075Y-83955877D01*
X115696700Y-83969491D01*
X115679374Y-83986817D01*
X115671911Y-83995911D01*
X115670107Y-83997391D01*
X115668053Y-83998489D01*
X115665818Y-83999167D01*
X115657360Y-84000000D01*
X115394640Y-84000000D01*
X115386182Y-83999167D01*
X115383947Y-83998489D01*
X115381893Y-83997391D01*
X115380089Y-83995911D01*
X115372626Y-83986817D01*
X115355299Y-83969490D01*
X115334924Y-83955877D01*
X115312285Y-83946499D01*
X115288251Y-83941719D01*
X115263747Y-83941719D01*
X115239714Y-83946500D01*
X115217075Y-83955877D01*
X115196700Y-83969491D01*
X115179374Y-83986817D01*
X115171911Y-83995911D01*
X115170107Y-83997391D01*
X115168053Y-83998489D01*
X115165818Y-83999167D01*
X115157360Y-84000000D01*
X114894640Y-84000000D01*
X114886182Y-83999167D01*
X114883947Y-83998489D01*
X114881893Y-83997391D01*
X114880089Y-83995911D01*
X114872626Y-83986817D01*
X114855299Y-83969490D01*
X114834924Y-83955877D01*
X114812285Y-83946499D01*
X114788251Y-83941719D01*
X114763747Y-83941719D01*
X114739714Y-83946500D01*
X114717075Y-83955877D01*
X114696700Y-83969491D01*
X114679374Y-83986817D01*
X114671911Y-83995911D01*
X114670107Y-83997391D01*
X114668053Y-83998489D01*
X114665818Y-83999167D01*
X114657360Y-84000000D01*
X114394640Y-84000000D01*
X114386182Y-83999167D01*
X114383947Y-83998489D01*
X114381893Y-83997391D01*
X114380089Y-83995911D01*
X114372626Y-83986817D01*
X114355299Y-83969490D01*
X114334924Y-83955877D01*
X114312285Y-83946499D01*
X114288251Y-83941719D01*
X114263747Y-83941719D01*
X114239714Y-83946500D01*
X114217075Y-83955877D01*
X114196700Y-83969491D01*
X114179374Y-83986817D01*
X114171911Y-83995911D01*
X114170107Y-83997391D01*
X114168053Y-83998489D01*
X114165818Y-83999167D01*
X114157360Y-84000000D01*
X113894640Y-84000000D01*
X113886182Y-83999167D01*
X113883947Y-83998489D01*
X113881893Y-83997391D01*
X113880089Y-83995911D01*
X113872626Y-83986817D01*
X113855299Y-83969490D01*
X113834924Y-83955877D01*
X113812285Y-83946499D01*
X113788251Y-83941719D01*
X113763747Y-83941719D01*
X113739714Y-83946500D01*
X113717075Y-83955877D01*
X113696700Y-83969491D01*
X113679374Y-83986817D01*
X113671911Y-83995911D01*
X113670107Y-83997391D01*
X113668053Y-83998489D01*
X113665818Y-83999167D01*
X113657360Y-84000000D01*
X113394640Y-84000000D01*
X113386182Y-83999167D01*
X113383947Y-83998489D01*
X113381893Y-83997391D01*
X113380089Y-83995911D01*
X113372626Y-83986817D01*
X113355299Y-83969490D01*
X113334924Y-83955877D01*
X113312285Y-83946499D01*
X113288251Y-83941719D01*
X113263747Y-83941719D01*
X113239714Y-83946500D01*
X113217075Y-83955877D01*
X113196700Y-83969491D01*
X113179374Y-83986817D01*
X113171911Y-83995911D01*
X113170107Y-83997391D01*
X113168053Y-83998489D01*
X113165818Y-83999167D01*
X113157360Y-84000000D01*
X112894640Y-84000000D01*
X112886182Y-83999167D01*
X112883947Y-83998489D01*
X112881893Y-83997391D01*
X112880089Y-83995911D01*
X112872626Y-83986817D01*
X112855299Y-83969490D01*
X112834924Y-83955877D01*
X112812285Y-83946499D01*
X112788251Y-83941719D01*
X112763747Y-83941719D01*
X112739714Y-83946500D01*
X112717075Y-83955877D01*
X112696700Y-83969491D01*
X112679374Y-83986817D01*
X112671911Y-83995911D01*
X112670107Y-83997391D01*
X112668053Y-83998489D01*
X112665818Y-83999167D01*
X112657360Y-84000000D01*
X112394640Y-84000000D01*
X112386182Y-83999167D01*
X112383947Y-83998489D01*
X112381893Y-83997391D01*
X112380089Y-83995911D01*
X112372626Y-83986817D01*
X112355299Y-83969490D01*
X112334924Y-83955877D01*
X112312285Y-83946499D01*
X112288251Y-83941719D01*
X112263747Y-83941719D01*
X112239714Y-83946500D01*
X112217075Y-83955877D01*
X112196700Y-83969491D01*
X112179374Y-83986817D01*
X112171911Y-83995911D01*
X112170107Y-83997391D01*
X112168053Y-83998489D01*
X112165818Y-83999167D01*
X112157360Y-84000000D01*
X111894640Y-84000000D01*
X111886182Y-83999167D01*
X111883947Y-83998489D01*
X111881893Y-83997391D01*
X111880089Y-83995911D01*
X111872626Y-83986817D01*
X111855299Y-83969490D01*
X111834924Y-83955877D01*
X111812285Y-83946499D01*
X111788251Y-83941719D01*
X111763747Y-83941719D01*
X111739714Y-83946500D01*
X111717075Y-83955877D01*
X111696700Y-83969491D01*
X111679374Y-83986817D01*
X111671911Y-83995911D01*
X111670107Y-83997391D01*
X111668053Y-83998489D01*
X111665818Y-83999167D01*
X111657360Y-84000000D01*
X111394640Y-84000000D01*
X111386182Y-83999167D01*
X111383947Y-83998489D01*
X111381893Y-83997391D01*
X111380089Y-83995911D01*
X111372626Y-83986817D01*
X111355299Y-83969490D01*
X111334924Y-83955877D01*
X111312285Y-83946499D01*
X111288251Y-83941719D01*
X111263747Y-83941719D01*
X111239714Y-83946500D01*
X111217075Y-83955877D01*
X111196700Y-83969491D01*
X111179374Y-83986817D01*
X111171911Y-83995911D01*
X111170107Y-83997391D01*
X111168053Y-83998489D01*
X111165818Y-83999167D01*
X111157360Y-84000000D01*
X110894640Y-84000000D01*
X110886182Y-83999167D01*
X110883947Y-83998489D01*
X110881893Y-83997391D01*
X110880089Y-83995911D01*
X110872626Y-83986817D01*
X110855299Y-83969490D01*
X110834924Y-83955877D01*
X110812285Y-83946499D01*
X110788251Y-83941719D01*
X110763747Y-83941719D01*
X110739714Y-83946500D01*
X110717075Y-83955877D01*
X110696700Y-83969491D01*
X110679374Y-83986817D01*
X110671911Y-83995911D01*
X110670107Y-83997391D01*
X110668053Y-83998489D01*
X110665818Y-83999167D01*
X110657360Y-84000000D01*
X110394640Y-84000000D01*
X110386182Y-83999167D01*
X110383947Y-83998489D01*
X110381893Y-83997391D01*
X110380089Y-83995911D01*
X110372626Y-83986817D01*
X110355299Y-83969490D01*
X110334924Y-83955877D01*
X110312285Y-83946499D01*
X110288251Y-83941719D01*
X110263747Y-83941719D01*
X110239714Y-83946500D01*
X110217075Y-83955877D01*
X110196700Y-83969491D01*
X110179374Y-83986817D01*
X110171911Y-83995911D01*
X110170107Y-83997391D01*
X110168053Y-83998489D01*
X110165818Y-83999167D01*
X110157360Y-84000000D01*
X109894640Y-84000000D01*
X109886182Y-83999167D01*
X109883947Y-83998489D01*
X109881893Y-83997391D01*
X109880089Y-83995911D01*
X109872626Y-83986817D01*
X109855299Y-83969490D01*
X109834924Y-83955877D01*
X109812285Y-83946499D01*
X109788251Y-83941719D01*
X109763747Y-83941719D01*
X109739714Y-83946500D01*
X109717075Y-83955877D01*
X109696700Y-83969491D01*
X109679374Y-83986817D01*
X109671911Y-83995911D01*
X109670107Y-83997391D01*
X109668053Y-83998489D01*
X109665818Y-83999167D01*
X109657360Y-84000000D01*
X109394640Y-84000000D01*
X109386182Y-83999167D01*
X109383947Y-83998489D01*
X109381893Y-83997391D01*
X109380089Y-83995911D01*
X109372626Y-83986817D01*
X109355299Y-83969490D01*
X109334924Y-83955877D01*
X109312285Y-83946499D01*
X109288251Y-83941719D01*
X109263747Y-83941719D01*
X109239714Y-83946500D01*
X109217075Y-83955877D01*
X109196700Y-83969491D01*
X109179374Y-83986817D01*
X109171911Y-83995911D01*
X109170107Y-83997391D01*
X109168053Y-83998489D01*
X109165818Y-83999167D01*
X109157360Y-84000000D01*
X108894640Y-84000000D01*
X108886182Y-83999167D01*
X108883947Y-83998489D01*
X108881893Y-83997391D01*
X108880089Y-83995911D01*
X108878609Y-83994107D01*
X108877511Y-83992053D01*
X108876833Y-83989818D01*
X108876000Y-83981360D01*
X108876000Y-82468640D01*
X108876833Y-82460182D01*
X108877511Y-82457947D01*
X108878609Y-82455893D01*
X108880089Y-82454089D01*
X108881893Y-82452609D01*
X108883947Y-82451511D01*
X108886182Y-82450833D01*
X108894640Y-82450000D01*
X109157360Y-82450000D01*
X109165818Y-82450833D01*
X109165818Y-82450833D01*
G37*
G36*
X105781000Y-83574000D02*
X104531000Y-83574000D01*
X104531000Y-82074000D01*
X105781000Y-82074000D01*
X105781000Y-83574000D01*
X105781000Y-83574000D01*
G37*
G36*
X121021000Y-82812000D02*
X119771000Y-82812000D01*
X119771000Y-81312000D01*
X121021000Y-81312000D01*
X121021000Y-82812000D01*
X121021000Y-82812000D01*
G37*
G36*
X101987324Y-81419768D02*
X102114562Y-81458365D01*
X102231825Y-81521043D01*
X102334607Y-81605395D01*
X102418959Y-81708177D01*
X102481637Y-81825440D01*
X102520234Y-81952678D01*
X102533267Y-82085001D01*
X102520234Y-82217324D01*
X102481637Y-82344562D01*
X102418959Y-82461825D01*
X102334607Y-82564607D01*
X102231825Y-82648959D01*
X102114562Y-82711637D01*
X101987324Y-82750234D01*
X101888160Y-82760001D01*
X101821842Y-82760001D01*
X101722678Y-82750234D01*
X101595440Y-82711637D01*
X101478177Y-82648959D01*
X101375395Y-82564607D01*
X101291043Y-82461825D01*
X101228365Y-82344562D01*
X101189768Y-82217324D01*
X101176735Y-82085001D01*
X101189768Y-81952678D01*
X101228365Y-81825440D01*
X101291043Y-81708177D01*
X101375395Y-81605395D01*
X101478177Y-81521043D01*
X101595440Y-81458365D01*
X101722678Y-81419768D01*
X101821842Y-81410001D01*
X101888160Y-81410001D01*
X101987324Y-81419768D01*
X101987324Y-81419768D01*
G37*
G36*
X123577324Y-81419768D02*
X123704562Y-81458365D01*
X123821825Y-81521043D01*
X123924607Y-81605395D01*
X124008959Y-81708177D01*
X124071637Y-81825440D01*
X124110234Y-81952678D01*
X124123267Y-82085001D01*
X124110234Y-82217324D01*
X124071637Y-82344562D01*
X124008959Y-82461825D01*
X123924607Y-82564607D01*
X123821825Y-82648959D01*
X123704562Y-82711637D01*
X123577324Y-82750234D01*
X123478160Y-82760001D01*
X123411842Y-82760001D01*
X123312678Y-82750234D01*
X123185440Y-82711637D01*
X123068177Y-82648959D01*
X122965395Y-82564607D01*
X122881043Y-82461825D01*
X122818365Y-82344562D01*
X122779768Y-82217324D01*
X122766735Y-82085001D01*
X122779768Y-81952678D01*
X122818365Y-81825440D01*
X122881043Y-81708177D01*
X122965395Y-81605395D01*
X123068177Y-81521043D01*
X123185440Y-81458365D01*
X123312678Y-81419768D01*
X123411842Y-81410001D01*
X123478160Y-81410001D01*
X123577324Y-81419768D01*
X123577324Y-81419768D01*
G37*
G36*
X114308000Y-81651000D02*
X112808000Y-81651000D01*
X112808000Y-80401000D01*
X114308000Y-80401000D01*
X114308000Y-81651000D01*
X114308000Y-81651000D01*
G37*
G36*
X116808000Y-81651000D02*
X115308000Y-81651000D01*
X115308000Y-80401000D01*
X116808000Y-80401000D01*
X116808000Y-81651000D01*
X116808000Y-81651000D01*
G37*
G36*
X109337000Y-81502000D02*
X108087000Y-81502000D01*
X108087000Y-80002000D01*
X109337000Y-80002000D01*
X109337000Y-81502000D01*
X109337000Y-81502000D01*
G37*
G36*
X124120001Y-80760001D02*
X122770001Y-80760001D01*
X122770001Y-79410001D01*
X124120001Y-79410001D01*
X124120001Y-80760001D01*
X124120001Y-80760001D01*
G37*
G36*
X102530001Y-80760001D02*
X101180001Y-80760001D01*
X101180001Y-79410001D01*
X102530001Y-79410001D01*
X102530001Y-80760001D01*
X102530001Y-80760001D01*
G37*
G36*
X109337000Y-79002000D02*
X108087000Y-79002000D01*
X108087000Y-77502000D01*
X109337000Y-77502000D01*
X109337000Y-79002000D01*
X109337000Y-79002000D01*
G37*
G36*
X116328548Y-78119130D02*
X114828548Y-78119130D01*
X114828548Y-76869130D01*
X116328548Y-76869130D01*
X116328548Y-78119130D01*
X116328548Y-78119130D01*
G37*
G36*
X118828548Y-78119130D02*
X117328548Y-78119130D01*
X117328548Y-76869130D01*
X118828548Y-76869130D01*
X118828548Y-78119130D01*
X118828548Y-78119130D01*
G37*
G36*
X113426000Y-77284000D02*
X112126000Y-77284000D01*
X112126000Y-75784000D01*
X113426000Y-75784000D01*
X113426000Y-77284000D01*
X113426000Y-77284000D01*
G37*
G36*
X116428548Y-76554130D02*
X114828548Y-76554130D01*
X114828548Y-75154130D01*
X116428548Y-75154130D01*
X116428548Y-76554130D01*
X116428548Y-76554130D01*
G37*
G36*
X118828548Y-76554130D02*
X117228548Y-76554130D01*
X117228548Y-75154130D01*
X118828548Y-75154130D01*
X118828548Y-76554130D01*
X118828548Y-76554130D01*
G37*
G36*
X100926000Y-75272000D02*
X99226000Y-75272000D01*
X99226000Y-73572000D01*
X100926000Y-73572000D01*
X100926000Y-75272000D01*
X100926000Y-75272000D01*
G37*
G36*
X116428548Y-74754130D02*
X114828548Y-74754130D01*
X114828548Y-73354130D01*
X116428548Y-73354130D01*
X116428548Y-74754130D01*
X116428548Y-74754130D01*
G37*
G36*
X118828548Y-74754130D02*
X117228548Y-74754130D01*
X117228548Y-73354130D01*
X118828548Y-73354130D01*
X118828548Y-74754130D01*
X118828548Y-74754130D01*
G37*
G36*
X113426000Y-74584000D02*
X112126000Y-74584000D01*
X112126000Y-73084000D01*
X113426000Y-73084000D01*
X113426000Y-74584000D01*
X113426000Y-74584000D01*
G37*
G36*
X100242630Y-71044299D02*
X100402855Y-71092903D01*
X100550520Y-71171831D01*
X100679949Y-71278051D01*
X100786169Y-71407480D01*
X100865097Y-71555145D01*
X100913701Y-71715370D01*
X100930112Y-71882000D01*
X100913701Y-72048630D01*
X100865097Y-72208855D01*
X100786169Y-72356520D01*
X100679949Y-72485949D01*
X100550520Y-72592169D01*
X100402855Y-72671097D01*
X100242630Y-72719701D01*
X100117752Y-72732000D01*
X100034248Y-72732000D01*
X99909370Y-72719701D01*
X99749145Y-72671097D01*
X99601480Y-72592169D01*
X99472051Y-72485949D01*
X99365831Y-72356520D01*
X99286903Y-72208855D01*
X99238299Y-72048630D01*
X99221888Y-71882000D01*
X99238299Y-71715370D01*
X99286903Y-71555145D01*
X99365831Y-71407480D01*
X99472051Y-71278051D01*
X99601480Y-71171831D01*
X99749145Y-71092903D01*
X99909370Y-71044299D01*
X100034248Y-71032000D01*
X100117752Y-71032000D01*
X100242630Y-71044299D01*
X100242630Y-71044299D01*
G37*
G36*
X100242630Y-68504299D02*
X100402855Y-68552903D01*
X100550520Y-68631831D01*
X100679949Y-68738051D01*
X100786169Y-68867480D01*
X100865097Y-69015145D01*
X100913701Y-69175370D01*
X100930112Y-69342000D01*
X100913701Y-69508630D01*
X100865097Y-69668855D01*
X100786169Y-69816520D01*
X100679949Y-69945949D01*
X100550520Y-70052169D01*
X100402855Y-70131097D01*
X100242630Y-70179701D01*
X100117752Y-70192000D01*
X100034248Y-70192000D01*
X99909370Y-70179701D01*
X99749145Y-70131097D01*
X99601480Y-70052169D01*
X99472051Y-69945949D01*
X99365831Y-69816520D01*
X99286903Y-69668855D01*
X99238299Y-69508630D01*
X99221888Y-69342000D01*
X99238299Y-69175370D01*
X99286903Y-69015145D01*
X99365831Y-68867480D01*
X99472051Y-68738051D01*
X99601480Y-68631831D01*
X99749145Y-68552903D01*
X99909370Y-68504299D01*
X100034248Y-68492000D01*
X100117752Y-68492000D01*
X100242630Y-68504299D01*
X100242630Y-68504299D01*
G37*
G36*
X123599643Y-63312076D02*
X123633534Y-63322357D01*
X123664762Y-63339048D01*
X123692136Y-63361515D01*
X123714603Y-63388889D01*
X123731294Y-63420117D01*
X123741575Y-63454008D01*
X123745651Y-63495391D01*
X123745651Y-64520609D01*
X123741575Y-64561992D01*
X123731294Y-64595883D01*
X123714603Y-64627111D01*
X123692136Y-64654485D01*
X123664762Y-64676952D01*
X123633534Y-64693643D01*
X123599643Y-64703924D01*
X123558260Y-64708000D01*
X122958042Y-64708000D01*
X122916659Y-64703924D01*
X122882768Y-64693643D01*
X122851540Y-64676952D01*
X122824166Y-64654485D01*
X122801699Y-64627111D01*
X122785008Y-64595883D01*
X122774727Y-64561992D01*
X122770651Y-64520609D01*
X122770651Y-63495391D01*
X122774727Y-63454008D01*
X122785008Y-63420117D01*
X122801699Y-63388889D01*
X122824166Y-63361515D01*
X122851540Y-63339048D01*
X122882768Y-63322357D01*
X122916659Y-63312076D01*
X122958042Y-63308000D01*
X123558260Y-63308000D01*
X123599643Y-63312076D01*
X123599643Y-63312076D01*
G37*
G36*
X121724643Y-63312076D02*
X121758534Y-63322357D01*
X121789762Y-63339048D01*
X121817136Y-63361515D01*
X121839603Y-63388889D01*
X121856294Y-63420117D01*
X121866575Y-63454008D01*
X121870651Y-63495391D01*
X121870651Y-64520609D01*
X121866575Y-64561992D01*
X121856294Y-64595883D01*
X121839603Y-64627111D01*
X121817136Y-64654485D01*
X121789762Y-64676952D01*
X121758534Y-64693643D01*
X121724643Y-64703924D01*
X121683260Y-64708000D01*
X121083042Y-64708000D01*
X121041659Y-64703924D01*
X121007768Y-64693643D01*
X120976540Y-64676952D01*
X120949166Y-64654485D01*
X120926699Y-64627111D01*
X120910008Y-64595883D01*
X120899727Y-64561992D01*
X120895651Y-64520609D01*
X120895651Y-63495391D01*
X120899727Y-63454008D01*
X120910008Y-63420117D01*
X120926699Y-63388889D01*
X120949166Y-63361515D01*
X120976540Y-63339048D01*
X121007768Y-63322357D01*
X121041659Y-63312076D01*
X121083042Y-63308000D01*
X121683260Y-63308000D01*
X121724643Y-63312076D01*
X121724643Y-63312076D01*
G37*
G36*
X120210000Y-64658000D02*
X118710000Y-64658000D01*
X118710000Y-63358000D01*
X120210000Y-63358000D01*
X120210000Y-64658000D01*
X120210000Y-64658000D01*
G37*
G36*
X117510000Y-64658000D02*
X116010000Y-64658000D01*
X116010000Y-63358000D01*
X117510000Y-63358000D01*
X117510000Y-64658000D01*
X117510000Y-64658000D01*
G37*
G36*
X123599643Y-61280076D02*
X123633534Y-61290357D01*
X123664762Y-61307048D01*
X123692136Y-61329515D01*
X123714603Y-61356889D01*
X123731294Y-61388117D01*
X123741575Y-61422008D01*
X123745651Y-61463391D01*
X123745651Y-62488609D01*
X123741575Y-62529992D01*
X123731294Y-62563883D01*
X123714603Y-62595111D01*
X123692136Y-62622485D01*
X123664762Y-62644952D01*
X123633534Y-62661643D01*
X123599643Y-62671924D01*
X123558260Y-62676000D01*
X122958042Y-62676000D01*
X122916659Y-62671924D01*
X122882768Y-62661643D01*
X122851540Y-62644952D01*
X122824166Y-62622485D01*
X122801699Y-62595111D01*
X122785008Y-62563883D01*
X122774727Y-62529992D01*
X122770651Y-62488609D01*
X122770651Y-61463391D01*
X122774727Y-61422008D01*
X122785008Y-61388117D01*
X122801699Y-61356889D01*
X122824166Y-61329515D01*
X122851540Y-61307048D01*
X122882768Y-61290357D01*
X122916659Y-61280076D01*
X122958042Y-61276000D01*
X123558260Y-61276000D01*
X123599643Y-61280076D01*
X123599643Y-61280076D01*
G37*
G36*
X121724643Y-61280076D02*
X121758534Y-61290357D01*
X121789762Y-61307048D01*
X121817136Y-61329515D01*
X121839603Y-61356889D01*
X121856294Y-61388117D01*
X121866575Y-61422008D01*
X121870651Y-61463391D01*
X121870651Y-62488609D01*
X121866575Y-62529992D01*
X121856294Y-62563883D01*
X121839603Y-62595111D01*
X121817136Y-62622485D01*
X121789762Y-62644952D01*
X121758534Y-62661643D01*
X121724643Y-62671924D01*
X121683260Y-62676000D01*
X121083042Y-62676000D01*
X121041659Y-62671924D01*
X121007768Y-62661643D01*
X120976540Y-62644952D01*
X120949166Y-62622485D01*
X120926699Y-62595111D01*
X120910008Y-62563883D01*
X120899727Y-62529992D01*
X120895651Y-62488609D01*
X120895651Y-61463391D01*
X120899727Y-61422008D01*
X120910008Y-61388117D01*
X120926699Y-61356889D01*
X120949166Y-61329515D01*
X120976540Y-61307048D01*
X121007768Y-61290357D01*
X121041659Y-61280076D01*
X121083042Y-61276000D01*
X121683260Y-61276000D01*
X121724643Y-61280076D01*
X121724643Y-61280076D01*
G37*
G36*
X120210000Y-62626000D02*
X118710000Y-62626000D01*
X118710000Y-61326000D01*
X120210000Y-61326000D01*
X120210000Y-62626000D01*
X120210000Y-62626000D01*
G37*
G36*
X117510000Y-62626000D02*
X116010000Y-62626000D01*
X116010000Y-61326000D01*
X117510000Y-61326000D01*
X117510000Y-62626000D01*
X117510000Y-62626000D01*
G37*
G36*
X121724643Y-59248076D02*
X121758534Y-59258357D01*
X121789762Y-59275048D01*
X121817136Y-59297515D01*
X121839603Y-59324889D01*
X121856294Y-59356117D01*
X121866575Y-59390008D01*
X121870651Y-59431391D01*
X121870651Y-60456609D01*
X121866575Y-60497992D01*
X121856294Y-60531883D01*
X121839603Y-60563111D01*
X121817136Y-60590485D01*
X121789762Y-60612952D01*
X121758534Y-60629643D01*
X121724643Y-60639924D01*
X121683260Y-60644000D01*
X121083042Y-60644000D01*
X121041659Y-60639924D01*
X121007768Y-60629643D01*
X120976540Y-60612952D01*
X120949166Y-60590485D01*
X120926699Y-60563111D01*
X120910008Y-60531883D01*
X120899727Y-60497992D01*
X120895651Y-60456609D01*
X120895651Y-59431391D01*
X120899727Y-59390008D01*
X120910008Y-59356117D01*
X120926699Y-59324889D01*
X120949166Y-59297515D01*
X120976540Y-59275048D01*
X121007768Y-59258357D01*
X121041659Y-59248076D01*
X121083042Y-59244000D01*
X121683260Y-59244000D01*
X121724643Y-59248076D01*
X121724643Y-59248076D01*
G37*
G36*
X123599643Y-59248076D02*
X123633534Y-59258357D01*
X123664762Y-59275048D01*
X123692136Y-59297515D01*
X123714603Y-59324889D01*
X123731294Y-59356117D01*
X123741575Y-59390008D01*
X123745651Y-59431391D01*
X123745651Y-60456609D01*
X123741575Y-60497992D01*
X123731294Y-60531883D01*
X123714603Y-60563111D01*
X123692136Y-60590485D01*
X123664762Y-60612952D01*
X123633534Y-60629643D01*
X123599643Y-60639924D01*
X123558260Y-60644000D01*
X122958042Y-60644000D01*
X122916659Y-60639924D01*
X122882768Y-60629643D01*
X122851540Y-60612952D01*
X122824166Y-60590485D01*
X122801699Y-60563111D01*
X122785008Y-60531883D01*
X122774727Y-60497992D01*
X122770651Y-60456609D01*
X122770651Y-59431391D01*
X122774727Y-59390008D01*
X122785008Y-59356117D01*
X122801699Y-59324889D01*
X122824166Y-59297515D01*
X122851540Y-59275048D01*
X122882768Y-59258357D01*
X122916659Y-59248076D01*
X122958042Y-59244000D01*
X123558260Y-59244000D01*
X123599643Y-59248076D01*
X123599643Y-59248076D01*
G37*
G36*
X117510000Y-60594000D02*
X116010000Y-60594000D01*
X116010000Y-59294000D01*
X117510000Y-59294000D01*
X117510000Y-60594000D01*
X117510000Y-60594000D01*
G37*
G36*
X120210000Y-60594000D02*
X118710000Y-60594000D01*
X118710000Y-59294000D01*
X120210000Y-59294000D01*
X120210000Y-60594000D01*
X120210000Y-60594000D01*
G37*
G36*
X116166000Y-48856000D02*
X114466000Y-48856000D01*
X114466000Y-47156000D01*
X116166000Y-47156000D01*
X116166000Y-48856000D01*
X116166000Y-48856000D01*
G37*
G36*
X123786000Y-48856000D02*
X122086000Y-48856000D01*
X122086000Y-47156000D01*
X123786000Y-47156000D01*
X123786000Y-48856000D01*
X123786000Y-48856000D01*
G37*
M02*
