G04 #@! TF.GenerationSoftware,KiCad,Pcbnew,5.0.2-bee76a0~70~ubuntu18.04.1*
G04 #@! TF.CreationDate,2020-02-03T17:56:43+02:00*
G04 #@! TF.ProjectId,Telemetry Board,54656c65-6d65-4747-9279-20426f617264,V1.4.1*
G04 #@! TF.SameCoordinates,Original*
G04 #@! TF.FileFunction,Copper,L1,Top*
G04 #@! TF.FilePolarity,Positive*
%FSLAX46Y46*%
G04 Gerber Fmt 4.6, Leading zero omitted, Abs format (unit mm)*
G04 Created by KiCad (PCBNEW 5.0.2-bee76a0~70~ubuntu18.04.1) date ma  3. helmikuuta 2020 17.56.43*
%MOMM*%
%LPD*%
G01*
G04 APERTURE LIST*
G04 #@! TA.AperFunction,ComponentPad*
%ADD10R,1.350000X1.350000*%
G04 #@! TD*
G04 #@! TA.AperFunction,ComponentPad*
%ADD11O,1.350000X1.350000*%
G04 #@! TD*
G04 #@! TA.AperFunction,Conductor*
%ADD12C,0.100000*%
G04 #@! TD*
G04 #@! TA.AperFunction,SMDPad,CuDef*
%ADD13C,0.975000*%
G04 #@! TD*
G04 #@! TA.AperFunction,SMDPad,CuDef*
%ADD14C,2.000000*%
G04 #@! TD*
G04 #@! TA.AperFunction,SMDPad,CuDef*
%ADD15R,4.600000X0.800000*%
G04 #@! TD*
G04 #@! TA.AperFunction,SMDPad,CuDef*
%ADD16R,9.400000X10.800000*%
G04 #@! TD*
G04 #@! TA.AperFunction,ComponentPad*
%ADD17R,1.700000X1.700000*%
G04 #@! TD*
G04 #@! TA.AperFunction,ComponentPad*
%ADD18O,1.700000X1.700000*%
G04 #@! TD*
G04 #@! TA.AperFunction,SMDPad,CuDef*
%ADD19R,2.100000X1.800000*%
G04 #@! TD*
G04 #@! TA.AperFunction,SMDPad,CuDef*
%ADD20R,1.250000X1.500000*%
G04 #@! TD*
G04 #@! TA.AperFunction,SMDPad,CuDef*
%ADD21R,1.500000X1.250000*%
G04 #@! TD*
G04 #@! TA.AperFunction,SMDPad,CuDef*
%ADD22R,1.300000X1.500000*%
G04 #@! TD*
G04 #@! TA.AperFunction,SMDPad,CuDef*
%ADD23R,1.500000X1.300000*%
G04 #@! TD*
G04 #@! TA.AperFunction,BGAPad,CuDef*
%ADD24C,1.000000*%
G04 #@! TD*
G04 #@! TA.AperFunction,SMDPad,CuDef*
%ADD25R,1.600000X2.000000*%
G04 #@! TD*
G04 #@! TA.AperFunction,SMDPad,CuDef*
%ADD26C,1.300000*%
G04 #@! TD*
G04 #@! TA.AperFunction,SMDPad,CuDef*
%ADD27R,0.700000X1.500000*%
G04 #@! TD*
G04 #@! TA.AperFunction,SMDPad,CuDef*
%ADD28R,0.910000X1.400000*%
G04 #@! TD*
G04 #@! TA.AperFunction,ViaPad*
%ADD29C,0.600000*%
G04 #@! TD*
G04 #@! TA.AperFunction,ViaPad*
%ADD30C,0.800000*%
G04 #@! TD*
G04 #@! TA.AperFunction,Conductor*
%ADD31C,0.500000*%
G04 #@! TD*
G04 #@! TA.AperFunction,Conductor*
%ADD32C,1.000000*%
G04 #@! TD*
G04 #@! TA.AperFunction,Conductor*
%ADD33C,0.200000*%
G04 #@! TD*
G04 #@! TA.AperFunction,Conductor*
%ADD34C,0.254000*%
G04 #@! TD*
G04 APERTURE END LIST*
D10*
G04 #@! TO.P,J9,1*
G04 #@! TO.N,+3.3V*
X101855001Y-80085001D03*
D11*
G04 #@! TO.P,J9,2*
G04 #@! TO.N,RxUART*
X101855001Y-82085001D03*
G04 #@! TO.P,J9,3*
G04 #@! TO.N,TxUART*
X101855001Y-84085001D03*
G04 #@! TO.P,J9,4*
G04 #@! TO.N,SPI_MISO*
X101855001Y-86085001D03*
G04 #@! TO.P,J9,5*
G04 #@! TO.N,RSTX*
X101855001Y-88085001D03*
G04 #@! TO.P,J9,6*
G04 #@! TO.N,ConIdent*
X101855001Y-90085001D03*
G04 #@! TO.P,J9,7*
G04 #@! TO.N,Net-(J9-Pad7)*
X101855001Y-92085001D03*
G04 #@! TO.P,J9,8*
G04 #@! TO.N,Net-(J9-Pad8)*
X101855001Y-94085001D03*
G04 #@! TO.P,J9,9*
G04 #@! TO.N,Net-(J9-Pad9)*
X101855001Y-96085001D03*
G04 #@! TO.P,J9,10*
G04 #@! TO.N,GND*
X101855001Y-98085001D03*
G04 #@! TO.P,J9,17*
G04 #@! TO.N,Net-(J9-Pad17)*
X123445001Y-92085001D03*
G04 #@! TO.P,J9,12*
G04 #@! TO.N,Net-(J9-Pad12)*
X123445001Y-82085001D03*
D10*
G04 #@! TO.P,J9,11*
G04 #@! TO.N,Net-(J9-Pad11)*
X123445001Y-80085001D03*
D11*
G04 #@! TO.P,J9,16*
G04 #@! TO.N,Net-(J9-Pad16)*
X123445001Y-90085001D03*
G04 #@! TO.P,J9,13*
G04 #@! TO.N,SPI_CLK*
X123445001Y-84085001D03*
G04 #@! TO.P,J9,18*
G04 #@! TO.N,Net-(J9-Pad18)*
X123445001Y-94085001D03*
G04 #@! TO.P,J9,15*
G04 #@! TO.N,RTS*
X123445001Y-88085001D03*
G04 #@! TO.P,J9,14*
G04 #@! TO.N,SPI_SS*
X123445001Y-86085001D03*
G04 #@! TO.P,J9,20*
G04 #@! TO.N,SPI_MOSI*
X123445001Y-98085001D03*
G04 #@! TO.P,J9,19*
G04 #@! TO.N,CTS*
X123445001Y-96085001D03*
G04 #@! TD*
D12*
G04 #@! TO.N,GND*
G04 #@! TO.C,D8*
G36*
X99794142Y-96209174D02*
X99817803Y-96212684D01*
X99841007Y-96218496D01*
X99863529Y-96226554D01*
X99885153Y-96236782D01*
X99905670Y-96249079D01*
X99924883Y-96263329D01*
X99942607Y-96279393D01*
X99958671Y-96297117D01*
X99972921Y-96316330D01*
X99985218Y-96336847D01*
X99995446Y-96358471D01*
X100003504Y-96380993D01*
X100009316Y-96404197D01*
X100012826Y-96427858D01*
X100014000Y-96451750D01*
X100014000Y-96939250D01*
X100012826Y-96963142D01*
X100009316Y-96986803D01*
X100003504Y-97010007D01*
X99995446Y-97032529D01*
X99985218Y-97054153D01*
X99972921Y-97074670D01*
X99958671Y-97093883D01*
X99942607Y-97111607D01*
X99924883Y-97127671D01*
X99905670Y-97141921D01*
X99885153Y-97154218D01*
X99863529Y-97164446D01*
X99841007Y-97172504D01*
X99817803Y-97178316D01*
X99794142Y-97181826D01*
X99770250Y-97183000D01*
X98857750Y-97183000D01*
X98833858Y-97181826D01*
X98810197Y-97178316D01*
X98786993Y-97172504D01*
X98764471Y-97164446D01*
X98742847Y-97154218D01*
X98722330Y-97141921D01*
X98703117Y-97127671D01*
X98685393Y-97111607D01*
X98669329Y-97093883D01*
X98655079Y-97074670D01*
X98642782Y-97054153D01*
X98632554Y-97032529D01*
X98624496Y-97010007D01*
X98618684Y-96986803D01*
X98615174Y-96963142D01*
X98614000Y-96939250D01*
X98614000Y-96451750D01*
X98615174Y-96427858D01*
X98618684Y-96404197D01*
X98624496Y-96380993D01*
X98632554Y-96358471D01*
X98642782Y-96336847D01*
X98655079Y-96316330D01*
X98669329Y-96297117D01*
X98685393Y-96279393D01*
X98703117Y-96263329D01*
X98722330Y-96249079D01*
X98742847Y-96236782D01*
X98764471Y-96226554D01*
X98786993Y-96218496D01*
X98810197Y-96212684D01*
X98833858Y-96209174D01*
X98857750Y-96208000D01*
X99770250Y-96208000D01*
X99794142Y-96209174D01*
X99794142Y-96209174D01*
G37*
D13*
G04 #@! TD*
G04 #@! TO.P,D8,1*
G04 #@! TO.N,GND*
X99314000Y-96695500D03*
D12*
G04 #@! TO.N,Net-(D8-Pad2)*
G04 #@! TO.C,D8*
G36*
X99794142Y-94334174D02*
X99817803Y-94337684D01*
X99841007Y-94343496D01*
X99863529Y-94351554D01*
X99885153Y-94361782D01*
X99905670Y-94374079D01*
X99924883Y-94388329D01*
X99942607Y-94404393D01*
X99958671Y-94422117D01*
X99972921Y-94441330D01*
X99985218Y-94461847D01*
X99995446Y-94483471D01*
X100003504Y-94505993D01*
X100009316Y-94529197D01*
X100012826Y-94552858D01*
X100014000Y-94576750D01*
X100014000Y-95064250D01*
X100012826Y-95088142D01*
X100009316Y-95111803D01*
X100003504Y-95135007D01*
X99995446Y-95157529D01*
X99985218Y-95179153D01*
X99972921Y-95199670D01*
X99958671Y-95218883D01*
X99942607Y-95236607D01*
X99924883Y-95252671D01*
X99905670Y-95266921D01*
X99885153Y-95279218D01*
X99863529Y-95289446D01*
X99841007Y-95297504D01*
X99817803Y-95303316D01*
X99794142Y-95306826D01*
X99770250Y-95308000D01*
X98857750Y-95308000D01*
X98833858Y-95306826D01*
X98810197Y-95303316D01*
X98786993Y-95297504D01*
X98764471Y-95289446D01*
X98742847Y-95279218D01*
X98722330Y-95266921D01*
X98703117Y-95252671D01*
X98685393Y-95236607D01*
X98669329Y-95218883D01*
X98655079Y-95199670D01*
X98642782Y-95179153D01*
X98632554Y-95157529D01*
X98624496Y-95135007D01*
X98618684Y-95111803D01*
X98615174Y-95088142D01*
X98614000Y-95064250D01*
X98614000Y-94576750D01*
X98615174Y-94552858D01*
X98618684Y-94529197D01*
X98624496Y-94505993D01*
X98632554Y-94483471D01*
X98642782Y-94461847D01*
X98655079Y-94441330D01*
X98669329Y-94422117D01*
X98685393Y-94404393D01*
X98703117Y-94388329D01*
X98722330Y-94374079D01*
X98742847Y-94361782D01*
X98764471Y-94351554D01*
X98786993Y-94343496D01*
X98810197Y-94337684D01*
X98833858Y-94334174D01*
X98857750Y-94333000D01*
X99770250Y-94333000D01*
X99794142Y-94334174D01*
X99794142Y-94334174D01*
G37*
D13*
G04 #@! TD*
G04 #@! TO.P,D8,2*
G04 #@! TO.N,Net-(D8-Pad2)*
X99314000Y-94820500D03*
D14*
G04 #@! TO.P,D1,2*
G04 #@! TO.N,GND*
X110144000Y-52451000D03*
D12*
G04 #@! TD*
G04 #@! TO.N,GND*
G04 #@! TO.C,D1*
G36*
X111344000Y-51451000D02*
X111344000Y-53451000D01*
X108944000Y-53451000D01*
X108944000Y-51451000D01*
X111344000Y-51451000D01*
X111344000Y-51451000D01*
G37*
D14*
G04 #@! TO.P,D1,1*
G04 #@! TO.N,VCC*
X115824000Y-52451000D03*
D12*
G04 #@! TD*
G04 #@! TO.N,VCC*
G04 #@! TO.C,D1*
G36*
X117024000Y-51451000D02*
X117024000Y-53451000D01*
X114624000Y-53451000D01*
X114624000Y-51451000D01*
X117024000Y-51451000D01*
X117024000Y-51451000D01*
G37*
D15*
G04 #@! TO.P,U3,1*
G04 #@! TO.N,VCC*
X110430000Y-56261000D03*
G04 #@! TO.P,U3,2*
G04 #@! TO.N,Net-(R6-Pad2)*
X110430000Y-57531000D03*
G04 #@! TO.P,U3,3*
G04 #@! TO.N,Net-(U3-Pad3)*
X110430000Y-58801000D03*
G04 #@! TO.P,U3,4*
G04 #@! TO.N,GND*
X110430000Y-60071000D03*
G04 #@! TO.P,U3,5*
G04 #@! TO.N,Net-(C6-Pad1)*
X110430000Y-61341000D03*
G04 #@! TO.P,U3,6*
G04 #@! TO.N,Net-(C7-Pad2)*
X110430000Y-62611000D03*
G04 #@! TO.P,U3,7*
G04 #@! TO.N,+3.3V*
X110430000Y-63881000D03*
D16*
G04 #@! TO.P,U3,8*
G04 #@! TO.N,GND*
X119580000Y-60071000D03*
G04 #@! TD*
D17*
G04 #@! TO.P,J4,1*
G04 #@! TO.N,GND*
X100076000Y-74422000D03*
D18*
G04 #@! TO.P,J4,2*
G04 #@! TO.N,BOOT0*
X100076000Y-71882000D03*
G04 #@! TO.P,J4,3*
G04 #@! TO.N,+3.3V*
X100076000Y-69342000D03*
G04 #@! TD*
D19*
G04 #@! TO.P,D2,1*
G04 #@! TO.N,VCC*
X118831000Y-52451000D03*
G04 #@! TO.P,D2,2*
G04 #@! TO.N,Net-(D2-Pad2)*
X123231000Y-52451000D03*
G04 #@! TD*
D20*
G04 #@! TO.P,C2,1*
G04 #@! TO.N,RSTS*
X106680000Y-72878000D03*
G04 #@! TO.P,C2,2*
G04 #@! TO.N,GND*
X106680000Y-70378000D03*
G04 #@! TD*
D21*
G04 #@! TO.P,C3,1*
G04 #@! TO.N,VCC*
X104648000Y-51054000D03*
G04 #@! TO.P,C3,2*
G04 #@! TO.N,GND*
X107148000Y-51054000D03*
G04 #@! TD*
D20*
G04 #@! TO.P,C6,2*
G04 #@! TO.N,GND*
X106172000Y-58440000D03*
G04 #@! TO.P,C6,1*
G04 #@! TO.N,Net-(C6-Pad1)*
X106172000Y-60940000D03*
G04 #@! TD*
G04 #@! TO.P,C7,1*
G04 #@! TO.N,+3.3V*
X106172000Y-66020000D03*
G04 #@! TO.P,C7,2*
G04 #@! TO.N,Net-(C7-Pad2)*
X106172000Y-63520000D03*
G04 #@! TD*
G04 #@! TO.P,C9,1*
G04 #@! TO.N,Net-(C9-Pad1)*
X120396000Y-90150000D03*
G04 #@! TO.P,C9,2*
G04 #@! TO.N,GND*
X120396000Y-87650000D03*
G04 #@! TD*
G04 #@! TO.P,C16,2*
G04 #@! TO.N,GND*
X125984000Y-68600000D03*
G04 #@! TO.P,C16,1*
G04 #@! TO.N,RSTX*
X125984000Y-71100000D03*
G04 #@! TD*
G04 #@! TO.P,C17,1*
G04 #@! TO.N,+3.3V*
X104394000Y-79990000D03*
G04 #@! TO.P,C17,2*
G04 #@! TO.N,GND*
X104394000Y-77490000D03*
G04 #@! TD*
G04 #@! TO.P,C18,2*
G04 #@! TO.N,GND*
X107188000Y-77490000D03*
G04 #@! TO.P,C18,1*
G04 #@! TO.N,+3.3V*
X107188000Y-79990000D03*
G04 #@! TD*
G04 #@! TO.P,C19,2*
G04 #@! TO.N,GND*
X109982000Y-77490000D03*
G04 #@! TO.P,C19,1*
G04 #@! TO.N,+3.3V*
X109982000Y-79990000D03*
G04 #@! TD*
G04 #@! TO.P,C20,1*
G04 #@! TO.N,RSTX*
X120904000Y-71354000D03*
G04 #@! TO.P,C20,2*
G04 #@! TO.N,GND*
X120904000Y-68854000D03*
G04 #@! TD*
D21*
G04 #@! TO.P,C25,2*
G04 #@! TO.N,GND*
X104414000Y-96774000D03*
G04 #@! TO.P,C25,1*
G04 #@! TO.N,+3.3V*
X106914000Y-96774000D03*
G04 #@! TD*
D12*
G04 #@! TO.N,GND*
G04 #@! TO.C,D9*
G36*
X123633142Y-74231174D02*
X123656803Y-74234684D01*
X123680007Y-74240496D01*
X123702529Y-74248554D01*
X123724153Y-74258782D01*
X123744670Y-74271079D01*
X123763883Y-74285329D01*
X123781607Y-74301393D01*
X123797671Y-74319117D01*
X123811921Y-74338330D01*
X123824218Y-74358847D01*
X123834446Y-74380471D01*
X123842504Y-74402993D01*
X123848316Y-74426197D01*
X123851826Y-74449858D01*
X123853000Y-74473750D01*
X123853000Y-75386250D01*
X123851826Y-75410142D01*
X123848316Y-75433803D01*
X123842504Y-75457007D01*
X123834446Y-75479529D01*
X123824218Y-75501153D01*
X123811921Y-75521670D01*
X123797671Y-75540883D01*
X123781607Y-75558607D01*
X123763883Y-75574671D01*
X123744670Y-75588921D01*
X123724153Y-75601218D01*
X123702529Y-75611446D01*
X123680007Y-75619504D01*
X123656803Y-75625316D01*
X123633142Y-75628826D01*
X123609250Y-75630000D01*
X123121750Y-75630000D01*
X123097858Y-75628826D01*
X123074197Y-75625316D01*
X123050993Y-75619504D01*
X123028471Y-75611446D01*
X123006847Y-75601218D01*
X122986330Y-75588921D01*
X122967117Y-75574671D01*
X122949393Y-75558607D01*
X122933329Y-75540883D01*
X122919079Y-75521670D01*
X122906782Y-75501153D01*
X122896554Y-75479529D01*
X122888496Y-75457007D01*
X122882684Y-75433803D01*
X122879174Y-75410142D01*
X122878000Y-75386250D01*
X122878000Y-74473750D01*
X122879174Y-74449858D01*
X122882684Y-74426197D01*
X122888496Y-74402993D01*
X122896554Y-74380471D01*
X122906782Y-74358847D01*
X122919079Y-74338330D01*
X122933329Y-74319117D01*
X122949393Y-74301393D01*
X122967117Y-74285329D01*
X122986330Y-74271079D01*
X123006847Y-74258782D01*
X123028471Y-74248554D01*
X123050993Y-74240496D01*
X123074197Y-74234684D01*
X123097858Y-74231174D01*
X123121750Y-74230000D01*
X123609250Y-74230000D01*
X123633142Y-74231174D01*
X123633142Y-74231174D01*
G37*
D13*
G04 #@! TD*
G04 #@! TO.P,D9,1*
G04 #@! TO.N,GND*
X123365500Y-74930000D03*
D12*
G04 #@! TO.N,Net-(D9-Pad2)*
G04 #@! TO.C,D9*
G36*
X121758142Y-74231174D02*
X121781803Y-74234684D01*
X121805007Y-74240496D01*
X121827529Y-74248554D01*
X121849153Y-74258782D01*
X121869670Y-74271079D01*
X121888883Y-74285329D01*
X121906607Y-74301393D01*
X121922671Y-74319117D01*
X121936921Y-74338330D01*
X121949218Y-74358847D01*
X121959446Y-74380471D01*
X121967504Y-74402993D01*
X121973316Y-74426197D01*
X121976826Y-74449858D01*
X121978000Y-74473750D01*
X121978000Y-75386250D01*
X121976826Y-75410142D01*
X121973316Y-75433803D01*
X121967504Y-75457007D01*
X121959446Y-75479529D01*
X121949218Y-75501153D01*
X121936921Y-75521670D01*
X121922671Y-75540883D01*
X121906607Y-75558607D01*
X121888883Y-75574671D01*
X121869670Y-75588921D01*
X121849153Y-75601218D01*
X121827529Y-75611446D01*
X121805007Y-75619504D01*
X121781803Y-75625316D01*
X121758142Y-75628826D01*
X121734250Y-75630000D01*
X121246750Y-75630000D01*
X121222858Y-75628826D01*
X121199197Y-75625316D01*
X121175993Y-75619504D01*
X121153471Y-75611446D01*
X121131847Y-75601218D01*
X121111330Y-75588921D01*
X121092117Y-75574671D01*
X121074393Y-75558607D01*
X121058329Y-75540883D01*
X121044079Y-75521670D01*
X121031782Y-75501153D01*
X121021554Y-75479529D01*
X121013496Y-75457007D01*
X121007684Y-75433803D01*
X121004174Y-75410142D01*
X121003000Y-75386250D01*
X121003000Y-74473750D01*
X121004174Y-74449858D01*
X121007684Y-74426197D01*
X121013496Y-74402993D01*
X121021554Y-74380471D01*
X121031782Y-74358847D01*
X121044079Y-74338330D01*
X121058329Y-74319117D01*
X121074393Y-74301393D01*
X121092117Y-74285329D01*
X121111330Y-74271079D01*
X121131847Y-74258782D01*
X121153471Y-74248554D01*
X121175993Y-74240496D01*
X121199197Y-74234684D01*
X121222858Y-74231174D01*
X121246750Y-74230000D01*
X121734250Y-74230000D01*
X121758142Y-74231174D01*
X121758142Y-74231174D01*
G37*
D13*
G04 #@! TD*
G04 #@! TO.P,D9,2*
G04 #@! TO.N,Net-(D9-Pad2)*
X121490500Y-74930000D03*
D17*
G04 #@! TO.P,J10,1*
G04 #@! TO.N,+3.3V*
X100076000Y-110490000D03*
D18*
G04 #@! TO.P,J10,2*
G04 #@! TO.N,SWDIO*
X100076000Y-107950000D03*
G04 #@! TO.P,J10,3*
G04 #@! TO.N,SWCLK*
X100076000Y-105410000D03*
G04 #@! TO.P,J10,4*
G04 #@! TO.N,GND*
X100076000Y-102870000D03*
G04 #@! TD*
D22*
G04 #@! TO.P,R3,1*
G04 #@! TO.N,RSTS*
X104648000Y-72978000D03*
G04 #@! TO.P,R3,2*
G04 #@! TO.N,GND*
X104648000Y-70278000D03*
G04 #@! TD*
G04 #@! TO.P,R6,1*
G04 #@! TO.N,VCC*
X104648000Y-53260000D03*
G04 #@! TO.P,R6,2*
G04 #@! TO.N,Net-(R6-Pad2)*
X104648000Y-55960000D03*
G04 #@! TD*
G04 #@! TO.P,R9,2*
G04 #@! TO.N,GND*
X102616000Y-58340000D03*
G04 #@! TO.P,R9,1*
G04 #@! TO.N,Net-(C7-Pad2)*
X102616000Y-61040000D03*
G04 #@! TD*
G04 #@! TO.P,R10,2*
G04 #@! TO.N,Net-(C7-Pad2)*
X103124000Y-63420000D03*
G04 #@! TO.P,R10,1*
G04 #@! TO.N,+3.3V*
X103124000Y-66120000D03*
G04 #@! TD*
G04 #@! TO.P,R15,1*
G04 #@! TO.N,Net-(D8-Pad2)*
X99314000Y-92790000D03*
G04 #@! TO.P,R15,2*
G04 #@! TO.N,ConIdent*
X99314000Y-90090000D03*
G04 #@! TD*
G04 #@! TO.P,R16,2*
G04 #@! TO.N,GND*
X123444000Y-68754000D03*
G04 #@! TO.P,R16,1*
G04 #@! TO.N,RSTX*
X123444000Y-71454000D03*
G04 #@! TD*
D23*
G04 #@! TO.P,R17,2*
G04 #@! TO.N,Net-(D9-Pad2)*
X119206000Y-76200000D03*
G04 #@! TO.P,R17,1*
G04 #@! TO.N,+3.3V*
X116506000Y-76200000D03*
G04 #@! TD*
D24*
G04 #@! TO.P,J18,1*
G04 #@! TO.N,CAN2RX*
X116586000Y-101346000D03*
G04 #@! TD*
G04 #@! TO.P,J19,1*
G04 #@! TO.N,CAN2TX*
X123444000Y-101346000D03*
G04 #@! TD*
G04 #@! TO.P,J20,1*
G04 #@! TO.N,CAN1RX*
X104394000Y-101600000D03*
G04 #@! TD*
G04 #@! TO.P,J21,1*
G04 #@! TO.N,CAN1TX*
X110744000Y-101346000D03*
G04 #@! TD*
D17*
G04 #@! TO.P,J1,1*
G04 #@! TO.N,Net-(D2-Pad2)*
X122936000Y-48006000D03*
G04 #@! TD*
G04 #@! TO.P,J2,1*
G04 #@! TO.N,GND*
X115316000Y-48006000D03*
G04 #@! TD*
G04 #@! TO.P,J3,1*
G04 #@! TO.N,CAN1HI*
X108966000Y-114046000D03*
D18*
G04 #@! TO.P,J3,2*
X106426000Y-114046000D03*
G04 #@! TO.P,J3,3*
G04 #@! TO.N,CAN1LO*
X103886000Y-114046000D03*
G04 #@! TO.P,J3,4*
X101346000Y-114046000D03*
G04 #@! TD*
G04 #@! TO.P,J5,4*
G04 #@! TO.N,CAN2LO*
X116332000Y-114046000D03*
G04 #@! TO.P,J5,3*
X118872000Y-114046000D03*
G04 #@! TO.P,J5,2*
G04 #@! TO.N,CAN2HI*
X121412000Y-114046000D03*
D17*
G04 #@! TO.P,J5,1*
X123952000Y-114046000D03*
G04 #@! TD*
D21*
G04 #@! TO.P,C4,2*
G04 #@! TO.N,+3.3V*
X106192000Y-99822000D03*
G04 #@! TO.P,C4,1*
G04 #@! TO.N,GND*
X108692000Y-99822000D03*
G04 #@! TD*
G04 #@! TO.P,C5,1*
G04 #@! TO.N,GND*
X120122000Y-99568000D03*
G04 #@! TO.P,C5,2*
G04 #@! TO.N,+3.3V*
X117622000Y-99568000D03*
G04 #@! TD*
D25*
G04 #@! TO.P,C8,2*
G04 #@! TO.N,GND*
X110236000Y-67088000D03*
G04 #@! TO.P,C8,1*
G04 #@! TO.N,+3.3V*
X110236000Y-71088000D03*
G04 #@! TD*
G04 #@! TO.P,C21,1*
G04 #@! TO.N,+3.3V*
X113772910Y-71088000D03*
G04 #@! TO.P,C21,2*
G04 #@! TO.N,GND*
X113772910Y-67088000D03*
G04 #@! TD*
G04 #@! TO.P,C22,2*
G04 #@! TO.N,GND*
X117348000Y-67088000D03*
G04 #@! TO.P,C22,1*
G04 #@! TO.N,+3.3V*
X117348000Y-71088000D03*
G04 #@! TD*
D22*
G04 #@! TO.P,R1,2*
G04 #@! TO.N,GND*
X123444000Y-104234000D03*
G04 #@! TO.P,R1,1*
X123444000Y-106934000D03*
G04 #@! TD*
G04 #@! TO.P,R2,2*
G04 #@! TO.N,GND*
X111252000Y-104314000D03*
G04 #@! TO.P,R2,1*
X111252000Y-107014000D03*
G04 #@! TD*
D26*
G04 #@! TO.P,R4,1*
G04 #@! TO.N,Net-(C23-Pad2)*
X112460594Y-109027406D03*
D12*
G04 #@! TD*
G04 #@! TO.N,Net-(C23-Pad2)*
G04 #@! TO.C,R4*
G36*
X112531305Y-108037457D02*
X113450543Y-108956695D01*
X112389883Y-110017355D01*
X111470645Y-109098117D01*
X112531305Y-108037457D01*
X112531305Y-108037457D01*
G37*
D26*
G04 #@! TO.P,R4,2*
G04 #@! TO.N,CAN1HI*
X110551406Y-110936594D03*
D12*
G04 #@! TD*
G04 #@! TO.N,CAN1HI*
G04 #@! TO.C,R4*
G36*
X110622117Y-109946645D02*
X111541355Y-110865883D01*
X110480695Y-111926543D01*
X109561457Y-111007305D01*
X110622117Y-109946645D01*
X110622117Y-109946645D01*
G37*
D26*
G04 #@! TO.P,R5,1*
G04 #@! TO.N,CAN2LO*
X117032594Y-110936594D03*
D12*
G04 #@! TD*
G04 #@! TO.N,CAN2LO*
G04 #@! TO.C,R5*
G36*
X118022543Y-111007305D02*
X117103305Y-111926543D01*
X116042645Y-110865883D01*
X116961883Y-109946645D01*
X118022543Y-111007305D01*
X118022543Y-111007305D01*
G37*
D26*
G04 #@! TO.P,R5,2*
G04 #@! TO.N,Net-(C24-Pad2)*
X115123406Y-109027406D03*
D12*
G04 #@! TD*
G04 #@! TO.N,Net-(C24-Pad2)*
G04 #@! TO.C,R5*
G36*
X116113355Y-109098117D02*
X115194117Y-110017355D01*
X114133457Y-108956695D01*
X115052695Y-108037457D01*
X116113355Y-109098117D01*
X116113355Y-109098117D01*
G37*
D27*
G04 #@! TO.P,U1,8*
G04 #@! TO.N,GND*
X109474000Y-107044000D03*
G04 #@! TO.P,U1,7*
G04 #@! TO.N,CAN1HI*
X108204000Y-107044000D03*
G04 #@! TO.P,U1,6*
G04 #@! TO.N,CAN1LO*
X106934000Y-107044000D03*
G04 #@! TO.P,U1,5*
G04 #@! TO.N,Net-(U1-Pad5)*
X105664000Y-107044000D03*
G04 #@! TO.P,U1,4*
G04 #@! TO.N,CAN1RX*
X105664000Y-101744000D03*
G04 #@! TO.P,U1,3*
G04 #@! TO.N,+3.3V*
X106934000Y-101744000D03*
G04 #@! TO.P,U1,2*
G04 #@! TO.N,GND*
X108204000Y-101744000D03*
G04 #@! TO.P,U1,1*
G04 #@! TO.N,CAN1TX*
X109474000Y-101744000D03*
G04 #@! TD*
G04 #@! TO.P,U2,1*
G04 #@! TO.N,CAN2TX*
X121793000Y-101744000D03*
G04 #@! TO.P,U2,2*
G04 #@! TO.N,GND*
X120523000Y-101744000D03*
G04 #@! TO.P,U2,3*
G04 #@! TO.N,+3.3V*
X119253000Y-101744000D03*
G04 #@! TO.P,U2,4*
G04 #@! TO.N,CAN2RX*
X117983000Y-101744000D03*
G04 #@! TO.P,U2,5*
G04 #@! TO.N,Net-(U2-Pad5)*
X117983000Y-107044000D03*
G04 #@! TO.P,U2,6*
G04 #@! TO.N,CAN2LO*
X119253000Y-107044000D03*
G04 #@! TO.P,U2,7*
G04 #@! TO.N,CAN2HI*
X120523000Y-107044000D03*
G04 #@! TO.P,U2,8*
G04 #@! TO.N,GND*
X121793000Y-107044000D03*
G04 #@! TD*
D28*
G04 #@! TO.P,U5,3*
G04 #@! TO.N,GND*
X107442000Y-108936000D03*
G04 #@! TO.P,U5,2*
G04 #@! TO.N,CAN1HI*
X108392000Y-111536000D03*
G04 #@! TO.P,U5,1*
G04 #@! TO.N,CAN1LO*
X106492000Y-111536000D03*
G04 #@! TD*
G04 #@! TO.P,U6,1*
G04 #@! TO.N,CAN2LO*
X118938000Y-111536000D03*
G04 #@! TO.P,U6,2*
G04 #@! TO.N,CAN2HI*
X120838000Y-111536000D03*
G04 #@! TO.P,U6,3*
G04 #@! TO.N,GND*
X119888000Y-108936000D03*
G04 #@! TD*
D26*
G04 #@! TO.P,R7,1*
G04 #@! TO.N,CAN1LO*
X104586594Y-110682594D03*
D12*
G04 #@! TD*
G04 #@! TO.N,CAN1LO*
G04 #@! TO.C,R7*
G36*
X105576543Y-110753305D02*
X104657305Y-111672543D01*
X103596645Y-110611883D01*
X104515883Y-109692645D01*
X105576543Y-110753305D01*
X105576543Y-110753305D01*
G37*
D26*
G04 #@! TO.P,R7,2*
G04 #@! TO.N,Net-(C23-Pad2)*
X102677406Y-108773406D03*
D12*
G04 #@! TD*
G04 #@! TO.N,Net-(C23-Pad2)*
G04 #@! TO.C,R7*
G36*
X103667355Y-108844117D02*
X102748117Y-109763355D01*
X101687457Y-108702695D01*
X102606695Y-107783457D01*
X103667355Y-108844117D01*
X103667355Y-108844117D01*
G37*
D26*
G04 #@! TO.P,R8,2*
G04 #@! TO.N,CAN2HI*
X122743406Y-110936594D03*
D12*
G04 #@! TD*
G04 #@! TO.N,CAN2HI*
G04 #@! TO.C,R8*
G36*
X122814117Y-109946645D02*
X123733355Y-110865883D01*
X122672695Y-111926543D01*
X121753457Y-111007305D01*
X122814117Y-109946645D01*
X122814117Y-109946645D01*
G37*
D26*
G04 #@! TO.P,R8,1*
G04 #@! TO.N,Net-(C24-Pad2)*
X124652594Y-109027406D03*
D12*
G04 #@! TD*
G04 #@! TO.N,Net-(C24-Pad2)*
G04 #@! TO.C,R8*
G36*
X124723305Y-108037457D02*
X125642543Y-108956695D01*
X124581883Y-110017355D01*
X123662645Y-109098117D01*
X124723305Y-108037457D01*
X124723305Y-108037457D01*
G37*
D29*
G04 #@! TO.N,*
X114300000Y-73152000D03*
G04 #@! TO.N,GND*
X118110000Y-65024000D03*
X118110000Y-61722000D03*
X119634000Y-56642000D03*
X117348000Y-57404000D03*
X123444000Y-55499000D03*
X117221000Y-55689500D03*
X120396000Y-65278000D03*
X125984000Y-59944000D03*
X99568000Y-61468000D03*
X100012500Y-63627000D03*
X113919000Y-63754000D03*
X113919000Y-56261000D03*
X116967000Y-54102000D03*
X112395000Y-54610000D03*
D30*
X109982000Y-77490000D03*
X120396000Y-92222000D03*
X116332000Y-85852000D03*
D29*
X101092000Y-51308000D03*
X101854000Y-55626000D03*
X109728000Y-48260000D03*
X110430000Y-60071000D03*
X104394000Y-61976000D03*
X99822000Y-77978000D03*
X114808000Y-97536000D03*
X99060000Y-114046000D03*
X113284000Y-115570000D03*
X106172000Y-81280000D03*
X105918000Y-78740000D03*
X104648000Y-92456000D03*
X112268000Y-96520000D03*
X121666000Y-96774000D03*
X121666000Y-84328000D03*
X99060000Y-100330000D03*
X103378000Y-99060000D03*
X120450500Y-87829500D03*
X103632000Y-95250000D03*
D30*
X109454000Y-96774000D03*
X113558000Y-81026000D03*
D29*
X99568000Y-83312000D03*
X126238000Y-95504000D03*
X125730000Y-101600000D03*
X125984000Y-89408000D03*
X125222000Y-81280000D03*
X125984000Y-77216000D03*
X126492000Y-74676000D03*
X125730000Y-66548000D03*
X125730000Y-57150000D03*
X125984000Y-51562000D03*
X99822000Y-55372000D03*
X105156000Y-85324000D03*
X110236000Y-90424000D03*
X113284000Y-85852000D03*
X103632000Y-90424000D03*
X104648000Y-86868000D03*
X121412000Y-79756000D03*
X118364000Y-80772000D03*
X120904000Y-77724000D03*
X108204000Y-75184000D03*
X103124000Y-75692000D03*
X103124000Y-70612000D03*
X119380000Y-68072000D03*
X111760000Y-113030000D03*
X98806000Y-48768000D03*
X105664000Y-47244000D03*
X103886000Y-48006000D03*
X125984000Y-53594000D03*
X117856000Y-49784000D03*
X107950000Y-53340000D03*
X109982000Y-65278000D03*
X105918000Y-75692000D03*
X109982000Y-73406000D03*
X121174019Y-98459990D03*
X112776000Y-111506000D03*
X107442000Y-110236000D03*
X119888000Y-110236000D03*
X116586000Y-105156000D03*
X114046000Y-106426000D03*
X113284000Y-104140000D03*
X113284000Y-101092000D03*
X103124000Y-104394000D03*
X125222000Y-106934000D03*
X125984000Y-112522000D03*
X110236000Y-99568000D03*
D30*
G04 #@! TO.N,RSTS*
X113030012Y-78740000D03*
G04 #@! TO.N,RSTX*
X99314000Y-67310000D03*
X112493128Y-65217508D03*
G04 #@! TO.N,BOOT0*
X108712000Y-87122000D03*
G04 #@! TO.N,CAN1RX*
X104394000Y-98552000D03*
D29*
G04 #@! TO.N,CAN1TX*
X110744000Y-101346000D03*
D30*
G04 #@! TO.N,Net-(C9-Pad1)*
X116586000Y-90170000D03*
D29*
G04 #@! TO.N,SPI_MISO*
X105664000Y-88900000D03*
D30*
G04 #@! TO.N,RTS*
X119380000Y-97790000D03*
X117856000Y-95504000D03*
D29*
X114808000Y-92964000D03*
D30*
G04 #@! TO.N,+3.3V*
X108712000Y-80772000D03*
X120396000Y-94722000D03*
X116058000Y-81026000D03*
X120396000Y-84582000D03*
X105156000Y-82824000D03*
X117348000Y-71088000D03*
D29*
X107950000Y-94742000D03*
X106954000Y-96774000D03*
D30*
G04 #@! TO.N,CAN2RX*
X115824000Y-91948000D03*
D29*
G04 #@! TO.N,CAN2TX*
X123444000Y-101346000D03*
G04 #@! TO.N,Net-(C23-Pad2)*
X102616000Y-108712000D03*
X112522000Y-108966000D03*
G04 #@! TO.N,Net-(C24-Pad2)*
X115062000Y-108966000D03*
X124714000Y-108966000D03*
G04 #@! TD*
D31*
G04 #@! TO.N,GND*
X106592500Y-70603000D02*
X106680000Y-70690500D01*
X104648000Y-70603000D02*
X106592500Y-70603000D01*
X120904000Y-69166500D02*
X120904000Y-68579000D01*
X106680000Y-70690500D02*
X106999678Y-70690500D01*
D32*
X119580000Y-60071000D02*
X110430000Y-60071000D01*
D31*
X108747000Y-51054000D02*
X110144000Y-52451000D01*
X107148000Y-51054000D02*
X108747000Y-51054000D01*
X107630000Y-60071000D02*
X110430000Y-60071000D01*
X106172000Y-58613000D02*
X107630000Y-60071000D01*
X106172000Y-58440000D02*
X106172000Y-58613000D01*
X109982000Y-77490000D02*
X104394000Y-77490000D01*
D33*
X121321001Y-91296999D02*
X120396000Y-92222000D01*
X121321001Y-88700001D02*
X121321001Y-91296999D01*
X120396000Y-87775000D02*
X120450500Y-87829500D01*
X120396000Y-87650000D02*
X120396000Y-87775000D01*
X120396000Y-87650000D02*
X118130000Y-87650000D01*
X118130000Y-87650000D02*
X116332000Y-85852000D01*
X120450500Y-87829500D02*
X121321001Y-88700001D01*
D31*
X108024001Y-95698999D02*
X108083002Y-95758000D01*
X105803999Y-95698999D02*
X108024001Y-95698999D01*
X105744998Y-95758000D02*
X105803999Y-95698999D01*
X105555000Y-95758000D02*
X105744998Y-95758000D01*
X104414000Y-96774000D02*
X104539000Y-96774000D01*
X108083002Y-95758000D02*
X108438000Y-95758000D01*
X104539000Y-96774000D02*
X105555000Y-95758000D01*
X108438000Y-95758000D02*
X109454000Y-96774000D01*
X109982000Y-77490000D02*
X109982000Y-77615000D01*
X109982000Y-77615000D02*
X113393000Y-81026000D01*
X113393000Y-81026000D02*
X113558000Y-81026000D01*
X123444000Y-104234000D02*
X123444000Y-103124000D01*
X111252000Y-104314000D02*
X111252000Y-103378000D01*
X111252000Y-107014000D02*
X111252000Y-104314000D01*
X109474000Y-107044000D02*
X111222000Y-107044000D01*
X111222000Y-107044000D02*
X111252000Y-107014000D01*
X123334000Y-107044000D02*
X123444000Y-106934000D01*
X123444000Y-106934000D02*
X123444000Y-104234000D01*
X121793000Y-107044000D02*
X123334000Y-107044000D01*
G04 #@! TO.N,RSTS*
X106580000Y-72978000D02*
X106680000Y-72878000D01*
X104648000Y-72978000D02*
X106580000Y-72978000D01*
D33*
X112776000Y-78740000D02*
X113030012Y-78740000D01*
X106914000Y-72878000D02*
X110475999Y-76439999D01*
X106680000Y-72878000D02*
X106914000Y-72878000D01*
X110475999Y-76439999D02*
X110847001Y-76439999D01*
X110847001Y-76439999D02*
X110907001Y-76499999D01*
X110907001Y-76499999D02*
X110907001Y-76871001D01*
X110907001Y-76871001D02*
X112776000Y-78740000D01*
D31*
G04 #@! TO.N,VCC*
X118831000Y-52451000D02*
X115824000Y-52451000D01*
X104773000Y-51054000D02*
X104648000Y-51054000D01*
X105898000Y-49929000D02*
X104773000Y-51054000D01*
X114402000Y-49929000D02*
X105898000Y-49929000D01*
X115824000Y-51351000D02*
X114402000Y-49929000D01*
X115824000Y-52451000D02*
X115824000Y-51351000D01*
X104648000Y-51054000D02*
X104648000Y-53260000D01*
X107630000Y-56261000D02*
X110430000Y-56261000D01*
X107549000Y-56261000D02*
X107630000Y-56261000D01*
X104648000Y-53360000D02*
X107549000Y-56261000D01*
X104648000Y-53260000D02*
X104648000Y-53360000D01*
G04 #@! TO.N,Net-(C6-Pad1)*
X110029000Y-60940000D02*
X110430000Y-61341000D01*
X106172000Y-60940000D02*
X110029000Y-60940000D01*
G04 #@! TO.N,Net-(C7-Pad2)*
X102616000Y-61040000D02*
X102616000Y-63420000D01*
X102716000Y-63520000D02*
X102616000Y-63420000D01*
X106172000Y-63520000D02*
X102716000Y-63520000D01*
X107081000Y-62611000D02*
X106172000Y-63520000D01*
X110430000Y-62611000D02*
X107081000Y-62611000D01*
G04 #@! TO.N,RSTX*
X120991500Y-71129000D02*
X120904000Y-71041500D01*
X123444000Y-71129000D02*
X120991500Y-71129000D01*
X123798000Y-71100000D02*
X123444000Y-71454000D01*
X125984000Y-71100000D02*
X123798000Y-71100000D01*
D33*
X98525989Y-68098011D02*
X99314000Y-67310000D01*
X101855001Y-88085001D02*
X98525989Y-84755989D01*
X98525989Y-84755989D02*
X98525989Y-68098011D01*
X120904000Y-71229000D02*
X120904000Y-71354000D01*
X118779999Y-69104999D02*
X120904000Y-71229000D01*
X118779999Y-66179997D02*
X118779999Y-69104999D01*
X118371003Y-65771001D02*
X118779999Y-66179997D01*
X113046621Y-65771001D02*
X118371003Y-65771001D01*
X112493128Y-65217508D02*
X113046621Y-65771001D01*
D31*
G04 #@! TO.N,Net-(D2-Pad2)*
X122936000Y-52156000D02*
X123231000Y-52451000D01*
X122936000Y-48260000D02*
X122936000Y-52156000D01*
G04 #@! TO.N,CAN1HI*
X106426000Y-114046000D02*
X108966000Y-114046000D01*
X108966000Y-112110000D02*
X108392000Y-111536000D01*
X108966000Y-114046000D02*
X108966000Y-112110000D01*
X109952000Y-111536000D02*
X110551406Y-110936594D01*
X108392000Y-111536000D02*
X109952000Y-111536000D01*
X108673999Y-107513999D02*
X108204000Y-107044000D01*
X108673999Y-109059187D02*
X108673999Y-107513999D01*
X110551406Y-110936594D02*
X108673999Y-109059187D01*
G04 #@! TO.N,CAN1LO*
X101346000Y-114046000D02*
X103886000Y-114046000D01*
X103982000Y-114046000D02*
X106492000Y-111536000D01*
X103886000Y-114046000D02*
X103982000Y-114046000D01*
X105440000Y-111536000D02*
X104586594Y-110682594D01*
X106492000Y-111536000D02*
X105440000Y-111536000D01*
X106464001Y-107513999D02*
X106934000Y-107044000D01*
X106464001Y-108805187D02*
X106464001Y-107513999D01*
X104586594Y-110682594D02*
X106464001Y-108805187D01*
G04 #@! TO.N,Net-(D8-Pad2)*
X99568000Y-94820500D02*
X99568000Y-92790000D01*
D33*
G04 #@! TO.N,BOOT0*
X98925999Y-73032001D02*
X99226001Y-72731999D01*
X98925999Y-79046001D02*
X98925999Y-73032001D01*
X100940000Y-81060002D02*
X98925999Y-79046001D01*
X102356000Y-81060002D02*
X100940000Y-81060002D01*
X99226001Y-72731999D02*
X100076000Y-71882000D01*
X104819999Y-83524001D02*
X102356000Y-81060002D01*
X105114001Y-83524001D02*
X104819999Y-83524001D01*
X108712000Y-87122000D02*
X105114001Y-83524001D01*
D31*
G04 #@! TO.N,Net-(R6-Pad2)*
X107630000Y-57531000D02*
X110430000Y-57531000D01*
X107369000Y-57531000D02*
X107630000Y-57531000D01*
X105798000Y-55960000D02*
X107369000Y-57531000D01*
X104648000Y-55960000D02*
X105798000Y-55960000D01*
G04 #@! TO.N,CAN1RX*
X104394000Y-98552000D02*
X104394000Y-100076000D01*
X104394000Y-100076000D02*
X104394000Y-101600000D01*
X104538000Y-101744000D02*
X104394000Y-101600000D01*
X105664000Y-101744000D02*
X104538000Y-101744000D01*
G04 #@! TO.N,CAN1TX*
X109872000Y-101346000D02*
X109474000Y-101744000D01*
X110744000Y-101346000D02*
X109872000Y-101346000D01*
D33*
G04 #@! TO.N,Net-(C9-Pad1)*
X120396000Y-90150000D02*
X116606000Y-90150000D01*
X116606000Y-90150000D02*
X116586000Y-90170000D01*
D31*
G04 #@! TO.N,Net-(D9-Pad2)*
X120220500Y-76200000D02*
X121490500Y-74930000D01*
X119206000Y-76200000D02*
X120220500Y-76200000D01*
D33*
G04 #@! TO.N,SPI_MISO*
X104670000Y-88900000D02*
X101855001Y-86085001D01*
X105664000Y-88900000D02*
X104670000Y-88900000D01*
D31*
G04 #@! TO.N,ConIdent*
X99572999Y-90085001D02*
X99568000Y-90090000D01*
X99318999Y-90085001D02*
X99314000Y-90090000D01*
X101855001Y-90085001D02*
X99318999Y-90085001D01*
D33*
G04 #@! TO.N,RTS*
X122470000Y-94700000D02*
X119380000Y-97790000D01*
X123445001Y-88085001D02*
X122470000Y-89060002D01*
X122470000Y-89060002D02*
X122470000Y-94700000D01*
X117856000Y-92943998D02*
X117856000Y-95504000D01*
X115844002Y-90932000D02*
X117856000Y-92943998D01*
X115316000Y-90932000D02*
X115844002Y-90932000D01*
X114808000Y-92964000D02*
X114808000Y-91440000D01*
X114808000Y-91440000D02*
X115316000Y-90932000D01*
D31*
G04 #@! TO.N,+3.3V*
X101950002Y-79990000D02*
X101855001Y-80085001D01*
X109982000Y-79990000D02*
X101950002Y-79990000D01*
X116506000Y-80578000D02*
X116058000Y-81026000D01*
X116058000Y-82151000D02*
X116058000Y-81026000D01*
X118489000Y-84582000D02*
X116058000Y-82151000D01*
X120396000Y-84582000D02*
X118489000Y-84582000D01*
X114808000Y-81026000D02*
X116058000Y-81026000D01*
X113957999Y-81876001D02*
X114808000Y-81026000D01*
X112993001Y-81876001D02*
X113957999Y-81876001D01*
X111107000Y-79990000D02*
X112993001Y-81876001D01*
X109982000Y-79990000D02*
X111107000Y-79990000D01*
X109200000Y-80772000D02*
X109982000Y-79990000D01*
X108712000Y-80772000D02*
X109200000Y-80772000D01*
X120396000Y-93472000D02*
X120396000Y-94722000D01*
X121920000Y-91948000D02*
X120396000Y-93472000D01*
X120396000Y-84582000D02*
X121920000Y-86106000D01*
X121920000Y-86106000D02*
X121920000Y-91948000D01*
X116506000Y-75264000D02*
X116506000Y-80578000D01*
X116506000Y-74930000D02*
X116506000Y-75264000D01*
X103124000Y-66120000D02*
X106072000Y-66120000D01*
X110316000Y-75264000D02*
X116506000Y-75264000D01*
X107755001Y-72703001D02*
X110316000Y-75264000D01*
X100350000Y-69616000D02*
X102616000Y-69616000D01*
X102616000Y-69616000D02*
X103154001Y-69077999D01*
X107565001Y-69077999D02*
X107755001Y-69267999D01*
X107755001Y-69267999D02*
X107755001Y-72703001D01*
X100076000Y-69342000D02*
X100350000Y-69616000D01*
X110236000Y-70888000D02*
X110236000Y-71088000D01*
X107630000Y-68282000D02*
X110236000Y-70888000D01*
X107630000Y-64781000D02*
X107630000Y-68282000D01*
X108530000Y-63881000D02*
X107630000Y-64781000D01*
X110430000Y-63881000D02*
X108530000Y-63881000D01*
X110236000Y-71088000D02*
X117348000Y-71088000D01*
X117348000Y-71088000D02*
X117348000Y-71088000D01*
X117348000Y-74088000D02*
X116506000Y-74930000D01*
X117348000Y-71088000D02*
X117348000Y-74088000D01*
X106172000Y-67270000D02*
X106172000Y-69077999D01*
X106172000Y-66020000D02*
X106172000Y-67270000D01*
X103154001Y-69077999D02*
X106172000Y-69077999D01*
X106172000Y-69077999D02*
X107565001Y-69077999D01*
X107950000Y-89142002D02*
X107950000Y-94742000D01*
X109562001Y-87530001D02*
X107950000Y-89142002D01*
X108712000Y-80772000D02*
X109562001Y-81622001D01*
X109562001Y-81622001D02*
X109562001Y-87530001D01*
X117622000Y-98443000D02*
X117622000Y-99568000D01*
X117622000Y-97621000D02*
X117622000Y-98443000D01*
X120396000Y-94847000D02*
X117622000Y-97621000D01*
X120396000Y-94722000D02*
X120396000Y-94847000D01*
X119253000Y-101199000D02*
X117622000Y-99568000D01*
X119253000Y-101744000D02*
X119253000Y-101199000D01*
X106934000Y-100564000D02*
X106192000Y-99822000D01*
X106934000Y-101744000D02*
X106934000Y-100564000D01*
X106192000Y-97496000D02*
X106914000Y-96774000D01*
X106192000Y-99822000D02*
X106192000Y-97496000D01*
X106934000Y-102994000D02*
X106934000Y-101744000D01*
X104863999Y-105064001D02*
X106934000Y-102994000D01*
X104863999Y-108283885D02*
X104863999Y-105064001D01*
X102657884Y-110490000D02*
X104863999Y-108283885D01*
X100076000Y-110490000D02*
X102657884Y-110490000D01*
G04 #@! TO.N,CAN2LO*
X118872000Y-114046000D02*
X117602000Y-114046000D01*
X117602000Y-114046000D02*
X116332000Y-114046000D01*
X118872000Y-111602000D02*
X118938000Y-111536000D01*
X118872000Y-114046000D02*
X118872000Y-111602000D01*
X117632000Y-111536000D02*
X117032594Y-110936594D01*
X118938000Y-111536000D02*
X117632000Y-111536000D01*
X118783001Y-107513999D02*
X119253000Y-107044000D01*
X118783001Y-109186187D02*
X118783001Y-107513999D01*
X117032594Y-110936594D02*
X118783001Y-109186187D01*
G04 #@! TO.N,CAN2HI*
X121412000Y-114046000D02*
X123952000Y-114046000D01*
X121412000Y-112110000D02*
X120838000Y-111536000D01*
X121412000Y-114046000D02*
X121412000Y-112110000D01*
X122144000Y-111536000D02*
X122743406Y-110936594D01*
X120838000Y-111536000D02*
X122144000Y-111536000D01*
X120992999Y-107513999D02*
X120523000Y-107044000D01*
X120992999Y-109186187D02*
X120992999Y-107513999D01*
X122743406Y-110936594D02*
X120992999Y-109186187D01*
D33*
G04 #@! TO.N,CAN2RX*
X115824000Y-100584000D02*
X116586000Y-101346000D01*
X115824000Y-91948000D02*
X115824000Y-100584000D01*
D31*
X117585000Y-101346000D02*
X117983000Y-101744000D01*
X116586000Y-101346000D02*
X117585000Y-101346000D01*
G04 #@! TO.N,CAN2TX*
X122191000Y-101346000D02*
X121793000Y-101744000D01*
X123444000Y-101346000D02*
X122191000Y-101346000D01*
G04 #@! TD*
D34*
G04 #@! TO.N,GND*
G36*
X119631560Y-70996007D02*
X119631560Y-72104000D01*
X119680843Y-72351765D01*
X119821191Y-72561809D01*
X120031235Y-72702157D01*
X120279000Y-72751440D01*
X121529000Y-72751440D01*
X121776765Y-72702157D01*
X121986809Y-72561809D01*
X122127157Y-72351765D01*
X122151554Y-72229109D01*
X122195843Y-72451765D01*
X122336191Y-72661809D01*
X122546235Y-72802157D01*
X122794000Y-72851440D01*
X124094000Y-72851440D01*
X124341765Y-72802157D01*
X124551809Y-72661809D01*
X124692157Y-72451765D01*
X124741440Y-72204000D01*
X124741440Y-72000218D01*
X124760843Y-72097765D01*
X124901191Y-72307809D01*
X125111235Y-72448157D01*
X125359000Y-72497440D01*
X126609000Y-72497440D01*
X126823000Y-72454873D01*
X126823001Y-116155000D01*
X98475000Y-116155000D01*
X98475000Y-102513110D01*
X98634524Y-102513110D01*
X98755845Y-102743000D01*
X99949000Y-102743000D01*
X99949000Y-101549181D01*
X100203000Y-101549181D01*
X100203000Y-102743000D01*
X101396155Y-102743000D01*
X101517476Y-102513110D01*
X101347645Y-102103076D01*
X100957358Y-101674817D01*
X100432892Y-101428514D01*
X100203000Y-101549181D01*
X99949000Y-101549181D01*
X99719108Y-101428514D01*
X99194642Y-101674817D01*
X98804355Y-102103076D01*
X98634524Y-102513110D01*
X98475000Y-102513110D01*
X98475000Y-98414401D01*
X100587091Y-98414401D01*
X100725523Y-98748634D01*
X101065461Y-99130350D01*
X101525599Y-99352921D01*
X101728001Y-99230091D01*
X101728001Y-98212001D01*
X101982001Y-98212001D01*
X101982001Y-99230091D01*
X102184403Y-99352921D01*
X102644541Y-99130350D01*
X102984479Y-98748634D01*
X103122911Y-98414401D01*
X102999225Y-98212001D01*
X101982001Y-98212001D01*
X101728001Y-98212001D01*
X100710777Y-98212001D01*
X100587091Y-98414401D01*
X98475000Y-98414401D01*
X98475000Y-97812744D01*
X98487690Y-97818000D01*
X99028250Y-97818000D01*
X99187000Y-97659250D01*
X99187000Y-96822500D01*
X99441000Y-96822500D01*
X99441000Y-97659250D01*
X99599750Y-97818000D01*
X100140310Y-97818000D01*
X100373699Y-97721327D01*
X100552327Y-97542698D01*
X100649000Y-97309309D01*
X100649000Y-96981250D01*
X100490250Y-96822500D01*
X99441000Y-96822500D01*
X99187000Y-96822500D01*
X99167000Y-96822500D01*
X99167000Y-96568500D01*
X99187000Y-96568500D01*
X99187000Y-96548500D01*
X99441000Y-96548500D01*
X99441000Y-96568500D01*
X100490250Y-96568500D01*
X100594729Y-96464021D01*
X100621008Y-96596137D01*
X100910544Y-97029458D01*
X101013359Y-97098157D01*
X100725523Y-97421368D01*
X100587091Y-97755601D01*
X100710777Y-97958001D01*
X101728001Y-97958001D01*
X101728001Y-97938001D01*
X101982001Y-97938001D01*
X101982001Y-97958001D01*
X102999225Y-97958001D01*
X103122911Y-97755601D01*
X102984479Y-97421368D01*
X102696643Y-97098157D01*
X102799458Y-97029458D01*
X103088994Y-96596137D01*
X103096940Y-96556190D01*
X103187750Y-96647000D01*
X104287000Y-96647000D01*
X104287000Y-95672750D01*
X104128250Y-95514000D01*
X103537691Y-95514000D01*
X103304302Y-95610673D01*
X103130822Y-95784152D01*
X103088994Y-95573865D01*
X102799458Y-95140544D01*
X102716332Y-95085001D01*
X102799458Y-95029458D01*
X103088994Y-94596137D01*
X103190665Y-94085001D01*
X103088994Y-93573865D01*
X102799458Y-93140544D01*
X102716332Y-93085001D01*
X102799458Y-93029458D01*
X103088994Y-92596137D01*
X103190665Y-92085001D01*
X103088994Y-91573865D01*
X102799458Y-91140544D01*
X102716332Y-91085001D01*
X102799458Y-91029458D01*
X103088994Y-90596137D01*
X103190665Y-90085001D01*
X103088994Y-89573865D01*
X102799458Y-89140544D01*
X102716332Y-89085001D01*
X102799458Y-89029458D01*
X103088994Y-88596137D01*
X103128430Y-88397877D01*
X104099091Y-89368537D01*
X104140095Y-89429905D01*
X104383217Y-89592354D01*
X104597612Y-89635000D01*
X104670000Y-89649399D01*
X104742388Y-89635000D01*
X105076710Y-89635000D01*
X105134365Y-89692655D01*
X105478017Y-89835000D01*
X105849983Y-89835000D01*
X106193635Y-89692655D01*
X106456655Y-89429635D01*
X106599000Y-89085983D01*
X106599000Y-88714017D01*
X106456655Y-88370365D01*
X106193635Y-88107345D01*
X105849983Y-87965000D01*
X105478017Y-87965000D01*
X105134365Y-88107345D01*
X105076710Y-88165000D01*
X104974447Y-88165000D01*
X103141519Y-86332073D01*
X103190665Y-86085001D01*
X103088994Y-85573865D01*
X102799458Y-85140544D01*
X102716332Y-85085001D01*
X102799458Y-85029458D01*
X103088994Y-84596137D01*
X103190665Y-84085001D01*
X103088994Y-83573865D01*
X102799458Y-83140544D01*
X102716332Y-83085001D01*
X102799458Y-83029458D01*
X102994343Y-82737792D01*
X104249090Y-83992538D01*
X104290094Y-84053906D01*
X104533216Y-84216355D01*
X104747611Y-84259001D01*
X104747615Y-84259001D01*
X104819999Y-84273399D01*
X104823297Y-84272743D01*
X107677000Y-87126447D01*
X107677000Y-87327874D01*
X107834569Y-87708280D01*
X107983356Y-87857067D01*
X107385847Y-88454577D01*
X107311951Y-88503953D01*
X107116348Y-88796693D01*
X107065000Y-89054838D01*
X107065000Y-89054841D01*
X107047663Y-89142002D01*
X107065000Y-89229163D01*
X107065001Y-94435304D01*
X107015000Y-94556017D01*
X107015000Y-94927983D01*
X107157345Y-95271635D01*
X107387270Y-95501560D01*
X106164000Y-95501560D01*
X105916235Y-95550843D01*
X105706191Y-95691191D01*
X105665346Y-95752320D01*
X105523698Y-95610673D01*
X105290309Y-95514000D01*
X104699750Y-95514000D01*
X104541000Y-95672750D01*
X104541000Y-96647000D01*
X104561000Y-96647000D01*
X104561000Y-96901000D01*
X104541000Y-96901000D01*
X104541000Y-96921000D01*
X104287000Y-96921000D01*
X104287000Y-96901000D01*
X103187750Y-96901000D01*
X103029000Y-97059750D01*
X103029000Y-97525310D01*
X103125673Y-97758699D01*
X103304302Y-97937327D01*
X103495522Y-98016533D01*
X103359000Y-98346126D01*
X103359000Y-98757874D01*
X103509000Y-99120008D01*
X103509001Y-99988831D01*
X103509000Y-99988836D01*
X103509001Y-100879866D01*
X103431793Y-100957074D01*
X103259000Y-101374234D01*
X103259000Y-101825766D01*
X103431793Y-102242926D01*
X103751074Y-102562207D01*
X104168234Y-102735000D01*
X104619766Y-102735000D01*
X104707286Y-102698748D01*
X104715843Y-102741765D01*
X104856191Y-102951809D01*
X105066235Y-103092157D01*
X105314000Y-103141440D01*
X105534981Y-103141440D01*
X104299844Y-104376578D01*
X104225951Y-104425952D01*
X104176577Y-104499845D01*
X104176575Y-104499847D01*
X104030347Y-104718692D01*
X103961662Y-105064001D01*
X103979000Y-105151166D01*
X103978999Y-107917306D01*
X103817581Y-108078725D01*
X103064504Y-107325648D01*
X102854460Y-107185300D01*
X102606695Y-107136017D01*
X102358930Y-107185300D01*
X102148886Y-107325648D01*
X101579215Y-107895319D01*
X101474839Y-107370582D01*
X101146625Y-106879375D01*
X100848239Y-106680000D01*
X101146625Y-106480625D01*
X101474839Y-105989418D01*
X101590092Y-105410000D01*
X101474839Y-104830582D01*
X101146625Y-104339375D01*
X100827522Y-104126157D01*
X100957358Y-104065183D01*
X101347645Y-103636924D01*
X101517476Y-103226890D01*
X101396155Y-102997000D01*
X100203000Y-102997000D01*
X100203000Y-103017000D01*
X99949000Y-103017000D01*
X99949000Y-102997000D01*
X98755845Y-102997000D01*
X98634524Y-103226890D01*
X98804355Y-103636924D01*
X99194642Y-104065183D01*
X99324478Y-104126157D01*
X99005375Y-104339375D01*
X98677161Y-104830582D01*
X98561908Y-105410000D01*
X98677161Y-105989418D01*
X99005375Y-106480625D01*
X99303761Y-106680000D01*
X99005375Y-106879375D01*
X98677161Y-107370582D01*
X98561908Y-107950000D01*
X98677161Y-108529418D01*
X99005375Y-109020625D01*
X99023619Y-109032816D01*
X98978235Y-109041843D01*
X98768191Y-109182191D01*
X98627843Y-109392235D01*
X98578560Y-109640000D01*
X98578560Y-111340000D01*
X98627843Y-111587765D01*
X98768191Y-111797809D01*
X98978235Y-111938157D01*
X99226000Y-111987440D01*
X100926000Y-111987440D01*
X101173765Y-111938157D01*
X101383809Y-111797809D01*
X101524157Y-111587765D01*
X101566478Y-111375000D01*
X102570723Y-111375000D01*
X102657884Y-111392337D01*
X102745045Y-111375000D01*
X102745049Y-111375000D01*
X103003194Y-111323652D01*
X103236743Y-111167599D01*
X104199496Y-112130352D01*
X104409540Y-112270700D01*
X104489764Y-112286657D01*
X104185033Y-112591389D01*
X104032256Y-112561000D01*
X103739744Y-112561000D01*
X103306582Y-112647161D01*
X102815375Y-112975375D01*
X102691344Y-113161000D01*
X102540656Y-113161000D01*
X102416625Y-112975375D01*
X101925418Y-112647161D01*
X101492256Y-112561000D01*
X101199744Y-112561000D01*
X100766582Y-112647161D01*
X100275375Y-112975375D01*
X99947161Y-113466582D01*
X99831908Y-114046000D01*
X99947161Y-114625418D01*
X100275375Y-115116625D01*
X100766582Y-115444839D01*
X101199744Y-115531000D01*
X101492256Y-115531000D01*
X101925418Y-115444839D01*
X102416625Y-115116625D01*
X102540656Y-114931000D01*
X102691344Y-114931000D01*
X102815375Y-115116625D01*
X103306582Y-115444839D01*
X103739744Y-115531000D01*
X104032256Y-115531000D01*
X104465418Y-115444839D01*
X104956625Y-115116625D01*
X105156000Y-114818239D01*
X105355375Y-115116625D01*
X105846582Y-115444839D01*
X106279744Y-115531000D01*
X106572256Y-115531000D01*
X107005418Y-115444839D01*
X107496625Y-115116625D01*
X107508816Y-115098381D01*
X107517843Y-115143765D01*
X107658191Y-115353809D01*
X107868235Y-115494157D01*
X108116000Y-115543440D01*
X109816000Y-115543440D01*
X110063765Y-115494157D01*
X110273809Y-115353809D01*
X110414157Y-115143765D01*
X110463440Y-114896000D01*
X110463440Y-113196000D01*
X110414157Y-112948235D01*
X110273809Y-112738191D01*
X110063765Y-112597843D01*
X109851000Y-112555522D01*
X109851000Y-112421000D01*
X109864839Y-112421000D01*
X109952000Y-112438337D01*
X110039161Y-112421000D01*
X110039165Y-112421000D01*
X110068886Y-112415088D01*
X110232930Y-112524700D01*
X110480695Y-112573983D01*
X110728460Y-112524700D01*
X110938504Y-112384352D01*
X111999164Y-111323692D01*
X112139512Y-111113648D01*
X112188795Y-110865883D01*
X112139512Y-110618118D01*
X112134264Y-110610264D01*
X112142118Y-110615512D01*
X112389883Y-110664795D01*
X112637648Y-110615512D01*
X112847692Y-110475164D01*
X113792000Y-109530856D01*
X114736308Y-110475164D01*
X114946352Y-110615512D01*
X115194117Y-110664795D01*
X115441882Y-110615512D01*
X115449736Y-110610264D01*
X115444488Y-110618118D01*
X115395205Y-110865883D01*
X115444488Y-111113648D01*
X115584836Y-111323692D01*
X116645496Y-112384352D01*
X116855540Y-112524700D01*
X117103305Y-112573983D01*
X117351070Y-112524700D01*
X117515114Y-112415088D01*
X117544835Y-112421000D01*
X117544839Y-112421000D01*
X117631999Y-112438337D01*
X117719159Y-112421000D01*
X117872358Y-112421000D01*
X117884843Y-112483765D01*
X117987001Y-112636653D01*
X117987000Y-112851344D01*
X117801375Y-112975375D01*
X117677344Y-113161000D01*
X117526656Y-113161000D01*
X117402625Y-112975375D01*
X116911418Y-112647161D01*
X116478256Y-112561000D01*
X116185744Y-112561000D01*
X115752582Y-112647161D01*
X115261375Y-112975375D01*
X114933161Y-113466582D01*
X114817908Y-114046000D01*
X114933161Y-114625418D01*
X115261375Y-115116625D01*
X115752582Y-115444839D01*
X116185744Y-115531000D01*
X116478256Y-115531000D01*
X116911418Y-115444839D01*
X117402625Y-115116625D01*
X117526656Y-114931000D01*
X117677344Y-114931000D01*
X117801375Y-115116625D01*
X118292582Y-115444839D01*
X118725744Y-115531000D01*
X119018256Y-115531000D01*
X119451418Y-115444839D01*
X119942625Y-115116625D01*
X120142000Y-114818239D01*
X120341375Y-115116625D01*
X120832582Y-115444839D01*
X121265744Y-115531000D01*
X121558256Y-115531000D01*
X121991418Y-115444839D01*
X122482625Y-115116625D01*
X122494816Y-115098381D01*
X122503843Y-115143765D01*
X122644191Y-115353809D01*
X122854235Y-115494157D01*
X123102000Y-115543440D01*
X124802000Y-115543440D01*
X125049765Y-115494157D01*
X125259809Y-115353809D01*
X125400157Y-115143765D01*
X125449440Y-114896000D01*
X125449440Y-113196000D01*
X125400157Y-112948235D01*
X125259809Y-112738191D01*
X125049765Y-112597843D01*
X124802000Y-112548560D01*
X123102000Y-112548560D01*
X122854235Y-112597843D01*
X122644191Y-112738191D01*
X122503843Y-112948235D01*
X122494816Y-112993619D01*
X122482625Y-112975375D01*
X122297000Y-112851344D01*
X122297000Y-112439219D01*
X122424930Y-112524700D01*
X122672695Y-112573983D01*
X122920460Y-112524700D01*
X123130504Y-112384352D01*
X124191164Y-111323692D01*
X124331512Y-111113648D01*
X124380795Y-110865883D01*
X124331512Y-110618118D01*
X124326264Y-110610264D01*
X124334118Y-110615512D01*
X124581883Y-110664795D01*
X124829648Y-110615512D01*
X125039692Y-110475164D01*
X126100352Y-109414504D01*
X126240700Y-109204460D01*
X126289983Y-108956695D01*
X126240700Y-108708930D01*
X126100352Y-108498886D01*
X125181114Y-107579648D01*
X124971070Y-107439300D01*
X124729000Y-107391150D01*
X124729000Y-107219750D01*
X124570250Y-107061000D01*
X124333000Y-107061000D01*
X124333000Y-106807000D01*
X124570250Y-106807000D01*
X124729000Y-106648250D01*
X124729000Y-106057691D01*
X124632327Y-105824302D01*
X124453699Y-105645673D01*
X124333000Y-105595678D01*
X124333000Y-105572322D01*
X124453699Y-105522327D01*
X124632327Y-105343698D01*
X124729000Y-105110309D01*
X124729000Y-104519750D01*
X124570250Y-104361000D01*
X124333000Y-104361000D01*
X124333000Y-104107000D01*
X124570250Y-104107000D01*
X124729000Y-103948250D01*
X124729000Y-103357691D01*
X124632327Y-103124302D01*
X124453699Y-102945673D01*
X124220310Y-102849000D01*
X123729750Y-102849000D01*
X123571000Y-103007750D01*
X123571000Y-103251000D01*
X123317000Y-103251000D01*
X123317000Y-103007750D01*
X123158250Y-102849000D01*
X122669504Y-102849000D01*
X122741157Y-102741765D01*
X122790440Y-102494000D01*
X122790440Y-102297573D01*
X122801074Y-102308207D01*
X123218234Y-102481000D01*
X123669766Y-102481000D01*
X124086926Y-102308207D01*
X124406207Y-101988926D01*
X124579000Y-101571766D01*
X124579000Y-101120234D01*
X124406207Y-100703074D01*
X124086926Y-100383793D01*
X123669766Y-100211000D01*
X123218234Y-100211000D01*
X122801074Y-100383793D01*
X122723867Y-100461000D01*
X122488279Y-100461000D01*
X122390765Y-100395843D01*
X122143000Y-100346560D01*
X121495713Y-100346560D01*
X121507000Y-100319310D01*
X121507000Y-99853750D01*
X121348250Y-99695000D01*
X120249000Y-99695000D01*
X120249000Y-99715000D01*
X119995000Y-99715000D01*
X119995000Y-99695000D01*
X119975000Y-99695000D01*
X119975000Y-99441000D01*
X119995000Y-99441000D01*
X119995000Y-99421000D01*
X120249000Y-99421000D01*
X120249000Y-99441000D01*
X121348250Y-99441000D01*
X121507000Y-99282250D01*
X121507000Y-98816690D01*
X121410327Y-98583301D01*
X121231698Y-98404673D01*
X120998309Y-98308000D01*
X120407750Y-98308000D01*
X120249002Y-98466748D01*
X120249002Y-98384709D01*
X120257431Y-98376280D01*
X120415000Y-97995874D01*
X120415000Y-97794446D01*
X122111844Y-96097603D01*
X122211008Y-96596137D01*
X122500544Y-97029458D01*
X122583670Y-97085001D01*
X122500544Y-97140544D01*
X122211008Y-97573865D01*
X122109337Y-98085001D01*
X122211008Y-98596137D01*
X122500544Y-99029458D01*
X122933865Y-99318994D01*
X123315979Y-99395001D01*
X123574023Y-99395001D01*
X123956137Y-99318994D01*
X124389458Y-99029458D01*
X124678994Y-98596137D01*
X124780665Y-98085001D01*
X124678994Y-97573865D01*
X124389458Y-97140544D01*
X124306332Y-97085001D01*
X124389458Y-97029458D01*
X124678994Y-96596137D01*
X124780665Y-96085001D01*
X124678994Y-95573865D01*
X124389458Y-95140544D01*
X124306332Y-95085001D01*
X124389458Y-95029458D01*
X124678994Y-94596137D01*
X124780665Y-94085001D01*
X124678994Y-93573865D01*
X124389458Y-93140544D01*
X124306332Y-93085001D01*
X124389458Y-93029458D01*
X124678994Y-92596137D01*
X124780665Y-92085001D01*
X124678994Y-91573865D01*
X124389458Y-91140544D01*
X124306332Y-91085001D01*
X124389458Y-91029458D01*
X124678994Y-90596137D01*
X124780665Y-90085001D01*
X124678994Y-89573865D01*
X124389458Y-89140544D01*
X124306332Y-89085001D01*
X124389458Y-89029458D01*
X124678994Y-88596137D01*
X124780665Y-88085001D01*
X124678994Y-87573865D01*
X124389458Y-87140544D01*
X124306332Y-87085001D01*
X124389458Y-87029458D01*
X124678994Y-86596137D01*
X124780665Y-86085001D01*
X124678994Y-85573865D01*
X124389458Y-85140544D01*
X124306332Y-85085001D01*
X124389458Y-85029458D01*
X124678994Y-84596137D01*
X124780665Y-84085001D01*
X124678994Y-83573865D01*
X124389458Y-83140544D01*
X124306332Y-83085001D01*
X124389458Y-83029458D01*
X124678994Y-82596137D01*
X124780665Y-82085001D01*
X124678994Y-81573865D01*
X124483287Y-81280969D01*
X124577810Y-81217810D01*
X124718158Y-81007766D01*
X124767441Y-80760001D01*
X124767441Y-79410001D01*
X124718158Y-79162236D01*
X124577810Y-78952192D01*
X124367766Y-78811844D01*
X124120001Y-78762561D01*
X122770001Y-78762561D01*
X122522236Y-78811844D01*
X122312192Y-78952192D01*
X122171844Y-79162236D01*
X122122561Y-79410001D01*
X122122561Y-80760001D01*
X122171844Y-81007766D01*
X122312192Y-81217810D01*
X122406715Y-81280969D01*
X122211008Y-81573865D01*
X122109337Y-82085001D01*
X122211008Y-82596137D01*
X122500544Y-83029458D01*
X122583670Y-83085001D01*
X122500544Y-83140544D01*
X122211008Y-83573865D01*
X122109337Y-84085001D01*
X122211008Y-84596137D01*
X122500544Y-85029458D01*
X122583670Y-85085001D01*
X122500544Y-85140544D01*
X122382615Y-85317037D01*
X121423431Y-84357853D01*
X121273431Y-83995720D01*
X120982280Y-83704569D01*
X120601874Y-83547000D01*
X120190126Y-83547000D01*
X119827993Y-83697000D01*
X118855579Y-83697000D01*
X116943000Y-81784422D01*
X116943000Y-81594007D01*
X117082528Y-81257156D01*
X117144049Y-81216049D01*
X117339652Y-80923310D01*
X117391000Y-80665165D01*
X117391000Y-80665161D01*
X117408337Y-80578000D01*
X117391000Y-80490839D01*
X117391000Y-77470587D01*
X117503765Y-77448157D01*
X117713809Y-77307809D01*
X117854157Y-77097765D01*
X117856000Y-77088500D01*
X117857843Y-77097765D01*
X117998191Y-77307809D01*
X118208235Y-77448157D01*
X118456000Y-77497440D01*
X119956000Y-77497440D01*
X120203765Y-77448157D01*
X120413809Y-77307809D01*
X120554157Y-77097765D01*
X120567078Y-77032805D01*
X120858549Y-76838049D01*
X120907925Y-76764153D01*
X121394638Y-76277440D01*
X121734250Y-76277440D01*
X122075294Y-76209602D01*
X122364416Y-76016416D01*
X122365207Y-76015233D01*
X122518302Y-76168327D01*
X122751691Y-76265000D01*
X123079750Y-76265000D01*
X123238500Y-76106250D01*
X123238500Y-75057000D01*
X123492500Y-75057000D01*
X123492500Y-76106250D01*
X123651250Y-76265000D01*
X123979309Y-76265000D01*
X124212698Y-76168327D01*
X124391327Y-75989699D01*
X124488000Y-75756310D01*
X124488000Y-75215750D01*
X124329250Y-75057000D01*
X123492500Y-75057000D01*
X123238500Y-75057000D01*
X123218500Y-75057000D01*
X123218500Y-74803000D01*
X123238500Y-74803000D01*
X123238500Y-73753750D01*
X123492500Y-73753750D01*
X123492500Y-74803000D01*
X124329250Y-74803000D01*
X124488000Y-74644250D01*
X124488000Y-74103690D01*
X124391327Y-73870301D01*
X124212698Y-73691673D01*
X123979309Y-73595000D01*
X123651250Y-73595000D01*
X123492500Y-73753750D01*
X123238500Y-73753750D01*
X123079750Y-73595000D01*
X122751691Y-73595000D01*
X122518302Y-73691673D01*
X122365207Y-73844767D01*
X122364416Y-73843584D01*
X122075294Y-73650398D01*
X121734250Y-73582560D01*
X121246750Y-73582560D01*
X120905706Y-73650398D01*
X120616584Y-73843584D01*
X120423398Y-74132706D01*
X120355560Y-74473750D01*
X120355560Y-74813361D01*
X120211746Y-74957176D01*
X120203765Y-74951843D01*
X119956000Y-74902560D01*
X118456000Y-74902560D01*
X118208235Y-74951843D01*
X117998191Y-75092191D01*
X117857843Y-75302235D01*
X117856000Y-75311500D01*
X117854157Y-75302235D01*
X117713809Y-75092191D01*
X117642821Y-75044758D01*
X117912156Y-74775423D01*
X117986049Y-74726049D01*
X118181652Y-74433310D01*
X118233000Y-74175165D01*
X118233000Y-74175161D01*
X118250337Y-74088000D01*
X118233000Y-74000839D01*
X118233000Y-72718533D01*
X118395765Y-72686157D01*
X118605809Y-72545809D01*
X118746157Y-72335765D01*
X118795440Y-72088000D01*
X118795440Y-70159886D01*
X119631560Y-70996007D01*
X119631560Y-70996007D01*
G37*
X119631560Y-70996007D02*
X119631560Y-72104000D01*
X119680843Y-72351765D01*
X119821191Y-72561809D01*
X120031235Y-72702157D01*
X120279000Y-72751440D01*
X121529000Y-72751440D01*
X121776765Y-72702157D01*
X121986809Y-72561809D01*
X122127157Y-72351765D01*
X122151554Y-72229109D01*
X122195843Y-72451765D01*
X122336191Y-72661809D01*
X122546235Y-72802157D01*
X122794000Y-72851440D01*
X124094000Y-72851440D01*
X124341765Y-72802157D01*
X124551809Y-72661809D01*
X124692157Y-72451765D01*
X124741440Y-72204000D01*
X124741440Y-72000218D01*
X124760843Y-72097765D01*
X124901191Y-72307809D01*
X125111235Y-72448157D01*
X125359000Y-72497440D01*
X126609000Y-72497440D01*
X126823000Y-72454873D01*
X126823001Y-116155000D01*
X98475000Y-116155000D01*
X98475000Y-102513110D01*
X98634524Y-102513110D01*
X98755845Y-102743000D01*
X99949000Y-102743000D01*
X99949000Y-101549181D01*
X100203000Y-101549181D01*
X100203000Y-102743000D01*
X101396155Y-102743000D01*
X101517476Y-102513110D01*
X101347645Y-102103076D01*
X100957358Y-101674817D01*
X100432892Y-101428514D01*
X100203000Y-101549181D01*
X99949000Y-101549181D01*
X99719108Y-101428514D01*
X99194642Y-101674817D01*
X98804355Y-102103076D01*
X98634524Y-102513110D01*
X98475000Y-102513110D01*
X98475000Y-98414401D01*
X100587091Y-98414401D01*
X100725523Y-98748634D01*
X101065461Y-99130350D01*
X101525599Y-99352921D01*
X101728001Y-99230091D01*
X101728001Y-98212001D01*
X101982001Y-98212001D01*
X101982001Y-99230091D01*
X102184403Y-99352921D01*
X102644541Y-99130350D01*
X102984479Y-98748634D01*
X103122911Y-98414401D01*
X102999225Y-98212001D01*
X101982001Y-98212001D01*
X101728001Y-98212001D01*
X100710777Y-98212001D01*
X100587091Y-98414401D01*
X98475000Y-98414401D01*
X98475000Y-97812744D01*
X98487690Y-97818000D01*
X99028250Y-97818000D01*
X99187000Y-97659250D01*
X99187000Y-96822500D01*
X99441000Y-96822500D01*
X99441000Y-97659250D01*
X99599750Y-97818000D01*
X100140310Y-97818000D01*
X100373699Y-97721327D01*
X100552327Y-97542698D01*
X100649000Y-97309309D01*
X100649000Y-96981250D01*
X100490250Y-96822500D01*
X99441000Y-96822500D01*
X99187000Y-96822500D01*
X99167000Y-96822500D01*
X99167000Y-96568500D01*
X99187000Y-96568500D01*
X99187000Y-96548500D01*
X99441000Y-96548500D01*
X99441000Y-96568500D01*
X100490250Y-96568500D01*
X100594729Y-96464021D01*
X100621008Y-96596137D01*
X100910544Y-97029458D01*
X101013359Y-97098157D01*
X100725523Y-97421368D01*
X100587091Y-97755601D01*
X100710777Y-97958001D01*
X101728001Y-97958001D01*
X101728001Y-97938001D01*
X101982001Y-97938001D01*
X101982001Y-97958001D01*
X102999225Y-97958001D01*
X103122911Y-97755601D01*
X102984479Y-97421368D01*
X102696643Y-97098157D01*
X102799458Y-97029458D01*
X103088994Y-96596137D01*
X103096940Y-96556190D01*
X103187750Y-96647000D01*
X104287000Y-96647000D01*
X104287000Y-95672750D01*
X104128250Y-95514000D01*
X103537691Y-95514000D01*
X103304302Y-95610673D01*
X103130822Y-95784152D01*
X103088994Y-95573865D01*
X102799458Y-95140544D01*
X102716332Y-95085001D01*
X102799458Y-95029458D01*
X103088994Y-94596137D01*
X103190665Y-94085001D01*
X103088994Y-93573865D01*
X102799458Y-93140544D01*
X102716332Y-93085001D01*
X102799458Y-93029458D01*
X103088994Y-92596137D01*
X103190665Y-92085001D01*
X103088994Y-91573865D01*
X102799458Y-91140544D01*
X102716332Y-91085001D01*
X102799458Y-91029458D01*
X103088994Y-90596137D01*
X103190665Y-90085001D01*
X103088994Y-89573865D01*
X102799458Y-89140544D01*
X102716332Y-89085001D01*
X102799458Y-89029458D01*
X103088994Y-88596137D01*
X103128430Y-88397877D01*
X104099091Y-89368537D01*
X104140095Y-89429905D01*
X104383217Y-89592354D01*
X104597612Y-89635000D01*
X104670000Y-89649399D01*
X104742388Y-89635000D01*
X105076710Y-89635000D01*
X105134365Y-89692655D01*
X105478017Y-89835000D01*
X105849983Y-89835000D01*
X106193635Y-89692655D01*
X106456655Y-89429635D01*
X106599000Y-89085983D01*
X106599000Y-88714017D01*
X106456655Y-88370365D01*
X106193635Y-88107345D01*
X105849983Y-87965000D01*
X105478017Y-87965000D01*
X105134365Y-88107345D01*
X105076710Y-88165000D01*
X104974447Y-88165000D01*
X103141519Y-86332073D01*
X103190665Y-86085001D01*
X103088994Y-85573865D01*
X102799458Y-85140544D01*
X102716332Y-85085001D01*
X102799458Y-85029458D01*
X103088994Y-84596137D01*
X103190665Y-84085001D01*
X103088994Y-83573865D01*
X102799458Y-83140544D01*
X102716332Y-83085001D01*
X102799458Y-83029458D01*
X102994343Y-82737792D01*
X104249090Y-83992538D01*
X104290094Y-84053906D01*
X104533216Y-84216355D01*
X104747611Y-84259001D01*
X104747615Y-84259001D01*
X104819999Y-84273399D01*
X104823297Y-84272743D01*
X107677000Y-87126447D01*
X107677000Y-87327874D01*
X107834569Y-87708280D01*
X107983356Y-87857067D01*
X107385847Y-88454577D01*
X107311951Y-88503953D01*
X107116348Y-88796693D01*
X107065000Y-89054838D01*
X107065000Y-89054841D01*
X107047663Y-89142002D01*
X107065000Y-89229163D01*
X107065001Y-94435304D01*
X107015000Y-94556017D01*
X107015000Y-94927983D01*
X107157345Y-95271635D01*
X107387270Y-95501560D01*
X106164000Y-95501560D01*
X105916235Y-95550843D01*
X105706191Y-95691191D01*
X105665346Y-95752320D01*
X105523698Y-95610673D01*
X105290309Y-95514000D01*
X104699750Y-95514000D01*
X104541000Y-95672750D01*
X104541000Y-96647000D01*
X104561000Y-96647000D01*
X104561000Y-96901000D01*
X104541000Y-96901000D01*
X104541000Y-96921000D01*
X104287000Y-96921000D01*
X104287000Y-96901000D01*
X103187750Y-96901000D01*
X103029000Y-97059750D01*
X103029000Y-97525310D01*
X103125673Y-97758699D01*
X103304302Y-97937327D01*
X103495522Y-98016533D01*
X103359000Y-98346126D01*
X103359000Y-98757874D01*
X103509000Y-99120008D01*
X103509001Y-99988831D01*
X103509000Y-99988836D01*
X103509001Y-100879866D01*
X103431793Y-100957074D01*
X103259000Y-101374234D01*
X103259000Y-101825766D01*
X103431793Y-102242926D01*
X103751074Y-102562207D01*
X104168234Y-102735000D01*
X104619766Y-102735000D01*
X104707286Y-102698748D01*
X104715843Y-102741765D01*
X104856191Y-102951809D01*
X105066235Y-103092157D01*
X105314000Y-103141440D01*
X105534981Y-103141440D01*
X104299844Y-104376578D01*
X104225951Y-104425952D01*
X104176577Y-104499845D01*
X104176575Y-104499847D01*
X104030347Y-104718692D01*
X103961662Y-105064001D01*
X103979000Y-105151166D01*
X103978999Y-107917306D01*
X103817581Y-108078725D01*
X103064504Y-107325648D01*
X102854460Y-107185300D01*
X102606695Y-107136017D01*
X102358930Y-107185300D01*
X102148886Y-107325648D01*
X101579215Y-107895319D01*
X101474839Y-107370582D01*
X101146625Y-106879375D01*
X100848239Y-106680000D01*
X101146625Y-106480625D01*
X101474839Y-105989418D01*
X101590092Y-105410000D01*
X101474839Y-104830582D01*
X101146625Y-104339375D01*
X100827522Y-104126157D01*
X100957358Y-104065183D01*
X101347645Y-103636924D01*
X101517476Y-103226890D01*
X101396155Y-102997000D01*
X100203000Y-102997000D01*
X100203000Y-103017000D01*
X99949000Y-103017000D01*
X99949000Y-102997000D01*
X98755845Y-102997000D01*
X98634524Y-103226890D01*
X98804355Y-103636924D01*
X99194642Y-104065183D01*
X99324478Y-104126157D01*
X99005375Y-104339375D01*
X98677161Y-104830582D01*
X98561908Y-105410000D01*
X98677161Y-105989418D01*
X99005375Y-106480625D01*
X99303761Y-106680000D01*
X99005375Y-106879375D01*
X98677161Y-107370582D01*
X98561908Y-107950000D01*
X98677161Y-108529418D01*
X99005375Y-109020625D01*
X99023619Y-109032816D01*
X98978235Y-109041843D01*
X98768191Y-109182191D01*
X98627843Y-109392235D01*
X98578560Y-109640000D01*
X98578560Y-111340000D01*
X98627843Y-111587765D01*
X98768191Y-111797809D01*
X98978235Y-111938157D01*
X99226000Y-111987440D01*
X100926000Y-111987440D01*
X101173765Y-111938157D01*
X101383809Y-111797809D01*
X101524157Y-111587765D01*
X101566478Y-111375000D01*
X102570723Y-111375000D01*
X102657884Y-111392337D01*
X102745045Y-111375000D01*
X102745049Y-111375000D01*
X103003194Y-111323652D01*
X103236743Y-111167599D01*
X104199496Y-112130352D01*
X104409540Y-112270700D01*
X104489764Y-112286657D01*
X104185033Y-112591389D01*
X104032256Y-112561000D01*
X103739744Y-112561000D01*
X103306582Y-112647161D01*
X102815375Y-112975375D01*
X102691344Y-113161000D01*
X102540656Y-113161000D01*
X102416625Y-112975375D01*
X101925418Y-112647161D01*
X101492256Y-112561000D01*
X101199744Y-112561000D01*
X100766582Y-112647161D01*
X100275375Y-112975375D01*
X99947161Y-113466582D01*
X99831908Y-114046000D01*
X99947161Y-114625418D01*
X100275375Y-115116625D01*
X100766582Y-115444839D01*
X101199744Y-115531000D01*
X101492256Y-115531000D01*
X101925418Y-115444839D01*
X102416625Y-115116625D01*
X102540656Y-114931000D01*
X102691344Y-114931000D01*
X102815375Y-115116625D01*
X103306582Y-115444839D01*
X103739744Y-115531000D01*
X104032256Y-115531000D01*
X104465418Y-115444839D01*
X104956625Y-115116625D01*
X105156000Y-114818239D01*
X105355375Y-115116625D01*
X105846582Y-115444839D01*
X106279744Y-115531000D01*
X106572256Y-115531000D01*
X107005418Y-115444839D01*
X107496625Y-115116625D01*
X107508816Y-115098381D01*
X107517843Y-115143765D01*
X107658191Y-115353809D01*
X107868235Y-115494157D01*
X108116000Y-115543440D01*
X109816000Y-115543440D01*
X110063765Y-115494157D01*
X110273809Y-115353809D01*
X110414157Y-115143765D01*
X110463440Y-114896000D01*
X110463440Y-113196000D01*
X110414157Y-112948235D01*
X110273809Y-112738191D01*
X110063765Y-112597843D01*
X109851000Y-112555522D01*
X109851000Y-112421000D01*
X109864839Y-112421000D01*
X109952000Y-112438337D01*
X110039161Y-112421000D01*
X110039165Y-112421000D01*
X110068886Y-112415088D01*
X110232930Y-112524700D01*
X110480695Y-112573983D01*
X110728460Y-112524700D01*
X110938504Y-112384352D01*
X111999164Y-111323692D01*
X112139512Y-111113648D01*
X112188795Y-110865883D01*
X112139512Y-110618118D01*
X112134264Y-110610264D01*
X112142118Y-110615512D01*
X112389883Y-110664795D01*
X112637648Y-110615512D01*
X112847692Y-110475164D01*
X113792000Y-109530856D01*
X114736308Y-110475164D01*
X114946352Y-110615512D01*
X115194117Y-110664795D01*
X115441882Y-110615512D01*
X115449736Y-110610264D01*
X115444488Y-110618118D01*
X115395205Y-110865883D01*
X115444488Y-111113648D01*
X115584836Y-111323692D01*
X116645496Y-112384352D01*
X116855540Y-112524700D01*
X117103305Y-112573983D01*
X117351070Y-112524700D01*
X117515114Y-112415088D01*
X117544835Y-112421000D01*
X117544839Y-112421000D01*
X117631999Y-112438337D01*
X117719159Y-112421000D01*
X117872358Y-112421000D01*
X117884843Y-112483765D01*
X117987001Y-112636653D01*
X117987000Y-112851344D01*
X117801375Y-112975375D01*
X117677344Y-113161000D01*
X117526656Y-113161000D01*
X117402625Y-112975375D01*
X116911418Y-112647161D01*
X116478256Y-112561000D01*
X116185744Y-112561000D01*
X115752582Y-112647161D01*
X115261375Y-112975375D01*
X114933161Y-113466582D01*
X114817908Y-114046000D01*
X114933161Y-114625418D01*
X115261375Y-115116625D01*
X115752582Y-115444839D01*
X116185744Y-115531000D01*
X116478256Y-115531000D01*
X116911418Y-115444839D01*
X117402625Y-115116625D01*
X117526656Y-114931000D01*
X117677344Y-114931000D01*
X117801375Y-115116625D01*
X118292582Y-115444839D01*
X118725744Y-115531000D01*
X119018256Y-115531000D01*
X119451418Y-115444839D01*
X119942625Y-115116625D01*
X120142000Y-114818239D01*
X120341375Y-115116625D01*
X120832582Y-115444839D01*
X121265744Y-115531000D01*
X121558256Y-115531000D01*
X121991418Y-115444839D01*
X122482625Y-115116625D01*
X122494816Y-115098381D01*
X122503843Y-115143765D01*
X122644191Y-115353809D01*
X122854235Y-115494157D01*
X123102000Y-115543440D01*
X124802000Y-115543440D01*
X125049765Y-115494157D01*
X125259809Y-115353809D01*
X125400157Y-115143765D01*
X125449440Y-114896000D01*
X125449440Y-113196000D01*
X125400157Y-112948235D01*
X125259809Y-112738191D01*
X125049765Y-112597843D01*
X124802000Y-112548560D01*
X123102000Y-112548560D01*
X122854235Y-112597843D01*
X122644191Y-112738191D01*
X122503843Y-112948235D01*
X122494816Y-112993619D01*
X122482625Y-112975375D01*
X122297000Y-112851344D01*
X122297000Y-112439219D01*
X122424930Y-112524700D01*
X122672695Y-112573983D01*
X122920460Y-112524700D01*
X123130504Y-112384352D01*
X124191164Y-111323692D01*
X124331512Y-111113648D01*
X124380795Y-110865883D01*
X124331512Y-110618118D01*
X124326264Y-110610264D01*
X124334118Y-110615512D01*
X124581883Y-110664795D01*
X124829648Y-110615512D01*
X125039692Y-110475164D01*
X126100352Y-109414504D01*
X126240700Y-109204460D01*
X126289983Y-108956695D01*
X126240700Y-108708930D01*
X126100352Y-108498886D01*
X125181114Y-107579648D01*
X124971070Y-107439300D01*
X124729000Y-107391150D01*
X124729000Y-107219750D01*
X124570250Y-107061000D01*
X124333000Y-107061000D01*
X124333000Y-106807000D01*
X124570250Y-106807000D01*
X124729000Y-106648250D01*
X124729000Y-106057691D01*
X124632327Y-105824302D01*
X124453699Y-105645673D01*
X124333000Y-105595678D01*
X124333000Y-105572322D01*
X124453699Y-105522327D01*
X124632327Y-105343698D01*
X124729000Y-105110309D01*
X124729000Y-104519750D01*
X124570250Y-104361000D01*
X124333000Y-104361000D01*
X124333000Y-104107000D01*
X124570250Y-104107000D01*
X124729000Y-103948250D01*
X124729000Y-103357691D01*
X124632327Y-103124302D01*
X124453699Y-102945673D01*
X124220310Y-102849000D01*
X123729750Y-102849000D01*
X123571000Y-103007750D01*
X123571000Y-103251000D01*
X123317000Y-103251000D01*
X123317000Y-103007750D01*
X123158250Y-102849000D01*
X122669504Y-102849000D01*
X122741157Y-102741765D01*
X122790440Y-102494000D01*
X122790440Y-102297573D01*
X122801074Y-102308207D01*
X123218234Y-102481000D01*
X123669766Y-102481000D01*
X124086926Y-102308207D01*
X124406207Y-101988926D01*
X124579000Y-101571766D01*
X124579000Y-101120234D01*
X124406207Y-100703074D01*
X124086926Y-100383793D01*
X123669766Y-100211000D01*
X123218234Y-100211000D01*
X122801074Y-100383793D01*
X122723867Y-100461000D01*
X122488279Y-100461000D01*
X122390765Y-100395843D01*
X122143000Y-100346560D01*
X121495713Y-100346560D01*
X121507000Y-100319310D01*
X121507000Y-99853750D01*
X121348250Y-99695000D01*
X120249000Y-99695000D01*
X120249000Y-99715000D01*
X119995000Y-99715000D01*
X119995000Y-99695000D01*
X119975000Y-99695000D01*
X119975000Y-99441000D01*
X119995000Y-99441000D01*
X119995000Y-99421000D01*
X120249000Y-99421000D01*
X120249000Y-99441000D01*
X121348250Y-99441000D01*
X121507000Y-99282250D01*
X121507000Y-98816690D01*
X121410327Y-98583301D01*
X121231698Y-98404673D01*
X120998309Y-98308000D01*
X120407750Y-98308000D01*
X120249002Y-98466748D01*
X120249002Y-98384709D01*
X120257431Y-98376280D01*
X120415000Y-97995874D01*
X120415000Y-97794446D01*
X122111844Y-96097603D01*
X122211008Y-96596137D01*
X122500544Y-97029458D01*
X122583670Y-97085001D01*
X122500544Y-97140544D01*
X122211008Y-97573865D01*
X122109337Y-98085001D01*
X122211008Y-98596137D01*
X122500544Y-99029458D01*
X122933865Y-99318994D01*
X123315979Y-99395001D01*
X123574023Y-99395001D01*
X123956137Y-99318994D01*
X124389458Y-99029458D01*
X124678994Y-98596137D01*
X124780665Y-98085001D01*
X124678994Y-97573865D01*
X124389458Y-97140544D01*
X124306332Y-97085001D01*
X124389458Y-97029458D01*
X124678994Y-96596137D01*
X124780665Y-96085001D01*
X124678994Y-95573865D01*
X124389458Y-95140544D01*
X124306332Y-95085001D01*
X124389458Y-95029458D01*
X124678994Y-94596137D01*
X124780665Y-94085001D01*
X124678994Y-93573865D01*
X124389458Y-93140544D01*
X124306332Y-93085001D01*
X124389458Y-93029458D01*
X124678994Y-92596137D01*
X124780665Y-92085001D01*
X124678994Y-91573865D01*
X124389458Y-91140544D01*
X124306332Y-91085001D01*
X124389458Y-91029458D01*
X124678994Y-90596137D01*
X124780665Y-90085001D01*
X124678994Y-89573865D01*
X124389458Y-89140544D01*
X124306332Y-89085001D01*
X124389458Y-89029458D01*
X124678994Y-88596137D01*
X124780665Y-88085001D01*
X124678994Y-87573865D01*
X124389458Y-87140544D01*
X124306332Y-87085001D01*
X124389458Y-87029458D01*
X124678994Y-86596137D01*
X124780665Y-86085001D01*
X124678994Y-85573865D01*
X124389458Y-85140544D01*
X124306332Y-85085001D01*
X124389458Y-85029458D01*
X124678994Y-84596137D01*
X124780665Y-84085001D01*
X124678994Y-83573865D01*
X124389458Y-83140544D01*
X124306332Y-83085001D01*
X124389458Y-83029458D01*
X124678994Y-82596137D01*
X124780665Y-82085001D01*
X124678994Y-81573865D01*
X124483287Y-81280969D01*
X124577810Y-81217810D01*
X124718158Y-81007766D01*
X124767441Y-80760001D01*
X124767441Y-79410001D01*
X124718158Y-79162236D01*
X124577810Y-78952192D01*
X124367766Y-78811844D01*
X124120001Y-78762561D01*
X122770001Y-78762561D01*
X122522236Y-78811844D01*
X122312192Y-78952192D01*
X122171844Y-79162236D01*
X122122561Y-79410001D01*
X122122561Y-80760001D01*
X122171844Y-81007766D01*
X122312192Y-81217810D01*
X122406715Y-81280969D01*
X122211008Y-81573865D01*
X122109337Y-82085001D01*
X122211008Y-82596137D01*
X122500544Y-83029458D01*
X122583670Y-83085001D01*
X122500544Y-83140544D01*
X122211008Y-83573865D01*
X122109337Y-84085001D01*
X122211008Y-84596137D01*
X122500544Y-85029458D01*
X122583670Y-85085001D01*
X122500544Y-85140544D01*
X122382615Y-85317037D01*
X121423431Y-84357853D01*
X121273431Y-83995720D01*
X120982280Y-83704569D01*
X120601874Y-83547000D01*
X120190126Y-83547000D01*
X119827993Y-83697000D01*
X118855579Y-83697000D01*
X116943000Y-81784422D01*
X116943000Y-81594007D01*
X117082528Y-81257156D01*
X117144049Y-81216049D01*
X117339652Y-80923310D01*
X117391000Y-80665165D01*
X117391000Y-80665161D01*
X117408337Y-80578000D01*
X117391000Y-80490839D01*
X117391000Y-77470587D01*
X117503765Y-77448157D01*
X117713809Y-77307809D01*
X117854157Y-77097765D01*
X117856000Y-77088500D01*
X117857843Y-77097765D01*
X117998191Y-77307809D01*
X118208235Y-77448157D01*
X118456000Y-77497440D01*
X119956000Y-77497440D01*
X120203765Y-77448157D01*
X120413809Y-77307809D01*
X120554157Y-77097765D01*
X120567078Y-77032805D01*
X120858549Y-76838049D01*
X120907925Y-76764153D01*
X121394638Y-76277440D01*
X121734250Y-76277440D01*
X122075294Y-76209602D01*
X122364416Y-76016416D01*
X122365207Y-76015233D01*
X122518302Y-76168327D01*
X122751691Y-76265000D01*
X123079750Y-76265000D01*
X123238500Y-76106250D01*
X123238500Y-75057000D01*
X123492500Y-75057000D01*
X123492500Y-76106250D01*
X123651250Y-76265000D01*
X123979309Y-76265000D01*
X124212698Y-76168327D01*
X124391327Y-75989699D01*
X124488000Y-75756310D01*
X124488000Y-75215750D01*
X124329250Y-75057000D01*
X123492500Y-75057000D01*
X123238500Y-75057000D01*
X123218500Y-75057000D01*
X123218500Y-74803000D01*
X123238500Y-74803000D01*
X123238500Y-73753750D01*
X123492500Y-73753750D01*
X123492500Y-74803000D01*
X124329250Y-74803000D01*
X124488000Y-74644250D01*
X124488000Y-74103690D01*
X124391327Y-73870301D01*
X124212698Y-73691673D01*
X123979309Y-73595000D01*
X123651250Y-73595000D01*
X123492500Y-73753750D01*
X123238500Y-73753750D01*
X123079750Y-73595000D01*
X122751691Y-73595000D01*
X122518302Y-73691673D01*
X122365207Y-73844767D01*
X122364416Y-73843584D01*
X122075294Y-73650398D01*
X121734250Y-73582560D01*
X121246750Y-73582560D01*
X120905706Y-73650398D01*
X120616584Y-73843584D01*
X120423398Y-74132706D01*
X120355560Y-74473750D01*
X120355560Y-74813361D01*
X120211746Y-74957176D01*
X120203765Y-74951843D01*
X119956000Y-74902560D01*
X118456000Y-74902560D01*
X118208235Y-74951843D01*
X117998191Y-75092191D01*
X117857843Y-75302235D01*
X117856000Y-75311500D01*
X117854157Y-75302235D01*
X117713809Y-75092191D01*
X117642821Y-75044758D01*
X117912156Y-74775423D01*
X117986049Y-74726049D01*
X118181652Y-74433310D01*
X118233000Y-74175165D01*
X118233000Y-74175161D01*
X118250337Y-74088000D01*
X118233000Y-74000839D01*
X118233000Y-72718533D01*
X118395765Y-72686157D01*
X118605809Y-72545809D01*
X118746157Y-72335765D01*
X118795440Y-72088000D01*
X118795440Y-70159886D01*
X119631560Y-70996007D01*
G36*
X107569000Y-108809000D02*
X107589000Y-108809000D01*
X107589000Y-109063000D01*
X107569000Y-109063000D01*
X107569000Y-110112250D01*
X107693704Y-110236954D01*
X107689235Y-110237843D01*
X107479191Y-110378191D01*
X107442000Y-110433851D01*
X107404809Y-110378191D01*
X107194765Y-110237843D01*
X107190296Y-110236954D01*
X107315000Y-110112250D01*
X107315000Y-109063287D01*
X107349001Y-108892352D01*
X107349001Y-108892348D01*
X107366338Y-108805188D01*
X107363118Y-108789000D01*
X107569000Y-108789000D01*
X107569000Y-108809000D01*
X107569000Y-108809000D01*
G37*
X107569000Y-108809000D02*
X107589000Y-108809000D01*
X107589000Y-109063000D01*
X107569000Y-109063000D01*
X107569000Y-110112250D01*
X107693704Y-110236954D01*
X107689235Y-110237843D01*
X107479191Y-110378191D01*
X107442000Y-110433851D01*
X107404809Y-110378191D01*
X107194765Y-110237843D01*
X107190296Y-110236954D01*
X107315000Y-110112250D01*
X107315000Y-109063287D01*
X107349001Y-108892352D01*
X107349001Y-108892348D01*
X107366338Y-108805188D01*
X107363118Y-108789000D01*
X107569000Y-108789000D01*
X107569000Y-108809000D01*
G36*
X120015000Y-108809000D02*
X120035000Y-108809000D01*
X120035000Y-109063000D01*
X120015000Y-109063000D01*
X120015000Y-110112250D01*
X120139704Y-110236954D01*
X120135235Y-110237843D01*
X119925191Y-110378191D01*
X119888000Y-110433851D01*
X119850809Y-110378191D01*
X119640765Y-110237843D01*
X119636296Y-110236954D01*
X119761000Y-110112250D01*
X119761000Y-109063000D01*
X119741000Y-109063000D01*
X119741000Y-108809000D01*
X119761000Y-108809000D01*
X119761000Y-108789000D01*
X120015000Y-108789000D01*
X120015000Y-108809000D01*
X120015000Y-108809000D01*
G37*
X120015000Y-108809000D02*
X120035000Y-108809000D01*
X120035000Y-109063000D01*
X120015000Y-109063000D01*
X120015000Y-110112250D01*
X120139704Y-110236954D01*
X120135235Y-110237843D01*
X119925191Y-110378191D01*
X119888000Y-110433851D01*
X119850809Y-110378191D01*
X119640765Y-110237843D01*
X119636296Y-110236954D01*
X119761000Y-110112250D01*
X119761000Y-109063000D01*
X119741000Y-109063000D01*
X119741000Y-108809000D01*
X119761000Y-108809000D01*
X119761000Y-108789000D01*
X120015000Y-108789000D01*
X120015000Y-108809000D01*
G36*
X112305578Y-82440157D02*
X112354952Y-82514050D01*
X112428845Y-82563424D01*
X112428846Y-82563425D01*
X112477803Y-82596137D01*
X112647691Y-82709653D01*
X112905836Y-82761001D01*
X112905840Y-82761001D01*
X112993000Y-82778338D01*
X113080160Y-82761001D01*
X113870838Y-82761001D01*
X113957999Y-82778338D01*
X114045160Y-82761001D01*
X114045164Y-82761001D01*
X114303309Y-82709653D01*
X114596048Y-82514050D01*
X114645424Y-82440154D01*
X115173000Y-81912578D01*
X115173000Y-82063839D01*
X115155663Y-82151000D01*
X115173000Y-82238161D01*
X115173000Y-82238164D01*
X115224348Y-82496309D01*
X115419951Y-82789049D01*
X115493847Y-82838425D01*
X117801577Y-85146156D01*
X117850951Y-85220049D01*
X117924844Y-85269423D01*
X117924845Y-85269424D01*
X117949494Y-85285894D01*
X118143690Y-85415652D01*
X118401835Y-85467000D01*
X118401839Y-85467000D01*
X118488999Y-85484337D01*
X118576159Y-85467000D01*
X119827993Y-85467000D01*
X120171853Y-85609431D01*
X120827421Y-86265000D01*
X120681750Y-86265000D01*
X120523000Y-86423750D01*
X120523000Y-87523000D01*
X120543000Y-87523000D01*
X120543000Y-87777000D01*
X120523000Y-87777000D01*
X120523000Y-87797000D01*
X120269000Y-87797000D01*
X120269000Y-87777000D01*
X119294750Y-87777000D01*
X119136000Y-87935750D01*
X119136000Y-88526309D01*
X119232673Y-88759698D01*
X119374320Y-88901346D01*
X119313191Y-88942191D01*
X119172843Y-89152235D01*
X119123560Y-89400000D01*
X119123560Y-89415000D01*
X117294711Y-89415000D01*
X117172280Y-89292569D01*
X116791874Y-89135000D01*
X116380126Y-89135000D01*
X115999720Y-89292569D01*
X115708569Y-89583720D01*
X115551000Y-89964126D01*
X115551000Y-90197000D01*
X115388383Y-90197000D01*
X115315999Y-90182602D01*
X115243615Y-90197000D01*
X115243612Y-90197000D01*
X115029217Y-90239646D01*
X114786095Y-90402095D01*
X114745090Y-90463463D01*
X114339463Y-90869091D01*
X114278096Y-90910095D01*
X114237092Y-90971462D01*
X114237091Y-90971463D01*
X114115646Y-91153218D01*
X114058602Y-91440000D01*
X114073001Y-91512389D01*
X114073000Y-92376710D01*
X114015345Y-92434365D01*
X113873000Y-92778017D01*
X113873000Y-93149983D01*
X114015345Y-93493635D01*
X114278365Y-93756655D01*
X114622017Y-93899000D01*
X114993983Y-93899000D01*
X115089000Y-93859643D01*
X115089001Y-100511611D01*
X115074602Y-100584000D01*
X115131646Y-100870782D01*
X115203513Y-100978338D01*
X115294096Y-101113905D01*
X115355463Y-101154909D01*
X115451000Y-101250446D01*
X115451000Y-101571766D01*
X115623793Y-101988926D01*
X115943074Y-102308207D01*
X116360234Y-102481000D01*
X116811766Y-102481000D01*
X116985560Y-102409012D01*
X116985560Y-102494000D01*
X117034843Y-102741765D01*
X117175191Y-102951809D01*
X117385235Y-103092157D01*
X117633000Y-103141440D01*
X118333000Y-103141440D01*
X118580765Y-103092157D01*
X118618000Y-103067277D01*
X118655235Y-103092157D01*
X118903000Y-103141440D01*
X119603000Y-103141440D01*
X119850765Y-103092157D01*
X119891704Y-103064802D01*
X120046691Y-103129000D01*
X120237250Y-103129000D01*
X120396000Y-102970250D01*
X120396000Y-101871000D01*
X120376000Y-101871000D01*
X120376000Y-101617000D01*
X120396000Y-101617000D01*
X120396000Y-101597000D01*
X120650000Y-101597000D01*
X120650000Y-101617000D01*
X120670000Y-101617000D01*
X120670000Y-101871000D01*
X120650000Y-101871000D01*
X120650000Y-102970250D01*
X120808750Y-103129000D01*
X120999309Y-103129000D01*
X121154296Y-103064802D01*
X121195235Y-103092157D01*
X121443000Y-103141440D01*
X122143000Y-103141440D01*
X122262256Y-103117719D01*
X122255673Y-103124302D01*
X122159000Y-103357691D01*
X122159000Y-103948250D01*
X122317750Y-104107000D01*
X122555000Y-104107000D01*
X122555000Y-104361000D01*
X122317750Y-104361000D01*
X122159000Y-104519750D01*
X122159000Y-105110309D01*
X122255673Y-105343698D01*
X122434301Y-105522327D01*
X122555000Y-105572322D01*
X122555000Y-105595678D01*
X122434301Y-105645673D01*
X122376553Y-105703422D01*
X122269309Y-105659000D01*
X122078750Y-105659000D01*
X121920000Y-105817750D01*
X121920000Y-106045000D01*
X121666000Y-106045000D01*
X121666000Y-105817750D01*
X121507250Y-105659000D01*
X121316691Y-105659000D01*
X121161704Y-105723198D01*
X121120765Y-105695843D01*
X120873000Y-105646560D01*
X120173000Y-105646560D01*
X119925235Y-105695843D01*
X119888000Y-105720723D01*
X119850765Y-105695843D01*
X119603000Y-105646560D01*
X118903000Y-105646560D01*
X118655235Y-105695843D01*
X118618000Y-105720723D01*
X118580765Y-105695843D01*
X118333000Y-105646560D01*
X117633000Y-105646560D01*
X117385235Y-105695843D01*
X117175191Y-105836191D01*
X117034843Y-106046235D01*
X116985560Y-106294000D01*
X116985560Y-107794000D01*
X117034843Y-108041765D01*
X117175191Y-108251809D01*
X117385235Y-108392157D01*
X117633000Y-108441440D01*
X117898001Y-108441440D01*
X117898001Y-108819608D01*
X117305245Y-109412364D01*
X117209648Y-109348488D01*
X116961883Y-109299205D01*
X116714118Y-109348488D01*
X116706264Y-109353736D01*
X116711512Y-109345882D01*
X116760795Y-109098117D01*
X116711512Y-108850352D01*
X116571164Y-108640308D01*
X115510504Y-107579648D01*
X115300460Y-107439300D01*
X115052695Y-107390017D01*
X114804930Y-107439300D01*
X114594886Y-107579648D01*
X113792000Y-108382534D01*
X112989114Y-107579648D01*
X112779070Y-107439300D01*
X112537000Y-107391150D01*
X112537000Y-107299750D01*
X112378250Y-107141000D01*
X112141000Y-107141000D01*
X112141000Y-106887000D01*
X112378250Y-106887000D01*
X112537000Y-106728250D01*
X112537000Y-106137691D01*
X112440327Y-105904302D01*
X112261699Y-105725673D01*
X112141000Y-105675678D01*
X112141000Y-105652322D01*
X112261699Y-105602327D01*
X112440327Y-105423698D01*
X112537000Y-105190309D01*
X112537000Y-104599750D01*
X112378250Y-104441000D01*
X112141000Y-104441000D01*
X112141000Y-104187000D01*
X112378250Y-104187000D01*
X112537000Y-104028250D01*
X112537000Y-103437691D01*
X112440327Y-103204302D01*
X112261699Y-103025673D01*
X112028310Y-102929000D01*
X111537750Y-102929000D01*
X111379000Y-103087750D01*
X111379000Y-103505000D01*
X111125000Y-103505000D01*
X111125000Y-103087750D01*
X110966250Y-102929000D01*
X110475690Y-102929000D01*
X110242301Y-103025673D01*
X110063673Y-103204302D01*
X109967000Y-103437691D01*
X109967000Y-104028250D01*
X110125750Y-104187000D01*
X110363000Y-104187000D01*
X110363000Y-104441000D01*
X110125750Y-104441000D01*
X109967000Y-104599750D01*
X109967000Y-105190309D01*
X110063673Y-105423698D01*
X110242301Y-105602327D01*
X110363000Y-105652322D01*
X110363000Y-105675678D01*
X110242301Y-105725673D01*
X110198000Y-105769975D01*
X110183698Y-105755673D01*
X109950309Y-105659000D01*
X109759750Y-105659000D01*
X109601000Y-105817750D01*
X109601000Y-106045000D01*
X109347000Y-106045000D01*
X109347000Y-105817750D01*
X109188250Y-105659000D01*
X108997691Y-105659000D01*
X108842704Y-105723198D01*
X108801765Y-105695843D01*
X108554000Y-105646560D01*
X107854000Y-105646560D01*
X107606235Y-105695843D01*
X107569000Y-105720723D01*
X107531765Y-105695843D01*
X107284000Y-105646560D01*
X106584000Y-105646560D01*
X106336235Y-105695843D01*
X106299000Y-105720723D01*
X106261765Y-105695843D01*
X106014000Y-105646560D01*
X105748999Y-105646560D01*
X105748999Y-105430579D01*
X107498156Y-103681423D01*
X107572049Y-103632049D01*
X107767652Y-103339310D01*
X107809485Y-103129000D01*
X107918250Y-103129000D01*
X108077000Y-102970250D01*
X108077000Y-101871000D01*
X108057000Y-101871000D01*
X108057000Y-101617000D01*
X108077000Y-101617000D01*
X108077000Y-101597000D01*
X108331000Y-101597000D01*
X108331000Y-101617000D01*
X108351000Y-101617000D01*
X108351000Y-101871000D01*
X108331000Y-101871000D01*
X108331000Y-102970250D01*
X108489750Y-103129000D01*
X108680309Y-103129000D01*
X108835296Y-103064802D01*
X108876235Y-103092157D01*
X109124000Y-103141440D01*
X109824000Y-103141440D01*
X110071765Y-103092157D01*
X110281809Y-102951809D01*
X110422157Y-102741765D01*
X110471440Y-102494000D01*
X110471440Y-102461617D01*
X110518234Y-102481000D01*
X110969766Y-102481000D01*
X111386926Y-102308207D01*
X111706207Y-101988926D01*
X111879000Y-101571766D01*
X111879000Y-101120234D01*
X111706207Y-100703074D01*
X111386926Y-100383793D01*
X110969766Y-100211000D01*
X110518234Y-100211000D01*
X110101074Y-100383793D01*
X110082111Y-100402756D01*
X110077000Y-100399341D01*
X110077000Y-100107750D01*
X109918250Y-99949000D01*
X108819000Y-99949000D01*
X108819000Y-99969000D01*
X108565000Y-99969000D01*
X108565000Y-99949000D01*
X108545000Y-99949000D01*
X108545000Y-99695000D01*
X108565000Y-99695000D01*
X108565000Y-98720750D01*
X108819000Y-98720750D01*
X108819000Y-99695000D01*
X109918250Y-99695000D01*
X110077000Y-99536250D01*
X110077000Y-99070690D01*
X109980327Y-98837301D01*
X109801698Y-98658673D01*
X109568309Y-98562000D01*
X108977750Y-98562000D01*
X108819000Y-98720750D01*
X108565000Y-98720750D01*
X108406250Y-98562000D01*
X107815691Y-98562000D01*
X107582302Y-98658673D01*
X107440654Y-98800320D01*
X107399809Y-98739191D01*
X107189765Y-98598843D01*
X107077000Y-98576413D01*
X107077000Y-98046440D01*
X107664000Y-98046440D01*
X107911765Y-97997157D01*
X108121809Y-97856809D01*
X108262157Y-97646765D01*
X108311440Y-97399000D01*
X108311440Y-96149000D01*
X108262157Y-95901235D01*
X108121809Y-95691191D01*
X108100571Y-95677000D01*
X108135983Y-95677000D01*
X108479635Y-95534655D01*
X108742655Y-95271635D01*
X108885000Y-94927983D01*
X108885000Y-94556017D01*
X108835000Y-94435306D01*
X108835000Y-89508580D01*
X110126157Y-88217424D01*
X110200050Y-88168050D01*
X110335725Y-87965000D01*
X110395653Y-87875311D01*
X110428877Y-87708280D01*
X110447001Y-87617166D01*
X110447001Y-87617162D01*
X110464338Y-87530001D01*
X110447001Y-87442840D01*
X110447001Y-86773691D01*
X119136000Y-86773691D01*
X119136000Y-87364250D01*
X119294750Y-87523000D01*
X120269000Y-87523000D01*
X120269000Y-86423750D01*
X120110250Y-86265000D01*
X119644690Y-86265000D01*
X119411301Y-86361673D01*
X119232673Y-86540302D01*
X119136000Y-86773691D01*
X110447001Y-86773691D01*
X110447001Y-81709162D01*
X110464338Y-81622001D01*
X110447001Y-81534840D01*
X110447001Y-81534836D01*
X110417682Y-81387440D01*
X110607000Y-81387440D01*
X110854765Y-81338157D01*
X111063863Y-81198441D01*
X112305578Y-82440157D01*
X112305578Y-82440157D01*
G37*
X112305578Y-82440157D02*
X112354952Y-82514050D01*
X112428845Y-82563424D01*
X112428846Y-82563425D01*
X112477803Y-82596137D01*
X112647691Y-82709653D01*
X112905836Y-82761001D01*
X112905840Y-82761001D01*
X112993000Y-82778338D01*
X113080160Y-82761001D01*
X113870838Y-82761001D01*
X113957999Y-82778338D01*
X114045160Y-82761001D01*
X114045164Y-82761001D01*
X114303309Y-82709653D01*
X114596048Y-82514050D01*
X114645424Y-82440154D01*
X115173000Y-81912578D01*
X115173000Y-82063839D01*
X115155663Y-82151000D01*
X115173000Y-82238161D01*
X115173000Y-82238164D01*
X115224348Y-82496309D01*
X115419951Y-82789049D01*
X115493847Y-82838425D01*
X117801577Y-85146156D01*
X117850951Y-85220049D01*
X117924844Y-85269423D01*
X117924845Y-85269424D01*
X117949494Y-85285894D01*
X118143690Y-85415652D01*
X118401835Y-85467000D01*
X118401839Y-85467000D01*
X118488999Y-85484337D01*
X118576159Y-85467000D01*
X119827993Y-85467000D01*
X120171853Y-85609431D01*
X120827421Y-86265000D01*
X120681750Y-86265000D01*
X120523000Y-86423750D01*
X120523000Y-87523000D01*
X120543000Y-87523000D01*
X120543000Y-87777000D01*
X120523000Y-87777000D01*
X120523000Y-87797000D01*
X120269000Y-87797000D01*
X120269000Y-87777000D01*
X119294750Y-87777000D01*
X119136000Y-87935750D01*
X119136000Y-88526309D01*
X119232673Y-88759698D01*
X119374320Y-88901346D01*
X119313191Y-88942191D01*
X119172843Y-89152235D01*
X119123560Y-89400000D01*
X119123560Y-89415000D01*
X117294711Y-89415000D01*
X117172280Y-89292569D01*
X116791874Y-89135000D01*
X116380126Y-89135000D01*
X115999720Y-89292569D01*
X115708569Y-89583720D01*
X115551000Y-89964126D01*
X115551000Y-90197000D01*
X115388383Y-90197000D01*
X115315999Y-90182602D01*
X115243615Y-90197000D01*
X115243612Y-90197000D01*
X115029217Y-90239646D01*
X114786095Y-90402095D01*
X114745090Y-90463463D01*
X114339463Y-90869091D01*
X114278096Y-90910095D01*
X114237092Y-90971462D01*
X114237091Y-90971463D01*
X114115646Y-91153218D01*
X114058602Y-91440000D01*
X114073001Y-91512389D01*
X114073000Y-92376710D01*
X114015345Y-92434365D01*
X113873000Y-92778017D01*
X113873000Y-93149983D01*
X114015345Y-93493635D01*
X114278365Y-93756655D01*
X114622017Y-93899000D01*
X114993983Y-93899000D01*
X115089000Y-93859643D01*
X115089001Y-100511611D01*
X115074602Y-100584000D01*
X115131646Y-100870782D01*
X115203513Y-100978338D01*
X115294096Y-101113905D01*
X115355463Y-101154909D01*
X115451000Y-101250446D01*
X115451000Y-101571766D01*
X115623793Y-101988926D01*
X115943074Y-102308207D01*
X116360234Y-102481000D01*
X116811766Y-102481000D01*
X116985560Y-102409012D01*
X116985560Y-102494000D01*
X117034843Y-102741765D01*
X117175191Y-102951809D01*
X117385235Y-103092157D01*
X117633000Y-103141440D01*
X118333000Y-103141440D01*
X118580765Y-103092157D01*
X118618000Y-103067277D01*
X118655235Y-103092157D01*
X118903000Y-103141440D01*
X119603000Y-103141440D01*
X119850765Y-103092157D01*
X119891704Y-103064802D01*
X120046691Y-103129000D01*
X120237250Y-103129000D01*
X120396000Y-102970250D01*
X120396000Y-101871000D01*
X120376000Y-101871000D01*
X120376000Y-101617000D01*
X120396000Y-101617000D01*
X120396000Y-101597000D01*
X120650000Y-101597000D01*
X120650000Y-101617000D01*
X120670000Y-101617000D01*
X120670000Y-101871000D01*
X120650000Y-101871000D01*
X120650000Y-102970250D01*
X120808750Y-103129000D01*
X120999309Y-103129000D01*
X121154296Y-103064802D01*
X121195235Y-103092157D01*
X121443000Y-103141440D01*
X122143000Y-103141440D01*
X122262256Y-103117719D01*
X122255673Y-103124302D01*
X122159000Y-103357691D01*
X122159000Y-103948250D01*
X122317750Y-104107000D01*
X122555000Y-104107000D01*
X122555000Y-104361000D01*
X122317750Y-104361000D01*
X122159000Y-104519750D01*
X122159000Y-105110309D01*
X122255673Y-105343698D01*
X122434301Y-105522327D01*
X122555000Y-105572322D01*
X122555000Y-105595678D01*
X122434301Y-105645673D01*
X122376553Y-105703422D01*
X122269309Y-105659000D01*
X122078750Y-105659000D01*
X121920000Y-105817750D01*
X121920000Y-106045000D01*
X121666000Y-106045000D01*
X121666000Y-105817750D01*
X121507250Y-105659000D01*
X121316691Y-105659000D01*
X121161704Y-105723198D01*
X121120765Y-105695843D01*
X120873000Y-105646560D01*
X120173000Y-105646560D01*
X119925235Y-105695843D01*
X119888000Y-105720723D01*
X119850765Y-105695843D01*
X119603000Y-105646560D01*
X118903000Y-105646560D01*
X118655235Y-105695843D01*
X118618000Y-105720723D01*
X118580765Y-105695843D01*
X118333000Y-105646560D01*
X117633000Y-105646560D01*
X117385235Y-105695843D01*
X117175191Y-105836191D01*
X117034843Y-106046235D01*
X116985560Y-106294000D01*
X116985560Y-107794000D01*
X117034843Y-108041765D01*
X117175191Y-108251809D01*
X117385235Y-108392157D01*
X117633000Y-108441440D01*
X117898001Y-108441440D01*
X117898001Y-108819608D01*
X117305245Y-109412364D01*
X117209648Y-109348488D01*
X116961883Y-109299205D01*
X116714118Y-109348488D01*
X116706264Y-109353736D01*
X116711512Y-109345882D01*
X116760795Y-109098117D01*
X116711512Y-108850352D01*
X116571164Y-108640308D01*
X115510504Y-107579648D01*
X115300460Y-107439300D01*
X115052695Y-107390017D01*
X114804930Y-107439300D01*
X114594886Y-107579648D01*
X113792000Y-108382534D01*
X112989114Y-107579648D01*
X112779070Y-107439300D01*
X112537000Y-107391150D01*
X112537000Y-107299750D01*
X112378250Y-107141000D01*
X112141000Y-107141000D01*
X112141000Y-106887000D01*
X112378250Y-106887000D01*
X112537000Y-106728250D01*
X112537000Y-106137691D01*
X112440327Y-105904302D01*
X112261699Y-105725673D01*
X112141000Y-105675678D01*
X112141000Y-105652322D01*
X112261699Y-105602327D01*
X112440327Y-105423698D01*
X112537000Y-105190309D01*
X112537000Y-104599750D01*
X112378250Y-104441000D01*
X112141000Y-104441000D01*
X112141000Y-104187000D01*
X112378250Y-104187000D01*
X112537000Y-104028250D01*
X112537000Y-103437691D01*
X112440327Y-103204302D01*
X112261699Y-103025673D01*
X112028310Y-102929000D01*
X111537750Y-102929000D01*
X111379000Y-103087750D01*
X111379000Y-103505000D01*
X111125000Y-103505000D01*
X111125000Y-103087750D01*
X110966250Y-102929000D01*
X110475690Y-102929000D01*
X110242301Y-103025673D01*
X110063673Y-103204302D01*
X109967000Y-103437691D01*
X109967000Y-104028250D01*
X110125750Y-104187000D01*
X110363000Y-104187000D01*
X110363000Y-104441000D01*
X110125750Y-104441000D01*
X109967000Y-104599750D01*
X109967000Y-105190309D01*
X110063673Y-105423698D01*
X110242301Y-105602327D01*
X110363000Y-105652322D01*
X110363000Y-105675678D01*
X110242301Y-105725673D01*
X110198000Y-105769975D01*
X110183698Y-105755673D01*
X109950309Y-105659000D01*
X109759750Y-105659000D01*
X109601000Y-105817750D01*
X109601000Y-106045000D01*
X109347000Y-106045000D01*
X109347000Y-105817750D01*
X109188250Y-105659000D01*
X108997691Y-105659000D01*
X108842704Y-105723198D01*
X108801765Y-105695843D01*
X108554000Y-105646560D01*
X107854000Y-105646560D01*
X107606235Y-105695843D01*
X107569000Y-105720723D01*
X107531765Y-105695843D01*
X107284000Y-105646560D01*
X106584000Y-105646560D01*
X106336235Y-105695843D01*
X106299000Y-105720723D01*
X106261765Y-105695843D01*
X106014000Y-105646560D01*
X105748999Y-105646560D01*
X105748999Y-105430579D01*
X107498156Y-103681423D01*
X107572049Y-103632049D01*
X107767652Y-103339310D01*
X107809485Y-103129000D01*
X107918250Y-103129000D01*
X108077000Y-102970250D01*
X108077000Y-101871000D01*
X108057000Y-101871000D01*
X108057000Y-101617000D01*
X108077000Y-101617000D01*
X108077000Y-101597000D01*
X108331000Y-101597000D01*
X108331000Y-101617000D01*
X108351000Y-101617000D01*
X108351000Y-101871000D01*
X108331000Y-101871000D01*
X108331000Y-102970250D01*
X108489750Y-103129000D01*
X108680309Y-103129000D01*
X108835296Y-103064802D01*
X108876235Y-103092157D01*
X109124000Y-103141440D01*
X109824000Y-103141440D01*
X110071765Y-103092157D01*
X110281809Y-102951809D01*
X110422157Y-102741765D01*
X110471440Y-102494000D01*
X110471440Y-102461617D01*
X110518234Y-102481000D01*
X110969766Y-102481000D01*
X111386926Y-102308207D01*
X111706207Y-101988926D01*
X111879000Y-101571766D01*
X111879000Y-101120234D01*
X111706207Y-100703074D01*
X111386926Y-100383793D01*
X110969766Y-100211000D01*
X110518234Y-100211000D01*
X110101074Y-100383793D01*
X110082111Y-100402756D01*
X110077000Y-100399341D01*
X110077000Y-100107750D01*
X109918250Y-99949000D01*
X108819000Y-99949000D01*
X108819000Y-99969000D01*
X108565000Y-99969000D01*
X108565000Y-99949000D01*
X108545000Y-99949000D01*
X108545000Y-99695000D01*
X108565000Y-99695000D01*
X108565000Y-98720750D01*
X108819000Y-98720750D01*
X108819000Y-99695000D01*
X109918250Y-99695000D01*
X110077000Y-99536250D01*
X110077000Y-99070690D01*
X109980327Y-98837301D01*
X109801698Y-98658673D01*
X109568309Y-98562000D01*
X108977750Y-98562000D01*
X108819000Y-98720750D01*
X108565000Y-98720750D01*
X108406250Y-98562000D01*
X107815691Y-98562000D01*
X107582302Y-98658673D01*
X107440654Y-98800320D01*
X107399809Y-98739191D01*
X107189765Y-98598843D01*
X107077000Y-98576413D01*
X107077000Y-98046440D01*
X107664000Y-98046440D01*
X107911765Y-97997157D01*
X108121809Y-97856809D01*
X108262157Y-97646765D01*
X108311440Y-97399000D01*
X108311440Y-96149000D01*
X108262157Y-95901235D01*
X108121809Y-95691191D01*
X108100571Y-95677000D01*
X108135983Y-95677000D01*
X108479635Y-95534655D01*
X108742655Y-95271635D01*
X108885000Y-94927983D01*
X108885000Y-94556017D01*
X108835000Y-94435306D01*
X108835000Y-89508580D01*
X110126157Y-88217424D01*
X110200050Y-88168050D01*
X110335725Y-87965000D01*
X110395653Y-87875311D01*
X110428877Y-87708280D01*
X110447001Y-87617166D01*
X110447001Y-87617162D01*
X110464338Y-87530001D01*
X110447001Y-87442840D01*
X110447001Y-86773691D01*
X119136000Y-86773691D01*
X119136000Y-87364250D01*
X119294750Y-87523000D01*
X120269000Y-87523000D01*
X120269000Y-86423750D01*
X120110250Y-86265000D01*
X119644690Y-86265000D01*
X119411301Y-86361673D01*
X119232673Y-86540302D01*
X119136000Y-86773691D01*
X110447001Y-86773691D01*
X110447001Y-81709162D01*
X110464338Y-81622001D01*
X110447001Y-81534840D01*
X110447001Y-81534836D01*
X110417682Y-81387440D01*
X110607000Y-81387440D01*
X110854765Y-81338157D01*
X111063863Y-81198441D01*
X112305578Y-82440157D01*
G36*
X119123560Y-90900000D02*
X119172843Y-91147765D01*
X119313191Y-91357809D01*
X119523235Y-91498157D01*
X119771000Y-91547440D01*
X121021000Y-91547440D01*
X121035001Y-91544655D01*
X121035001Y-91581420D01*
X119831847Y-92784575D01*
X119757951Y-92833951D01*
X119562348Y-93126691D01*
X119511000Y-93384836D01*
X119511000Y-93384839D01*
X119493663Y-93472000D01*
X119511000Y-93559161D01*
X119511001Y-94153992D01*
X119361000Y-94516126D01*
X119361000Y-94630421D01*
X118833094Y-95158328D01*
X118733431Y-94917720D01*
X118591000Y-94775289D01*
X118591000Y-93016382D01*
X118605398Y-92943998D01*
X118591000Y-92871614D01*
X118591000Y-92871610D01*
X118548354Y-92657215D01*
X118385905Y-92414093D01*
X118324538Y-92373089D01*
X117049667Y-91098219D01*
X117172280Y-91047431D01*
X117334711Y-90885000D01*
X119123560Y-90885000D01*
X119123560Y-90900000D01*
X119123560Y-90900000D01*
G37*
X119123560Y-90900000D02*
X119172843Y-91147765D01*
X119313191Y-91357809D01*
X119523235Y-91498157D01*
X119771000Y-91547440D01*
X121021000Y-91547440D01*
X121035001Y-91544655D01*
X121035001Y-91581420D01*
X119831847Y-92784575D01*
X119757951Y-92833951D01*
X119562348Y-93126691D01*
X119511000Y-93384836D01*
X119511000Y-93384839D01*
X119493663Y-93472000D01*
X119511000Y-93559161D01*
X119511001Y-94153992D01*
X119361000Y-94516126D01*
X119361000Y-94630421D01*
X118833094Y-95158328D01*
X118733431Y-94917720D01*
X118591000Y-94775289D01*
X118591000Y-93016382D01*
X118605398Y-92943998D01*
X118591000Y-92871614D01*
X118591000Y-92871610D01*
X118548354Y-92657215D01*
X118385905Y-92414093D01*
X118324538Y-92373089D01*
X117049667Y-91098219D01*
X117172280Y-91047431D01*
X117334711Y-90885000D01*
X119123560Y-90885000D01*
X119123560Y-90900000D01*
G36*
X105964843Y-80987765D02*
X106105191Y-81197809D01*
X106315235Y-81338157D01*
X106563000Y-81387440D01*
X107813000Y-81387440D01*
X107855313Y-81379024D01*
X108125720Y-81649431D01*
X108487852Y-81799431D01*
X108677001Y-81988580D01*
X108677002Y-86047555D01*
X106035275Y-83405829D01*
X106191000Y-83029874D01*
X106191000Y-82618126D01*
X106033431Y-82237720D01*
X105742280Y-81946569D01*
X105361874Y-81789000D01*
X104950126Y-81789000D01*
X104569720Y-81946569D01*
X104425867Y-82090422D01*
X103711434Y-81375990D01*
X103769000Y-81387440D01*
X105019000Y-81387440D01*
X105266765Y-81338157D01*
X105476809Y-81197809D01*
X105617157Y-80987765D01*
X105639587Y-80875000D01*
X105942413Y-80875000D01*
X105964843Y-80987765D01*
X105964843Y-80987765D01*
G37*
X105964843Y-80987765D02*
X106105191Y-81197809D01*
X106315235Y-81338157D01*
X106563000Y-81387440D01*
X107813000Y-81387440D01*
X107855313Y-81379024D01*
X108125720Y-81649431D01*
X108487852Y-81799431D01*
X108677001Y-81988580D01*
X108677002Y-86047555D01*
X106035275Y-83405829D01*
X106191000Y-83029874D01*
X106191000Y-82618126D01*
X106033431Y-82237720D01*
X105742280Y-81946569D01*
X105361874Y-81789000D01*
X104950126Y-81789000D01*
X104569720Y-81946569D01*
X104425867Y-82090422D01*
X103711434Y-81375990D01*
X103769000Y-81387440D01*
X105019000Y-81387440D01*
X105266765Y-81338157D01*
X105476809Y-81197809D01*
X105617157Y-80987765D01*
X105639587Y-80875000D01*
X105942413Y-80875000D01*
X105964843Y-80987765D01*
G36*
X100369090Y-81528539D02*
X100410095Y-81589907D01*
X100593448Y-81712420D01*
X100519337Y-82085001D01*
X100621008Y-82596137D01*
X100910544Y-83029458D01*
X100993670Y-83085001D01*
X100910544Y-83140544D01*
X100621008Y-83573865D01*
X100519337Y-84085001D01*
X100621008Y-84596137D01*
X100910544Y-85029458D01*
X100993670Y-85085001D01*
X100910544Y-85140544D01*
X100621008Y-85573865D01*
X100581572Y-85772125D01*
X99260989Y-84451543D01*
X99260989Y-80420437D01*
X100369090Y-81528539D01*
X100369090Y-81528539D01*
G37*
X100369090Y-81528539D02*
X100410095Y-81589907D01*
X100593448Y-81712420D01*
X100519337Y-82085001D01*
X100621008Y-82596137D01*
X100910544Y-83029458D01*
X100993670Y-83085001D01*
X100910544Y-83140544D01*
X100621008Y-83573865D01*
X100519337Y-84085001D01*
X100621008Y-84596137D01*
X100910544Y-85029458D01*
X100993670Y-85085001D01*
X100910544Y-85140544D01*
X100621008Y-85573865D01*
X100581572Y-85772125D01*
X99260989Y-84451543D01*
X99260989Y-80420437D01*
X100369090Y-81528539D01*
G36*
X115108560Y-76850000D02*
X115157843Y-77097765D01*
X115298191Y-77307809D01*
X115508235Y-77448157D01*
X115621000Y-77470587D01*
X115621001Y-80086735D01*
X115489993Y-80141000D01*
X114895161Y-80141000D01*
X114808000Y-80123663D01*
X114720839Y-80141000D01*
X114720835Y-80141000D01*
X114462690Y-80192348D01*
X114243845Y-80338576D01*
X114243844Y-80338577D01*
X114169951Y-80387951D01*
X114120577Y-80461844D01*
X113591421Y-80991001D01*
X113359580Y-80991001D01*
X111794425Y-79425847D01*
X111745049Y-79351951D01*
X111452310Y-79156348D01*
X111228964Y-79111922D01*
X111205157Y-78992235D01*
X111064809Y-78782191D01*
X111003680Y-78741346D01*
X111145327Y-78599698D01*
X111242000Y-78366309D01*
X111242000Y-78245446D01*
X112032195Y-79035642D01*
X112152581Y-79326280D01*
X112443732Y-79617431D01*
X112824138Y-79775000D01*
X113235886Y-79775000D01*
X113616292Y-79617431D01*
X113907443Y-79326280D01*
X114065012Y-78945874D01*
X114065012Y-78534126D01*
X113907443Y-78153720D01*
X113616292Y-77862569D01*
X113235886Y-77705000D01*
X112824138Y-77705000D01*
X112793244Y-77717797D01*
X111642968Y-76567522D01*
X111656399Y-76499999D01*
X111642001Y-76427615D01*
X111642001Y-76427611D01*
X111599355Y-76213216D01*
X111556447Y-76149000D01*
X115108560Y-76149000D01*
X115108560Y-76850000D01*
X115108560Y-76850000D01*
G37*
X115108560Y-76850000D02*
X115157843Y-77097765D01*
X115298191Y-77307809D01*
X115508235Y-77448157D01*
X115621000Y-77470587D01*
X115621001Y-80086735D01*
X115489993Y-80141000D01*
X114895161Y-80141000D01*
X114808000Y-80123663D01*
X114720839Y-80141000D01*
X114720835Y-80141000D01*
X114462690Y-80192348D01*
X114243845Y-80338576D01*
X114243844Y-80338577D01*
X114169951Y-80387951D01*
X114120577Y-80461844D01*
X113591421Y-80991001D01*
X113359580Y-80991001D01*
X111794425Y-79425847D01*
X111745049Y-79351951D01*
X111452310Y-79156348D01*
X111228964Y-79111922D01*
X111205157Y-78992235D01*
X111064809Y-78782191D01*
X111003680Y-78741346D01*
X111145327Y-78599698D01*
X111242000Y-78366309D01*
X111242000Y-78245446D01*
X112032195Y-79035642D01*
X112152581Y-79326280D01*
X112443732Y-79617431D01*
X112824138Y-79775000D01*
X113235886Y-79775000D01*
X113616292Y-79617431D01*
X113907443Y-79326280D01*
X114065012Y-78945874D01*
X114065012Y-78534126D01*
X113907443Y-78153720D01*
X113616292Y-77862569D01*
X113235886Y-77705000D01*
X112824138Y-77705000D01*
X112793244Y-77717797D01*
X111642968Y-76567522D01*
X111656399Y-76499999D01*
X111642001Y-76427615D01*
X111642001Y-76427611D01*
X111599355Y-76213216D01*
X111556447Y-76149000D01*
X115108560Y-76149000D01*
X115108560Y-76850000D01*
G36*
X103521750Y-70151000D02*
X104521000Y-70151000D01*
X104521000Y-70131000D01*
X104775000Y-70131000D01*
X104775000Y-70151000D01*
X105478750Y-70151000D01*
X105578750Y-70251000D01*
X106553000Y-70251000D01*
X106553000Y-70231000D01*
X106807000Y-70231000D01*
X106807000Y-70251000D01*
X106827000Y-70251000D01*
X106827000Y-70505000D01*
X106807000Y-70505000D01*
X106807000Y-70525000D01*
X106553000Y-70525000D01*
X106553000Y-70505000D01*
X105874250Y-70505000D01*
X105774250Y-70405000D01*
X104775000Y-70405000D01*
X104775000Y-70425000D01*
X104521000Y-70425000D01*
X104521000Y-70405000D01*
X103521750Y-70405000D01*
X103363000Y-70563750D01*
X103363000Y-71154309D01*
X103459673Y-71387698D01*
X103638301Y-71566327D01*
X103778209Y-71624279D01*
X103750235Y-71629843D01*
X103540191Y-71770191D01*
X103399843Y-71980235D01*
X103350560Y-72228000D01*
X103350560Y-73728000D01*
X103399843Y-73975765D01*
X103540191Y-74185809D01*
X103750235Y-74326157D01*
X103998000Y-74375440D01*
X105298000Y-74375440D01*
X105545765Y-74326157D01*
X105751330Y-74188802D01*
X105807235Y-74226157D01*
X106055000Y-74275440D01*
X107271994Y-74275440D01*
X109139377Y-76142823D01*
X108997301Y-76201673D01*
X108818673Y-76380302D01*
X108722000Y-76613691D01*
X108722000Y-77204250D01*
X108880750Y-77363000D01*
X109855000Y-77363000D01*
X109855000Y-77343000D01*
X110109000Y-77343000D01*
X110109000Y-77363000D01*
X110129000Y-77363000D01*
X110129000Y-77617000D01*
X110109000Y-77617000D01*
X110109000Y-77637000D01*
X109855000Y-77637000D01*
X109855000Y-77617000D01*
X108880750Y-77617000D01*
X108722000Y-77775750D01*
X108722000Y-78366309D01*
X108818673Y-78599698D01*
X108960320Y-78741346D01*
X108899191Y-78782191D01*
X108758843Y-78992235D01*
X108736413Y-79105000D01*
X108433587Y-79105000D01*
X108411157Y-78992235D01*
X108270809Y-78782191D01*
X108209680Y-78741346D01*
X108351327Y-78599698D01*
X108448000Y-78366309D01*
X108448000Y-77775750D01*
X108289250Y-77617000D01*
X107315000Y-77617000D01*
X107315000Y-77637000D01*
X107061000Y-77637000D01*
X107061000Y-77617000D01*
X106086750Y-77617000D01*
X105928000Y-77775750D01*
X105928000Y-78366309D01*
X106024673Y-78599698D01*
X106166320Y-78741346D01*
X106105191Y-78782191D01*
X105964843Y-78992235D01*
X105942413Y-79105000D01*
X105639587Y-79105000D01*
X105617157Y-78992235D01*
X105476809Y-78782191D01*
X105415680Y-78741346D01*
X105557327Y-78599698D01*
X105654000Y-78366309D01*
X105654000Y-77775750D01*
X105495250Y-77617000D01*
X104521000Y-77617000D01*
X104521000Y-77637000D01*
X104267000Y-77637000D01*
X104267000Y-77617000D01*
X103292750Y-77617000D01*
X103134000Y-77775750D01*
X103134000Y-78366309D01*
X103230673Y-78599698D01*
X103372320Y-78741346D01*
X103311191Y-78782191D01*
X103170843Y-78992235D01*
X103148413Y-79105000D01*
X103089914Y-79105000D01*
X102987810Y-78952192D01*
X102777766Y-78811844D01*
X102530001Y-78762561D01*
X101180001Y-78762561D01*
X100932236Y-78811844D01*
X100722192Y-78952192D01*
X100581844Y-79162236D01*
X100532561Y-79410001D01*
X100532561Y-79613116D01*
X99660999Y-78741555D01*
X99660999Y-76613691D01*
X103134000Y-76613691D01*
X103134000Y-77204250D01*
X103292750Y-77363000D01*
X104267000Y-77363000D01*
X104267000Y-76263750D01*
X104521000Y-76263750D01*
X104521000Y-77363000D01*
X105495250Y-77363000D01*
X105654000Y-77204250D01*
X105654000Y-76613691D01*
X105928000Y-76613691D01*
X105928000Y-77204250D01*
X106086750Y-77363000D01*
X107061000Y-77363000D01*
X107061000Y-76263750D01*
X107315000Y-76263750D01*
X107315000Y-77363000D01*
X108289250Y-77363000D01*
X108448000Y-77204250D01*
X108448000Y-76613691D01*
X108351327Y-76380302D01*
X108172699Y-76201673D01*
X107939310Y-76105000D01*
X107473750Y-76105000D01*
X107315000Y-76263750D01*
X107061000Y-76263750D01*
X106902250Y-76105000D01*
X106436690Y-76105000D01*
X106203301Y-76201673D01*
X106024673Y-76380302D01*
X105928000Y-76613691D01*
X105654000Y-76613691D01*
X105557327Y-76380302D01*
X105378699Y-76201673D01*
X105145310Y-76105000D01*
X104679750Y-76105000D01*
X104521000Y-76263750D01*
X104267000Y-76263750D01*
X104108250Y-76105000D01*
X103642690Y-76105000D01*
X103409301Y-76201673D01*
X103230673Y-76380302D01*
X103134000Y-76613691D01*
X99660999Y-76613691D01*
X99660999Y-75907000D01*
X99790250Y-75907000D01*
X99949000Y-75748250D01*
X99949000Y-74549000D01*
X100203000Y-74549000D01*
X100203000Y-75748250D01*
X100361750Y-75907000D01*
X101052309Y-75907000D01*
X101285698Y-75810327D01*
X101464327Y-75631699D01*
X101561000Y-75398310D01*
X101561000Y-74707750D01*
X101402250Y-74549000D01*
X100203000Y-74549000D01*
X99949000Y-74549000D01*
X99929000Y-74549000D01*
X99929000Y-74295000D01*
X99949000Y-74295000D01*
X99949000Y-74275000D01*
X100203000Y-74275000D01*
X100203000Y-74295000D01*
X101402250Y-74295000D01*
X101561000Y-74136250D01*
X101561000Y-73445690D01*
X101464327Y-73212301D01*
X101285698Y-73033673D01*
X101124967Y-72967096D01*
X101146625Y-72952625D01*
X101474839Y-72461418D01*
X101590092Y-71882000D01*
X101474839Y-71302582D01*
X101146625Y-70811375D01*
X100848239Y-70612000D01*
X101014362Y-70501000D01*
X102528839Y-70501000D01*
X102616000Y-70518337D01*
X102703161Y-70501000D01*
X102703165Y-70501000D01*
X102961310Y-70449652D01*
X103254049Y-70254049D01*
X103303425Y-70180153D01*
X103427164Y-70056414D01*
X103521750Y-70151000D01*
X103521750Y-70151000D01*
G37*
X103521750Y-70151000D02*
X104521000Y-70151000D01*
X104521000Y-70131000D01*
X104775000Y-70131000D01*
X104775000Y-70151000D01*
X105478750Y-70151000D01*
X105578750Y-70251000D01*
X106553000Y-70251000D01*
X106553000Y-70231000D01*
X106807000Y-70231000D01*
X106807000Y-70251000D01*
X106827000Y-70251000D01*
X106827000Y-70505000D01*
X106807000Y-70505000D01*
X106807000Y-70525000D01*
X106553000Y-70525000D01*
X106553000Y-70505000D01*
X105874250Y-70505000D01*
X105774250Y-70405000D01*
X104775000Y-70405000D01*
X104775000Y-70425000D01*
X104521000Y-70425000D01*
X104521000Y-70405000D01*
X103521750Y-70405000D01*
X103363000Y-70563750D01*
X103363000Y-71154309D01*
X103459673Y-71387698D01*
X103638301Y-71566327D01*
X103778209Y-71624279D01*
X103750235Y-71629843D01*
X103540191Y-71770191D01*
X103399843Y-71980235D01*
X103350560Y-72228000D01*
X103350560Y-73728000D01*
X103399843Y-73975765D01*
X103540191Y-74185809D01*
X103750235Y-74326157D01*
X103998000Y-74375440D01*
X105298000Y-74375440D01*
X105545765Y-74326157D01*
X105751330Y-74188802D01*
X105807235Y-74226157D01*
X106055000Y-74275440D01*
X107271994Y-74275440D01*
X109139377Y-76142823D01*
X108997301Y-76201673D01*
X108818673Y-76380302D01*
X108722000Y-76613691D01*
X108722000Y-77204250D01*
X108880750Y-77363000D01*
X109855000Y-77363000D01*
X109855000Y-77343000D01*
X110109000Y-77343000D01*
X110109000Y-77363000D01*
X110129000Y-77363000D01*
X110129000Y-77617000D01*
X110109000Y-77617000D01*
X110109000Y-77637000D01*
X109855000Y-77637000D01*
X109855000Y-77617000D01*
X108880750Y-77617000D01*
X108722000Y-77775750D01*
X108722000Y-78366309D01*
X108818673Y-78599698D01*
X108960320Y-78741346D01*
X108899191Y-78782191D01*
X108758843Y-78992235D01*
X108736413Y-79105000D01*
X108433587Y-79105000D01*
X108411157Y-78992235D01*
X108270809Y-78782191D01*
X108209680Y-78741346D01*
X108351327Y-78599698D01*
X108448000Y-78366309D01*
X108448000Y-77775750D01*
X108289250Y-77617000D01*
X107315000Y-77617000D01*
X107315000Y-77637000D01*
X107061000Y-77637000D01*
X107061000Y-77617000D01*
X106086750Y-77617000D01*
X105928000Y-77775750D01*
X105928000Y-78366309D01*
X106024673Y-78599698D01*
X106166320Y-78741346D01*
X106105191Y-78782191D01*
X105964843Y-78992235D01*
X105942413Y-79105000D01*
X105639587Y-79105000D01*
X105617157Y-78992235D01*
X105476809Y-78782191D01*
X105415680Y-78741346D01*
X105557327Y-78599698D01*
X105654000Y-78366309D01*
X105654000Y-77775750D01*
X105495250Y-77617000D01*
X104521000Y-77617000D01*
X104521000Y-77637000D01*
X104267000Y-77637000D01*
X104267000Y-77617000D01*
X103292750Y-77617000D01*
X103134000Y-77775750D01*
X103134000Y-78366309D01*
X103230673Y-78599698D01*
X103372320Y-78741346D01*
X103311191Y-78782191D01*
X103170843Y-78992235D01*
X103148413Y-79105000D01*
X103089914Y-79105000D01*
X102987810Y-78952192D01*
X102777766Y-78811844D01*
X102530001Y-78762561D01*
X101180001Y-78762561D01*
X100932236Y-78811844D01*
X100722192Y-78952192D01*
X100581844Y-79162236D01*
X100532561Y-79410001D01*
X100532561Y-79613116D01*
X99660999Y-78741555D01*
X99660999Y-76613691D01*
X103134000Y-76613691D01*
X103134000Y-77204250D01*
X103292750Y-77363000D01*
X104267000Y-77363000D01*
X104267000Y-76263750D01*
X104521000Y-76263750D01*
X104521000Y-77363000D01*
X105495250Y-77363000D01*
X105654000Y-77204250D01*
X105654000Y-76613691D01*
X105928000Y-76613691D01*
X105928000Y-77204250D01*
X106086750Y-77363000D01*
X107061000Y-77363000D01*
X107061000Y-76263750D01*
X107315000Y-76263750D01*
X107315000Y-77363000D01*
X108289250Y-77363000D01*
X108448000Y-77204250D01*
X108448000Y-76613691D01*
X108351327Y-76380302D01*
X108172699Y-76201673D01*
X107939310Y-76105000D01*
X107473750Y-76105000D01*
X107315000Y-76263750D01*
X107061000Y-76263750D01*
X106902250Y-76105000D01*
X106436690Y-76105000D01*
X106203301Y-76201673D01*
X106024673Y-76380302D01*
X105928000Y-76613691D01*
X105654000Y-76613691D01*
X105557327Y-76380302D01*
X105378699Y-76201673D01*
X105145310Y-76105000D01*
X104679750Y-76105000D01*
X104521000Y-76263750D01*
X104267000Y-76263750D01*
X104108250Y-76105000D01*
X103642690Y-76105000D01*
X103409301Y-76201673D01*
X103230673Y-76380302D01*
X103134000Y-76613691D01*
X99660999Y-76613691D01*
X99660999Y-75907000D01*
X99790250Y-75907000D01*
X99949000Y-75748250D01*
X99949000Y-74549000D01*
X100203000Y-74549000D01*
X100203000Y-75748250D01*
X100361750Y-75907000D01*
X101052309Y-75907000D01*
X101285698Y-75810327D01*
X101464327Y-75631699D01*
X101561000Y-75398310D01*
X101561000Y-74707750D01*
X101402250Y-74549000D01*
X100203000Y-74549000D01*
X99949000Y-74549000D01*
X99929000Y-74549000D01*
X99929000Y-74295000D01*
X99949000Y-74295000D01*
X99949000Y-74275000D01*
X100203000Y-74275000D01*
X100203000Y-74295000D01*
X101402250Y-74295000D01*
X101561000Y-74136250D01*
X101561000Y-73445690D01*
X101464327Y-73212301D01*
X101285698Y-73033673D01*
X101124967Y-72967096D01*
X101146625Y-72952625D01*
X101474839Y-72461418D01*
X101590092Y-71882000D01*
X101474839Y-71302582D01*
X101146625Y-70811375D01*
X100848239Y-70612000D01*
X101014362Y-70501000D01*
X102528839Y-70501000D01*
X102616000Y-70518337D01*
X102703161Y-70501000D01*
X102703165Y-70501000D01*
X102961310Y-70449652D01*
X103254049Y-70254049D01*
X103303425Y-70180153D01*
X103427164Y-70056414D01*
X103521750Y-70151000D01*
G36*
X108788560Y-70692139D02*
X108788560Y-72088000D01*
X108837843Y-72335765D01*
X108978191Y-72545809D01*
X109188235Y-72686157D01*
X109436000Y-72735440D01*
X111036000Y-72735440D01*
X111283765Y-72686157D01*
X111493809Y-72545809D01*
X111634157Y-72335765D01*
X111683440Y-72088000D01*
X111683440Y-71973000D01*
X112325470Y-71973000D01*
X112325470Y-72088000D01*
X112374753Y-72335765D01*
X112515101Y-72545809D01*
X112725145Y-72686157D01*
X112972910Y-72735440D01*
X113460508Y-72735440D01*
X113365000Y-72966017D01*
X113365000Y-73337983D01*
X113507345Y-73681635D01*
X113770365Y-73944655D01*
X114114017Y-74087000D01*
X114485983Y-74087000D01*
X114829635Y-73944655D01*
X115092655Y-73681635D01*
X115235000Y-73337983D01*
X115235000Y-72966017D01*
X115092655Y-72622365D01*
X115021955Y-72551665D01*
X115030719Y-72545809D01*
X115171067Y-72335765D01*
X115220350Y-72088000D01*
X115220350Y-71973000D01*
X115900560Y-71973000D01*
X115900560Y-72088000D01*
X115949843Y-72335765D01*
X116090191Y-72545809D01*
X116300235Y-72686157D01*
X116463001Y-72718533D01*
X116463001Y-73721420D01*
X115941847Y-74242575D01*
X115867951Y-74291951D01*
X115809787Y-74379000D01*
X110682579Y-74379000D01*
X108640001Y-72336423D01*
X108640001Y-70543580D01*
X108788560Y-70692139D01*
X108788560Y-70692139D01*
G37*
X108788560Y-70692139D02*
X108788560Y-72088000D01*
X108837843Y-72335765D01*
X108978191Y-72545809D01*
X109188235Y-72686157D01*
X109436000Y-72735440D01*
X111036000Y-72735440D01*
X111283765Y-72686157D01*
X111493809Y-72545809D01*
X111634157Y-72335765D01*
X111683440Y-72088000D01*
X111683440Y-71973000D01*
X112325470Y-71973000D01*
X112325470Y-72088000D01*
X112374753Y-72335765D01*
X112515101Y-72545809D01*
X112725145Y-72686157D01*
X112972910Y-72735440D01*
X113460508Y-72735440D01*
X113365000Y-72966017D01*
X113365000Y-73337983D01*
X113507345Y-73681635D01*
X113770365Y-73944655D01*
X114114017Y-74087000D01*
X114485983Y-74087000D01*
X114829635Y-73944655D01*
X115092655Y-73681635D01*
X115235000Y-73337983D01*
X115235000Y-72966017D01*
X115092655Y-72622365D01*
X115021955Y-72551665D01*
X115030719Y-72545809D01*
X115171067Y-72335765D01*
X115220350Y-72088000D01*
X115220350Y-71973000D01*
X115900560Y-71973000D01*
X115900560Y-72088000D01*
X115949843Y-72335765D01*
X116090191Y-72545809D01*
X116300235Y-72686157D01*
X116463001Y-72718533D01*
X116463001Y-73721420D01*
X115941847Y-74242575D01*
X115867951Y-74291951D01*
X115809787Y-74379000D01*
X110682579Y-74379000D01*
X108640001Y-72336423D01*
X108640001Y-70543580D01*
X108788560Y-70692139D01*
G36*
X111458128Y-65011634D02*
X111458128Y-65423382D01*
X111615697Y-65803788D01*
X111906848Y-66094939D01*
X112287254Y-66252508D01*
X112337910Y-66252508D01*
X112337910Y-66802250D01*
X112496660Y-66961000D01*
X113645910Y-66961000D01*
X113645910Y-66941000D01*
X113899910Y-66941000D01*
X113899910Y-66961000D01*
X115049160Y-66961000D01*
X115207910Y-66802250D01*
X115207910Y-66506001D01*
X115913000Y-66506001D01*
X115913000Y-66802250D01*
X116071750Y-66961000D01*
X117221000Y-66961000D01*
X117221000Y-66941000D01*
X117475000Y-66941000D01*
X117475000Y-66961000D01*
X117495000Y-66961000D01*
X117495000Y-67215000D01*
X117475000Y-67215000D01*
X117475000Y-68564250D01*
X117633750Y-68723000D01*
X118045000Y-68723000D01*
X118045000Y-69032610D01*
X118030601Y-69104999D01*
X118087645Y-69391781D01*
X118108712Y-69423310D01*
X118120238Y-69440560D01*
X116548000Y-69440560D01*
X116300235Y-69489843D01*
X116090191Y-69630191D01*
X115949843Y-69840235D01*
X115900560Y-70088000D01*
X115900560Y-70203000D01*
X115220350Y-70203000D01*
X115220350Y-70088000D01*
X115171067Y-69840235D01*
X115030719Y-69630191D01*
X114820675Y-69489843D01*
X114572910Y-69440560D01*
X112972910Y-69440560D01*
X112725145Y-69489843D01*
X112515101Y-69630191D01*
X112374753Y-69840235D01*
X112325470Y-70088000D01*
X112325470Y-70203000D01*
X111683440Y-70203000D01*
X111683440Y-70088000D01*
X111634157Y-69840235D01*
X111493809Y-69630191D01*
X111283765Y-69489843D01*
X111036000Y-69440560D01*
X110040139Y-69440560D01*
X109322578Y-68723000D01*
X109950250Y-68723000D01*
X110109000Y-68564250D01*
X110109000Y-67215000D01*
X110363000Y-67215000D01*
X110363000Y-68564250D01*
X110521750Y-68723000D01*
X111162310Y-68723000D01*
X111395699Y-68626327D01*
X111574327Y-68447698D01*
X111671000Y-68214309D01*
X111671000Y-67373750D01*
X112337910Y-67373750D01*
X112337910Y-68214309D01*
X112434583Y-68447698D01*
X112613211Y-68626327D01*
X112846600Y-68723000D01*
X113487160Y-68723000D01*
X113645910Y-68564250D01*
X113645910Y-67215000D01*
X113899910Y-67215000D01*
X113899910Y-68564250D01*
X114058660Y-68723000D01*
X114699220Y-68723000D01*
X114932609Y-68626327D01*
X115111237Y-68447698D01*
X115207910Y-68214309D01*
X115207910Y-67373750D01*
X115913000Y-67373750D01*
X115913000Y-68214309D01*
X116009673Y-68447698D01*
X116188301Y-68626327D01*
X116421690Y-68723000D01*
X117062250Y-68723000D01*
X117221000Y-68564250D01*
X117221000Y-67215000D01*
X116071750Y-67215000D01*
X115913000Y-67373750D01*
X115207910Y-67373750D01*
X115049160Y-67215000D01*
X113899910Y-67215000D01*
X113645910Y-67215000D01*
X112496660Y-67215000D01*
X112337910Y-67373750D01*
X111671000Y-67373750D01*
X111512250Y-67215000D01*
X110363000Y-67215000D01*
X110109000Y-67215000D01*
X108959750Y-67215000D01*
X108801000Y-67373750D01*
X108801000Y-68201422D01*
X108515000Y-67915422D01*
X108515000Y-65961691D01*
X108801000Y-65961691D01*
X108801000Y-66802250D01*
X108959750Y-66961000D01*
X110109000Y-66961000D01*
X110109000Y-65611750D01*
X110363000Y-65611750D01*
X110363000Y-66961000D01*
X111512250Y-66961000D01*
X111671000Y-66802250D01*
X111671000Y-65961691D01*
X111574327Y-65728302D01*
X111395699Y-65549673D01*
X111162310Y-65453000D01*
X110521750Y-65453000D01*
X110363000Y-65611750D01*
X110109000Y-65611750D01*
X109950250Y-65453000D01*
X109309690Y-65453000D01*
X109076301Y-65549673D01*
X108897673Y-65728302D01*
X108801000Y-65961691D01*
X108515000Y-65961691D01*
X108515000Y-65147578D01*
X108734139Y-64928440D01*
X111492588Y-64928440D01*
X111458128Y-65011634D01*
X111458128Y-65011634D01*
G37*
X111458128Y-65011634D02*
X111458128Y-65423382D01*
X111615697Y-65803788D01*
X111906848Y-66094939D01*
X112287254Y-66252508D01*
X112337910Y-66252508D01*
X112337910Y-66802250D01*
X112496660Y-66961000D01*
X113645910Y-66961000D01*
X113645910Y-66941000D01*
X113899910Y-66941000D01*
X113899910Y-66961000D01*
X115049160Y-66961000D01*
X115207910Y-66802250D01*
X115207910Y-66506001D01*
X115913000Y-66506001D01*
X115913000Y-66802250D01*
X116071750Y-66961000D01*
X117221000Y-66961000D01*
X117221000Y-66941000D01*
X117475000Y-66941000D01*
X117475000Y-66961000D01*
X117495000Y-66961000D01*
X117495000Y-67215000D01*
X117475000Y-67215000D01*
X117475000Y-68564250D01*
X117633750Y-68723000D01*
X118045000Y-68723000D01*
X118045000Y-69032610D01*
X118030601Y-69104999D01*
X118087645Y-69391781D01*
X118108712Y-69423310D01*
X118120238Y-69440560D01*
X116548000Y-69440560D01*
X116300235Y-69489843D01*
X116090191Y-69630191D01*
X115949843Y-69840235D01*
X115900560Y-70088000D01*
X115900560Y-70203000D01*
X115220350Y-70203000D01*
X115220350Y-70088000D01*
X115171067Y-69840235D01*
X115030719Y-69630191D01*
X114820675Y-69489843D01*
X114572910Y-69440560D01*
X112972910Y-69440560D01*
X112725145Y-69489843D01*
X112515101Y-69630191D01*
X112374753Y-69840235D01*
X112325470Y-70088000D01*
X112325470Y-70203000D01*
X111683440Y-70203000D01*
X111683440Y-70088000D01*
X111634157Y-69840235D01*
X111493809Y-69630191D01*
X111283765Y-69489843D01*
X111036000Y-69440560D01*
X110040139Y-69440560D01*
X109322578Y-68723000D01*
X109950250Y-68723000D01*
X110109000Y-68564250D01*
X110109000Y-67215000D01*
X110363000Y-67215000D01*
X110363000Y-68564250D01*
X110521750Y-68723000D01*
X111162310Y-68723000D01*
X111395699Y-68626327D01*
X111574327Y-68447698D01*
X111671000Y-68214309D01*
X111671000Y-67373750D01*
X112337910Y-67373750D01*
X112337910Y-68214309D01*
X112434583Y-68447698D01*
X112613211Y-68626327D01*
X112846600Y-68723000D01*
X113487160Y-68723000D01*
X113645910Y-68564250D01*
X113645910Y-67215000D01*
X113899910Y-67215000D01*
X113899910Y-68564250D01*
X114058660Y-68723000D01*
X114699220Y-68723000D01*
X114932609Y-68626327D01*
X115111237Y-68447698D01*
X115207910Y-68214309D01*
X115207910Y-67373750D01*
X115913000Y-67373750D01*
X115913000Y-68214309D01*
X116009673Y-68447698D01*
X116188301Y-68626327D01*
X116421690Y-68723000D01*
X117062250Y-68723000D01*
X117221000Y-68564250D01*
X117221000Y-67215000D01*
X116071750Y-67215000D01*
X115913000Y-67373750D01*
X115207910Y-67373750D01*
X115049160Y-67215000D01*
X113899910Y-67215000D01*
X113645910Y-67215000D01*
X112496660Y-67215000D01*
X112337910Y-67373750D01*
X111671000Y-67373750D01*
X111512250Y-67215000D01*
X110363000Y-67215000D01*
X110109000Y-67215000D01*
X108959750Y-67215000D01*
X108801000Y-67373750D01*
X108801000Y-68201422D01*
X108515000Y-67915422D01*
X108515000Y-65961691D01*
X108801000Y-65961691D01*
X108801000Y-66802250D01*
X108959750Y-66961000D01*
X110109000Y-66961000D01*
X110109000Y-65611750D01*
X110363000Y-65611750D01*
X110363000Y-66961000D01*
X111512250Y-66961000D01*
X111671000Y-66802250D01*
X111671000Y-65961691D01*
X111574327Y-65728302D01*
X111395699Y-65549673D01*
X111162310Y-65453000D01*
X110521750Y-65453000D01*
X110363000Y-65611750D01*
X110109000Y-65611750D01*
X109950250Y-65453000D01*
X109309690Y-65453000D01*
X109076301Y-65549673D01*
X108897673Y-65728302D01*
X108801000Y-65961691D01*
X108515000Y-65961691D01*
X108515000Y-65147578D01*
X108734139Y-64928440D01*
X111492588Y-64928440D01*
X111458128Y-65011634D01*
G36*
X113831000Y-47029690D02*
X113831000Y-47720250D01*
X113989750Y-47879000D01*
X115189000Y-47879000D01*
X115189000Y-47859000D01*
X115443000Y-47859000D01*
X115443000Y-47879000D01*
X116642250Y-47879000D01*
X116801000Y-47720250D01*
X116801000Y-47029690D01*
X116752665Y-46913000D01*
X121486895Y-46913000D01*
X121438560Y-47156000D01*
X121438560Y-48856000D01*
X121487843Y-49103765D01*
X121628191Y-49313809D01*
X121838235Y-49454157D01*
X122051000Y-49496478D01*
X122051001Y-50929418D01*
X121933235Y-50952843D01*
X121723191Y-51093191D01*
X121582843Y-51303235D01*
X121533560Y-51551000D01*
X121533560Y-53351000D01*
X121582843Y-53598765D01*
X121723191Y-53808809D01*
X121933235Y-53949157D01*
X122181000Y-53998440D01*
X124281000Y-53998440D01*
X124528765Y-53949157D01*
X124738809Y-53808809D01*
X124879157Y-53598765D01*
X124928440Y-53351000D01*
X124928440Y-51551000D01*
X124879157Y-51303235D01*
X124738809Y-51093191D01*
X124528765Y-50952843D01*
X124281000Y-50903560D01*
X123821000Y-50903560D01*
X123821000Y-49496478D01*
X124033765Y-49454157D01*
X124243809Y-49313809D01*
X124384157Y-49103765D01*
X124433440Y-48856000D01*
X124433440Y-47156000D01*
X124385105Y-46913000D01*
X126823001Y-46913000D01*
X126823000Y-47938538D01*
X126823000Y-67251323D01*
X126735310Y-67215000D01*
X126269750Y-67215000D01*
X126111000Y-67373750D01*
X126111000Y-68473000D01*
X126131000Y-68473000D01*
X126131000Y-68727000D01*
X126111000Y-68727000D01*
X126111000Y-68747000D01*
X125857000Y-68747000D01*
X125857000Y-68727000D01*
X124882750Y-68727000D01*
X124724000Y-68885750D01*
X124724000Y-69034750D01*
X124570250Y-68881000D01*
X123571000Y-68881000D01*
X123571000Y-68901000D01*
X123317000Y-68901000D01*
X123317000Y-68881000D01*
X122317750Y-68881000D01*
X122159000Y-69039750D01*
X122159000Y-69134750D01*
X122005250Y-68981000D01*
X121031000Y-68981000D01*
X121031000Y-69001000D01*
X120777000Y-69001000D01*
X120777000Y-68981000D01*
X119802750Y-68981000D01*
X119749098Y-69034652D01*
X119514999Y-68800553D01*
X119514999Y-67977691D01*
X119644000Y-67977691D01*
X119644000Y-68568250D01*
X119802750Y-68727000D01*
X120777000Y-68727000D01*
X120777000Y-67627750D01*
X121031000Y-67627750D01*
X121031000Y-68727000D01*
X122005250Y-68727000D01*
X122164000Y-68568250D01*
X122164000Y-68473250D01*
X122317750Y-68627000D01*
X123317000Y-68627000D01*
X123317000Y-67527750D01*
X123571000Y-67527750D01*
X123571000Y-68627000D01*
X124570250Y-68627000D01*
X124729000Y-68468250D01*
X124729000Y-68319250D01*
X124882750Y-68473000D01*
X125857000Y-68473000D01*
X125857000Y-67373750D01*
X125698250Y-67215000D01*
X125232690Y-67215000D01*
X124999301Y-67311673D01*
X124820673Y-67490302D01*
X124724000Y-67723691D01*
X124724000Y-67865620D01*
X124632327Y-67644302D01*
X124453699Y-67465673D01*
X124220310Y-67369000D01*
X123729750Y-67369000D01*
X123571000Y-67527750D01*
X123317000Y-67527750D01*
X123158250Y-67369000D01*
X122667690Y-67369000D01*
X122434301Y-67465673D01*
X122255673Y-67644302D01*
X122159000Y-67877691D01*
X122159000Y-67965620D01*
X122067327Y-67744302D01*
X121888699Y-67565673D01*
X121655310Y-67469000D01*
X121189750Y-67469000D01*
X121031000Y-67627750D01*
X120777000Y-67627750D01*
X120618250Y-67469000D01*
X120152690Y-67469000D01*
X119919301Y-67565673D01*
X119740673Y-67744302D01*
X119644000Y-67977691D01*
X119514999Y-67977691D01*
X119514999Y-66252385D01*
X119529398Y-66179997D01*
X119472353Y-65893215D01*
X119472353Y-65893214D01*
X119453000Y-65864250D01*
X119453000Y-60198000D01*
X119707000Y-60198000D01*
X119707000Y-65947250D01*
X119865750Y-66106000D01*
X124406309Y-66106000D01*
X124639698Y-66009327D01*
X124818327Y-65830699D01*
X124915000Y-65597310D01*
X124915000Y-60356750D01*
X124756250Y-60198000D01*
X119707000Y-60198000D01*
X119453000Y-60198000D01*
X114403750Y-60198000D01*
X114245000Y-60356750D01*
X114245000Y-65036001D01*
X113528128Y-65036001D01*
X113528128Y-65011634D01*
X113370559Y-64631228D01*
X113304100Y-64564769D01*
X113328157Y-64528765D01*
X113377440Y-64281000D01*
X113377440Y-63481000D01*
X113330696Y-63246000D01*
X113377440Y-63011000D01*
X113377440Y-62211000D01*
X113330696Y-61976000D01*
X113377440Y-61741000D01*
X113377440Y-60941000D01*
X113328157Y-60693235D01*
X113326373Y-60690565D01*
X113365000Y-60597310D01*
X113365000Y-60356750D01*
X113206250Y-60198000D01*
X110557000Y-60198000D01*
X110557000Y-60218000D01*
X110541408Y-60218000D01*
X110374310Y-60106348D01*
X110283000Y-60088185D01*
X110283000Y-59944000D01*
X110303000Y-59944000D01*
X110303000Y-59924000D01*
X110557000Y-59924000D01*
X110557000Y-59944000D01*
X113206250Y-59944000D01*
X113365000Y-59785250D01*
X113365000Y-59544690D01*
X113326373Y-59451435D01*
X113328157Y-59448765D01*
X113377440Y-59201000D01*
X113377440Y-58401000D01*
X113330696Y-58166000D01*
X113377440Y-57931000D01*
X113377440Y-57131000D01*
X113330696Y-56896000D01*
X113377440Y-56661000D01*
X113377440Y-55861000D01*
X113328157Y-55613235D01*
X113187809Y-55403191D01*
X112977765Y-55262843D01*
X112730000Y-55213560D01*
X108130000Y-55213560D01*
X107882235Y-55262843D01*
X107834391Y-55294812D01*
X105945440Y-53405862D01*
X105945440Y-52578000D01*
X108296560Y-52578000D01*
X108296560Y-53451000D01*
X108345843Y-53698765D01*
X108486191Y-53908809D01*
X108696235Y-54049157D01*
X108944000Y-54098440D01*
X110017000Y-54098440D01*
X110017000Y-52578000D01*
X110271000Y-52578000D01*
X110271000Y-54098440D01*
X111344000Y-54098440D01*
X111591765Y-54049157D01*
X111801809Y-53908809D01*
X111942157Y-53698765D01*
X111991440Y-53451000D01*
X111991440Y-52578000D01*
X110271000Y-52578000D01*
X110017000Y-52578000D01*
X108296560Y-52578000D01*
X105945440Y-52578000D01*
X105945440Y-52510000D01*
X105896157Y-52262235D01*
X105825764Y-52156885D01*
X105855809Y-52136809D01*
X105896654Y-52075680D01*
X106038302Y-52217327D01*
X106271691Y-52314000D01*
X106862250Y-52314000D01*
X107021000Y-52155250D01*
X107021000Y-51181000D01*
X107001000Y-51181000D01*
X107001000Y-50927000D01*
X107021000Y-50927000D01*
X107021000Y-50907000D01*
X107275000Y-50907000D01*
X107275000Y-50927000D01*
X107295000Y-50927000D01*
X107295000Y-51181000D01*
X107275000Y-51181000D01*
X107275000Y-52155250D01*
X107433750Y-52314000D01*
X108024309Y-52314000D01*
X108257698Y-52217327D01*
X108296560Y-52178465D01*
X108296560Y-52324000D01*
X110017000Y-52324000D01*
X110017000Y-50814000D01*
X110271000Y-50814000D01*
X110271000Y-52324000D01*
X111991440Y-52324000D01*
X111991440Y-51451000D01*
X111942157Y-51203235D01*
X111801809Y-50993191D01*
X111591765Y-50852843D01*
X111396486Y-50814000D01*
X114035422Y-50814000D01*
X114195218Y-50973796D01*
X114166191Y-50993191D01*
X114025843Y-51203235D01*
X113976560Y-51451000D01*
X113976560Y-53451000D01*
X114025843Y-53698765D01*
X114166191Y-53908809D01*
X114376235Y-54049157D01*
X114609777Y-54095611D01*
X114520302Y-54132673D01*
X114341673Y-54311301D01*
X114245000Y-54544690D01*
X114245000Y-59785250D01*
X114403750Y-59944000D01*
X119453000Y-59944000D01*
X119453000Y-54194750D01*
X119707000Y-54194750D01*
X119707000Y-59944000D01*
X124756250Y-59944000D01*
X124915000Y-59785250D01*
X124915000Y-54544690D01*
X124818327Y-54311301D01*
X124639698Y-54132673D01*
X124406309Y-54036000D01*
X119865750Y-54036000D01*
X119707000Y-54194750D01*
X119453000Y-54194750D01*
X119294250Y-54036000D01*
X117291456Y-54036000D01*
X117477330Y-53911802D01*
X117533235Y-53949157D01*
X117781000Y-53998440D01*
X119881000Y-53998440D01*
X120128765Y-53949157D01*
X120338809Y-53808809D01*
X120479157Y-53598765D01*
X120528440Y-53351000D01*
X120528440Y-51551000D01*
X120479157Y-51303235D01*
X120338809Y-51093191D01*
X120128765Y-50952843D01*
X119881000Y-50903560D01*
X117781000Y-50903560D01*
X117533235Y-50952843D01*
X117477330Y-50990198D01*
X117271765Y-50852843D01*
X117024000Y-50803560D01*
X116522593Y-50803560D01*
X116511424Y-50786845D01*
X116511423Y-50786844D01*
X116462049Y-50712951D01*
X116388156Y-50663577D01*
X115122914Y-49398336D01*
X115189000Y-49332250D01*
X115189000Y-48133000D01*
X115443000Y-48133000D01*
X115443000Y-49332250D01*
X115601750Y-49491000D01*
X116292309Y-49491000D01*
X116525698Y-49394327D01*
X116704327Y-49215699D01*
X116801000Y-48982310D01*
X116801000Y-48291750D01*
X116642250Y-48133000D01*
X115443000Y-48133000D01*
X115189000Y-48133000D01*
X113989750Y-48133000D01*
X113831000Y-48291750D01*
X113831000Y-48982310D01*
X113856553Y-49044000D01*
X105985159Y-49044000D01*
X105897999Y-49026663D01*
X105810839Y-49044000D01*
X105810835Y-49044000D01*
X105552690Y-49095348D01*
X105444880Y-49167385D01*
X105333845Y-49241576D01*
X105333844Y-49241577D01*
X105259951Y-49290951D01*
X105210577Y-49364844D01*
X104793861Y-49781560D01*
X103898000Y-49781560D01*
X103650235Y-49830843D01*
X103440191Y-49971191D01*
X103299843Y-50181235D01*
X103250560Y-50429000D01*
X103250560Y-51679000D01*
X103299843Y-51926765D01*
X103440191Y-52136809D01*
X103470236Y-52156885D01*
X103399843Y-52262235D01*
X103350560Y-52510000D01*
X103350560Y-54010000D01*
X103399843Y-54257765D01*
X103540191Y-54467809D01*
X103750235Y-54608157D01*
X103759500Y-54610000D01*
X103750235Y-54611843D01*
X103540191Y-54752191D01*
X103399843Y-54962235D01*
X103350560Y-55210000D01*
X103350560Y-56710000D01*
X103399843Y-56957765D01*
X103400171Y-56958256D01*
X103392310Y-56955000D01*
X102901750Y-56955000D01*
X102743000Y-57113750D01*
X102743000Y-58213000D01*
X103742250Y-58213000D01*
X103901000Y-58054250D01*
X103901000Y-57463691D01*
X103844328Y-57326873D01*
X103998000Y-57357440D01*
X104997432Y-57357440D01*
X104912000Y-57563691D01*
X104912000Y-58154250D01*
X105070750Y-58313000D01*
X106045000Y-58313000D01*
X106045000Y-58293000D01*
X106299000Y-58293000D01*
X106299000Y-58313000D01*
X106946388Y-58313000D01*
X107023690Y-58364652D01*
X107281835Y-58416000D01*
X107281839Y-58416000D01*
X107369000Y-58433337D01*
X107456161Y-58416000D01*
X107482560Y-58416000D01*
X107482560Y-59201000D01*
X107531843Y-59448765D01*
X107533627Y-59451435D01*
X107495000Y-59544690D01*
X107495000Y-59785250D01*
X107653748Y-59943998D01*
X107495000Y-59943998D01*
X107495000Y-60055000D01*
X107417587Y-60055000D01*
X107395157Y-59942235D01*
X107254809Y-59732191D01*
X107193680Y-59691346D01*
X107335327Y-59549698D01*
X107432000Y-59316309D01*
X107432000Y-58725750D01*
X107273250Y-58567000D01*
X106299000Y-58567000D01*
X106299000Y-58587000D01*
X106045000Y-58587000D01*
X106045000Y-58567000D01*
X105070750Y-58567000D01*
X104912000Y-58725750D01*
X104912000Y-59316309D01*
X105008673Y-59549698D01*
X105150320Y-59691346D01*
X105089191Y-59732191D01*
X104948843Y-59942235D01*
X104899560Y-60190000D01*
X104899560Y-61690000D01*
X104948843Y-61937765D01*
X105089191Y-62147809D01*
X105212198Y-62230000D01*
X105089191Y-62312191D01*
X104948843Y-62522235D01*
X104926413Y-62635000D01*
X104414478Y-62635000D01*
X104372157Y-62422235D01*
X104231809Y-62212191D01*
X104021765Y-62071843D01*
X103862548Y-62040173D01*
X103864157Y-62037765D01*
X103913440Y-61790000D01*
X103913440Y-60290000D01*
X103864157Y-60042235D01*
X103723809Y-59832191D01*
X103513765Y-59691843D01*
X103485791Y-59686279D01*
X103625699Y-59628327D01*
X103804327Y-59449698D01*
X103901000Y-59216309D01*
X103901000Y-58625750D01*
X103742250Y-58467000D01*
X102743000Y-58467000D01*
X102743000Y-58487000D01*
X102489000Y-58487000D01*
X102489000Y-58467000D01*
X101489750Y-58467000D01*
X101331000Y-58625750D01*
X101331000Y-59216309D01*
X101427673Y-59449698D01*
X101606301Y-59628327D01*
X101746209Y-59686279D01*
X101718235Y-59691843D01*
X101508191Y-59832191D01*
X101367843Y-60042235D01*
X101318560Y-60290000D01*
X101318560Y-61790000D01*
X101367843Y-62037765D01*
X101508191Y-62247809D01*
X101718235Y-62388157D01*
X101731001Y-62390696D01*
X101731001Y-63332835D01*
X101713663Y-63420000D01*
X101782348Y-63765309D01*
X101826560Y-63831477D01*
X101826560Y-64170000D01*
X101875843Y-64417765D01*
X102016191Y-64627809D01*
X102226235Y-64768157D01*
X102235500Y-64770000D01*
X102226235Y-64771843D01*
X102016191Y-64912191D01*
X101875843Y-65122235D01*
X101826560Y-65370000D01*
X101826560Y-66870000D01*
X101875843Y-67117765D01*
X102016191Y-67327809D01*
X102226235Y-67468157D01*
X102474000Y-67517440D01*
X103774000Y-67517440D01*
X104021765Y-67468157D01*
X104231809Y-67327809D01*
X104372157Y-67117765D01*
X104394587Y-67005000D01*
X104946304Y-67005000D01*
X104948843Y-67017765D01*
X105089191Y-67227809D01*
X105287000Y-67359982D01*
X105287001Y-68192999D01*
X103241160Y-68192999D01*
X103154000Y-68175662D01*
X103066840Y-68192999D01*
X103066836Y-68192999D01*
X102808691Y-68244347D01*
X102515952Y-68439950D01*
X102466576Y-68513846D01*
X102249422Y-68731000D01*
X101453737Y-68731000D01*
X101146625Y-68271375D01*
X100655418Y-67943161D01*
X100222256Y-67857000D01*
X100207701Y-67857000D01*
X100349000Y-67515874D01*
X100349000Y-67104126D01*
X100191431Y-66723720D01*
X99900280Y-66432569D01*
X99519874Y-66275000D01*
X99108126Y-66275000D01*
X98727720Y-66432569D01*
X98475000Y-66685289D01*
X98475000Y-57463691D01*
X101331000Y-57463691D01*
X101331000Y-58054250D01*
X101489750Y-58213000D01*
X102489000Y-58213000D01*
X102489000Y-57113750D01*
X102330250Y-56955000D01*
X101839690Y-56955000D01*
X101606301Y-57051673D01*
X101427673Y-57230302D01*
X101331000Y-57463691D01*
X98475000Y-57463691D01*
X98475000Y-46913000D01*
X113879335Y-46913000D01*
X113831000Y-47029690D01*
X113831000Y-47029690D01*
G37*
X113831000Y-47029690D02*
X113831000Y-47720250D01*
X113989750Y-47879000D01*
X115189000Y-47879000D01*
X115189000Y-47859000D01*
X115443000Y-47859000D01*
X115443000Y-47879000D01*
X116642250Y-47879000D01*
X116801000Y-47720250D01*
X116801000Y-47029690D01*
X116752665Y-46913000D01*
X121486895Y-46913000D01*
X121438560Y-47156000D01*
X121438560Y-48856000D01*
X121487843Y-49103765D01*
X121628191Y-49313809D01*
X121838235Y-49454157D01*
X122051000Y-49496478D01*
X122051001Y-50929418D01*
X121933235Y-50952843D01*
X121723191Y-51093191D01*
X121582843Y-51303235D01*
X121533560Y-51551000D01*
X121533560Y-53351000D01*
X121582843Y-53598765D01*
X121723191Y-53808809D01*
X121933235Y-53949157D01*
X122181000Y-53998440D01*
X124281000Y-53998440D01*
X124528765Y-53949157D01*
X124738809Y-53808809D01*
X124879157Y-53598765D01*
X124928440Y-53351000D01*
X124928440Y-51551000D01*
X124879157Y-51303235D01*
X124738809Y-51093191D01*
X124528765Y-50952843D01*
X124281000Y-50903560D01*
X123821000Y-50903560D01*
X123821000Y-49496478D01*
X124033765Y-49454157D01*
X124243809Y-49313809D01*
X124384157Y-49103765D01*
X124433440Y-48856000D01*
X124433440Y-47156000D01*
X124385105Y-46913000D01*
X126823001Y-46913000D01*
X126823000Y-47938538D01*
X126823000Y-67251323D01*
X126735310Y-67215000D01*
X126269750Y-67215000D01*
X126111000Y-67373750D01*
X126111000Y-68473000D01*
X126131000Y-68473000D01*
X126131000Y-68727000D01*
X126111000Y-68727000D01*
X126111000Y-68747000D01*
X125857000Y-68747000D01*
X125857000Y-68727000D01*
X124882750Y-68727000D01*
X124724000Y-68885750D01*
X124724000Y-69034750D01*
X124570250Y-68881000D01*
X123571000Y-68881000D01*
X123571000Y-68901000D01*
X123317000Y-68901000D01*
X123317000Y-68881000D01*
X122317750Y-68881000D01*
X122159000Y-69039750D01*
X122159000Y-69134750D01*
X122005250Y-68981000D01*
X121031000Y-68981000D01*
X121031000Y-69001000D01*
X120777000Y-69001000D01*
X120777000Y-68981000D01*
X119802750Y-68981000D01*
X119749098Y-69034652D01*
X119514999Y-68800553D01*
X119514999Y-67977691D01*
X119644000Y-67977691D01*
X119644000Y-68568250D01*
X119802750Y-68727000D01*
X120777000Y-68727000D01*
X120777000Y-67627750D01*
X121031000Y-67627750D01*
X121031000Y-68727000D01*
X122005250Y-68727000D01*
X122164000Y-68568250D01*
X122164000Y-68473250D01*
X122317750Y-68627000D01*
X123317000Y-68627000D01*
X123317000Y-67527750D01*
X123571000Y-67527750D01*
X123571000Y-68627000D01*
X124570250Y-68627000D01*
X124729000Y-68468250D01*
X124729000Y-68319250D01*
X124882750Y-68473000D01*
X125857000Y-68473000D01*
X125857000Y-67373750D01*
X125698250Y-67215000D01*
X125232690Y-67215000D01*
X124999301Y-67311673D01*
X124820673Y-67490302D01*
X124724000Y-67723691D01*
X124724000Y-67865620D01*
X124632327Y-67644302D01*
X124453699Y-67465673D01*
X124220310Y-67369000D01*
X123729750Y-67369000D01*
X123571000Y-67527750D01*
X123317000Y-67527750D01*
X123158250Y-67369000D01*
X122667690Y-67369000D01*
X122434301Y-67465673D01*
X122255673Y-67644302D01*
X122159000Y-67877691D01*
X122159000Y-67965620D01*
X122067327Y-67744302D01*
X121888699Y-67565673D01*
X121655310Y-67469000D01*
X121189750Y-67469000D01*
X121031000Y-67627750D01*
X120777000Y-67627750D01*
X120618250Y-67469000D01*
X120152690Y-67469000D01*
X119919301Y-67565673D01*
X119740673Y-67744302D01*
X119644000Y-67977691D01*
X119514999Y-67977691D01*
X119514999Y-66252385D01*
X119529398Y-66179997D01*
X119472353Y-65893215D01*
X119472353Y-65893214D01*
X119453000Y-65864250D01*
X119453000Y-60198000D01*
X119707000Y-60198000D01*
X119707000Y-65947250D01*
X119865750Y-66106000D01*
X124406309Y-66106000D01*
X124639698Y-66009327D01*
X124818327Y-65830699D01*
X124915000Y-65597310D01*
X124915000Y-60356750D01*
X124756250Y-60198000D01*
X119707000Y-60198000D01*
X119453000Y-60198000D01*
X114403750Y-60198000D01*
X114245000Y-60356750D01*
X114245000Y-65036001D01*
X113528128Y-65036001D01*
X113528128Y-65011634D01*
X113370559Y-64631228D01*
X113304100Y-64564769D01*
X113328157Y-64528765D01*
X113377440Y-64281000D01*
X113377440Y-63481000D01*
X113330696Y-63246000D01*
X113377440Y-63011000D01*
X113377440Y-62211000D01*
X113330696Y-61976000D01*
X113377440Y-61741000D01*
X113377440Y-60941000D01*
X113328157Y-60693235D01*
X113326373Y-60690565D01*
X113365000Y-60597310D01*
X113365000Y-60356750D01*
X113206250Y-60198000D01*
X110557000Y-60198000D01*
X110557000Y-60218000D01*
X110541408Y-60218000D01*
X110374310Y-60106348D01*
X110283000Y-60088185D01*
X110283000Y-59944000D01*
X110303000Y-59944000D01*
X110303000Y-59924000D01*
X110557000Y-59924000D01*
X110557000Y-59944000D01*
X113206250Y-59944000D01*
X113365000Y-59785250D01*
X113365000Y-59544690D01*
X113326373Y-59451435D01*
X113328157Y-59448765D01*
X113377440Y-59201000D01*
X113377440Y-58401000D01*
X113330696Y-58166000D01*
X113377440Y-57931000D01*
X113377440Y-57131000D01*
X113330696Y-56896000D01*
X113377440Y-56661000D01*
X113377440Y-55861000D01*
X113328157Y-55613235D01*
X113187809Y-55403191D01*
X112977765Y-55262843D01*
X112730000Y-55213560D01*
X108130000Y-55213560D01*
X107882235Y-55262843D01*
X107834391Y-55294812D01*
X105945440Y-53405862D01*
X105945440Y-52578000D01*
X108296560Y-52578000D01*
X108296560Y-53451000D01*
X108345843Y-53698765D01*
X108486191Y-53908809D01*
X108696235Y-54049157D01*
X108944000Y-54098440D01*
X110017000Y-54098440D01*
X110017000Y-52578000D01*
X110271000Y-52578000D01*
X110271000Y-54098440D01*
X111344000Y-54098440D01*
X111591765Y-54049157D01*
X111801809Y-53908809D01*
X111942157Y-53698765D01*
X111991440Y-53451000D01*
X111991440Y-52578000D01*
X110271000Y-52578000D01*
X110017000Y-52578000D01*
X108296560Y-52578000D01*
X105945440Y-52578000D01*
X105945440Y-52510000D01*
X105896157Y-52262235D01*
X105825764Y-52156885D01*
X105855809Y-52136809D01*
X105896654Y-52075680D01*
X106038302Y-52217327D01*
X106271691Y-52314000D01*
X106862250Y-52314000D01*
X107021000Y-52155250D01*
X107021000Y-51181000D01*
X107001000Y-51181000D01*
X107001000Y-50927000D01*
X107021000Y-50927000D01*
X107021000Y-50907000D01*
X107275000Y-50907000D01*
X107275000Y-50927000D01*
X107295000Y-50927000D01*
X107295000Y-51181000D01*
X107275000Y-51181000D01*
X107275000Y-52155250D01*
X107433750Y-52314000D01*
X108024309Y-52314000D01*
X108257698Y-52217327D01*
X108296560Y-52178465D01*
X108296560Y-52324000D01*
X110017000Y-52324000D01*
X110017000Y-50814000D01*
X110271000Y-50814000D01*
X110271000Y-52324000D01*
X111991440Y-52324000D01*
X111991440Y-51451000D01*
X111942157Y-51203235D01*
X111801809Y-50993191D01*
X111591765Y-50852843D01*
X111396486Y-50814000D01*
X114035422Y-50814000D01*
X114195218Y-50973796D01*
X114166191Y-50993191D01*
X114025843Y-51203235D01*
X113976560Y-51451000D01*
X113976560Y-53451000D01*
X114025843Y-53698765D01*
X114166191Y-53908809D01*
X114376235Y-54049157D01*
X114609777Y-54095611D01*
X114520302Y-54132673D01*
X114341673Y-54311301D01*
X114245000Y-54544690D01*
X114245000Y-59785250D01*
X114403750Y-59944000D01*
X119453000Y-59944000D01*
X119453000Y-54194750D01*
X119707000Y-54194750D01*
X119707000Y-59944000D01*
X124756250Y-59944000D01*
X124915000Y-59785250D01*
X124915000Y-54544690D01*
X124818327Y-54311301D01*
X124639698Y-54132673D01*
X124406309Y-54036000D01*
X119865750Y-54036000D01*
X119707000Y-54194750D01*
X119453000Y-54194750D01*
X119294250Y-54036000D01*
X117291456Y-54036000D01*
X117477330Y-53911802D01*
X117533235Y-53949157D01*
X117781000Y-53998440D01*
X119881000Y-53998440D01*
X120128765Y-53949157D01*
X120338809Y-53808809D01*
X120479157Y-53598765D01*
X120528440Y-53351000D01*
X120528440Y-51551000D01*
X120479157Y-51303235D01*
X120338809Y-51093191D01*
X120128765Y-50952843D01*
X119881000Y-50903560D01*
X117781000Y-50903560D01*
X117533235Y-50952843D01*
X117477330Y-50990198D01*
X117271765Y-50852843D01*
X117024000Y-50803560D01*
X116522593Y-50803560D01*
X116511424Y-50786845D01*
X116511423Y-50786844D01*
X116462049Y-50712951D01*
X116388156Y-50663577D01*
X115122914Y-49398336D01*
X115189000Y-49332250D01*
X115189000Y-48133000D01*
X115443000Y-48133000D01*
X115443000Y-49332250D01*
X115601750Y-49491000D01*
X116292309Y-49491000D01*
X116525698Y-49394327D01*
X116704327Y-49215699D01*
X116801000Y-48982310D01*
X116801000Y-48291750D01*
X116642250Y-48133000D01*
X115443000Y-48133000D01*
X115189000Y-48133000D01*
X113989750Y-48133000D01*
X113831000Y-48291750D01*
X113831000Y-48982310D01*
X113856553Y-49044000D01*
X105985159Y-49044000D01*
X105897999Y-49026663D01*
X105810839Y-49044000D01*
X105810835Y-49044000D01*
X105552690Y-49095348D01*
X105444880Y-49167385D01*
X105333845Y-49241576D01*
X105333844Y-49241577D01*
X105259951Y-49290951D01*
X105210577Y-49364844D01*
X104793861Y-49781560D01*
X103898000Y-49781560D01*
X103650235Y-49830843D01*
X103440191Y-49971191D01*
X103299843Y-50181235D01*
X103250560Y-50429000D01*
X103250560Y-51679000D01*
X103299843Y-51926765D01*
X103440191Y-52136809D01*
X103470236Y-52156885D01*
X103399843Y-52262235D01*
X103350560Y-52510000D01*
X103350560Y-54010000D01*
X103399843Y-54257765D01*
X103540191Y-54467809D01*
X103750235Y-54608157D01*
X103759500Y-54610000D01*
X103750235Y-54611843D01*
X103540191Y-54752191D01*
X103399843Y-54962235D01*
X103350560Y-55210000D01*
X103350560Y-56710000D01*
X103399843Y-56957765D01*
X103400171Y-56958256D01*
X103392310Y-56955000D01*
X102901750Y-56955000D01*
X102743000Y-57113750D01*
X102743000Y-58213000D01*
X103742250Y-58213000D01*
X103901000Y-58054250D01*
X103901000Y-57463691D01*
X103844328Y-57326873D01*
X103998000Y-57357440D01*
X104997432Y-57357440D01*
X104912000Y-57563691D01*
X104912000Y-58154250D01*
X105070750Y-58313000D01*
X106045000Y-58313000D01*
X106045000Y-58293000D01*
X106299000Y-58293000D01*
X106299000Y-58313000D01*
X106946388Y-58313000D01*
X107023690Y-58364652D01*
X107281835Y-58416000D01*
X107281839Y-58416000D01*
X107369000Y-58433337D01*
X107456161Y-58416000D01*
X107482560Y-58416000D01*
X107482560Y-59201000D01*
X107531843Y-59448765D01*
X107533627Y-59451435D01*
X107495000Y-59544690D01*
X107495000Y-59785250D01*
X107653748Y-59943998D01*
X107495000Y-59943998D01*
X107495000Y-60055000D01*
X107417587Y-60055000D01*
X107395157Y-59942235D01*
X107254809Y-59732191D01*
X107193680Y-59691346D01*
X107335327Y-59549698D01*
X107432000Y-59316309D01*
X107432000Y-58725750D01*
X107273250Y-58567000D01*
X106299000Y-58567000D01*
X106299000Y-58587000D01*
X106045000Y-58587000D01*
X106045000Y-58567000D01*
X105070750Y-58567000D01*
X104912000Y-58725750D01*
X104912000Y-59316309D01*
X105008673Y-59549698D01*
X105150320Y-59691346D01*
X105089191Y-59732191D01*
X104948843Y-59942235D01*
X104899560Y-60190000D01*
X104899560Y-61690000D01*
X104948843Y-61937765D01*
X105089191Y-62147809D01*
X105212198Y-62230000D01*
X105089191Y-62312191D01*
X104948843Y-62522235D01*
X104926413Y-62635000D01*
X104414478Y-62635000D01*
X104372157Y-62422235D01*
X104231809Y-62212191D01*
X104021765Y-62071843D01*
X103862548Y-62040173D01*
X103864157Y-62037765D01*
X103913440Y-61790000D01*
X103913440Y-60290000D01*
X103864157Y-60042235D01*
X103723809Y-59832191D01*
X103513765Y-59691843D01*
X103485791Y-59686279D01*
X103625699Y-59628327D01*
X103804327Y-59449698D01*
X103901000Y-59216309D01*
X103901000Y-58625750D01*
X103742250Y-58467000D01*
X102743000Y-58467000D01*
X102743000Y-58487000D01*
X102489000Y-58487000D01*
X102489000Y-58467000D01*
X101489750Y-58467000D01*
X101331000Y-58625750D01*
X101331000Y-59216309D01*
X101427673Y-59449698D01*
X101606301Y-59628327D01*
X101746209Y-59686279D01*
X101718235Y-59691843D01*
X101508191Y-59832191D01*
X101367843Y-60042235D01*
X101318560Y-60290000D01*
X101318560Y-61790000D01*
X101367843Y-62037765D01*
X101508191Y-62247809D01*
X101718235Y-62388157D01*
X101731001Y-62390696D01*
X101731001Y-63332835D01*
X101713663Y-63420000D01*
X101782348Y-63765309D01*
X101826560Y-63831477D01*
X101826560Y-64170000D01*
X101875843Y-64417765D01*
X102016191Y-64627809D01*
X102226235Y-64768157D01*
X102235500Y-64770000D01*
X102226235Y-64771843D01*
X102016191Y-64912191D01*
X101875843Y-65122235D01*
X101826560Y-65370000D01*
X101826560Y-66870000D01*
X101875843Y-67117765D01*
X102016191Y-67327809D01*
X102226235Y-67468157D01*
X102474000Y-67517440D01*
X103774000Y-67517440D01*
X104021765Y-67468157D01*
X104231809Y-67327809D01*
X104372157Y-67117765D01*
X104394587Y-67005000D01*
X104946304Y-67005000D01*
X104948843Y-67017765D01*
X105089191Y-67227809D01*
X105287000Y-67359982D01*
X105287001Y-68192999D01*
X103241160Y-68192999D01*
X103154000Y-68175662D01*
X103066840Y-68192999D01*
X103066836Y-68192999D01*
X102808691Y-68244347D01*
X102515952Y-68439950D01*
X102466576Y-68513846D01*
X102249422Y-68731000D01*
X101453737Y-68731000D01*
X101146625Y-68271375D01*
X100655418Y-67943161D01*
X100222256Y-67857000D01*
X100207701Y-67857000D01*
X100349000Y-67515874D01*
X100349000Y-67104126D01*
X100191431Y-66723720D01*
X99900280Y-66432569D01*
X99519874Y-66275000D01*
X99108126Y-66275000D01*
X98727720Y-66432569D01*
X98475000Y-66685289D01*
X98475000Y-57463691D01*
X101331000Y-57463691D01*
X101331000Y-58054250D01*
X101489750Y-58213000D01*
X102489000Y-58213000D01*
X102489000Y-57113750D01*
X102330250Y-56955000D01*
X101839690Y-56955000D01*
X101606301Y-57051673D01*
X101427673Y-57230302D01*
X101331000Y-57463691D01*
X98475000Y-57463691D01*
X98475000Y-46913000D01*
X113879335Y-46913000D01*
X113831000Y-47029690D01*
G36*
X108696235Y-50852843D02*
X108533000Y-50961914D01*
X108533000Y-50926998D01*
X108374252Y-50926998D01*
X108487250Y-50814000D01*
X108891514Y-50814000D01*
X108696235Y-50852843D01*
X108696235Y-50852843D01*
G37*
X108696235Y-50852843D02*
X108533000Y-50961914D01*
X108533000Y-50926998D01*
X108374252Y-50926998D01*
X108487250Y-50814000D01*
X108891514Y-50814000D01*
X108696235Y-50852843D01*
G04 #@! TD*
M02*
