G04 #@! TF.GenerationSoftware,KiCad,Pcbnew,5.0.2-bee76a0~70~ubuntu18.04.1*
G04 #@! TF.CreationDate,2020-02-03T17:56:43+02:00*
G04 #@! TF.ProjectId,Telemetry Board,54656c65-6d65-4747-9279-20426f617264,V1.4.1*
G04 #@! TF.SameCoordinates,Original*
G04 #@! TF.FileFunction,Soldermask,Top*
G04 #@! TF.FilePolarity,Negative*
%FSLAX46Y46*%
G04 Gerber Fmt 4.6, Leading zero omitted, Abs format (unit mm)*
G04 Created by KiCad (PCBNEW 5.0.2-bee76a0~70~ubuntu18.04.1) date ma  3. helmikuuta 2020 17.56.43*
%MOMM*%
%LPD*%
G01*
G04 APERTURE LIST*
%ADD10C,0.100000*%
G04 APERTURE END LIST*
D10*
G36*
X109816000Y-114896000D02*
X108116000Y-114896000D01*
X108116000Y-113196000D01*
X109816000Y-113196000D01*
X109816000Y-114896000D01*
X109816000Y-114896000D01*
G37*
G36*
X121578630Y-113208299D02*
X121738855Y-113256903D01*
X121886520Y-113335831D01*
X122015949Y-113442051D01*
X122122169Y-113571480D01*
X122201097Y-113719145D01*
X122249701Y-113879370D01*
X122266112Y-114046000D01*
X122249701Y-114212630D01*
X122201097Y-114372855D01*
X122122169Y-114520520D01*
X122015949Y-114649949D01*
X121886520Y-114756169D01*
X121738855Y-114835097D01*
X121578630Y-114883701D01*
X121453752Y-114896000D01*
X121370248Y-114896000D01*
X121245370Y-114883701D01*
X121085145Y-114835097D01*
X120937480Y-114756169D01*
X120808051Y-114649949D01*
X120701831Y-114520520D01*
X120622903Y-114372855D01*
X120574299Y-114212630D01*
X120557888Y-114046000D01*
X120574299Y-113879370D01*
X120622903Y-113719145D01*
X120701831Y-113571480D01*
X120808051Y-113442051D01*
X120937480Y-113335831D01*
X121085145Y-113256903D01*
X121245370Y-113208299D01*
X121370248Y-113196000D01*
X121453752Y-113196000D01*
X121578630Y-113208299D01*
X121578630Y-113208299D01*
G37*
G36*
X124802000Y-114896000D02*
X123102000Y-114896000D01*
X123102000Y-113196000D01*
X124802000Y-113196000D01*
X124802000Y-114896000D01*
X124802000Y-114896000D01*
G37*
G36*
X119038630Y-113208299D02*
X119198855Y-113256903D01*
X119346520Y-113335831D01*
X119475949Y-113442051D01*
X119582169Y-113571480D01*
X119661097Y-113719145D01*
X119709701Y-113879370D01*
X119726112Y-114046000D01*
X119709701Y-114212630D01*
X119661097Y-114372855D01*
X119582169Y-114520520D01*
X119475949Y-114649949D01*
X119346520Y-114756169D01*
X119198855Y-114835097D01*
X119038630Y-114883701D01*
X118913752Y-114896000D01*
X118830248Y-114896000D01*
X118705370Y-114883701D01*
X118545145Y-114835097D01*
X118397480Y-114756169D01*
X118268051Y-114649949D01*
X118161831Y-114520520D01*
X118082903Y-114372855D01*
X118034299Y-114212630D01*
X118017888Y-114046000D01*
X118034299Y-113879370D01*
X118082903Y-113719145D01*
X118161831Y-113571480D01*
X118268051Y-113442051D01*
X118397480Y-113335831D01*
X118545145Y-113256903D01*
X118705370Y-113208299D01*
X118830248Y-113196000D01*
X118913752Y-113196000D01*
X119038630Y-113208299D01*
X119038630Y-113208299D01*
G37*
G36*
X116498630Y-113208299D02*
X116658855Y-113256903D01*
X116806520Y-113335831D01*
X116935949Y-113442051D01*
X117042169Y-113571480D01*
X117121097Y-113719145D01*
X117169701Y-113879370D01*
X117186112Y-114046000D01*
X117169701Y-114212630D01*
X117121097Y-114372855D01*
X117042169Y-114520520D01*
X116935949Y-114649949D01*
X116806520Y-114756169D01*
X116658855Y-114835097D01*
X116498630Y-114883701D01*
X116373752Y-114896000D01*
X116290248Y-114896000D01*
X116165370Y-114883701D01*
X116005145Y-114835097D01*
X115857480Y-114756169D01*
X115728051Y-114649949D01*
X115621831Y-114520520D01*
X115542903Y-114372855D01*
X115494299Y-114212630D01*
X115477888Y-114046000D01*
X115494299Y-113879370D01*
X115542903Y-113719145D01*
X115621831Y-113571480D01*
X115728051Y-113442051D01*
X115857480Y-113335831D01*
X116005145Y-113256903D01*
X116165370Y-113208299D01*
X116290248Y-113196000D01*
X116373752Y-113196000D01*
X116498630Y-113208299D01*
X116498630Y-113208299D01*
G37*
G36*
X104052630Y-113208299D02*
X104212855Y-113256903D01*
X104360520Y-113335831D01*
X104489949Y-113442051D01*
X104596169Y-113571480D01*
X104675097Y-113719145D01*
X104723701Y-113879370D01*
X104740112Y-114046000D01*
X104723701Y-114212630D01*
X104675097Y-114372855D01*
X104596169Y-114520520D01*
X104489949Y-114649949D01*
X104360520Y-114756169D01*
X104212855Y-114835097D01*
X104052630Y-114883701D01*
X103927752Y-114896000D01*
X103844248Y-114896000D01*
X103719370Y-114883701D01*
X103559145Y-114835097D01*
X103411480Y-114756169D01*
X103282051Y-114649949D01*
X103175831Y-114520520D01*
X103096903Y-114372855D01*
X103048299Y-114212630D01*
X103031888Y-114046000D01*
X103048299Y-113879370D01*
X103096903Y-113719145D01*
X103175831Y-113571480D01*
X103282051Y-113442051D01*
X103411480Y-113335831D01*
X103559145Y-113256903D01*
X103719370Y-113208299D01*
X103844248Y-113196000D01*
X103927752Y-113196000D01*
X104052630Y-113208299D01*
X104052630Y-113208299D01*
G37*
G36*
X101512630Y-113208299D02*
X101672855Y-113256903D01*
X101820520Y-113335831D01*
X101949949Y-113442051D01*
X102056169Y-113571480D01*
X102135097Y-113719145D01*
X102183701Y-113879370D01*
X102200112Y-114046000D01*
X102183701Y-114212630D01*
X102135097Y-114372855D01*
X102056169Y-114520520D01*
X101949949Y-114649949D01*
X101820520Y-114756169D01*
X101672855Y-114835097D01*
X101512630Y-114883701D01*
X101387752Y-114896000D01*
X101304248Y-114896000D01*
X101179370Y-114883701D01*
X101019145Y-114835097D01*
X100871480Y-114756169D01*
X100742051Y-114649949D01*
X100635831Y-114520520D01*
X100556903Y-114372855D01*
X100508299Y-114212630D01*
X100491888Y-114046000D01*
X100508299Y-113879370D01*
X100556903Y-113719145D01*
X100635831Y-113571480D01*
X100742051Y-113442051D01*
X100871480Y-113335831D01*
X101019145Y-113256903D01*
X101179370Y-113208299D01*
X101304248Y-113196000D01*
X101387752Y-113196000D01*
X101512630Y-113208299D01*
X101512630Y-113208299D01*
G37*
G36*
X106592630Y-113208299D02*
X106752855Y-113256903D01*
X106900520Y-113335831D01*
X107029949Y-113442051D01*
X107136169Y-113571480D01*
X107215097Y-113719145D01*
X107263701Y-113879370D01*
X107280112Y-114046000D01*
X107263701Y-114212630D01*
X107215097Y-114372855D01*
X107136169Y-114520520D01*
X107029949Y-114649949D01*
X106900520Y-114756169D01*
X106752855Y-114835097D01*
X106592630Y-114883701D01*
X106467752Y-114896000D01*
X106384248Y-114896000D01*
X106259370Y-114883701D01*
X106099145Y-114835097D01*
X105951480Y-114756169D01*
X105822051Y-114649949D01*
X105715831Y-114520520D01*
X105636903Y-114372855D01*
X105588299Y-114212630D01*
X105571888Y-114046000D01*
X105588299Y-113879370D01*
X105636903Y-113719145D01*
X105715831Y-113571480D01*
X105822051Y-113442051D01*
X105951480Y-113335831D01*
X106099145Y-113256903D01*
X106259370Y-113208299D01*
X106384248Y-113196000D01*
X106467752Y-113196000D01*
X106592630Y-113208299D01*
X106592630Y-113208299D01*
G37*
G36*
X106947000Y-112236000D02*
X106037000Y-112236000D01*
X106037000Y-110836000D01*
X106947000Y-110836000D01*
X106947000Y-112236000D01*
X106947000Y-112236000D01*
G37*
G36*
X121293000Y-112236000D02*
X120383000Y-112236000D01*
X120383000Y-110836000D01*
X121293000Y-110836000D01*
X121293000Y-112236000D01*
X121293000Y-112236000D01*
G37*
G36*
X108847000Y-112236000D02*
X107937000Y-112236000D01*
X107937000Y-110836000D01*
X108847000Y-110836000D01*
X108847000Y-112236000D01*
X108847000Y-112236000D01*
G37*
G36*
X119393000Y-112236000D02*
X118483000Y-112236000D01*
X118483000Y-110836000D01*
X119393000Y-110836000D01*
X119393000Y-112236000D01*
X119393000Y-112236000D01*
G37*
G36*
X111541356Y-110865883D02*
X110480695Y-111926544D01*
X109561456Y-111007305D01*
X110622117Y-109946644D01*
X111541356Y-110865883D01*
X111541356Y-110865883D01*
G37*
G36*
X118022544Y-111007305D02*
X117103305Y-111926544D01*
X116042644Y-110865883D01*
X116961883Y-109946644D01*
X118022544Y-111007305D01*
X118022544Y-111007305D01*
G37*
G36*
X123733356Y-110865883D02*
X122672695Y-111926544D01*
X121753456Y-111007305D01*
X122814117Y-109946644D01*
X123733356Y-110865883D01*
X123733356Y-110865883D01*
G37*
G36*
X105576544Y-110753305D02*
X104657305Y-111672544D01*
X103596644Y-110611883D01*
X104515883Y-109692644D01*
X105576544Y-110753305D01*
X105576544Y-110753305D01*
G37*
G36*
X100926000Y-111340000D02*
X99226000Y-111340000D01*
X99226000Y-109640000D01*
X100926000Y-109640000D01*
X100926000Y-111340000D01*
X100926000Y-111340000D01*
G37*
G36*
X113450544Y-108956695D02*
X112389883Y-110017356D01*
X111470644Y-109098117D01*
X112531305Y-108037456D01*
X113450544Y-108956695D01*
X113450544Y-108956695D01*
G37*
G36*
X116113356Y-109098117D02*
X115194117Y-110017356D01*
X114133456Y-108956695D01*
X115052695Y-108037456D01*
X116113356Y-109098117D01*
X116113356Y-109098117D01*
G37*
G36*
X125642544Y-108956695D02*
X124581883Y-110017356D01*
X123662644Y-109098117D01*
X124723305Y-108037456D01*
X125642544Y-108956695D01*
X125642544Y-108956695D01*
G37*
G36*
X103667356Y-108844117D02*
X102748117Y-109763356D01*
X101687456Y-108702695D01*
X102606695Y-107783456D01*
X103667356Y-108844117D01*
X103667356Y-108844117D01*
G37*
G36*
X107897000Y-109636000D02*
X106987000Y-109636000D01*
X106987000Y-108236000D01*
X107897000Y-108236000D01*
X107897000Y-109636000D01*
X107897000Y-109636000D01*
G37*
G36*
X120343000Y-109636000D02*
X119433000Y-109636000D01*
X119433000Y-108236000D01*
X120343000Y-108236000D01*
X120343000Y-109636000D01*
X120343000Y-109636000D01*
G37*
G36*
X100242630Y-107112299D02*
X100402855Y-107160903D01*
X100550520Y-107239831D01*
X100679949Y-107346051D01*
X100786169Y-107475480D01*
X100865097Y-107623145D01*
X100913701Y-107783370D01*
X100930112Y-107950000D01*
X100913701Y-108116630D01*
X100865097Y-108276855D01*
X100786169Y-108424520D01*
X100679949Y-108553949D01*
X100550520Y-108660169D01*
X100402855Y-108739097D01*
X100242630Y-108787701D01*
X100117752Y-108800000D01*
X100034248Y-108800000D01*
X99909370Y-108787701D01*
X99749145Y-108739097D01*
X99601480Y-108660169D01*
X99472051Y-108553949D01*
X99365831Y-108424520D01*
X99286903Y-108276855D01*
X99238299Y-108116630D01*
X99221888Y-107950000D01*
X99238299Y-107783370D01*
X99286903Y-107623145D01*
X99365831Y-107475480D01*
X99472051Y-107346051D01*
X99601480Y-107239831D01*
X99749145Y-107160903D01*
X99909370Y-107112299D01*
X100034248Y-107100000D01*
X100117752Y-107100000D01*
X100242630Y-107112299D01*
X100242630Y-107112299D01*
G37*
G36*
X107284000Y-107794000D02*
X106584000Y-107794000D01*
X106584000Y-106294000D01*
X107284000Y-106294000D01*
X107284000Y-107794000D01*
X107284000Y-107794000D01*
G37*
G36*
X106014000Y-107794000D02*
X105314000Y-107794000D01*
X105314000Y-106294000D01*
X106014000Y-106294000D01*
X106014000Y-107794000D01*
X106014000Y-107794000D01*
G37*
G36*
X108554000Y-107794000D02*
X107854000Y-107794000D01*
X107854000Y-106294000D01*
X108554000Y-106294000D01*
X108554000Y-107794000D01*
X108554000Y-107794000D01*
G37*
G36*
X109824000Y-107794000D02*
X109124000Y-107794000D01*
X109124000Y-106294000D01*
X109824000Y-106294000D01*
X109824000Y-107794000D01*
X109824000Y-107794000D01*
G37*
G36*
X118333000Y-107794000D02*
X117633000Y-107794000D01*
X117633000Y-106294000D01*
X118333000Y-106294000D01*
X118333000Y-107794000D01*
X118333000Y-107794000D01*
G37*
G36*
X122143000Y-107794000D02*
X121443000Y-107794000D01*
X121443000Y-106294000D01*
X122143000Y-106294000D01*
X122143000Y-107794000D01*
X122143000Y-107794000D01*
G37*
G36*
X120873000Y-107794000D02*
X120173000Y-107794000D01*
X120173000Y-106294000D01*
X120873000Y-106294000D01*
X120873000Y-107794000D01*
X120873000Y-107794000D01*
G37*
G36*
X119603000Y-107794000D02*
X118903000Y-107794000D01*
X118903000Y-106294000D01*
X119603000Y-106294000D01*
X119603000Y-107794000D01*
X119603000Y-107794000D01*
G37*
G36*
X111902000Y-107764000D02*
X110602000Y-107764000D01*
X110602000Y-106264000D01*
X111902000Y-106264000D01*
X111902000Y-107764000D01*
X111902000Y-107764000D01*
G37*
G36*
X124094000Y-107684000D02*
X122794000Y-107684000D01*
X122794000Y-106184000D01*
X124094000Y-106184000D01*
X124094000Y-107684000D01*
X124094000Y-107684000D01*
G37*
G36*
X100242630Y-104572299D02*
X100402855Y-104620903D01*
X100550520Y-104699831D01*
X100679949Y-104806051D01*
X100786169Y-104935480D01*
X100865097Y-105083145D01*
X100913701Y-105243370D01*
X100930112Y-105410000D01*
X100913701Y-105576630D01*
X100865097Y-105736855D01*
X100786169Y-105884520D01*
X100679949Y-106013949D01*
X100550520Y-106120169D01*
X100402855Y-106199097D01*
X100242630Y-106247701D01*
X100117752Y-106260000D01*
X100034248Y-106260000D01*
X99909370Y-106247701D01*
X99749145Y-106199097D01*
X99601480Y-106120169D01*
X99472051Y-106013949D01*
X99365831Y-105884520D01*
X99286903Y-105736855D01*
X99238299Y-105576630D01*
X99221888Y-105410000D01*
X99238299Y-105243370D01*
X99286903Y-105083145D01*
X99365831Y-104935480D01*
X99472051Y-104806051D01*
X99601480Y-104699831D01*
X99749145Y-104620903D01*
X99909370Y-104572299D01*
X100034248Y-104560000D01*
X100117752Y-104560000D01*
X100242630Y-104572299D01*
X100242630Y-104572299D01*
G37*
G36*
X111902000Y-105064000D02*
X110602000Y-105064000D01*
X110602000Y-103564000D01*
X111902000Y-103564000D01*
X111902000Y-105064000D01*
X111902000Y-105064000D01*
G37*
G36*
X124094000Y-104984000D02*
X122794000Y-104984000D01*
X122794000Y-103484000D01*
X124094000Y-103484000D01*
X124094000Y-104984000D01*
X124094000Y-104984000D01*
G37*
G36*
X100242630Y-102032299D02*
X100402855Y-102080903D01*
X100550520Y-102159831D01*
X100679949Y-102266051D01*
X100786169Y-102395480D01*
X100865097Y-102543145D01*
X100913701Y-102703370D01*
X100930112Y-102870000D01*
X100913701Y-103036630D01*
X100865097Y-103196855D01*
X100786169Y-103344520D01*
X100679949Y-103473949D01*
X100550520Y-103580169D01*
X100402855Y-103659097D01*
X100242630Y-103707701D01*
X100117752Y-103720000D01*
X100034248Y-103720000D01*
X99909370Y-103707701D01*
X99749145Y-103659097D01*
X99601480Y-103580169D01*
X99472051Y-103473949D01*
X99365831Y-103344520D01*
X99286903Y-103196855D01*
X99238299Y-103036630D01*
X99221888Y-102870000D01*
X99238299Y-102703370D01*
X99286903Y-102543145D01*
X99365831Y-102395480D01*
X99472051Y-102266051D01*
X99601480Y-102159831D01*
X99749145Y-102080903D01*
X99909370Y-102032299D01*
X100034248Y-102020000D01*
X100117752Y-102020000D01*
X100242630Y-102032299D01*
X100242630Y-102032299D01*
G37*
G36*
X120873000Y-102494000D02*
X120173000Y-102494000D01*
X120173000Y-100994000D01*
X120873000Y-100994000D01*
X120873000Y-102494000D01*
X120873000Y-102494000D01*
G37*
G36*
X118333000Y-102494000D02*
X117633000Y-102494000D01*
X117633000Y-100994000D01*
X118333000Y-100994000D01*
X118333000Y-102494000D01*
X118333000Y-102494000D01*
G37*
G36*
X119603000Y-102494000D02*
X118903000Y-102494000D01*
X118903000Y-100994000D01*
X119603000Y-100994000D01*
X119603000Y-102494000D01*
X119603000Y-102494000D01*
G37*
G36*
X106014000Y-102494000D02*
X105314000Y-102494000D01*
X105314000Y-100994000D01*
X106014000Y-100994000D01*
X106014000Y-102494000D01*
X106014000Y-102494000D01*
G37*
G36*
X107284000Y-102494000D02*
X106584000Y-102494000D01*
X106584000Y-100994000D01*
X107284000Y-100994000D01*
X107284000Y-102494000D01*
X107284000Y-102494000D01*
G37*
G36*
X108554000Y-102494000D02*
X107854000Y-102494000D01*
X107854000Y-100994000D01*
X108554000Y-100994000D01*
X108554000Y-102494000D01*
X108554000Y-102494000D01*
G37*
G36*
X109824000Y-102494000D02*
X109124000Y-102494000D01*
X109124000Y-100994000D01*
X109824000Y-100994000D01*
X109824000Y-102494000D01*
X109824000Y-102494000D01*
G37*
G36*
X122143000Y-102494000D02*
X121443000Y-102494000D01*
X121443000Y-100994000D01*
X122143000Y-100994000D01*
X122143000Y-102494000D01*
X122143000Y-102494000D01*
G37*
G36*
X104539845Y-101119215D02*
X104630839Y-101156906D01*
X104695565Y-101200155D01*
X104712734Y-101211627D01*
X104782373Y-101281266D01*
X104782375Y-101281269D01*
X104837094Y-101363161D01*
X104874785Y-101454155D01*
X104894000Y-101550754D01*
X104894000Y-101649246D01*
X104874785Y-101745845D01*
X104837094Y-101836839D01*
X104783104Y-101917640D01*
X104782373Y-101918734D01*
X104712734Y-101988373D01*
X104712731Y-101988375D01*
X104630839Y-102043094D01*
X104539845Y-102080785D01*
X104443246Y-102100000D01*
X104344754Y-102100000D01*
X104248155Y-102080785D01*
X104157161Y-102043094D01*
X104075269Y-101988375D01*
X104075266Y-101988373D01*
X104005627Y-101918734D01*
X104004896Y-101917640D01*
X103950906Y-101836839D01*
X103913215Y-101745845D01*
X103894000Y-101649246D01*
X103894000Y-101550754D01*
X103913215Y-101454155D01*
X103950906Y-101363161D01*
X104005625Y-101281269D01*
X104005627Y-101281266D01*
X104075266Y-101211627D01*
X104092435Y-101200155D01*
X104157161Y-101156906D01*
X104248155Y-101119215D01*
X104344754Y-101100000D01*
X104443246Y-101100000D01*
X104539845Y-101119215D01*
X104539845Y-101119215D01*
G37*
G36*
X116731845Y-100865215D02*
X116822839Y-100902906D01*
X116903640Y-100956896D01*
X116904734Y-100957627D01*
X116974373Y-101027266D01*
X116974375Y-101027269D01*
X117029094Y-101109161D01*
X117066785Y-101200155D01*
X117086000Y-101296754D01*
X117086000Y-101395246D01*
X117066785Y-101491845D01*
X117029094Y-101582839D01*
X116984722Y-101649246D01*
X116974373Y-101664734D01*
X116904734Y-101734373D01*
X116904731Y-101734375D01*
X116822839Y-101789094D01*
X116731845Y-101826785D01*
X116635246Y-101846000D01*
X116536754Y-101846000D01*
X116440155Y-101826785D01*
X116349161Y-101789094D01*
X116267269Y-101734375D01*
X116267266Y-101734373D01*
X116197627Y-101664734D01*
X116187278Y-101649246D01*
X116142906Y-101582839D01*
X116105215Y-101491845D01*
X116086000Y-101395246D01*
X116086000Y-101296754D01*
X116105215Y-101200155D01*
X116142906Y-101109161D01*
X116197625Y-101027269D01*
X116197627Y-101027266D01*
X116267266Y-100957627D01*
X116268360Y-100956896D01*
X116349161Y-100902906D01*
X116440155Y-100865215D01*
X116536754Y-100846000D01*
X116635246Y-100846000D01*
X116731845Y-100865215D01*
X116731845Y-100865215D01*
G37*
G36*
X110889845Y-100865215D02*
X110980839Y-100902906D01*
X111061640Y-100956896D01*
X111062734Y-100957627D01*
X111132373Y-101027266D01*
X111132375Y-101027269D01*
X111187094Y-101109161D01*
X111224785Y-101200155D01*
X111244000Y-101296754D01*
X111244000Y-101395246D01*
X111224785Y-101491845D01*
X111187094Y-101582839D01*
X111142722Y-101649246D01*
X111132373Y-101664734D01*
X111062734Y-101734373D01*
X111062731Y-101734375D01*
X110980839Y-101789094D01*
X110889845Y-101826785D01*
X110793246Y-101846000D01*
X110694754Y-101846000D01*
X110598155Y-101826785D01*
X110507161Y-101789094D01*
X110425269Y-101734375D01*
X110425266Y-101734373D01*
X110355627Y-101664734D01*
X110345278Y-101649246D01*
X110300906Y-101582839D01*
X110263215Y-101491845D01*
X110244000Y-101395246D01*
X110244000Y-101296754D01*
X110263215Y-101200155D01*
X110300906Y-101109161D01*
X110355625Y-101027269D01*
X110355627Y-101027266D01*
X110425266Y-100957627D01*
X110426360Y-100956896D01*
X110507161Y-100902906D01*
X110598155Y-100865215D01*
X110694754Y-100846000D01*
X110793246Y-100846000D01*
X110889845Y-100865215D01*
X110889845Y-100865215D01*
G37*
G36*
X123589845Y-100865215D02*
X123680839Y-100902906D01*
X123761640Y-100956896D01*
X123762734Y-100957627D01*
X123832373Y-101027266D01*
X123832375Y-101027269D01*
X123887094Y-101109161D01*
X123924785Y-101200155D01*
X123944000Y-101296754D01*
X123944000Y-101395246D01*
X123924785Y-101491845D01*
X123887094Y-101582839D01*
X123842722Y-101649246D01*
X123832373Y-101664734D01*
X123762734Y-101734373D01*
X123762731Y-101734375D01*
X123680839Y-101789094D01*
X123589845Y-101826785D01*
X123493246Y-101846000D01*
X123394754Y-101846000D01*
X123298155Y-101826785D01*
X123207161Y-101789094D01*
X123125269Y-101734375D01*
X123125266Y-101734373D01*
X123055627Y-101664734D01*
X123045278Y-101649246D01*
X123000906Y-101582839D01*
X122963215Y-101491845D01*
X122944000Y-101395246D01*
X122944000Y-101296754D01*
X122963215Y-101200155D01*
X123000906Y-101109161D01*
X123055625Y-101027269D01*
X123055627Y-101027266D01*
X123125266Y-100957627D01*
X123126360Y-100956896D01*
X123207161Y-100902906D01*
X123298155Y-100865215D01*
X123394754Y-100846000D01*
X123493246Y-100846000D01*
X123589845Y-100865215D01*
X123589845Y-100865215D01*
G37*
G36*
X109442000Y-100447000D02*
X107942000Y-100447000D01*
X107942000Y-99197000D01*
X109442000Y-99197000D01*
X109442000Y-100447000D01*
X109442000Y-100447000D01*
G37*
G36*
X106942000Y-100447000D02*
X105442000Y-100447000D01*
X105442000Y-99197000D01*
X106942000Y-99197000D01*
X106942000Y-100447000D01*
X106942000Y-100447000D01*
G37*
G36*
X118372000Y-100193000D02*
X116872000Y-100193000D01*
X116872000Y-98943000D01*
X118372000Y-98943000D01*
X118372000Y-100193000D01*
X118372000Y-100193000D01*
G37*
G36*
X120872000Y-100193000D02*
X119372000Y-100193000D01*
X119372000Y-98943000D01*
X120872000Y-98943000D01*
X120872000Y-100193000D01*
X120872000Y-100193000D01*
G37*
G36*
X123577324Y-97419768D02*
X123704562Y-97458365D01*
X123821825Y-97521043D01*
X123924607Y-97605395D01*
X124008959Y-97708177D01*
X124071637Y-97825440D01*
X124110234Y-97952678D01*
X124123267Y-98085001D01*
X124110234Y-98217324D01*
X124071637Y-98344562D01*
X124008959Y-98461825D01*
X123924607Y-98564607D01*
X123821825Y-98648959D01*
X123704562Y-98711637D01*
X123577324Y-98750234D01*
X123478160Y-98760001D01*
X123411842Y-98760001D01*
X123312678Y-98750234D01*
X123185440Y-98711637D01*
X123068177Y-98648959D01*
X122965395Y-98564607D01*
X122881043Y-98461825D01*
X122818365Y-98344562D01*
X122779768Y-98217324D01*
X122766735Y-98085001D01*
X122779768Y-97952678D01*
X122818365Y-97825440D01*
X122881043Y-97708177D01*
X122965395Y-97605395D01*
X123068177Y-97521043D01*
X123185440Y-97458365D01*
X123312678Y-97419768D01*
X123411842Y-97410001D01*
X123478160Y-97410001D01*
X123577324Y-97419768D01*
X123577324Y-97419768D01*
G37*
G36*
X101987324Y-97419768D02*
X102114562Y-97458365D01*
X102231825Y-97521043D01*
X102334607Y-97605395D01*
X102418959Y-97708177D01*
X102481637Y-97825440D01*
X102520234Y-97952678D01*
X102533267Y-98085001D01*
X102520234Y-98217324D01*
X102481637Y-98344562D01*
X102418959Y-98461825D01*
X102334607Y-98564607D01*
X102231825Y-98648959D01*
X102114562Y-98711637D01*
X101987324Y-98750234D01*
X101888160Y-98760001D01*
X101821842Y-98760001D01*
X101722678Y-98750234D01*
X101595440Y-98711637D01*
X101478177Y-98648959D01*
X101375395Y-98564607D01*
X101291043Y-98461825D01*
X101228365Y-98344562D01*
X101189768Y-98217324D01*
X101176735Y-98085001D01*
X101189768Y-97952678D01*
X101228365Y-97825440D01*
X101291043Y-97708177D01*
X101375395Y-97605395D01*
X101478177Y-97521043D01*
X101595440Y-97458365D01*
X101722678Y-97419768D01*
X101821842Y-97410001D01*
X101888160Y-97410001D01*
X101987324Y-97419768D01*
X101987324Y-97419768D01*
G37*
G36*
X107664000Y-97399000D02*
X106164000Y-97399000D01*
X106164000Y-96149000D01*
X107664000Y-96149000D01*
X107664000Y-97399000D01*
X107664000Y-97399000D01*
G37*
G36*
X105164000Y-97399000D02*
X103664000Y-97399000D01*
X103664000Y-96149000D01*
X105164000Y-96149000D01*
X105164000Y-97399000D01*
X105164000Y-97399000D01*
G37*
G36*
X99867992Y-96212076D02*
X99901883Y-96222357D01*
X99933111Y-96239048D01*
X99960485Y-96261515D01*
X99982952Y-96288889D01*
X99999643Y-96320117D01*
X100009924Y-96354008D01*
X100014000Y-96395391D01*
X100014000Y-96995609D01*
X100009924Y-97036992D01*
X99999643Y-97070883D01*
X99982952Y-97102111D01*
X99960485Y-97129485D01*
X99933111Y-97151952D01*
X99901883Y-97168643D01*
X99867992Y-97178924D01*
X99826609Y-97183000D01*
X98801391Y-97183000D01*
X98760008Y-97178924D01*
X98726117Y-97168643D01*
X98694889Y-97151952D01*
X98667515Y-97129485D01*
X98645048Y-97102111D01*
X98628357Y-97070883D01*
X98618076Y-97036992D01*
X98614000Y-96995609D01*
X98614000Y-96395391D01*
X98618076Y-96354008D01*
X98628357Y-96320117D01*
X98645048Y-96288889D01*
X98667515Y-96261515D01*
X98694889Y-96239048D01*
X98726117Y-96222357D01*
X98760008Y-96212076D01*
X98801391Y-96208000D01*
X99826609Y-96208000D01*
X99867992Y-96212076D01*
X99867992Y-96212076D01*
G37*
G36*
X123577324Y-95419768D02*
X123704562Y-95458365D01*
X123821825Y-95521043D01*
X123924607Y-95605395D01*
X124008959Y-95708177D01*
X124071637Y-95825440D01*
X124110234Y-95952678D01*
X124123267Y-96085001D01*
X124110234Y-96217324D01*
X124071637Y-96344562D01*
X124008959Y-96461825D01*
X123924607Y-96564607D01*
X123821825Y-96648959D01*
X123704562Y-96711637D01*
X123577324Y-96750234D01*
X123478160Y-96760001D01*
X123411842Y-96760001D01*
X123312678Y-96750234D01*
X123185440Y-96711637D01*
X123068177Y-96648959D01*
X122965395Y-96564607D01*
X122881043Y-96461825D01*
X122818365Y-96344562D01*
X122779768Y-96217324D01*
X122766735Y-96085001D01*
X122779768Y-95952678D01*
X122818365Y-95825440D01*
X122881043Y-95708177D01*
X122965395Y-95605395D01*
X123068177Y-95521043D01*
X123185440Y-95458365D01*
X123312678Y-95419768D01*
X123411842Y-95410001D01*
X123478160Y-95410001D01*
X123577324Y-95419768D01*
X123577324Y-95419768D01*
G37*
G36*
X101987324Y-95419768D02*
X102114562Y-95458365D01*
X102231825Y-95521043D01*
X102334607Y-95605395D01*
X102418959Y-95708177D01*
X102481637Y-95825440D01*
X102520234Y-95952678D01*
X102533267Y-96085001D01*
X102520234Y-96217324D01*
X102481637Y-96344562D01*
X102418959Y-96461825D01*
X102334607Y-96564607D01*
X102231825Y-96648959D01*
X102114562Y-96711637D01*
X101987324Y-96750234D01*
X101888160Y-96760001D01*
X101821842Y-96760001D01*
X101722678Y-96750234D01*
X101595440Y-96711637D01*
X101478177Y-96648959D01*
X101375395Y-96564607D01*
X101291043Y-96461825D01*
X101228365Y-96344562D01*
X101189768Y-96217324D01*
X101176735Y-96085001D01*
X101189768Y-95952678D01*
X101228365Y-95825440D01*
X101291043Y-95708177D01*
X101375395Y-95605395D01*
X101478177Y-95521043D01*
X101595440Y-95458365D01*
X101722678Y-95419768D01*
X101821842Y-95410001D01*
X101888160Y-95410001D01*
X101987324Y-95419768D01*
X101987324Y-95419768D01*
G37*
G36*
X99867992Y-94337076D02*
X99901883Y-94347357D01*
X99933111Y-94364048D01*
X99960485Y-94386515D01*
X99982952Y-94413889D01*
X99999643Y-94445117D01*
X100009924Y-94479008D01*
X100014000Y-94520391D01*
X100014000Y-95120609D01*
X100009924Y-95161992D01*
X99999643Y-95195883D01*
X99982952Y-95227111D01*
X99960485Y-95254485D01*
X99933111Y-95276952D01*
X99901883Y-95293643D01*
X99867992Y-95303924D01*
X99826609Y-95308000D01*
X98801391Y-95308000D01*
X98760008Y-95303924D01*
X98726117Y-95293643D01*
X98694889Y-95276952D01*
X98667515Y-95254485D01*
X98645048Y-95227111D01*
X98628357Y-95195883D01*
X98618076Y-95161992D01*
X98614000Y-95120609D01*
X98614000Y-94520391D01*
X98618076Y-94479008D01*
X98628357Y-94445117D01*
X98645048Y-94413889D01*
X98667515Y-94386515D01*
X98694889Y-94364048D01*
X98726117Y-94347357D01*
X98760008Y-94337076D01*
X98801391Y-94333000D01*
X99826609Y-94333000D01*
X99867992Y-94337076D01*
X99867992Y-94337076D01*
G37*
G36*
X101987324Y-93419768D02*
X102114562Y-93458365D01*
X102231825Y-93521043D01*
X102334607Y-93605395D01*
X102418959Y-93708177D01*
X102481637Y-93825440D01*
X102520234Y-93952678D01*
X102533267Y-94085001D01*
X102520234Y-94217324D01*
X102481637Y-94344562D01*
X102418959Y-94461825D01*
X102334607Y-94564607D01*
X102231825Y-94648959D01*
X102114562Y-94711637D01*
X101987324Y-94750234D01*
X101888160Y-94760001D01*
X101821842Y-94760001D01*
X101722678Y-94750234D01*
X101595440Y-94711637D01*
X101478177Y-94648959D01*
X101375395Y-94564607D01*
X101291043Y-94461825D01*
X101228365Y-94344562D01*
X101189768Y-94217324D01*
X101176735Y-94085001D01*
X101189768Y-93952678D01*
X101228365Y-93825440D01*
X101291043Y-93708177D01*
X101375395Y-93605395D01*
X101478177Y-93521043D01*
X101595440Y-93458365D01*
X101722678Y-93419768D01*
X101821842Y-93410001D01*
X101888160Y-93410001D01*
X101987324Y-93419768D01*
X101987324Y-93419768D01*
G37*
G36*
X123577324Y-93419768D02*
X123704562Y-93458365D01*
X123821825Y-93521043D01*
X123924607Y-93605395D01*
X124008959Y-93708177D01*
X124071637Y-93825440D01*
X124110234Y-93952678D01*
X124123267Y-94085001D01*
X124110234Y-94217324D01*
X124071637Y-94344562D01*
X124008959Y-94461825D01*
X123924607Y-94564607D01*
X123821825Y-94648959D01*
X123704562Y-94711637D01*
X123577324Y-94750234D01*
X123478160Y-94760001D01*
X123411842Y-94760001D01*
X123312678Y-94750234D01*
X123185440Y-94711637D01*
X123068177Y-94648959D01*
X122965395Y-94564607D01*
X122881043Y-94461825D01*
X122818365Y-94344562D01*
X122779768Y-94217324D01*
X122766735Y-94085001D01*
X122779768Y-93952678D01*
X122818365Y-93825440D01*
X122881043Y-93708177D01*
X122965395Y-93605395D01*
X123068177Y-93521043D01*
X123185440Y-93458365D01*
X123312678Y-93419768D01*
X123411842Y-93410001D01*
X123478160Y-93410001D01*
X123577324Y-93419768D01*
X123577324Y-93419768D01*
G37*
G36*
X99964000Y-93540000D02*
X98664000Y-93540000D01*
X98664000Y-92040000D01*
X99964000Y-92040000D01*
X99964000Y-93540000D01*
X99964000Y-93540000D01*
G37*
G36*
X101987324Y-91419768D02*
X102114562Y-91458365D01*
X102231825Y-91521043D01*
X102334607Y-91605395D01*
X102418959Y-91708177D01*
X102481637Y-91825440D01*
X102520234Y-91952678D01*
X102533267Y-92085001D01*
X102520234Y-92217324D01*
X102481637Y-92344562D01*
X102418959Y-92461825D01*
X102334607Y-92564607D01*
X102231825Y-92648959D01*
X102114562Y-92711637D01*
X101987324Y-92750234D01*
X101888160Y-92760001D01*
X101821842Y-92760001D01*
X101722678Y-92750234D01*
X101595440Y-92711637D01*
X101478177Y-92648959D01*
X101375395Y-92564607D01*
X101291043Y-92461825D01*
X101228365Y-92344562D01*
X101189768Y-92217324D01*
X101176735Y-92085001D01*
X101189768Y-91952678D01*
X101228365Y-91825440D01*
X101291043Y-91708177D01*
X101375395Y-91605395D01*
X101478177Y-91521043D01*
X101595440Y-91458365D01*
X101722678Y-91419768D01*
X101821842Y-91410001D01*
X101888160Y-91410001D01*
X101987324Y-91419768D01*
X101987324Y-91419768D01*
G37*
G36*
X123577324Y-91419768D02*
X123704562Y-91458365D01*
X123821825Y-91521043D01*
X123924607Y-91605395D01*
X124008959Y-91708177D01*
X124071637Y-91825440D01*
X124110234Y-91952678D01*
X124123267Y-92085001D01*
X124110234Y-92217324D01*
X124071637Y-92344562D01*
X124008959Y-92461825D01*
X123924607Y-92564607D01*
X123821825Y-92648959D01*
X123704562Y-92711637D01*
X123577324Y-92750234D01*
X123478160Y-92760001D01*
X123411842Y-92760001D01*
X123312678Y-92750234D01*
X123185440Y-92711637D01*
X123068177Y-92648959D01*
X122965395Y-92564607D01*
X122881043Y-92461825D01*
X122818365Y-92344562D01*
X122779768Y-92217324D01*
X122766735Y-92085001D01*
X122779768Y-91952678D01*
X122818365Y-91825440D01*
X122881043Y-91708177D01*
X122965395Y-91605395D01*
X123068177Y-91521043D01*
X123185440Y-91458365D01*
X123312678Y-91419768D01*
X123411842Y-91410001D01*
X123478160Y-91410001D01*
X123577324Y-91419768D01*
X123577324Y-91419768D01*
G37*
G36*
X121021000Y-90900000D02*
X119771000Y-90900000D01*
X119771000Y-89400000D01*
X121021000Y-89400000D01*
X121021000Y-90900000D01*
X121021000Y-90900000D01*
G37*
G36*
X99964000Y-90840000D02*
X98664000Y-90840000D01*
X98664000Y-89340000D01*
X99964000Y-89340000D01*
X99964000Y-90840000D01*
X99964000Y-90840000D01*
G37*
G36*
X101987324Y-89419768D02*
X102114562Y-89458365D01*
X102231825Y-89521043D01*
X102334607Y-89605395D01*
X102418959Y-89708177D01*
X102481637Y-89825440D01*
X102520234Y-89952678D01*
X102533267Y-90085001D01*
X102520234Y-90217324D01*
X102481637Y-90344562D01*
X102418959Y-90461825D01*
X102334607Y-90564607D01*
X102231825Y-90648959D01*
X102114562Y-90711637D01*
X101987324Y-90750234D01*
X101888160Y-90760001D01*
X101821842Y-90760001D01*
X101722678Y-90750234D01*
X101595440Y-90711637D01*
X101478177Y-90648959D01*
X101375395Y-90564607D01*
X101291043Y-90461825D01*
X101228365Y-90344562D01*
X101189768Y-90217324D01*
X101176735Y-90085001D01*
X101189768Y-89952678D01*
X101228365Y-89825440D01*
X101291043Y-89708177D01*
X101375395Y-89605395D01*
X101478177Y-89521043D01*
X101595440Y-89458365D01*
X101722678Y-89419768D01*
X101821842Y-89410001D01*
X101888160Y-89410001D01*
X101987324Y-89419768D01*
X101987324Y-89419768D01*
G37*
G36*
X123577324Y-89419768D02*
X123704562Y-89458365D01*
X123821825Y-89521043D01*
X123924607Y-89605395D01*
X124008959Y-89708177D01*
X124071637Y-89825440D01*
X124110234Y-89952678D01*
X124123267Y-90085001D01*
X124110234Y-90217324D01*
X124071637Y-90344562D01*
X124008959Y-90461825D01*
X123924607Y-90564607D01*
X123821825Y-90648959D01*
X123704562Y-90711637D01*
X123577324Y-90750234D01*
X123478160Y-90760001D01*
X123411842Y-90760001D01*
X123312678Y-90750234D01*
X123185440Y-90711637D01*
X123068177Y-90648959D01*
X122965395Y-90564607D01*
X122881043Y-90461825D01*
X122818365Y-90344562D01*
X122779768Y-90217324D01*
X122766735Y-90085001D01*
X122779768Y-89952678D01*
X122818365Y-89825440D01*
X122881043Y-89708177D01*
X122965395Y-89605395D01*
X123068177Y-89521043D01*
X123185440Y-89458365D01*
X123312678Y-89419768D01*
X123411842Y-89410001D01*
X123478160Y-89410001D01*
X123577324Y-89419768D01*
X123577324Y-89419768D01*
G37*
G36*
X101987324Y-87419768D02*
X102114562Y-87458365D01*
X102231825Y-87521043D01*
X102334607Y-87605395D01*
X102418959Y-87708177D01*
X102481637Y-87825440D01*
X102520234Y-87952678D01*
X102533267Y-88085001D01*
X102520234Y-88217324D01*
X102481637Y-88344562D01*
X102418959Y-88461825D01*
X102334607Y-88564607D01*
X102231825Y-88648959D01*
X102114562Y-88711637D01*
X101987324Y-88750234D01*
X101888160Y-88760001D01*
X101821842Y-88760001D01*
X101722678Y-88750234D01*
X101595440Y-88711637D01*
X101478177Y-88648959D01*
X101375395Y-88564607D01*
X101291043Y-88461825D01*
X101228365Y-88344562D01*
X101189768Y-88217324D01*
X101176735Y-88085001D01*
X101189768Y-87952678D01*
X101228365Y-87825440D01*
X101291043Y-87708177D01*
X101375395Y-87605395D01*
X101478177Y-87521043D01*
X101595440Y-87458365D01*
X101722678Y-87419768D01*
X101821842Y-87410001D01*
X101888160Y-87410001D01*
X101987324Y-87419768D01*
X101987324Y-87419768D01*
G37*
G36*
X123577324Y-87419768D02*
X123704562Y-87458365D01*
X123821825Y-87521043D01*
X123924607Y-87605395D01*
X124008959Y-87708177D01*
X124071637Y-87825440D01*
X124110234Y-87952678D01*
X124123267Y-88085001D01*
X124110234Y-88217324D01*
X124071637Y-88344562D01*
X124008959Y-88461825D01*
X123924607Y-88564607D01*
X123821825Y-88648959D01*
X123704562Y-88711637D01*
X123577324Y-88750234D01*
X123478160Y-88760001D01*
X123411842Y-88760001D01*
X123312678Y-88750234D01*
X123185440Y-88711637D01*
X123068177Y-88648959D01*
X122965395Y-88564607D01*
X122881043Y-88461825D01*
X122818365Y-88344562D01*
X122779768Y-88217324D01*
X122766735Y-88085001D01*
X122779768Y-87952678D01*
X122818365Y-87825440D01*
X122881043Y-87708177D01*
X122965395Y-87605395D01*
X123068177Y-87521043D01*
X123185440Y-87458365D01*
X123312678Y-87419768D01*
X123411842Y-87410001D01*
X123478160Y-87410001D01*
X123577324Y-87419768D01*
X123577324Y-87419768D01*
G37*
G36*
X121021000Y-88400000D02*
X119771000Y-88400000D01*
X119771000Y-86900000D01*
X121021000Y-86900000D01*
X121021000Y-88400000D01*
X121021000Y-88400000D01*
G37*
G36*
X101987324Y-85419768D02*
X102114562Y-85458365D01*
X102231825Y-85521043D01*
X102334607Y-85605395D01*
X102418959Y-85708177D01*
X102481637Y-85825440D01*
X102520234Y-85952678D01*
X102533267Y-86085001D01*
X102520234Y-86217324D01*
X102481637Y-86344562D01*
X102418959Y-86461825D01*
X102334607Y-86564607D01*
X102231825Y-86648959D01*
X102114562Y-86711637D01*
X101987324Y-86750234D01*
X101888160Y-86760001D01*
X101821842Y-86760001D01*
X101722678Y-86750234D01*
X101595440Y-86711637D01*
X101478177Y-86648959D01*
X101375395Y-86564607D01*
X101291043Y-86461825D01*
X101228365Y-86344562D01*
X101189768Y-86217324D01*
X101176735Y-86085001D01*
X101189768Y-85952678D01*
X101228365Y-85825440D01*
X101291043Y-85708177D01*
X101375395Y-85605395D01*
X101478177Y-85521043D01*
X101595440Y-85458365D01*
X101722678Y-85419768D01*
X101821842Y-85410001D01*
X101888160Y-85410001D01*
X101987324Y-85419768D01*
X101987324Y-85419768D01*
G37*
G36*
X123577324Y-85419768D02*
X123704562Y-85458365D01*
X123821825Y-85521043D01*
X123924607Y-85605395D01*
X124008959Y-85708177D01*
X124071637Y-85825440D01*
X124110234Y-85952678D01*
X124123267Y-86085001D01*
X124110234Y-86217324D01*
X124071637Y-86344562D01*
X124008959Y-86461825D01*
X123924607Y-86564607D01*
X123821825Y-86648959D01*
X123704562Y-86711637D01*
X123577324Y-86750234D01*
X123478160Y-86760001D01*
X123411842Y-86760001D01*
X123312678Y-86750234D01*
X123185440Y-86711637D01*
X123068177Y-86648959D01*
X122965395Y-86564607D01*
X122881043Y-86461825D01*
X122818365Y-86344562D01*
X122779768Y-86217324D01*
X122766735Y-86085001D01*
X122779768Y-85952678D01*
X122818365Y-85825440D01*
X122881043Y-85708177D01*
X122965395Y-85605395D01*
X123068177Y-85521043D01*
X123185440Y-85458365D01*
X123312678Y-85419768D01*
X123411842Y-85410001D01*
X123478160Y-85410001D01*
X123577324Y-85419768D01*
X123577324Y-85419768D01*
G37*
G36*
X101987324Y-83419768D02*
X102114562Y-83458365D01*
X102231825Y-83521043D01*
X102334607Y-83605395D01*
X102418959Y-83708177D01*
X102481637Y-83825440D01*
X102520234Y-83952678D01*
X102533267Y-84085001D01*
X102520234Y-84217324D01*
X102481637Y-84344562D01*
X102418959Y-84461825D01*
X102334607Y-84564607D01*
X102231825Y-84648959D01*
X102114562Y-84711637D01*
X101987324Y-84750234D01*
X101888160Y-84760001D01*
X101821842Y-84760001D01*
X101722678Y-84750234D01*
X101595440Y-84711637D01*
X101478177Y-84648959D01*
X101375395Y-84564607D01*
X101291043Y-84461825D01*
X101228365Y-84344562D01*
X101189768Y-84217324D01*
X101176735Y-84085001D01*
X101189768Y-83952678D01*
X101228365Y-83825440D01*
X101291043Y-83708177D01*
X101375395Y-83605395D01*
X101478177Y-83521043D01*
X101595440Y-83458365D01*
X101722678Y-83419768D01*
X101821842Y-83410001D01*
X101888160Y-83410001D01*
X101987324Y-83419768D01*
X101987324Y-83419768D01*
G37*
G36*
X123577324Y-83419768D02*
X123704562Y-83458365D01*
X123821825Y-83521043D01*
X123924607Y-83605395D01*
X124008959Y-83708177D01*
X124071637Y-83825440D01*
X124110234Y-83952678D01*
X124123267Y-84085001D01*
X124110234Y-84217324D01*
X124071637Y-84344562D01*
X124008959Y-84461825D01*
X123924607Y-84564607D01*
X123821825Y-84648959D01*
X123704562Y-84711637D01*
X123577324Y-84750234D01*
X123478160Y-84760001D01*
X123411842Y-84760001D01*
X123312678Y-84750234D01*
X123185440Y-84711637D01*
X123068177Y-84648959D01*
X122965395Y-84564607D01*
X122881043Y-84461825D01*
X122818365Y-84344562D01*
X122779768Y-84217324D01*
X122766735Y-84085001D01*
X122779768Y-83952678D01*
X122818365Y-83825440D01*
X122881043Y-83708177D01*
X122965395Y-83605395D01*
X123068177Y-83521043D01*
X123185440Y-83458365D01*
X123312678Y-83419768D01*
X123411842Y-83410001D01*
X123478160Y-83410001D01*
X123577324Y-83419768D01*
X123577324Y-83419768D01*
G37*
G36*
X123577324Y-81419768D02*
X123704562Y-81458365D01*
X123821825Y-81521043D01*
X123924607Y-81605395D01*
X124008959Y-81708177D01*
X124071637Y-81825440D01*
X124110234Y-81952678D01*
X124123267Y-82085001D01*
X124110234Y-82217324D01*
X124071637Y-82344562D01*
X124008959Y-82461825D01*
X123924607Y-82564607D01*
X123821825Y-82648959D01*
X123704562Y-82711637D01*
X123577324Y-82750234D01*
X123478160Y-82760001D01*
X123411842Y-82760001D01*
X123312678Y-82750234D01*
X123185440Y-82711637D01*
X123068177Y-82648959D01*
X122965395Y-82564607D01*
X122881043Y-82461825D01*
X122818365Y-82344562D01*
X122779768Y-82217324D01*
X122766735Y-82085001D01*
X122779768Y-81952678D01*
X122818365Y-81825440D01*
X122881043Y-81708177D01*
X122965395Y-81605395D01*
X123068177Y-81521043D01*
X123185440Y-81458365D01*
X123312678Y-81419768D01*
X123411842Y-81410001D01*
X123478160Y-81410001D01*
X123577324Y-81419768D01*
X123577324Y-81419768D01*
G37*
G36*
X101987324Y-81419768D02*
X102114562Y-81458365D01*
X102231825Y-81521043D01*
X102334607Y-81605395D01*
X102418959Y-81708177D01*
X102481637Y-81825440D01*
X102520234Y-81952678D01*
X102533267Y-82085001D01*
X102520234Y-82217324D01*
X102481637Y-82344562D01*
X102418959Y-82461825D01*
X102334607Y-82564607D01*
X102231825Y-82648959D01*
X102114562Y-82711637D01*
X101987324Y-82750234D01*
X101888160Y-82760001D01*
X101821842Y-82760001D01*
X101722678Y-82750234D01*
X101595440Y-82711637D01*
X101478177Y-82648959D01*
X101375395Y-82564607D01*
X101291043Y-82461825D01*
X101228365Y-82344562D01*
X101189768Y-82217324D01*
X101176735Y-82085001D01*
X101189768Y-81952678D01*
X101228365Y-81825440D01*
X101291043Y-81708177D01*
X101375395Y-81605395D01*
X101478177Y-81521043D01*
X101595440Y-81458365D01*
X101722678Y-81419768D01*
X101821842Y-81410001D01*
X101888160Y-81410001D01*
X101987324Y-81419768D01*
X101987324Y-81419768D01*
G37*
G36*
X102530001Y-80760001D02*
X101180001Y-80760001D01*
X101180001Y-79410001D01*
X102530001Y-79410001D01*
X102530001Y-80760001D01*
X102530001Y-80760001D01*
G37*
G36*
X124120001Y-80760001D02*
X122770001Y-80760001D01*
X122770001Y-79410001D01*
X124120001Y-79410001D01*
X124120001Y-80760001D01*
X124120001Y-80760001D01*
G37*
G36*
X107813000Y-80740000D02*
X106563000Y-80740000D01*
X106563000Y-79240000D01*
X107813000Y-79240000D01*
X107813000Y-80740000D01*
X107813000Y-80740000D01*
G37*
G36*
X105019000Y-80740000D02*
X103769000Y-80740000D01*
X103769000Y-79240000D01*
X105019000Y-79240000D01*
X105019000Y-80740000D01*
X105019000Y-80740000D01*
G37*
G36*
X110607000Y-80740000D02*
X109357000Y-80740000D01*
X109357000Y-79240000D01*
X110607000Y-79240000D01*
X110607000Y-80740000D01*
X110607000Y-80740000D01*
G37*
G36*
X107813000Y-78240000D02*
X106563000Y-78240000D01*
X106563000Y-76740000D01*
X107813000Y-76740000D01*
X107813000Y-78240000D01*
X107813000Y-78240000D01*
G37*
G36*
X105019000Y-78240000D02*
X103769000Y-78240000D01*
X103769000Y-76740000D01*
X105019000Y-76740000D01*
X105019000Y-78240000D01*
X105019000Y-78240000D01*
G37*
G36*
X110607000Y-78240000D02*
X109357000Y-78240000D01*
X109357000Y-76740000D01*
X110607000Y-76740000D01*
X110607000Y-78240000D01*
X110607000Y-78240000D01*
G37*
G36*
X119956000Y-76850000D02*
X118456000Y-76850000D01*
X118456000Y-75550000D01*
X119956000Y-75550000D01*
X119956000Y-76850000D01*
X119956000Y-76850000D01*
G37*
G36*
X117256000Y-76850000D02*
X115756000Y-76850000D01*
X115756000Y-75550000D01*
X117256000Y-75550000D01*
X117256000Y-76850000D01*
X117256000Y-76850000D01*
G37*
G36*
X123706992Y-74234076D02*
X123740883Y-74244357D01*
X123772111Y-74261048D01*
X123799485Y-74283515D01*
X123821952Y-74310889D01*
X123838643Y-74342117D01*
X123848924Y-74376008D01*
X123853000Y-74417391D01*
X123853000Y-75442609D01*
X123848924Y-75483992D01*
X123838643Y-75517883D01*
X123821952Y-75549111D01*
X123799485Y-75576485D01*
X123772111Y-75598952D01*
X123740883Y-75615643D01*
X123706992Y-75625924D01*
X123665609Y-75630000D01*
X123065391Y-75630000D01*
X123024008Y-75625924D01*
X122990117Y-75615643D01*
X122958889Y-75598952D01*
X122931515Y-75576485D01*
X122909048Y-75549111D01*
X122892357Y-75517883D01*
X122882076Y-75483992D01*
X122878000Y-75442609D01*
X122878000Y-74417391D01*
X122882076Y-74376008D01*
X122892357Y-74342117D01*
X122909048Y-74310889D01*
X122931515Y-74283515D01*
X122958889Y-74261048D01*
X122990117Y-74244357D01*
X123024008Y-74234076D01*
X123065391Y-74230000D01*
X123665609Y-74230000D01*
X123706992Y-74234076D01*
X123706992Y-74234076D01*
G37*
G36*
X121831992Y-74234076D02*
X121865883Y-74244357D01*
X121897111Y-74261048D01*
X121924485Y-74283515D01*
X121946952Y-74310889D01*
X121963643Y-74342117D01*
X121973924Y-74376008D01*
X121978000Y-74417391D01*
X121978000Y-75442609D01*
X121973924Y-75483992D01*
X121963643Y-75517883D01*
X121946952Y-75549111D01*
X121924485Y-75576485D01*
X121897111Y-75598952D01*
X121865883Y-75615643D01*
X121831992Y-75625924D01*
X121790609Y-75630000D01*
X121190391Y-75630000D01*
X121149008Y-75625924D01*
X121115117Y-75615643D01*
X121083889Y-75598952D01*
X121056515Y-75576485D01*
X121034048Y-75549111D01*
X121017357Y-75517883D01*
X121007076Y-75483992D01*
X121003000Y-75442609D01*
X121003000Y-74417391D01*
X121007076Y-74376008D01*
X121017357Y-74342117D01*
X121034048Y-74310889D01*
X121056515Y-74283515D01*
X121083889Y-74261048D01*
X121115117Y-74244357D01*
X121149008Y-74234076D01*
X121190391Y-74230000D01*
X121790609Y-74230000D01*
X121831992Y-74234076D01*
X121831992Y-74234076D01*
G37*
G36*
X100926000Y-75272000D02*
X99226000Y-75272000D01*
X99226000Y-73572000D01*
X100926000Y-73572000D01*
X100926000Y-75272000D01*
X100926000Y-75272000D01*
G37*
G36*
X105298000Y-73728000D02*
X103998000Y-73728000D01*
X103998000Y-72228000D01*
X105298000Y-72228000D01*
X105298000Y-73728000D01*
X105298000Y-73728000D01*
G37*
G36*
X107305000Y-73628000D02*
X106055000Y-73628000D01*
X106055000Y-72128000D01*
X107305000Y-72128000D01*
X107305000Y-73628000D01*
X107305000Y-73628000D01*
G37*
G36*
X100242630Y-71044299D02*
X100402855Y-71092903D01*
X100550520Y-71171831D01*
X100679949Y-71278051D01*
X100786169Y-71407480D01*
X100865097Y-71555145D01*
X100913701Y-71715370D01*
X100930112Y-71882000D01*
X100913701Y-72048630D01*
X100865097Y-72208855D01*
X100786169Y-72356520D01*
X100679949Y-72485949D01*
X100550520Y-72592169D01*
X100402855Y-72671097D01*
X100242630Y-72719701D01*
X100117752Y-72732000D01*
X100034248Y-72732000D01*
X99909370Y-72719701D01*
X99749145Y-72671097D01*
X99601480Y-72592169D01*
X99472051Y-72485949D01*
X99365831Y-72356520D01*
X99286903Y-72208855D01*
X99238299Y-72048630D01*
X99221888Y-71882000D01*
X99238299Y-71715370D01*
X99286903Y-71555145D01*
X99365831Y-71407480D01*
X99472051Y-71278051D01*
X99601480Y-71171831D01*
X99749145Y-71092903D01*
X99909370Y-71044299D01*
X100034248Y-71032000D01*
X100117752Y-71032000D01*
X100242630Y-71044299D01*
X100242630Y-71044299D01*
G37*
G36*
X124094000Y-72204000D02*
X122794000Y-72204000D01*
X122794000Y-70704000D01*
X124094000Y-70704000D01*
X124094000Y-72204000D01*
X124094000Y-72204000D01*
G37*
G36*
X121529000Y-72104000D02*
X120279000Y-72104000D01*
X120279000Y-70604000D01*
X121529000Y-70604000D01*
X121529000Y-72104000D01*
X121529000Y-72104000D01*
G37*
G36*
X111036000Y-72088000D02*
X109436000Y-72088000D01*
X109436000Y-70088000D01*
X111036000Y-70088000D01*
X111036000Y-72088000D01*
X111036000Y-72088000D01*
G37*
G36*
X114572910Y-72088000D02*
X112972910Y-72088000D01*
X112972910Y-70088000D01*
X114572910Y-70088000D01*
X114572910Y-72088000D01*
X114572910Y-72088000D01*
G37*
G36*
X118148000Y-72088000D02*
X116548000Y-72088000D01*
X116548000Y-70088000D01*
X118148000Y-70088000D01*
X118148000Y-72088000D01*
X118148000Y-72088000D01*
G37*
G36*
X126609000Y-71850000D02*
X125359000Y-71850000D01*
X125359000Y-70350000D01*
X126609000Y-70350000D01*
X126609000Y-71850000D01*
X126609000Y-71850000D01*
G37*
G36*
X107305000Y-71128000D02*
X106055000Y-71128000D01*
X106055000Y-69628000D01*
X107305000Y-69628000D01*
X107305000Y-71128000D01*
X107305000Y-71128000D01*
G37*
G36*
X105298000Y-71028000D02*
X103998000Y-71028000D01*
X103998000Y-69528000D01*
X105298000Y-69528000D01*
X105298000Y-71028000D01*
X105298000Y-71028000D01*
G37*
G36*
X100242630Y-68504299D02*
X100402855Y-68552903D01*
X100550520Y-68631831D01*
X100679949Y-68738051D01*
X100786169Y-68867480D01*
X100865097Y-69015145D01*
X100913701Y-69175370D01*
X100930112Y-69342000D01*
X100913701Y-69508630D01*
X100865097Y-69668855D01*
X100786169Y-69816520D01*
X100679949Y-69945949D01*
X100550520Y-70052169D01*
X100402855Y-70131097D01*
X100242630Y-70179701D01*
X100117752Y-70192000D01*
X100034248Y-70192000D01*
X99909370Y-70179701D01*
X99749145Y-70131097D01*
X99601480Y-70052169D01*
X99472051Y-69945949D01*
X99365831Y-69816520D01*
X99286903Y-69668855D01*
X99238299Y-69508630D01*
X99221888Y-69342000D01*
X99238299Y-69175370D01*
X99286903Y-69015145D01*
X99365831Y-68867480D01*
X99472051Y-68738051D01*
X99601480Y-68631831D01*
X99749145Y-68552903D01*
X99909370Y-68504299D01*
X100034248Y-68492000D01*
X100117752Y-68492000D01*
X100242630Y-68504299D01*
X100242630Y-68504299D01*
G37*
G36*
X121529000Y-69604000D02*
X120279000Y-69604000D01*
X120279000Y-68104000D01*
X121529000Y-68104000D01*
X121529000Y-69604000D01*
X121529000Y-69604000D01*
G37*
G36*
X124094000Y-69504000D02*
X122794000Y-69504000D01*
X122794000Y-68004000D01*
X124094000Y-68004000D01*
X124094000Y-69504000D01*
X124094000Y-69504000D01*
G37*
G36*
X126609000Y-69350000D02*
X125359000Y-69350000D01*
X125359000Y-67850000D01*
X126609000Y-67850000D01*
X126609000Y-69350000D01*
X126609000Y-69350000D01*
G37*
G36*
X111036000Y-68088000D02*
X109436000Y-68088000D01*
X109436000Y-66088000D01*
X111036000Y-66088000D01*
X111036000Y-68088000D01*
X111036000Y-68088000D01*
G37*
G36*
X114572910Y-68088000D02*
X112972910Y-68088000D01*
X112972910Y-66088000D01*
X114572910Y-66088000D01*
X114572910Y-68088000D01*
X114572910Y-68088000D01*
G37*
G36*
X118148000Y-68088000D02*
X116548000Y-68088000D01*
X116548000Y-66088000D01*
X118148000Y-66088000D01*
X118148000Y-68088000D01*
X118148000Y-68088000D01*
G37*
G36*
X103774000Y-66870000D02*
X102474000Y-66870000D01*
X102474000Y-65370000D01*
X103774000Y-65370000D01*
X103774000Y-66870000D01*
X103774000Y-66870000D01*
G37*
G36*
X106797000Y-66770000D02*
X105547000Y-66770000D01*
X105547000Y-65270000D01*
X106797000Y-65270000D01*
X106797000Y-66770000D01*
X106797000Y-66770000D01*
G37*
G36*
X124280000Y-65471000D02*
X114880000Y-65471000D01*
X114880000Y-54671000D01*
X124280000Y-54671000D01*
X124280000Y-65471000D01*
X124280000Y-65471000D01*
G37*
G36*
X112730000Y-64281000D02*
X108130000Y-64281000D01*
X108130000Y-63481000D01*
X112730000Y-63481000D01*
X112730000Y-64281000D01*
X112730000Y-64281000D01*
G37*
G36*
X106797000Y-64270000D02*
X105547000Y-64270000D01*
X105547000Y-62770000D01*
X106797000Y-62770000D01*
X106797000Y-64270000D01*
X106797000Y-64270000D01*
G37*
G36*
X103774000Y-64170000D02*
X102474000Y-64170000D01*
X102474000Y-62670000D01*
X103774000Y-62670000D01*
X103774000Y-64170000D01*
X103774000Y-64170000D01*
G37*
G36*
X112730000Y-63011000D02*
X108130000Y-63011000D01*
X108130000Y-62211000D01*
X112730000Y-62211000D01*
X112730000Y-63011000D01*
X112730000Y-63011000D01*
G37*
G36*
X103266000Y-61790000D02*
X101966000Y-61790000D01*
X101966000Y-60290000D01*
X103266000Y-60290000D01*
X103266000Y-61790000D01*
X103266000Y-61790000D01*
G37*
G36*
X112730000Y-61741000D02*
X108130000Y-61741000D01*
X108130000Y-60941000D01*
X112730000Y-60941000D01*
X112730000Y-61741000D01*
X112730000Y-61741000D01*
G37*
G36*
X106797000Y-61690000D02*
X105547000Y-61690000D01*
X105547000Y-60190000D01*
X106797000Y-60190000D01*
X106797000Y-61690000D01*
X106797000Y-61690000D01*
G37*
G36*
X112730000Y-60471000D02*
X108130000Y-60471000D01*
X108130000Y-59671000D01*
X112730000Y-59671000D01*
X112730000Y-60471000D01*
X112730000Y-60471000D01*
G37*
G36*
X112730000Y-59201000D02*
X108130000Y-59201000D01*
X108130000Y-58401000D01*
X112730000Y-58401000D01*
X112730000Y-59201000D01*
X112730000Y-59201000D01*
G37*
G36*
X106797000Y-59190000D02*
X105547000Y-59190000D01*
X105547000Y-57690000D01*
X106797000Y-57690000D01*
X106797000Y-59190000D01*
X106797000Y-59190000D01*
G37*
G36*
X103266000Y-59090000D02*
X101966000Y-59090000D01*
X101966000Y-57590000D01*
X103266000Y-57590000D01*
X103266000Y-59090000D01*
X103266000Y-59090000D01*
G37*
G36*
X112730000Y-57931000D02*
X108130000Y-57931000D01*
X108130000Y-57131000D01*
X112730000Y-57131000D01*
X112730000Y-57931000D01*
X112730000Y-57931000D01*
G37*
G36*
X105298000Y-56710000D02*
X103998000Y-56710000D01*
X103998000Y-55210000D01*
X105298000Y-55210000D01*
X105298000Y-56710000D01*
X105298000Y-56710000D01*
G37*
G36*
X112730000Y-56661000D02*
X108130000Y-56661000D01*
X108130000Y-55861000D01*
X112730000Y-55861000D01*
X112730000Y-56661000D01*
X112730000Y-56661000D01*
G37*
G36*
X105298000Y-54010000D02*
X103998000Y-54010000D01*
X103998000Y-52510000D01*
X105298000Y-52510000D01*
X105298000Y-54010000D01*
X105298000Y-54010000D01*
G37*
G36*
X117024000Y-53451000D02*
X114624000Y-53451000D01*
X114624000Y-51451000D01*
X117024000Y-51451000D01*
X117024000Y-53451000D01*
X117024000Y-53451000D01*
G37*
G36*
X111344000Y-53451000D02*
X108944000Y-53451000D01*
X108944000Y-51451000D01*
X111344000Y-51451000D01*
X111344000Y-53451000D01*
X111344000Y-53451000D01*
G37*
G36*
X119881000Y-53351000D02*
X117781000Y-53351000D01*
X117781000Y-51551000D01*
X119881000Y-51551000D01*
X119881000Y-53351000D01*
X119881000Y-53351000D01*
G37*
G36*
X124281000Y-53351000D02*
X122181000Y-53351000D01*
X122181000Y-51551000D01*
X124281000Y-51551000D01*
X124281000Y-53351000D01*
X124281000Y-53351000D01*
G37*
G36*
X105398000Y-51679000D02*
X103898000Y-51679000D01*
X103898000Y-50429000D01*
X105398000Y-50429000D01*
X105398000Y-51679000D01*
X105398000Y-51679000D01*
G37*
G36*
X107898000Y-51679000D02*
X106398000Y-51679000D01*
X106398000Y-50429000D01*
X107898000Y-50429000D01*
X107898000Y-51679000D01*
X107898000Y-51679000D01*
G37*
G36*
X116166000Y-48856000D02*
X114466000Y-48856000D01*
X114466000Y-47156000D01*
X116166000Y-47156000D01*
X116166000Y-48856000D01*
X116166000Y-48856000D01*
G37*
G36*
X123786000Y-48856000D02*
X122086000Y-48856000D01*
X122086000Y-47156000D01*
X123786000Y-47156000D01*
X123786000Y-48856000D01*
X123786000Y-48856000D01*
G37*
M02*
