M48
;DRILL file {KiCad 5.0.2-bee76a0~70~ubuntu18.04.1} date ma  3. helmikuuta 2020 17.56.54
;FORMAT={-:-/ absolute / inch / decimal}
FMAT,2
INCH,TZ
T1C0.0118
T2C0.0157
T3C0.0315
T4C0.0394
%
G90
G05
T1
X3.89Y-1.92
X3.9Y-3.95
X3.9Y-4.49
X3.92Y-2.42
X3.92Y-3.28
X3.93Y-2.18
X3.93Y-3.07
X3.9375Y-2.505
X3.98Y-2.02
X4.01Y-2.19
X4.04Y-4.28
X4.06Y-2.78
X4.06Y-2.98
X4.06Y-4.11
X4.07Y-3.9
X4.08Y-3.56
X4.08Y-3.75
X4.09Y-1.89
X4.11Y-2.44
X4.12Y-3.42
X4.12Y-3.64
X4.14Y-3.3592
X4.16Y-1.86
X4.16Y-3.5
X4.17Y-2.98
X4.17Y-3.1
X4.18Y-3.2
X4.2108Y-3.81
X4.23Y-4.34
X4.25Y-2.1
X4.25Y-3.73
X4.26Y-2.96
X4.32Y-1.9
X4.33Y-2.57
X4.33Y-2.89
X4.34Y-3.56
X4.34Y-3.92
X4.3476Y-2.365
X4.36Y-3.99
X4.4Y-4.45
X4.42Y-3.8
X4.425Y-2.15
X4.43Y-4.29
X4.44Y-4.39
X4.46Y-3.38
X4.46Y-3.98
X4.46Y-4.1
X4.46Y-4.55
X4.485Y-2.215
X4.485Y-2.51
X4.49Y-4.19
X4.5Y-2.88
X4.52Y-3.66
X4.52Y-3.84
X4.53Y-4.29
X4.59Y-4.14
X4.605Y-2.13
X4.615Y-2.1925
X4.62Y-2.26
X4.64Y-1.96
X4.65Y-2.43
X4.65Y-2.56
X4.66Y-3.18
X4.7Y-2.68
X4.71Y-2.23
X4.72Y-4.34
X4.74Y-2.57
X4.7421Y-3.4579
X4.76Y-3.06
X4.7706Y-3.8764
X4.78Y-3.14
X4.79Y-3.32
X4.79Y-3.81
X4.86Y-2.185
X4.86Y-3.99
X4.91Y-4.29
X4.93Y-3.2
X4.93Y-4.21
X4.95Y-2.25
X4.95Y-2.62
X4.95Y-4.
X4.96Y-2.03
X4.96Y-2.11
X4.96Y-2.36
X4.96Y-3.04
X4.96Y-3.52
X4.96Y-4.43
X4.97Y-3.76
X4.98Y-2.94
T2
X3.91Y-2.65
X4.11Y-3.88
X4.14Y-3.2608
X4.28Y-3.18
X4.28Y-3.43
X4.3092Y-3.81
X4.33Y-3.0508
X4.4289Y-2.5676
X4.45Y-3.1
X4.4708Y-3.19
X4.56Y-3.62
X4.5692Y-3.19
X4.58Y-3.38
X4.59Y-3.55
X4.62Y-2.7987
X4.64Y-3.76
X4.7Y-3.85
X4.74Y-3.33
X4.74Y-3.6308
X4.74Y-3.7292
T3
X4.01Y-3.153
X4.01Y-3.2317
X4.01Y-3.3104
X4.01Y-3.3892
X4.01Y-3.4679
X4.01Y-3.5467
X4.01Y-3.6254
X4.01Y-3.7041
X4.01Y-3.7829
X4.01Y-3.8616
X4.86Y-3.153
X4.86Y-3.2317
X4.86Y-3.3104
X4.86Y-3.3892
X4.86Y-3.4679
X4.86Y-3.5467
X4.86Y-3.6254
X4.86Y-3.7041
X4.86Y-3.7829
X4.86Y-3.8616
T4
X4.54Y-1.89
X4.84Y-1.89
X3.94Y-2.73
X3.94Y-2.83
X3.94Y-2.93
X3.94Y-4.05
X3.94Y-4.15
X3.94Y-4.25
X3.94Y-4.35
X3.99Y-4.49
X4.09Y-4.49
X4.19Y-4.49
X4.29Y-4.49
X4.58Y-4.49
X4.68Y-4.49
X4.78Y-4.49
X4.88Y-4.49
T0
M30
